<svg id="Layer_1" data-name="Layer 1" xmlns="http://www.w3.org/2000/svg" viewBox="0 0 202.29 82.68"><defs><style>.cls-1{fill:#0a1e60;}</style></defs><title>nav-logo</title><path d="M89.91,14.79a9.67,9.67,0,0,1-2,.24,4.81,4.81,0,0,1-2.9-.8A2.58,2.58,0,0,1,84,12V6H82.3V4.62H84V2.77l2.46-.18v2H90V6H86.43v5.64A1.92,1.92,0,0,0,87,13.18a2.68,2.68,0,0,0,1.74.46,7.87,7.87,0,0,0,1.19-.12Z"/><path d="M93.43,14.79V0h2.46V6.52a6.56,6.56,0,0,1,2.18-1.58,6.21,6.21,0,0,1,2.58-.56,4.58,4.58,0,0,1,2.8.82,2.71,2.71,0,0,1,1.07,2.28v7.31h-2.46V8.08a2.6,2.6,0,0,0-.25-1.4,1.51,1.51,0,0,0-.7-.52,2.46,2.46,0,0,0-1-.18,5.27,5.27,0,0,0-2,.42,6.63,6.63,0,0,0-2.3,1.8v6.59Z"/><path d="M119.41,14.46a19.34,19.34,0,0,1-4.29.57,7.49,7.49,0,0,1-5.05-1.6,4.87,4.87,0,0,1-1.84-3.77A5.08,5.08,0,0,1,109,6.93,5,5,0,0,1,111.17,5a7,7,0,0,1,3.08-.63,5.48,5.48,0,0,1,3.8,1.27,4.77,4.77,0,0,1,1.42,3.78V10h-8.72a4.31,4.31,0,0,0,.79,2.07,3.77,3.77,0,0,0,1.56,1.14,6.34,6.34,0,0,0,2.48.41,11,11,0,0,0,1.52-.1,18.5,18.5,0,0,0,2.32-.52Zm-8.55-5.85H117a2.66,2.66,0,0,0-.81-2.18,3.22,3.22,0,0,0-2.09-.66,3.32,3.32,0,0,0-2.27.71A3.18,3.18,0,0,0,110.86,8.61Z"/><path d="M18.19,76.87a27.46,27.46,0,0,1-5.91.79,10.59,10.59,0,0,1-4.76-1.07A7.94,7.94,0,0,1,4.26,73.8a7.13,7.13,0,0,1-1.1-3.92,7,7,0,0,1,2.38-5.42q2.37-2.17,7.35-2.17a29.91,29.91,0,0,1,5.08.47V65a23.3,23.3,0,0,0-4.85-.66A5.69,5.69,0,0,0,8.66,66a5.73,5.73,0,0,0-1.5,4,5.18,5.18,0,0,0,1.69,4,6.27,6.27,0,0,0,4.38,1.53,14.48,14.48,0,0,0,5-.93Z"/><path d="M32.36,77.66a12.63,12.63,0,0,1-4.86-.86,7.12,7.12,0,0,1-3.28-2.71A7.35,7.35,0,0,1,23,70a7.51,7.51,0,0,1,1.1-4,6.85,6.85,0,0,1,3.2-2.77,12.48,12.48,0,0,1,5.05-.93,12.72,12.72,0,0,1,4.88.85,7,7,0,0,1,3.27,2.71A7.35,7.35,0,0,1,41.72,70a7.62,7.62,0,0,1-1.12,4,7,7,0,0,1-3.21,2.76A12.22,12.22,0,0,1,32.36,77.66Zm0-2a5.52,5.52,0,0,0,4.13-1.48,6.62,6.62,0,0,0,0-8.38,5.59,5.59,0,0,0-4.12-1.47,5.56,5.56,0,0,0-4.11,1.47,6.7,6.7,0,0,0-.05,8.41,5.54,5.54,0,0,0,4.11,1.44Z"/><path d="M48.18,77.32V62.62h3.55v2.75a9.23,9.23,0,0,1,2.77-2.19,8.27,8.27,0,0,1,3.9-.89,7,7,0,0,1,2.23.31,5.66,5.66,0,0,1,1.73.88,4.66,4.66,0,0,1,1.39,1.89,9.06,9.06,0,0,1,2.75-2.21,8,8,0,0,1,3.81-.89,7.34,7.34,0,0,1,3.77,1,3.55,3.55,0,0,1,1.68,3.37v10.7H72.21V67a2.21,2.21,0,0,0-.82-2,3.26,3.26,0,0,0-1.84-.53,6.47,6.47,0,0,0-2.63.59,11.27,11.27,0,0,0-3.17,2.35v9.86H60.19V67a2.17,2.17,0,0,0-.83-2,3.44,3.44,0,0,0-1.87-.53,6.25,6.25,0,0,0-2.59.59,12.06,12.06,0,0,0-3.17,2.37v9.86Z"/><path d="M83.6,82.66v-20h3.55v2.75a6.91,6.91,0,0,1,2.72-2.31,8.67,8.67,0,0,1,3.79-.77,7.45,7.45,0,0,1,5.57,2,7.12,7.12,0,0,1,2,5.23,8.94,8.94,0,0,1-.91,4,6.92,6.92,0,0,1-2.84,3,8.58,8.58,0,0,1-4.37,1.13,19.79,19.79,0,0,1-2.55-.22,6.74,6.74,0,0,1-3.38-1.79v7Zm3.55-8.85A11.68,11.68,0,0,0,90,75.34a8.27,8.27,0,0,0,2.32.31A4.51,4.51,0,0,0,96.19,74a6.81,6.81,0,0,0,1.24-4.21A5.9,5.9,0,0,0,96.33,66a4.1,4.1,0,0,0-3.41-1.4,7.3,7.3,0,0,0-2.91.61A10.5,10.5,0,0,0,87.15,67Z"/><path d="M118,75.45a13.91,13.91,0,0,1-3.18,1.65,9.15,9.15,0,0,1-3.06.56,7.85,7.85,0,0,1-3.91-1,3.27,3.27,0,0,1-1.81-3q0-2.16,2.52-3.58t8.07-1.41h.84V66.85a2.47,2.47,0,0,0-.38-1.54,2.53,2.53,0,0,0-1.2-.75,6.75,6.75,0,0,0-2-.27,17,17,0,0,0-6.13,1.3V63.38a23.8,23.8,0,0,1,6.85-1.09,11.66,11.66,0,0,1,3.22.41,5.06,5.06,0,0,1,2.35,1.3,3.93,3.93,0,0,1,.88,2.85v6.66a3.35,3.35,0,0,0,.23,1.5,1.57,1.57,0,0,0,.66.59,2.29,2.29,0,0,0,1,.2h.68l.25,1.47a7.83,7.83,0,0,1-2.67.44,3.94,3.94,0,0,1-1.87-.48A2.72,2.72,0,0,1,118,75.45ZM117.51,74V70.2h-1.16a12.2,12.2,0,0,0-4.78.82c-1.29.54-1.94,1.27-1.94,2.2a2,2,0,0,0,1,1.62,3.75,3.75,0,0,0,2.22.67,7.62,7.62,0,0,0,2.32-.38A10.75,10.75,0,0,0,117.51,74Z"/><path d="M129.1,77.32V62.62h3.56v2.75a9.57,9.57,0,0,1,3.14-2.28,9,9,0,0,1,3.73-.8,6.49,6.49,0,0,1,4,1.18,3.92,3.92,0,0,1,1.55,3.28V77.32h-3.55v-9.7a3.82,3.82,0,0,0-.36-2,2.47,2.47,0,0,0-1-.75,3.66,3.66,0,0,0-1.39-.27,7.7,7.7,0,0,0-2.84.61,9.55,9.55,0,0,0-3.31,2.61v9.52Z"/><path d="M153,60V57.29h3.56V60Zm0,17.36V62.62h3.56v14.7Z"/><path d="M179.15,76.84a28.8,28.8,0,0,1-6.2.82,10.73,10.73,0,0,1-7.29-2.31A7,7,0,0,1,163,69.9a7.66,7.66,0,0,1,4.23-6.71,10.21,10.21,0,0,1,4.46-.9,7.89,7.89,0,0,1,5.49,1.82,7,7,0,0,1,2,5.47v.81h-12.6a6.27,6.27,0,0,0,1.14,3A5.59,5.59,0,0,0,170,75a9.29,9.29,0,0,0,3.58.59,16.15,16.15,0,0,0,2.2-.15,27.46,27.46,0,0,0,3.35-.75Zm-12.36-8.45h8.9a3.8,3.8,0,0,0-1.18-3.15,4.64,4.64,0,0,0-3-.95,4.81,4.81,0,0,0-3.27,1A4.64,4.64,0,0,0,166.79,68.39Z"/><path d="M185.34,76.8V74.35a17.6,17.6,0,0,0,6.07,1.3,4.78,4.78,0,0,0,2.53-.62,1.82,1.82,0,0,0,1-1.56,1.7,1.7,0,0,0-.51-1.14,5.67,5.67,0,0,0-2.33-1.12l-2.1-.66a9.44,9.44,0,0,1-3.5-1.74,3.07,3.07,0,0,1-1.11-2.39,3.52,3.52,0,0,1,1.72-3,9.07,9.07,0,0,1,5.09-1.17,30.87,30.87,0,0,1,4.07.33l.74.11V65a22.48,22.48,0,0,0-4.76-.67,4.82,4.82,0,0,0-2.58.55,1.6,1.6,0,0,0-.85,1.32,1.38,1.38,0,0,0,.58,1.07,6.26,6.26,0,0,0,2,1l1.72.54c2.3.73,3.77,1.45,4.39,2.17a3.33,3.33,0,0,1,.07,4.56A5.69,5.69,0,0,1,195,77.15a11.44,11.44,0,0,1-3.8.59A25.32,25.32,0,0,1,185.34,76.8Z"/><path class="cls-1" d="M28.49,51a54.15,54.15,0,0,1-6.41,1.37,37.7,37.7,0,0,1-4.25.23q-9.24,0-13.43-4.9A18.35,18.35,0,0,1,.2,35.26,20.45,20.45,0,0,1,2,26.44a13.82,13.82,0,0,1,5.59-6.15q3.73-2.23,10.13-2.23a46,46,0,0,1,10.71,1.26v5.35A40.85,40.85,0,0,0,22,22.85a25.81,25.81,0,0,0-3.73-.29q-5.78,0-8.32,3.73a15.68,15.68,0,0,0-2.54,9q0,5.79,3,9.21T18.9,48a14.06,14.06,0,0,0,2.75-.33V36.82h6.84Z"/><path class="cls-1" d="M36.15,51.74V18.88H43V51.74Z"/><path class="cls-1" d="M51.22,51.74V18.88h6.84v28.2H72.7v4.66Z"/><path class="cls-1" d="M77.67,51.74V18.88H91.81c3.79,0,6.74.6,8.85,1.82a13,13,0,0,1,5,5.36,18,18,0,0,1,1.88,8.56,20.69,20.69,0,0,1-1.79,8.77,14.38,14.38,0,0,1-5.21,6.11c-2.28,1.49-5.4,2.23-9.37,2.24Zm6.84-4.66h5.11a12.18,12.18,0,0,0,6.11-1.25,8.3,8.3,0,0,0,3.35-4.21,16.94,16.94,0,0,0,1.24-6.6,15,15,0,0,0-1.2-6.17,9.26,9.26,0,0,0-3.32-4.08c-1.42-.92-3.8-1.39-7.16-1.39H84.51Z"/><path class="cls-1" d="M113.73,51.74V18.88H126a13.78,13.78,0,0,1,5.75.94,7.13,7.13,0,0,1,3.12,2.86A8.38,8.38,0,0,1,136,27a9.79,9.79,0,0,1-1.66,5.45,10.66,10.66,0,0,1-4.71,3.92l10.76,15.34H132.1L123.93,38.3h-3.76V51.74Zm6.44-17.94h1.57q4.23,0,5.85-1.85a6.14,6.14,0,0,0,1.61-4.17,4.09,4.09,0,0,0-1.31-3.21c-.87-.79-2.65-1.18-5.34-1.19h-2.38Z"/><path class="cls-1" d="M145.1,51.74V18.88h21.05v4.53H151.94v9.14h11.75v4.53H151.94v10H167.2v4.66Z"/><path class="cls-1" d="M172.41,51.74V18.88h14.15c3.79,0,6.74.6,8.85,1.82a13.17,13.17,0,0,1,5,5.36,18,18,0,0,1,1.87,8.56,20.69,20.69,0,0,1-1.79,8.77,14.36,14.36,0,0,1-5.2,6.11c-2.28,1.49-5.41,2.24-9.37,2.24Zm6.84-4.66h5.11a12.24,12.24,0,0,0,6.12-1.25,8.38,8.38,0,0,0,3.35-4.21,17.15,17.15,0,0,0,1.23-6.6,15,15,0,0,0-1.2-6.17,9.26,9.26,0,0,0-3.32-4.08c-1.41-.92-3.8-1.39-7.16-1.39h-4.13Z"/><polygon class="cls-1" points="88.82 82.47 88.82 81.05 202.15 81.05 202.15 82.47 88.82 82.47 88.82 82.47"/><polygon class="cls-1" points="0 82.47 0 81.05 81 81.05 81 82.47 0 82.47 0 82.47"/><polygon class="cls-1" points="122.92 10.7 122.92 9.28 202.15 9.28 202.15 10.7 122.92 10.7 122.92 10.7"/><polygon class="cls-1" points="0 10.7 0 9.28 79.58 9.28 79.58 10.7 0 10.7 0 10.7"/></svg>