<?xml version="1.0" standalone="no"?>
<!DOCTYPE svg PUBLIC "-//W3C//DTD SVG 1.1//EN" "http://www.w3.org/Graphics/SVG/1.1/DTD/svg11.dtd" >
<svg xmlns="http://www.w3.org/2000/svg">
<metadata></metadata>
<defs>
<font id="dear_joehannesregular" horiz-adv-x="773" >
<font-face units-per-em="1000" ascent="750" descent="-250" />
<missing-glyph horiz-adv-x="232" />
<glyph unicode="ij" horiz-adv-x="482" d="M585 247q0 -9 -33 -62q-4 -18 -22 -33q-7 -10 -13 -20q-8 -3 -12 -5q-4 -7 0 -7q-4 -4 -12 -1l-1 -2q0 -2 -0.5 -6t-0.5 -9q-11 -8 -16 -13l-39 -26q-2 0 -5 1l-3 1q-3 -16 -35 -27q-3 -3 -5 -7l-15 -11l3 -49v-108q0 1 -3 -3q-2 -3 -3 -4l3 -5q-1 -11 -7 -17q3 -8 3 -15 q0 -6 -3.5 -22t-3.5 -20l5 -5v-8l-5 9q-7 -4 -5 -30q-5 -6 -15 -27l11 -7q-8 -5 -8 -13q0 2 -2 6q-3 -2 -6 -6q0 -4 1 -7q-4 -2 -8 -15q-8 -8 -13 -11h-17q-2 0 -6 4t-5 4q-2 0 0 -11q-1 3 -13 3h-20q-11 0 -24 5l-54 21l-13 12q-1 1 -22 10q0 3 -1 6q-13 3 -36 23l-38 36 q-1 4 -7.5 19t-6.5 17q0 3 5 21q4 -2 6 -2q0 1 2 7t2 9q-5 0 -5 -4l49 76q49 47 72 65q35 28 100 70q3 2 3 16l-5 93l-3 4q-24 -20 -50 -73l-2 -1q-2 -1 -3 -1q-4 -15 -12 -29q-20 -19 -25 -26q-7 -11 -28 -38l-12 -7q-18 -9 -31 -9q-35 0 -51 48q-3 2 -18 43q-7 17 -7 37 q0 9 5 31q-7 25 2 37q-3 12 4 32q8 20 11 31q2 27 11 39q-3 12 4 23v10q2 -3 4 -3q0 6 1 9q2 16 13 34q5 8 15 8q6 0 22 -14q16 -13 16 -20q0 -4 -3 -11q-8 -6 -18 -18q-31 -52 -41 -112q-9 -49 -9 -70q0 -28 12 -58q42 23 65 53q6 -1 10 4t4 9q6 0 7 -1q1 1 1 9 q27 33 79 106q5 5 20 25l19 35q7 14 10 26.5t5 29.5t5 29q11 34 27 96q15 -2 22 1l5 -5q-1 1 0.5 1.5t3.5 0.5l5 -4l6 -6q2 0 8 4t8 4t6.5 -1t5.5 -1h7l1 -4l1 -4q-3 -1 -8 -3q-13 -29 -25 -66q-8 -35 -15 -104q-2 -29 0 -47l-4 -7q3 -7 2 -21l-3 -37q0 -5 -0.5 -9.5 t-0.5 -7.5t-0.5 -5t-0.5 -3v-2v-54l70 47q3 5 65 53q8 3 12 5q4 13 13 20q0 -6 5 -6q1 1 -3 5q7 7 7 18q9 0 17 13q0 1 1.5 5.5t2.5 7t2.5 5.5t4 4.5t5.5 1.5t8 -2h2q7 -13 7 -30zM508 133l10 7l-2 3l-10 -7zM285 270l7 5l-2 3l-7 -5zM430 135l1 3l-8 3v-3zM366 -52l2 6 l-3 1l-2 -6zM294 -68q0 33 -1 37l-5 4l4 5h-8v-3q-10 -13 -25 -25q0 2 1 6l1 3q-5 0 -12 -12l-14 -18q-3 6 -5 6q-2 -4 -51 -56q-49 -53 -49 -83q0 -9 7 -27q1 -3 16 -9.5t19 -6.5q1 0 4 -0.5t8 -1t9 -0.5q5 0 9.5 -0.5t7 -1t3.5 -0.5q26 0 46 10q30 15 26 37l-6 4q0 1 7 12 q2 -2 6 -2q-1 1 0 4l2 4l-9 4v6q9 10 9 104zM209 -251q-10 -4 -14 -2q3 -7 9 -7q5 0 5 9zM458 615q-14 -2 -44 -9q-17 -7 -53 -18q-8 -2 -29 -10q-17 -7 -22 -7t-6 1q0 1 -4 0q-4 -2 -7 -5l-7 -4l-61 -19q-16 -10 -37 -14q-14 0 -30 4q-10 4 -24 13q-5 1 -8.5 5.5t-4 6.5 t-5.5 16q-5 20 25 29q59 15 76 18q8 2 30 5l3 -2l8 1q9 2 48 8q31 4 44 11l10 -7l7 6q7 -4 17 -3q2 0 2 3t3 3q2 0 5 -2.5t6 -1.5q3 0 7.5 2t6.5 2q18 2 29 -5q3 -2 8 -6q0 -3 4 -9.5t3 -11.5z" />
<glyph unicode="ff" horiz-adv-x="527" d="M557 663l-7 -10q-6 -10 -5 -17q-12 -14 -23 -30q2 -2 8 -2q-10 -25 -36 -76l-42 -48l-21 -26q-15 -18 -25 -21l2 -8q-26 -21 -45 -52q-6 -9 -7 -23q-1 -13 -4 -25q0 -6 7 -6h70q4 0 27 4q26 4 44 6v-17q0 -12 -21 -26q-19 -13 -30 -13q-2 0 -2.5 1.5t-2.5 1.5 q-6 0 -10 -7q-34 -5 -77 -21q-8 -3 -8 -11t32 -49q2 -14 1 -15q7 -3 11 -16l6 -19l14 -15q8 -13 10 -56q0 -7 6 -11q-1 -7 4.5 -27.5t5.5 -24.5q0 -7 -3 -13l7 -4q2 -5 -1 -14q6 -12 9 -27q0 -5 -4 -30q8 -10 8 -28q0 -10 -2 -18q-6 -16 -6 -37q0 -30 -1 -36q-4 -10 -17 -59 q-4 -25 -33 -58q0 6 -2 8q-6 -6 -26 -8h-12q-4 0 -6 1q-8 5 -21 18q-2 0 -2.5 -1.5t-2.5 -1.5q-5 0 -20 17l-2 2q-5 0 -5 -3q1 6 -4.5 13t-12.5 7q-4 0 -5 -1l-11 20q0 7 -3 19q-14 36 -14 47q0 4 2 10l-1 1q-2 1 -4.5 2.5t-3.5 3.5q-4 7 3 25q4 9 -9 16q0 13 -3 17v2l4 6 q4 5 4 8q0 6 -12 18l-7 23q2 0 7 -5q1 -1 4 2q-2 8 -10 7q0 4 7 11l-11 12q2 0 7 -5q17 12 -3 20v42q1 0 5 -3q11 56 9 91l-6 16l3 16l-4 3q0 5 7 30q7 27 7 32q0 1 -3.5 9t-3.5 13q3 23 2 28q-3 1 -5 2q-12 0 -31 -14q-3 -3 -25 -17q-20 -5 -47 -17q-2 -7 4 -34 q-4 -3 -9 -11q-4 -17 -4 -24q0 -2 5 -8t5 -8q5 -17 -4 -36q-2 -5 4 -7q0 -2 -2.5 -11t-2.5 -11q1 -1 1 -11h-3q0 -1 5 -33q6 -28 6 -33v-3q-1 -4 -2.5 -11.5t-2.5 -15.5l-5 -41q-9 -97 -13 -167q0 -17 -3 -49l3 -41q-1 -1 -2.5 -2t-3.5 -5.5t-2 -9.5l-6 6q-3 0 -19.5 1.5 t-21.5 1.5q1 2 1 6q0 11 -28 32q-1 6 5 25q-11 9 -11 16q6 6 6 8l-5 5q0 1 2 22l-4 4q-3 -3 -3 -7v19q0 -1 3 -4q4 4 4 12q0 2 -3.5 10.5t-3.5 11.5v75q0 30 -4 39q4 9 -1 25q0 -3 3 -6q5 4 0 12l5 9v16q0 3 -1 10q-2 8 0 14q2 8 6 14q0 3 -1.5 11.5t-3 16t-1.5 9.5t1.5 4 t3.5 4l2 1q2 18 5 27t2 25q-1 19 0 26q5 11 9 32q1 22 0 41q4 -3 4 3q0 15 -25 64l26 25q8 5 22 21q11 24 24 70q1 11 8 40q5 18 7 35q0 7 8 13q-4 2 -5 2q3 22 12 31q-3 19 5 46q7 9 14 24q2 7 -4 8q5 19 20 52l2 17q3 14 10 15q0 6 -5 1q5 6 8 27q5 0 11.5 -1.5t17 -3 l17.5 -2.5q5 0 30 -12q23 -11 34 -9l7 -2q7 -3 9 -3q0 -2 -2 -22l22 -24q2 -6 2 -15q0 -10 -14 -30q-3 -10 -17 -45q-20 -41 -60 -87q-9 -9 -25 -21q0 -11 -16 -24q2 -9 -14 -23q-20 -20 -21 -23q-5 -11 -8 -25l-6 -29v-7q2 -2 5 -2q2 0 6.5 1.5t7.5 4t3 3.5q26 7 24 15 q6 -2 9 -5q28 20 91 72q2 14 11 30q11 29 21 81q1 0 3 -1t3 -1q2 6 2 28q1 1 3 3.5t4 6t6 9.5q6 14 7 26l6 4q5 23 23 51l17 19q0 4 5 14q5 5 16 6q0 7 6 21q5 2 33 19l-2 -6q-2 -2 2 -2q1 0 22 -1.5t28 -1.5q5 5 1 8q24 -18 29 -22q2 -2 11 -13t12 -14zM220 -12l4 -2l-4 -7 l-4 2zM473 623h-12q-3 -3 -8 -9t-8 -9.5t-7 -6.5t-8 -3q7 0 5 -5q-8 -15 -31 -68h10q0 8 17 22q2 5 22 22q1 3 1.5 12.5t0.5 13.5q8 12 18 31zM244 593v19q-8 5 -10 22q-2 9 -10 16q-12 -15 -31 -82q-19 -66 -19 -82q0 -10 8 -10v13l4 -3q3 0 10 16q15 26 42 63q1 10 0 14 q6 5 6 14zM385 -72q0 4 -6 38q-1 9 -2.5 18.5t-2 13.5t-0.5 5q1 2 4 7q-3 14 -2 16q-5 12 -5 25q-3 6 -5 8q0 12 -16 27q2 4 -3 24q-9 11 -20 40q1 2 -0.5 3t-5.5 1q-3 -3 -5 -7.5t-2 -7.5t-0.5 -9.5t-0.5 -8.5q-3 -29 -12 -83q0 -34 -8 -42q3 0 8 -5v-83q0 -39 14 -103 q2 -8 14 -38q7 -18 17 -22l2 10q2 8 0 10q3 3 8 5l11 22q2 25 12 26v10q-3 0 -5 2q1 1 3 1q3 1 4 1q0 7 1 15v17q-2 10 -6 14q9 22 9 50zM249 -193h4v10h-4v-10z" />
<glyph unicode="st" horiz-adv-x="657" d="M774 235q-18 -3 -38 -7q-28 -5 -29 -5q-2 0 -4 3t-4 3l-19 -4q-19 -4 -26 -4q-3 0 -12.5 2.5t-11.5 2.5t-1 -2.5t-2 -2.5t-3 2q0 3 -4 3q-14 0 -37 1q-10 0 -19 0.5t-13.5 1t-5.5 0.5q-2 0 -5 -4t-5 -4q-3 1 -16 -1q-38 -20 -38 -35q1 -14 -2 -82l3 -8q-7 -18 -7 -32 l9 -61l-4 -13q0 -17 16 -53q0 -2 -5.5 -7.5t-5.5 -7.5q0 -3 3 -7q-30 9 -49 22q-46 30 -82 37q-9 35 -9 43v30q4 -3 9 -3q-2 5 -1 79q0 6 9 44q5 23 29 59q7 1 14 8q12 77 12 88q0 1 -3 19t-3 25l-4 4q-22 -24 -48 -55q-7 -9 -47 -66q-20 -22 -29 -33q-25 -29 -25 -47 q0 -4 7 -22q10 -25 10 -27q-1 -5 -1 -18q5 -13 5 -22l-1 -1l-3 -6q-2 -4 3 -6q0 -1 -1 -5t-3 -13.5t-4 -18.5l-16 -27q-17 -9 -51 -35q-2 0 -12 -1.5t-13 -1.5q-8 0 -16 3t-12 7l-4 3q-2 0 -3 -1t-3 -1t-6 3.5t-6 3.5q-4 0 -4 -5q-22 37 -31 37q-2 0 -6 -1l-4 -1q1 46 0 49 q20 39 44 61q8 6 25 30q16 22 16 26q0 2 -2 4t-4.5 5t-3.5 5l7 4l-9 5q-1 2 -4.5 8.5t-5.5 10.5q-7 13 -19 22q-61 -112 -90 -112q-14 0 -14 22q0 10 3 20q8 24 26 53q-1 4 3 16l8 19q6 16 3 20l3 4q3 4 3 7q0 30 -9 30l-6 -2q1 3 1 10t-5 16t-10 15.5t-5 7.5q0 10 14 21 q13 6 27 17q7 -13 9 -13t3 1.5t4 1.5q2 0 8.5 -4t8.5 -4t11 5t11 5q3 0 18 -19q0 -13 12 -27q-2 -7 -1 -15q21 -31 50 -85l12 -13l25 17q4 3 6 11q29 12 69 69q27 27 26 35q-2 0 -0.5 0.5t11.5 3.5q17 21 33 43l42 64q0 13 1 23q1 9 9 24q1 0 7.5 6t9.5 6q2 0 5 -1t6 -1 q2 0 9 4t9 4t4.5 -3t5.5 -3q2 0 12 5.5t13 5.5q2 0 9 -3t9 -3q0 -19 4 -27q1 -3 1 -7q-26 -13 -34 -46q-9 -45 -11 -62q-5 -34 -8 -58q0 -14 -3 -32l-5 -25l8 -2q12 -5 17 -5q1 0 9 2.5t13 2.5q6 0 45 -7q42 -6 45 -6q2 0 6 -1.5t6 -1.5q23 0 48 -7q-1 -3 1 -5q1 -1 72 -10 q3 -6 11 -14zM203 58q3 34 -3 49q-13 -21 -23 -65v-5q9 4 26 21z" />
<glyph unicode="ab" horiz-adv-x="814" d="M743 238q0 -2 -3 -7.5t-3 -6.5l-6 -46q0 -2 2 -8t2 -7q-4 -20 -22 -72q0 -6 0.5 -11t0.5 -8.5t0.5 -5.5t0.5 -3v-1q-2 -4 -8 -19q-1 -18 -15 -47q-12 -25 -14 -36q0 -8 -9 -13h-7q-2 2 -5 -1l6 -15v-11l-8 8h-5q-2 -8 2 -21q-2 2 -4 2q-13 -25 -17 -25q-2 0 -3 1t-3 1 q-6 0 -3 -3l-4 3l-2 -8q-10 -9 -27 -9l-34 18q-36 17 -62 62q-21 37 -27 81q-3 8 -6 27l-9 10l-54 -59q-39 -40 -67 -40q-15 0 -26 17l-22 19l-19 30q-10 16 -21 44l-4 19q1 19 -6 52q-4 0 -7 -4q-3 -5 -5.5 -9.5t-5 -8t-3.5 -5.5q-12 -12 -36 -44l-22 -25q-9 -14 -15 -20 q-10 -12 -21 -15q-27 -8 -30 -8q-14 0 -38 25q-20 20 -24 28q-8 18 -8 21t-0.5 10.5t-1.5 13.5l-1 7q0 19 15 62l13 22q3 10 12 26h4l125 169q0 -2 5 -2q1 0 4 4.5t6.5 9.5t5.5 6q19 13 22 13q2 0 14 -1t13 -1q7 0 23 8t20 8q8 -1 39 1q10 5 18 8q2 -3 13 -11q-3 -22 2 -32 q-4 -2 -8 -6q0 -3 -1 -7.5t-3 -11t-3 -11.5q-11 -13 -27 -42q0 -7 -3 -17q-5 -7 -13 -27l-6 -30q-6 -8 -11 -19q-7 -48 -7 -73l2 -13q2 -12 1 -15q-1 -29 18 -84q3 -7 18 -12l58 59q3 0 5 2q2 9 8 15l34 54q19 12 25 39q2 6 5 43q6 31 11 61q-1 5 -1 24l6 21l24 116q3 1 4 4 q12 39 13 44q2 12 6 29q9 22 43 73q3 5 3 10q12 4 24 7.5t17 5.5l5 1q1 0 14.5 -5.5t15.5 -5.5t3.5 1t3.5 1q8 0 15 -9q0 -1 -6 -7q3 -8 5 -12q8 -8 26 -36q0 -9 1 -17q6 -5 6 -10q0 -6 -8 -16q0 -2 6 -8q-6 -8 -15 -17q3 -4 6 -14q-13 -29 -28 -59q-7 -7 -11 -13 q-7 -27 -27 -53v-2q-1 -2 -1.5 -6t-0.5 -9q-2 -2 -5 -6t-7 -9.5t-8 -9.5q-3 -15 -5 -21q-5 -2 -7 -5q-4 -12 -12 -24l-14 -22q0 -7 -3 -17l-28 -44q-17 -28 -15 -48l-1 -4q-1 -4 -1 -6q0 -42 6 -76q8 -27 14 -53l12 -24q10 -22 17 -22q13 0 34 34q4 13 10 27q5 8 45 95l6 16 q1 0 4 3q2 9 11 42q2 2 3 5l4.5 13.5t8.5 24.5h3q0 2 -3.5 11.5t-3.5 12.5q1 9 1 38q-4 18 -5 23l-15 39q7 -2 11 -2q2 0 11 3t11 3q6 0 14 -7q18 -32 22 -59v-10zM667 -55l3 -1l-3 -6l-2 2zM644 517v3q-1 2 -1.5 6t-0.5 9l-3 24q1 1 1 18l-33 -18q-15 -8 -41 -73l-5 -6 q-12 -42 -31 -136q0 -1 -4 -15.5t-4 -16.5v-13q14 17 36 39q1 5 35 56q4 14 16 40q4 2 8 9q-1 4 4 11q0 1 5 8v8q9 8 14 20q4 7 4 27zM701 200l3 5l-3 1l-3 -5zM682 174l3 6l-3 1l-3 -5zM265 374q0 20 -27 20q-2 0 -6 -2l-4 -1q-2 5 -6 9q-14 -8 -45 -42q-1 0 -1.5 1t-2.5 1 q-11 0 -57 -70q-5 -8 -2 -17l-6 -6q0 -2 -7 -15q0 -9 -1 -15q-7 -8 -14 -23l-15 -51q-9 -30 -9 -52q0 -29 19 -29q2 0 90 82q1 5 8 15q11 11 15 11q2 4 14 22q10 6 16 11q11 17 19 35q5 40 10 67q0 1 3.5 6t3.5 7l-1 21q6 19 6 15z" />
<glyph unicode="ap" horiz-adv-x="779" d="M711 221q0 -3 -3 -28l-4 -40q-3 -5 -8 -20q-4 -29 -12 -45q-14 -36 -34 -49q-2 -4 -9 -11l-6 -4q-6 -3 -13.5 -7t-12.5 -4q-2 0 -15 4t-16 4q-11 2 -11 -1q0 -2 3 -5q-5 5 -7 5q0 1 1 2l-34 24q9 0 9 5q0 2 -6 11t-6 12l11 15q9 20 30 52q21 28 28 35l41 34q0 10 1 17 l-6 2l5 6q-15 106 -57 106q-7 0 -46 -44q0 -1 -0.5 -2.5l-1 -3t-0.5 -3.5l-10 -8q-10 -23 -24 -71l-1 -7q-1 -7 -3 -23.5t-4 -35.5l-6 6q-22 -76 -20 -152q0 -2 1 -8.5t1 -8.5q-1 -19 -1.5 -73t-0.5 -79q-2 -37 -4 -49q-2 -11 0 -48q4 -43 4 -62v-60q0 -1 -4.5 -10.5 t-3.5 -15.5q-3 -4 -12 -4q-20 0 -37 27q-8 7 -23 25q-7 10 -7 23q0 2 6 15t6 17q11 91 11 161v187q0 15 -4 51l-2 3q-2 4 -3.5 8.5t-1.5 8.5q0 1 -5 13q-26 -23 -63 -23q-35 0 -78 51q-16 -17 -8 -25q-11 3 -19 -14q-2 -5 -7 -22l-21 -21q-1 -4 -8 -16q-13 -17 -33 -34 l-42 -27q-29 -17 -48 -17q-20 0 -32 16q-21 28 -27 34q1 4 -0.5 11.5t-3.5 15t-2 8.5q0 58 59 144q25 36 44 81q13 8 29 34q22 35 28 41l19 18q13 13 9 22q-2 0 -2 -3q14 15 30 37q-5 -11 -4 -17q16 10 44 20q0 4 3 14l23 -15q22 -13 31 -13q2 0 3 1.5t4 1.5q4 0 13 -10 q14 -15 17 -17q3 -5 0 -11q7 -10 7 -16q0 -7 -11 -13l4 -4q3 3 9 3q4 -4 -2 -10q2 -4 17 -11q2 -8 -20 -23l-28 -21l-2 -4q-1 -3 -3.5 -11.5t-5.5 -16.5q-9 -30 -9 -38q0 -64 14 -64h11q2 0 16 17t17 17q4 0 5 -2q4 2 -1 13q15 8 19 14q7 19 22 45q11 11 21 31q11 21 16 26 q16 22 37 43q26 26 31 26q3 0 2.5 -3t1.5 -3q3 0 14 8t13 8q13 7 44 7q6 0 25 -9q22 -9 29 -15q7 -4 26 -31l12 -6q38 -74 38 -119zM635 164v10q-6 -1 -24 -22q-16 -19 -16 -24q0 -7 19 -19q21 49 21 55zM623 120l7 7l-3 3l-7 -7zM592 98q-1 10 -6 25q-11 -13 -10 -28z M303 362l-16 16q0 -8 -6 -8q-3 0 -11 4t-10 4q-23 0 -98 -112q-67 -98 -73 -118q-24 -72 -23 -83v-9q17 3 39 22q3 0 3 -1.5t3 -1.5q8 8 35 30q22 39 51 61l6 -12q11 13 20 27q4 11 2 33q0 9 -0.5 16.5t-0.5 11.5l-1 4q0 5 9 56q2 -4 2 -6q4 4 -1 10q18 41 31 45q-6 6 -2 10 q2 -1 4 -5q0 1 2 5l10 -8q2 0 12 4.5t13 4.5zM207 188h4l-6 -20l-4 2z" />
<glyph unicode="ar" horiz-adv-x="787" d="M833 141q0 -19 -21 -50q-13 -19 -41 -47l-44 -44q-15 -9 -29 -19q-26 -24 -66 -39q-18 -6 -19 -6h-8q-14 0 -44 27q-23 20 -34 37q-3 6 -3 13l-8 13q6 3 8 5q0 7 -5 7l7 5l-7 5q0 76 21 140l15 41q0 11 3 27q-2 2 -3 1q4 4 4 9l-3 1q3 13 0 20q2 1 -1 4q-2 0 -6 -4 l-7 -28q-13 -24 -23 -56q-20 -66 -50 -117q-29 -51 -85 -116q-1 -3 -34 -12q-7 -7 -12 -7q-9 8 -22 15q-3 2 -7.5 6t-5.5 4l-26 19q-7 6 -21 27q-4 5 -2 13q3 12 3 16q-2 2 -10 2v15q-4 0 -7 -3q0 -1 1.5 0.5l5.5 5.5q-2 1 -4 15q0 1 -1 3t-2 4.5t-1 4.5q4 16 -14 51 q-9 -3 -21 -22q-10 -18 -17 -21q-4 -13 -30 -43l-14 -9q-59 -60 -96 -60q-15 0 -39 24l-24 27q-2 6 0 11q-8 6 -8 17l1 1q1 1 3.5 6t5.5 9q-1 7 3 25q2 11 5 16.5t10 12.5t10 11q0 7 6 16q24 36 51 69l2 8q7 14 31 38q2 5 0 6l36 46q23 28 37 36q26 17 50 17q2 0 2.5 -1.5 t2.5 -1.5t4 1.5t3 3.5l1 2l31 6q3 -2 6.5 -3.5t6 -2.5t2.5 -2l13 -5q7 8 13 20l15 4q3 3 15 9q26 8 50 -15q9 -8 5.5 -15.5t-10 -11.5t-17.5 -13t-17 -20q-7 -7 -21 -35q-3 -21 -12 -59q-1 -3 -10 -7q5 -5 4 -14l-4 -14q-12 -77 -12 -91q0 -43 6 -89q2 -10 21 -29 q19 9 55 61q0 -4 3 -5q6 7 16 24q3 9 4 18q7 4 13 13q12 20 32 78q6 5 16 23q3 14 17 63l14 15q-8 23 4 26q0 15 21 73q4 9 4 15t4 26.5t4 24.5q1 25 13 38q2 1 33 20h1h1l1 1h1h1h1h1h2l1 1h1h1h1l25 5q2 0 4.5 -2t4.5 -5t3 -4q0 -3 -4.5 -6t-7.5 -1l-4 -4 q-12 -54 -12 -100v-21q4 -15 29 -54q19 -31 19 -48q0 -37 -10 -63q-1 -4 -26 -59q1 -2 -1 -8q-9 -17 -16 -43q-16 -63 -16 -81q0 -4 8 -20q8 -14 15 -14q16 0 75 36l49 34q42 32 78 78q4 4 4 11q3 3 11 3q14 0 14 -15zM237 136l3 7l-3 1l-4 -7zM243 298q0 8 -6 20 q-12 -5 -13 -5q-3 0 -6 4q2 2 2 6q-15 -7 -27 -14q-17 -18 -34 -33q1 -1 1 -6q-4 -4 -18 -22q-52 -67 -53 -86q-15 -21 -18 -32q-7 -10 -12 -30q-2 -12 13 -8q8 2 21 9q38 21 46 28l13 19l17 11q-2 8 9 20l14 14q2 2 11 18l9 4l14 28q11 21 14 39z" />
<glyph unicode="as" horiz-adv-x="678" d="M609 368q0 6 -15 -81q-5 -5 -9 -13l1 -27v-49q0 -6 2 -52q0 -10 0.5 -19t1.5 -13v-4v-71q0 -1 -2.5 -7t-2.5 -8q5 -56 -27 -122q-4 -9 -5 -17q-6 -13 -11 -13h-21h-1q-2 1 -8 3l-12 4q-37 11 -52 20q-8 7 -32 25q-22 42 -40 42q-4 0 -6 -3l2 6q-2 2 -5 2t-28 -13 q-26 -14 -41 -14q-50 0 -84 49l-46 80h-7q-43 -48 -51 -56q-31 -28 -55 -30q-12 11 -34 39q-20 34 -20 45q0 33 6 50l49 106q28 53 47 82q20 26 44 50q18 12 35 4q16 -7 27 4q14 -11 43 -6l5 -3q5 -2 8 -2q14 -15 18 -31q5 -16 -11 -73q-8 -17 -26 -78q-11 -39 -11 -75 l3 -11q1 -22 11 -46q12 -31 29 -31q10 0 32 15q9 5 25 17q6 0 13 4q38 26 70 64l33 56q3 4 25 32q23 36 23 77q0 2 -18 132q0 4 -5 22q-4 12 -4 19v14l11 4l-3 4q4 -4 17 -10q0 2 -0.5 6t-1.5 8l-1 4h8q3 0 13.5 -10.5t12.5 -10.5q3 0 4 1.5t3 1.5q17 0 27 -16q2 2 11 2 q8 0 11 -3q8 -20 24 -54q1 -2 1 -22zM517 65q0 2 -1.5 14.5t-1.5 16.5l3 4h-12q-58 -65 -58 -94l3 -7q18 -6 24 -6q8 0 40 27q3 52 3 45zM138 241l-40 -66q-33 -59 -33 -83l2 -8v1l5 -6l12 20l12 4q2 3 16 20.5t22 26.5q33 38 33 52q0 30 19 33q-1 16 3.5 36t4.5 25 q0 4 -3 8q-7 5 -24 -17q-14 -25 -29 -46z" />
<glyph unicode="at" horiz-adv-x="670" d="M701 394q-6 -3 -14 -14l-6 7q-4 -6 -15 -16l-6 6l-13 -13l14 -9q0 -5 -6 -11l-31 -12q-18 0 -24 -15q-16 -19 -27 -19q-4 0 -4 1q0 2 -4 2q-3 0 -7 -7.5t-5 -7.5l-65 -39q-14 -7 -19 -27v-27q0 -20 2 -30q10 -8 15 -13q1 -3 23 -44q16 -28 15 -38q3 -3 9 -13q-1 -2 -1 -6 t7 -16t7 -15q-1 -13 2 -45l12 -41q8 -27 8 -30q0 -12 -12 -32h-13q-7 0 -87 89q-3 -1 -4 0v2l4 5q-6 91 -58 194q-2 -12 -5 -20l-32 -55q0 -12 -1 -21q-3 -6 -10 -27q-2 -19 -20 -34.5t-35 -15.5q-15 0 -63 64q-2 2 -11 3q-3 4 -10 18t-11 18l-38 -69q-36 -59 -49 -59 q-21 0 -34 11q-7 7 -22 29q-8 8 -16 13q-1 4 -2 11l-11 47q0 1 3.5 11t2.5 14q-5 69 20 105q1 2 -1 8q9 26 28 56l-5 -18q-3 -10 -9 -11l4 -5q13 8 27 35q5 10 10.5 20t7.5 14l2 4q2 2 -1 5l-31 -40q32 60 70 95q2 -8 5 -10q2 2 2 9q33 8 47 -3h8q3 8 13 22q21 -7 26 -7 t9 3.5t6 3.5q3 0 12 -3.5t11 -3.5q0 -2 1.5 -9t1.5 -10q0 -2 -11 -35q-10 -30 -10 -35q0 -6 8 -14q1 -1 -2 -8q-15 -14 -15 -66q0 -30 9 -55q2 0 5 -3q8 9 10 9q-2 -7 -9 -18q0 -5 4 -9q12 16 10 30q0 -8 6 -18q0 4 2.5 8.5t4.5 7.5l3 3q0 3 -4 6q15 10 16 44q0 12 -7 30 t-13 22q2 3 20 25q37 26 69 43q4 7 4 22v24q2 14 7 18q-4 23 -4 27l9 52l12 31q6 2 11 5q0 7 -1 8l-7 -6q12 43 38 109q6 10 3 10l-5 -3q2 6 16 27q0 -12 10 -18q17 -10 22 -14q6 -10 14 -17q-7 -6 -23 -29q0 -16 -5 -61q-7 -16 -13 -37q-7 -32 -7 -60q0 -1 3 -15 q2 -10 0 -15q10 -6 20 -6q3 0 15 3.5t14 3.5q3 0 15.5 5t15.5 5l68 10q43 8 53 22q-6 -10 -6 -20q0 -6 6 -16q3 0 8 4t6 4q3 0 8 -4zM337 195h4l-3 11l-5 -1zM209 297l3 3l-5 5l-3 -3zM151 340l4 12h-4l-4 -10zM133 319l7 15l-4 1l-7 -14zM211 280q0 3 -6 13.5t-6 11.5 q5 6 4 7l-8 10q-20 -4 -52 -39q-27 -31 -45 -69q0 -3 -2 -21q-9 -20 -18 -62q-5 -35 -5 -41q0 -2 0.5 -4t1 -3.5t1.5 -2.5v-2q16 7 47 31l-5 7q4 3 11 -1q-3 6 4.5 11t8.5 10l2 2l8 2q7 8 16 22q0 5 5 17q40 50 34 93q4 1 4 8z" />
<glyph unicode="ay" horiz-adv-x="814" d="M800 212q-5 -8 -17 -22q0 -4 4 -8h2q-17 -17 -50 -51q-35 -36 -39 -60q-10 -9 -24 -25q0 -10 -1 -17q-1 0 -4 -3q1 -6 1 -27l-5 -10q0 -15 -4 -46q-3 -36 -3 -41q0 -4 -3 -17t-3 -16q1 -4 1 -17l-5 -12q0 -3 2 -3h-7q0 -7 -8 -31.5t-6 -33.5q0 -2 -7 -17q-4 -2 -8 -6 q-1 -4 2 -7q0 -5 -1 -10l-6 -4q-6 -3 -10 -6q-3 -11 1 -20q-3 -9 -5 -13l-1 1q-2 0 -2.5 -0.5l-2.5 -2.5t-4.5 -6t-6.5 -11q-8 -14 -8 -21q0 -3 2 -7q-7 -18 -12 -18h-16l-3 -8q0 -4 6 -9q-10 -3 -25 -3q-9 0 -35 14l-10 6t-8 5t-5.5 3.5t-3.5 1.5l-2 1l-21 4q0 9 -3 32 q0 7 -0.5 12.5t-1.5 8.5v3q0 2 4 9t4 10q0 1 4 15t4 19q0 7 -5 14q5 23 17 51q5 11 47 97q8 13 91 137q3 5 3 12q0 2 -5 17t-6 19l-45 -41q-31 -26 -51 -26q-2 0 -14.5 6t-13.5 6q-3 0 -3 -1l-2 -1q-4 0 -20 16q-15 16 -18 16l-34 -26q-34 -26 -61 -26q-56 0 -115 75 q-3 0 -7 -7q3 -12 -40 -70q-42 -58 -58 -58q-2 0 -6.5 -1.5t-6.5 -1.5q-3 0 -29 12q-4 -1 -15 2q-55 42 -55 84q0 10 21 70q23 63 31 79q5 11 29 57q0 2 2 10l21 30q33 42 78 103q3 0 8 -5q6 2 19 2q3 0 3 7q14 -7 16 -7t6.5 4t6.5 4q3 0 2.5 -2.5t1.5 -2.5t12.5 1t12.5 1 t11 -5t12 -5q2 0 2 1q0 2 3 2q2 0 12.5 -7.5t12.5 -7.5h5q1 -1 3 -1q0 -9 -1 -10q6 -13 6 -12q0 -1 -4 -13t-4 -17q5 5 10 5v-14l-8 2q-8 0 -10 -12l-15 -72q-9 -35 -13 -57q-6 -50 -6 -62q0 -44 21 -44q11 0 46 33l36 34l5 -2q0 3 -3 6q2 2 10 12t11 13.5t9.5 12t9 13 t6.5 11.5t5.5 13t1.5 12q6 1 12 19l8 24q4 4 -1 10q13 6 39 15q10 0 33 3l26 -33q-3 -1 -13 -7q-22 -17 -31 -36.5t-22 -65.5q-9 -36 -9 -43v-7q2 -2 5 -2q9 0 36 39l27 40l29 22q0 7 -5 2l20 23q-2 2 -5 2q5 7 11 20l6 147l-4 3l6 40q8 33 13 33q2 0 5 -2.5t5 -2.5l12 8 q0 -5 8 -13q4 0 4 8q10 -13 17 -13q12 0 23 8q6 -4 22 -16q1 -1 -2 -10q2 -4 8 -5q0 -1 4 -7t4 -8q0 -12 -17 -31q0 -5 -4 -12q-4 -3 -13 -12q-11 -29 -12 -57q-1 -5 -1.5 -19t-0.5 -21q1 -19 0 -55q0 -2 -3.5 -7.5t-3.5 -7.5q4 -39 7 -39q2 0 4.5 -1t4.5 -1q7 0 45 28 q4 3 12 14q1 -4 -1 -4l4 -3q6 12 14 12q0 -7 6 -7q8 0 26 7zM608 -277h4l-3 -12h-4zM229 317q-3 1 -9 1q-21 -21 -42 -53q33 28 51 52zM181 287q-7 -6 -16 -16v-11q12 12 16 27zM603 -83q0 7 -6 23q-8 -5 -15 -13q0 -2 -7 -22q-9 -6 -13 -10q-3 -6 -25 -49q-2 -1 -8 -1 q-1 -21 -35 -82q1 -3 1 -10q-4 -13 -28 -45q-1 -4 -1 -18q0 -16 3 -21h9q0 5 2 7q2 -2 2 -10h11q4 2 8 6q-11 43 -5 57l5 -5q0 -15 6 -33q7 -22 18 -22q2 0 6 2q3 1 4 0q11 22 34 78q14 57 23 88v22q1 16 6 37zM207 237q0 9 -4 13q-30 -26 -62 -58q-22 -28 -33 -53 q-28 -65 -28 -90q0 -5 4 -9q25 27 72 85l4 15l6 3q41 91 41 94z" />
<glyph unicode="be" horiz-adv-x="716" d="M790 192q0 -29 -25 -69q-21 -35 -35 -47l-5 -12q-14 -8 -59 -39l-31 -17q-26 -14 -32 -26q-26 -5 -49 -17q10 -6 18 -7q-21 0 -40 1t-30 1q-14 0 -39 36q-22 31 -23 41q-13 49 -25 117v0v0h-1v0h-1h-1h-1h-1h-1h-1h-1h-1h-1h-1h-9q-5 0 -39 15q-35 15 -38 15 q-4 0 -15 -20l-11 -22q-32 -44 -40 -78l-15 -15l-2 -12l-21 -46q-20 -36 -18 -54q-7 1 -38 -1q-24 36 -50 70q-93 116 -93 282q0 5 5 13q2 18 2 42q0 31 13 61q14 34 14 47q5 7 16 25q5 12 6 25q6 2 9 5l-1 4q33 97 97 155q23 5 60 -25q24 -19 44 -46q0 -19 12 -28 q-1 -7 2 -25q3 -17 3 -18q0 -10 -14 -29q-9 -30 -33 -68q-29 -46 -35 -65q4 -6 17 -16q16 -6 44 -31l38 -36q6 -1 18 -8q35 -23 55 -23q6 0 7.5 1.5t-0.5 4.5q11 -5 25 -12q8 8 13 15l11 36q25 48 31 58q4 5 5 21q4 37 45 76q62 -29 84 -70v-13q0 1 -1 -3l-3 -6v-82 q0 -1 -3 -6q-1 -2 -2.5 -10t-6.5 -24q-8 0 -12 -2q-19 -18 -81 -58q-6 -24 -6 -59l6 -37q8 -2 14 -8q8 3 25 12q-3 -6 -8 -17q-2 -2 1 -4q6 6 12 6q3 0 3 -3t2 -3t8 4.5t8 4.5t2 -3t3 -3l23 14q56 31 58 33q37 24 57 47q0 -1 -1 -5.5t-1 -7.5q-2 0 5 -5q1 1 6 19q3 14 10 14 q2 0 3 -1.5t3 -1.5q4 0 18 17l23 28q17 -8 17 -22zM242 565q0 15 -16 41q3 12 -16 36q-10 8 -16 8q-5 0 -10 -3l-2 -1q0 -12 6 -17q3 -3 3 -5l-15 -33q-2 -12 -11 -48q-7 -13 -31 -62l-36 -132q0 -3 -1.5 -7t-3 -9.5t-2.5 -10.5l4 -26q6 18 14 34q7 7 17 22q0 4 2 14 q6 5 25 25q4 12 20 45q15 12 19 16q17 23 40 66q0 2 3 21zM209 264q0 32 -8 48q-3 8 -13 8q-26 -39 -58 -92q-33 -56 -33 -61q0 -30 13 -52q9 -16 28 -19l21 23q9 12 23 45l6 21l9 7q-6 6 -6 8q18 39 18 64zM552 306q-8 18 -18 -4q-7 -9 -22 -37l-5 -15q7 0 33 23 q18 19 12 33z" />
<glyph unicode="bl" horiz-adv-x="662" d="M759 260q0 -21 -31 -73q-13 -23 -41 -67q-19 -35 -63 -76q-43 -37 -67 -46q-5 -1 -22 -12t-19 -11h-33q-2 0 -4 2.5t-4 2.5q-9 0 -37 28q-11 4 -23 16l-10 36q-10 15 -23 44q1 4 3 11q-1 7 -9 7q5 5 5 17q0 14 -4 57q-2 5 -6 11q1 -3 1.5 1t2.5 18q-2 28 -2 62l-4 8 q-12 -4 -24 0q-5 -5 -6 -13q-6 -3 -12 -8q1 -6 -1 -33q-9 -22 -12 -36q-1 -4 -3.5 -16.5t-3.5 -20.5q0 -2 -4.5 -7t-4.5 -7q1 -6 -2 -22q-10 -16 -18 -19q-3 -4 1 -11q3 1 3 6q0 -5 -3 -19q-3 -2 -7 -13q-3 -8 -9 -10.5t-7 -3.5q2 -2 8 -2q-28 -63 -58 -82q-1 -3 -10 -12 q-23 -14 -49 -14q-38 0 -79 59q-32 48 -38 75q3 75 1 79l38 299q2 13 8 28q17 70 22 90l7 8q0 9 8.5 24t18.5 23q1 2 1 8l4 2q5 1 8 1q5 0 32 -10q29 -9 32 -9q2 0 6.5 3t7.5 3q5 0 48 -26q-4 -12 3 -33q-3 -3 -7 2q-4 0 -9 -5q-5 -33 -15 -82q-13 -41 -55 -135l-6 -6 q-2 -12 -7 -19q-40 -57 -63 -120q-9 -22 -9 -84q0 -28 7 -66q7 -43 19 -55q28 9 51 48q2 0 5 3q0 16 18 30q9 13 19 41q25 69 25 100q0 8 -10 29l-42 91q8 6 18 11q4 1 29 1q1 0 6 -5q9 3 31 -2q31 -7 39 -7l41 12q26 13 67 48q24 82 46 149q14 25 12 33q1 0 6 1l5 2 q2 2 -3 7q11 21 54 57q11 9 15 9q2 0 7.5 -4t7.5 -4q3 0 6 1l3 2q9 9 2 9l43 -36q3 0 11 8q0 -5 -2 -7q9 -20 40 -21q8 -9 18 -11q4 -9 20 -18q11 -8 11 -16q0 -9 -1 -10q-23 -36 -38 -57q-39 -45 -106 -86q-2 -3 -1 -4q-8 -8 -18 -10q-3 -1 -6 -10l-19 -15q-15 -12 -19 -12 q-2 0 -4 1t-3 3v1l-3 -15q-2 -2 -9.5 -8.5t-8.5 -8.5q-7 -10 -9 -19q-22 -96 -30 -154q1 -1 1 -14l-3 -3q6 -1 1 -14v-2q2 0 5 -3q-3 -5 -3 -10t6.5 -23.5t6.5 -22.5h2q1 -1 3.5 -1.5t4.5 -0.5t3 2.5t4 2.5t5 -3l1 -2l38 31q1 1 16 1l5 5q0 4 -5 4q0 7 3 10q-2 0 6 -8 q2 2 2 11q4 1 14 0q1 6 8 18q5 5 14 7l147 152l8 -4q12 -32 12 -37zM612 565q0 3 -0.5 4t-2.5 0q4 6 0.5 13t-9.5 7q-26 0 -50 -52q-12 -36 -19 -53l17 6q3 10 6 10q6 0 6 -3q9 16 27 37q25 4 25 31zM174 527q0 4 -1.5 13t-1.5 11l-4 -1q-4 -2 -6 -2q1 -7 -4 -22l-5 -30 q0 -2 -5 -11t-5 -11l3 -11q-8 -23 -6 -37q11 12 15 28q1 2 1.5 8t0.5 9q8 11 15 27l-1 30q2 2 4 -1zM445 127h5v8h-5v-8zM469 4l3 3l-4 4l-3 -3z" />
<glyph unicode="bo" horiz-adv-x="681" d="M647 230q0 -8 -12 -58q0 -2 -2 -16q-14 -39 -39 -74q-29 -41 -53 -55l-6 -9q-1 0 -8 -3t-10 -3q-13 0 -22 4q-17 5 -45 37q-28 34 -28 51q0 28 3 40q8 36 28 98q3 7 -2 16q7 1 12 14l9 21v7q-2 1 -14 1q-3 0 -31 -5q-23 -4 -26 -7q-1 -9 -5 -27q-3 -16 -11 -21 q5 -5 4 -13q-4 -17 -22 -48q-16 -30 -25 -45q-15 -27 -28 -40l-2 -8q-6 -5 -19 -15q3 -6 -5 -11q-24 -3 -24 -18q0 -4 1 -6q-17 -4 -29 -19q-8 0 -14 -1l-6 -15q-15 -7 -44 -12q-4 -7 -11 -12q-31 -16 -56 -16q-2 0 -12 -3t-12 -3q-23 0 -38 12l-15 23q-1 1 -6 5.5t-7 7 t-4.5 8t-2.5 12.5q0 39 114 138q-5 2 -13 8q-19 24 -31 42q-2 6 0 11q-6 13 -6 24t7 19q0 1 -1.5 6t-1.5 7q0 3 2.5 12.5t2.5 11.5q5 32 2 71l3 15l1 9q-1 27 10 96q0 2 2 24q6 12 11 27q-1 3 -1 16q5 3 9 13q1 13 13 56q0 1 13.5 12.5t15.5 18.5q15 2 22 9l12 -9l-21 -53 l-15 -77q-4 -61 -5 -74l-2 -6q-2 -6 -2 -8l2 -87l4 -4q60 39 80 49q27 12 73 12q15 0 52 -28q3 -2 35 -41l44 6q25 4 32 4q37 0 62 -9l14 -15q14 -13 22 -13q3 0 3 1.5t3 1.5q16 0 47 -22q4 -3 14 -17q11 -20 11 -51zM586 207q0 21 -9 38l-3.5 7t-4.5 8t-4.5 6t-5.5 4.5 t-6 1.5q-27 -42 -33 -71l-14 -76q0 -2 -3.5 -6.5t-3.5 -6.5q0 -14 9 -18l27 28q51 79 51 85zM329 313q-5 19 -15 27q0 30 -12 41q-24 1 -52 -17q0 -2 -7 -15q-15 -12 -22 -19q-48 -72 -70 -126l6 -6q23 5 73 47q2 0 10 2l77 53q2 3 12 13zM311 245q-19 -5 -50 -24 q-25 -18 -61 -40q-1 -2 -14 -17q-2 0 -4 -1.5t-5.5 -3t-6.5 -2.5q-45 -31 -62 -52l-31 -47q17 -4 63 19q18 13 28 21q28 17 35 24l43 43q6 1 18 8l12 23q19 23 31 30q1 6 4 19z" />
<glyph unicode="ca" horiz-adv-x="707" d="M773 167q0 -12 -1 -13l-8 -13v0l1 -12q-18 -48 -58 -106q-48 -66 -83 -66q-20 0 -29 6q-41 27 -87 132q-2 0 -4 -2q-18 -33 -59 -82q-7 -9 -29 -22q-8 -5 -16 -5h-8q-6 0 -11.5 2t-11.5 7t-11 10t-11 13t-10 13.5t-10.5 15.5t-9.5 14l-85 -60l-3 -12q-2 -5 -6 -5l-6 6 l-3 -3q0 -5 6 -5l-62 -25l-11 2q-10 1 -23 0l-4 4q-34 2 -59 36q-14 19 -22 33q-7 19 -9 34q0 5 -1.5 23t-1.5 19q0 88 20 116q-2 10 10 45q11 34 19 48q-1 3 2.5 9.5t10.5 21t12 30.5q5 5 10 14q1 0 11 25q8 18 18 25q16 11 18 11t14.5 -4t14.5 -4l4 4q16 -5 27 -24 q1 -1 3 -1q3 0 3 3q25 -12 62 -37q2 -5 -1 -11q5 -1 9 -9q7 -29 7 -42q0 -9 -5 -16q-3 -19 -5 -67q-22 -16 -38 -16q1 0 0 0.5t-4 2.5t-7 4.5t-10.5 6.5t-13.5 8l-13 18l-6 2l-14 24q0 2 3 20q4 17 4 22q0 9 -5 18t-10 9h-2q0 -1 -2 -1t-2 2q-1 1 -2 1q-13 0 -33 -29 l-12 -11l-18 -34q-4 -18 -25 -65l-11 -86q0 -9 3 -10q1 -4 1 -18q-2 -29 12 -57q15 -32 39 -32h5l2 3q68 17 132 81l8 3l60 66q0 8 3 23l52 136q3 16 5 22l16 22l2 -4q1 0 8.5 10t12.5 10q8 -3 25 -9l7 -9l6 6l1 -3q1 -3 3.5 -5t6.5 -2h11q1 -1 4 -3q4 -3 3 -3q1 0 2.5 1 t3.5 1t4 -1.5t3.5 -5t2.5 -6t2.5 -7.5t2.5 -7h9q2 2 2 10l16 -8q1 0 10.5 3t11.5 3q18 0 18 -22q0 -2 -4 -10q-2 -7 2 -15q-10 -5 -11 -10q-6 -15 -6 -31v-65q0 -60 13 -126q2 -10 12 -33q14 -27 23 -27q1 1 6 3t13 8l10 5q19 16 26 28q16 24 30 43q0 -3 1 -4l22 37 q8 11 8 13q0 8 -3 14l17 12q2 2 3 14q7 7 12 14q13 -6 13 -30zM493 240q-3 -4 -6.5 -8t-6.5 -7t-5.5 -6t-4.5 -5t-3.5 -4t-2.5 -3l-2 -2l-1 -1v-1q-1 0 -2 1t-3 1q-3 0 -35 -38q-28 -33 -35 -45q-2 2 -6 2q-6 -25 -6 -46q0 -18 4 -23h6q9 0 21 13q21 21 60 74l21 44q2 2 5 0 l-2 4q9 17 4 50z" />
<glyph unicode="ce" horiz-adv-x="593" d="M663 240q0 -21 -18 -66q-17 -41 -23 -49q-22 -21 -66 -74l-63 -48q-12 -2 -19 -7q-50 -12 -80 9l-44 45q-9 -6 -49 -36q-29 -22 -33 -22q-3 0 -2 2.5t-1 2.5q-81 -38 -95 -38h-24q-8 0 -37 12q-5 0 -12 4q-42 30 -59.5 61t-17.5 79q0 1 1.5 16.5t1.5 20.5q7 7 8 32l11 16 q6 10 7 26q3 2 8 9q17 41 42 78q12 17 35 42q17 12 40 35q7 3 20 11q28 28 102 28q2 0 8.5 -6t8.5 -6q7 -1 23 -7q8 -5 8 -19q0 -15 -14 -15q-2 0 -6 2.5t-6 2.5q-4 0 -38 -14q-47 -20 -77 -52q-11 -8 -55 -63q-60 -107 -60 -169q0 -54 34 -54q21 0 59 13q37 12 56 24 q13 8 30 9l1 3q1 3 3 5t4 2t1 -2.5t2 -2.5q1 0 6 5t7 5q4 0 4 -2q-1 -2 0 -3q9 7 12 15l4 -3q4 -3 6 -3l1 11q0 2 -3 7t-3 6q-8 46 -8 65q0 3 21 84q1 1 4.5 5.5t6.5 7.5q15 35 52 90q32 38 60 60q2 2 35 14q3 1 8 3l14 7q2 0 4 -4t5 -4q2 0 3.5 1.5t3.5 1.5q1 0 8 -5 q2 1 7 1q8 0 22 -9q16 -14 21 -16q4 -7 4 -11q0 -2 -1 -4t-2 -3l-1 -2q1 -3 1 -6q-2 0 -3 1q-2 1 -3.5 -13t-0.5 -23q-6 -8 -4 -18q3 -9 -20 -53q-23 -23 -21 -37q-8 -12 -33 -45q-1 -6 -6 -15q-13 -13 -28 -32l3 -8q-8 -11 -17 -12q-1 -6 -25 -27q-23 -20 -23 -22 q0 -8 7 -18t11 -10h12q8 0 36 17l28 17q2 0 17 7q6 9 10 13q47 33 44 42q0 -3 4 -3q0 3 3 11q10 7 26 26q4 12 17 38q0 1 8 7q5 5 4 12q2 1 5 2l1 1q0 1 2 6.5t4 10.5l6 4q4 -2 11.5 -15.5t7.5 -17.5zM527 357v14q-6 0 -10 4q5 2 8 10q-6 6 -11 6q-9 0 -29 -14q-1 -4 -8 -14 q-15 -12 -23 -24t-21 -42l-39 -85q-1 -7 -2 -18l-5 -30q0 -13 -1 -28q31 42 85 100q11 12 32 58q24 50 24 63z" />
<glyph unicode="ch" horiz-adv-x="810" d="M950 280q0 -3 -4 -23q-2 -9 -12 -21q0 -2 -1 -4.5t-4.5 -8.5t-6.5 -14q-2 -1 -11 -14l-3 -13q-10 -11 -28 -37q-7 -14 -25 -29q0 -4 -4 -11q-14 -17 -26.5 -29t-16.5 -16q-6 -3 -20 -17q-34 -29 -48 -37q-22 -13 -43 -13h-13q-12 0 -36 15q-6 8 -12 14q-16 16 -38 69 l-8 31q2 6 0 17l-5 16q0 1 2.5 9t2.5 10v-1v0v0v0v0v1v0v1v1v1v1v1v1v1v1v1v1v1v1v1v1v1v1v1v1v1v10l2 5q1 4 1 6q0 13 -5 28h-2q-2 -3 -5.5 -12t-8 -19t-9.5 -20q-10 -18 -21 -58l3 -11q-1 -1 -13 -30q-8 -16 -6 -27q-1 -1 -4 -16q-1 -10 -4 -10q-2 0 -3 1l-1 1q-2 -1 0 -6 q2 -6 2 -7q0 -13 -11 -57q-7 -9 -14 -24h-6q-3 0 -16 10q3 3 1 7q-4 -4 -11 -4q-5 0 -37 42v12l-4 7q0 14 -9 62q1 -1 1 -0.5t1 4.5q-1 23 0 99l-3 6q-1 -1 -9 -7.5t-14 -13.5t-10 -16q-1 0 -8 -7.5t-7 -10.5l-1 -1q-1 0 -3 -1.5t-4 -2.5v-4q-1 0 -8 4l-3 -12l-35 -38 q0 2 -2 4q-3 -7 -18 -17q-15 -11 -15 -18q-2 2 -5 2q-2 0 -1 -2t-1 -2q-3 0 -3 1v1q-3 -1 0 -9q-5 -5 -13 -6q-6 -10 -16 -20l-48 -25q-2 0 -1.5 2t-1.5 2q-1 0 -10.5 -4t-11.5 -4t-2 1q-1 1 -2 1q-2 0 -3 -2t-3 -2t-10.5 1t-10.5 1l-13 7q-11 4 -25 10q-1 1 -4.5 5.5 t-6.5 7.5q-52 51 -52 107q0 32 15 69l42 69l4 12l27 37q2 3 56 57q2 0 10 -2q5 7 15 8q5 1 28 1q16 0 27 -17q0 -4 -1 -7q13 -16 13 -23q0 -5 -6.5 -16t-9.5 -12l-21 -18q-4 -3 -19 -3q-1 0 -6 1t-6 1q-2 0 -15 -11q-20 -20 -51 -77q-3 -12 -12 -36q-13 -30 -13 -48l1 -9 q1 -10 2 -20.5t1 -14.5q8 -8 11 -8h10q10 0 62 37q6 0 11 1l10 9q5 0 8 1q33 26 56.5 45.5t34 28.5t9.5 9q2 0 2.5 -1t2.5 -1q2 7 9 8l1 2q-1 6 12 16q11 7 15 11t7 10.5t5 9.5q19 16 34 42l8 16q11 39 13 75l6 25q-1 5 1 27q13 50 28 83q-1 3 -1 12l13 56q1 9 10 7v21 q11 -4 48 -7q16 -12 30 -8l3.5 -10.5t1.5 -6t1.5 -3.5t4.5 -5q-7 -13 -7 -17q0 -6 7 -20q4 -12 7 -17v-17q0 -13 7 -17l-6 -6q1 -5 -1 -25l-42 -89q-13 -18 -42 -65q-2 -2 -3 -18q-1 -28 -12 -81l6 -3q11 8 21 27l15 30l7 13l9 6q-1 7 6 22.5t8 18.5q1 0 4 3q12 16 27 46 q6 6 13 6q2 0 4.5 -2t4.5 -2q1 0 14 3t15 3l22 -14l6 -3q0 -8 3 -26q4 -16 4 -20q0 -9 -11 -67q-3 -9 -6 -20q-2 -9 -7 -77l-3 -8q2 -65 20 -65q1 0 14 7t17 8q13 5 38 23l36 28l59 58l5 8q5 9 7 9t4 -3l2 -2q2 5 -3 7q19 27 38 52q8 9 16.5 20.5t14 17.5t11.5 8 q26 -14 26 -27zM257 356l5 -5l-2 -2l-5 5zM539 479q0 9 -6 34l-2 2q0 1 1 6t1 7h-12q-3 -20 -12 -61v-32q2 2 11 19q2 0 4 -3q2 9 6 19q2 -2 5 -2z" />
<glyph unicode="cl" horiz-adv-x="709" d="M758 114l-2 -4q-1 -3 -4.5 -10.5t-8.5 -18.5t-12 -27t-15 -35q1 2 -0.5 3t-4.5 1q-5 0 -17 -20q-3 -1 -3 -4q1 -2 4 -2q1 0 15 11q-13 -13 -15 -13q-1 0 -5 2q0 -1 -0.5 -3t-1 -5t-0.5 -6l-34 -30q-20 -17 -23 -17l-3 1q1 3 0 4l-2 -5q-3 -4 -5.5 -7.5t-4.5 -3.5 q-3 1 -3 2q1 1 0 3q-19 -19 -29 -22q-32 -8 -43 -8q-2 0 -8 -1.5t-9 -1.5q-42 0 -94 35q-11 6 -28 19q0 1 -0.5 2.5t-0.5 3t-0.5 4t-0.5 4.5q-3 4 -6 4q-1 0 -5 -2l-11 21q1 3 1 13q-8 5 -17 14q2 0 7 -5q2 0 6 4q-30 17 -36 58v34q-2 -4 -2 -5l-1 -1q-1 0 -3 -1.5t-4 -2.5 v-4q-1 0 -8 4l-3 -12l-35 -38q0 2 -2 4q-3 -7 -18 -17q-15 -11 -15 -18l-2 1q-1 1 -3 1t-1 -2t-1 -2q-3 0 -3 1v1q-3 -1 0 -9q-5 -5 -13 -6q-6 -10 -16 -20l-48 -25q-2 0 -1.5 2t-1.5 2t-11 -4t-11 -4q-3 0 -3 1l-1 1q-2 0 -3 -2t-3 -2t-11 1t-10 1l-13 7q-11 4 -25 10 q-1 1 -4.5 5.5t-6.5 7.5q-52 51 -52 107q0 32 15 69l42 69l4 12l27 37q2 3 56 57q2 0 10 -2q5 7 15 8q5 1 28 1q16 0 27 -17q0 -4 -1 -7q13 -16 13 -23q0 -5 -6.5 -16t-9.5 -12l-21 -18q-5 -3 -19 -3q-2 0 -6.5 1t-5.5 1q-2 0 -15 -11q-20 -20 -51 -68q-30 -59 -25 -93l1 -9 q1 -10 2 -20.5t1 -14.5q8 -8 11 -8h10q37 0 95 47q21 17 65 55q33 28 31 29q2 0 2.5 -1t2.5 -1l2 3q1 3 7 5l1 2q-1 6 12 16q18 12 19 16l3 6l2 32q1 16 14 62l5 5q-2 2 -5 2l11 47q5 16 18 54q5 3 9 13q3 32 19 65l44 87q5 11 21 21q0 -2 8 16l5 -11q2 4 2 14q0 5 22 30 q23 26 28 26q2 0 3 -1.5t3 -1.5q7 0 11 10q7 -4 28 0q20 -3 38 -14l9.5 -9.5l15 -15l16.5 -16.5q-5 0 -5 -9q-6 1 -14 8h-1v-4q0 -3 15 -18l-13 -11q0 -4 5 -4l-9 -34q-8 -23 -17 -35q-7 -38 -45 -73q-2 -5 5 -5q-3 -1 -13 -11q-4 -12 -15 -31q-6 -4 -15 -15q-3 -10 -5 -16 q-3 -2 -11 -16l-51 -84q-24 -36 -34 -40q5 -3 12 -2q-3 -5 -13 -6l-19 -24l-2 -3q-2 -4 -5.5 -9.5t-8.5 -10.5v-19q0 -6 -3 -9v-53q4 -2 7 -5q0 -23 7 -57q13 -44 47 -61q19 -10 37 -10q19 0 65 24q2 1 12 10l9 10q3 0 5 -3q2 2 2 10l14 9l11 6q4 2 2 5l55 55q30 32 48 63 q1 3 1 11q9 0 19 -13q6 -8 6 -19zM601 535v32q-4 2 -5 18q-10 6 -22 6q-13 0 -54 -59l-4 5l-1 -18l-6 3q-7 0 -5 -17q-7 -11 -7 -14q-4 2 -6 2q4 -7 2 -13q-13 -27 -24 -57l-4 -7q-3 -10 -16 -85q-1 -5 -5 -14t-7 -16t-3 -8q0 -4 3 -7q2 -4 2 0h3q0 10 5 10q13 31 28 37 q-3 3 0 7h8q0 14 9 19q-2 7 4 14q9 11 22 24q2 2 0 5q6 8 18 18q1 4 0 8q10 12 18 27q5 -5 9 -5v18q12 5 18 11q-3 3 -7 4q0 -5 -5 -10q-3 3 -1 4q1 7 9 19q2 -2 6 -2q-2 11 6 22q2 9 12 19zM234 320l5 -5l-2 -2l-5 5z" />
<glyph unicode="co" horiz-adv-x="792" d="M522 333l4 -2l-4 -7l-3 2zM810 290l-6 -25q-15 -22 -66 -22q-26 2 -37 0q9 -24 9 -53q0 -1 -3 -16.5t-3 -20.5q0 -13 6 -17q0 -14 -10 -44q-9 -31 -15 -31q-2 0 -3.5 2t-3.5 2q1 -2 1 -6q0 -7 -26 -42q0 6 -2 8q-5 -8 -5 -10q1 -4 1 -8q-8 0 -10 -2q-1 -9 -12 -21 q-2 0 -14.5 -7t-15.5 -7l-10 2q-7 2 -12 0l-7 -2q-8 -2 -11 -2q-11 0 -24 6q-33 13 -73 80q0 33 -18 44l-16 -18q0 5 4 14q-1 1 -6 1t-15 -25l-17 -19q9 14 13 24q-7 0 -14 -13l-9 -15l-35 -34q-16 -14 -55 -34q-67 -37 -110 -37q-33 0 -54 12q-18 9 -61 49q-2 2 -7 15 q-13 24 -17 48q-6 28 -6 72l6 20q1 4 3 13l14 56q15 37 29 67l22 47q13 28 35 42l3 4q2 2 -2 8l18 11q0 -14 0 -12l14 19l-3 5q3 4 15 9l5 -5q15 4 20 15q10 2 27 11q19 10 33 10q4 0 10 -2q3 2 3 13q46 -19 46 -43q0 -2 -1 -6l-1 -4q-1 -7 -7 -7l-3 -2q-7 -37 -15 -57 q-29 -32 -37 -32q-2 0 -3.5 2.5t-4.5 2.5q-8 0 -18 -10q-1 1 7 14q0 8 13 38q0 3 -4 4q3 14 -13 27q-14 13 -25 13q-23 0 -46 -22q-22 -22 -18 -44q-11 -19 -16 -32q2 -8 7 -9q-9 -17 -10 -39q-2 -17 -11 -43.5t-9 -30.5q0 -7 3 -11l-6 -62q-4 -36 -4 -43l3 -10 q0 -74 41 -74q5 0 33 11q28 12 32 16q9 3 35 21q10 6 34 15l8 11l39 28q23 19 39 40q7 8 24 16q4 4 4 16q5 0 8 6l39 40q0 3 3 10q21 11 36 39l24 53q0 -5 3 -7q9 16 30 48q0 4 -5 4v7q6 2 9 5q2 7 7 13q12 9 19 9q2 0 6.5 -3t6.5 -3t1.5 3t2.5 3q38 -28 57 -58 q38 -25 49 -28q20 -5 44 -8q29 -3 31 -3q0 6 4 6q16 0 32 -9zM644 135v24l-3 3q-4 25 -2 37l-13 4q5 5 5 6q-3 4 -8 16q-5 6 -7 6t-2.5 -1.5t-2.5 -1.5l-2 2q1 1 1 5t-8.5 18t-9.5 17h-9q-12 -30 -29 -80q-18 -52 -21 -93q0 -2 1.5 -8.5t1.5 -7.5v-1q-1 -1 -2 -3t-1 -4 q0 -1 4.5 -3t4.5 -5q0 -5 -9 -18q4 -13 11 -22q45 17 67 51q7 8 19 28q9 16 9 33q1 0 5 -2z" />
<glyph unicode="cr" horiz-adv-x="688" d="M252 421l3 -7h-4l-3 5zM252 411v-6h-4v6h4zM766 195q0 -54 -73 -112l-80 -65q-5 0 -9 -1q-3 -7 -38 -25q-34 -18 -50 -18q-17 0 -29 12q-7 6 -25 27q-1 4 -16 33l-1 19l1 3q0 3 0.5 8t0.5 11q3 21 3 30q3 3 5 9q3 16 28 74q2 1 7 6l20 32q14 22 13 33q1 3 5 6t4 8 q0 15 -45 40q-41 22 -54 22q-3 0 -8 -5l4 -10q0 -4 -4 -9l-1 -37q-3 0 -5 2q-7 -8 -9 -27q0 1 -1 2t-1 3q-7 -9 -15 -31q1 -4 1 -16l-16 -32q-6 1 -12 -15q-1 -2 -1 -3q3 -5 -1 -12q-11 -20 -27 -55l-8 -4q-17 -31 -33 -52q-16 -20 -37 -41q-33 -33 -39 -33q-4 0 -7.5 -2.5 t-4.5 -2.5q-17 -20 -22 -20l-4 4q-7 0 -1 -6l-25 -10q-2 0 -2.5 1.5t-2.5 1.5q-6 -5 -12 -7q-2 0 -8.5 2t-7.5 2q-7 0 -33 21t-29 26q-12 21 -23 43q0 7 -4 19q3 4 3 10q0 2 -3.5 12t-3.5 12q-3 35 -2 43l-3 3l-1 2l5 25l7 36q7 22 21 80l5 5q0 8 3 25q5 8 17.5 31.5 t20.5 36.5q6 15 14 28q10 17 34 36q22 19 33 19q3 0 20 -11q25 -14 29 -15q3 -5 12 -13l-3 -1q2 -3 8.5 -9.5t11.5 -12t5 -7.5q0 1 -12 -24l-6 -5h-4q-3 0 -19 6q-15 7 -19 7q-1 0 -8 -1.5t-9 -1.5l-42 -50q1 -1 -2 -10q-15 -28 -40 -91q-23 -97 -23 -115q0 -59 41 -97 q5 -5 17 -5q-1 0 4 4q5 -1 7 -1q22 0 57 45q17 13 43 48l5 -5q1 3 0 13q25 31 35 52q0 -6 3 -8q1 2 3 15q-3 -3 -3 2q7 7 20 21l-6 5q11 1 21 39q2 -2 4 -2l5 18l7 4q10 24 10 42q0 2 -4 8l-3 5q1 -1 2 0.5t1 3.5q0 1 -1.5 9.5t-3 18.5t-1.5 15q-3 2 -12 11l-6 16l-10 14v17 q1 -1 15 10q6 6 34 6q22 0 43 -10l2 -6q2 2 2 5q193 -82 193 -156q0 -18 -15 -42q-8 -7 -21 -27q-19 -29 -41 -66q-6 -10 -18 -57q0 -1 -4 -7.5t-4 -9.5q0 -11 12 -11q2 0 6 3t6 3q20 3 59 31l36 33q7 6 30 19l4 13q1 0 5 -4q4 8 23 28l16 10q13 8 14 18q4 1 11 11t9 10 t3.5 -1t2.5 -1q-1 7 4.5 16.5t13.5 8.5q7 -17 7 -34zM322 149l3 9h-3l-3 -8z" />
<glyph unicode="cu" horiz-adv-x="684" d="M772 211q0 -49 -17 -81l-11 -38l-20 -31q-13 -25 -34 -49q-25 -28 -25 -30q-4 -1 -23 -13q-17 -13 -25 -13h-19q-24 0 -55 39q-2 3 -12 31q-11 30 -15 40q-2 -5 -7 -14q-4 -2 -14 -18q-1 -6 -9 -15q0 -3 -4 -3q-2 0 -3 1l-1 1q-2 -4 -11 -19q-23 -16 -31 -16h-12 q-11 0 -33 19q-20 19 -27 34l-27 69q-6 -7 -3 -13q-4 -4 -7 -4q2 2 2 4l-5 3l-6 -13q-16 -4 -11 -14q-2 3 -6 2l-10 -19q-2 -1 -7 -3q-4 -5 -17 -18q-43 -33 -50 -33l-6 2q-10 -16 -18 -16q-3 1 -8 4l-5 -7q-12 -4 -23 -4q-1 0 -12.5 3t-15.5 4q-35 5 -63 42q-24 32 -33 71 q-3 13 -3 40q0 89 45 157q24 44 40 55l10 15q26 29 31 29q2 0 2 -1q1 -1 2 -1t2.5 2t3.5 4l1 3l22 -1q2 0 9.5 3t8.5 3q15 0 30 -7q6 -6 21 -16q6 -11 6 -19q2 0 6 -3q0 -11 1 -20q0 -2 4 -10t4 -10q0 -21 -7 -36q-8 -5 -9 -5t-5.5 1t-6.5 1l-4 -3h-1q-2 -1 -7.5 1t-7.5 2 q-7 0 -56 28q0 5 1 6t-3 3l-4 2q3 9 8 33l5 3q4 7 4 16q0 1 -1 5t-1 5h-2q-1 1 -4 1q-6 0 -10 -4q-13 -16 -22 -26q-1 -13 0 -19q-3 -18 -10 -29q1 -1 1 -6q-13 -18 -18 -33q-1 -5 -7.5 -25.5t-11.5 -41t-7 -36.5q-1 -6 -1 -16l-2 -15q0 -18 4 -38l4 -8q1 -9 11 -27 q11 -23 22 -23q-4 0 4 2l7 1q17 5 71 42l43 42q2 1 11 6l3 6q3 3 4 5q23 18 59 67q7 7 20 25q-1 3 -1 16q13 45 22 81q3 22 5 30q10 29 27 46l12 9q46 -25 52 -25q4 0 6 1h7q-3 -1 -1 -5q3 -3 9.5 -10.5t9.5 -11.5q1 -1 1 -9q0 -4 -7 -16.5t-8 -17.5q-8 -26 -22 -48 q-17 -26 -26 -44q-5 0 -24 -31q-9 -46 -9 -81l5 -43l2 -1q2 -1 4 -1t4.5 2.5t5 6t3.5 4.5q10 8 19 25q13 23 13 25q23 28 47 77q3 14 16 37q-1 8 7 33q0 1 7 2l12 17q2 -5 6 -5q1 0 2 2t3 2t5 -3t4 -3q8 0 23 3q6 -18 6 -19l-2 -5q-2 -5 -4.5 -11t-2.5 -8q1 -9 -1 -50 q-3 -31 -11 -81v-52q2 -15 9 -43q13 0 17 4q21 21 66 86l54 79l13 29q7 12 19 23h7q8 -10 8 -36z" />
<glyph unicode="da" horiz-adv-x="768" d="M836 181q0 -5 -1 -10v-12q0 -1 -8 -15q0 -6 -1 -11q-48 -112 -114 -112q-46 0 -105 69q-3 0 -7 -6q3 -11 -36 -64q-38 -53 -53 -53q-1 0 -5 -1t-6 -1q-1 0 -17.5 5.5t-22.5 6.5q-49 44 -55 44q-8 0 -15 -10q-4 -8 -7 -11q-12 -12 -27 -20q-1 -4 -9 -10q-65 -42 -74 -42 h-12q-2 0 -51 31q0 6 -1 11q-3 1 -8 9q0 10 -6 25q1 9 1 29q0 17 -11 25q0 2 4 6q0 4 -1 5q-2 -2 -2 -4q0 1 -3 4l-45 -42q-31 -26 -44 -26q-8 0 -61 24q-5 20 -20 24q0 5 -2.5 19t-2.5 15q0 26 14 62q41 101 92 153q0 3 1 6l40 43q6 6 14 6l5 9q5 -3 18 1l-7 7q4 3 19 3 q4 -2 13 -7l5 5l25 -9q2 1 13 38l5 9q3 15 19 63q1 8 8 32t23 45q-2 12 2 21q2 -2 6 -2q1 0 9 7t10 7l27 -5q21 -4 28 -4q2 0 11 4q6 -3 8 -9v-14q1 -1 3 -2q3 0 5 1l3 1q5 -12 5 -14q0 -9 -6 -19.5t-7 -12.5q-6 -15 -34 -87q-7 -7 -9 -23q-9 -5 -10 -17l-3 -18 q-13 -30 -13 -34q0 -2 5.5 -7t5.5 -6q3 -9 3 -22q0 -12 -1 -13q-7 -13 -27 -15q-9 -4 -27 -9q-3 -1 -6 -6q-4 -7 -16 -36l-31 -97l3 -8q-4 0 -8 -6q0 -10 -7 -25v0v0v0v0v0v-1v0v-1v0v-1v-1v-1v-1v-1v-1v-1v-1v-1v-1v-1v-1v-1v-1v-1v-1v-1v-1v-1v-1v-1v-1v-1v-1v-1v-1v-1v-1 v-1v-1v-1v-1v-1v-1v-1v-10q0 -59 8 -70q16 9 40 17q7 8 22 19t17 15l9 8q2 0 4 -2q9 0 21 25q0 -5 2 -7q8 8 17 20q4 1 12 11q19 6 32 52q2 9 29 69q4 11 26 52q1 1 1.5 4t0.5 5l19 27q42 54 71 94q3 0 8 -5q6 2 17 2q2 0 2 7q13 -7 15 -7t6 3.5t6 3.5t2 -2t2 -2q1 0 10.5 1 t11.5 1t10 -4.5t11 -4.5q1 0 1.5 1t2.5 1q4 0 11 -7q4 -3 17 -7h2v-10l5 -10q0 -1 -3.5 -11.5t-3.5 -15.5q4 4 9 4v-13l-7 2q-8 0 -9 -10l-14 -66q-5 -18 -12 -52q-5 -50 -5 -57q0 -39 19 -39q11 0 42 30q5 5 11.5 11t9.5 9l6 6l4 4l1 1l5 -3q0 3 -3 6l28 34q16 20 19 39 l11 14h12q1 2 1 -7v-37zM620 294q-3 1 -8 1q-20 -19 -39 -49q30 27 47 48zM576 266q-4 -3 -15 -14v-10q11 9 15 24zM600 221q0 8 -4 11q-15 -12 -57 -52q-21 -29 -29 -48q-26 -63 -26 -82q0 -5 3 -8q21 20 66 77l4 14q2 2 5 3q38 82 38 85zM228 280q0 3 -6 9q0 -4 -3 -4 q-2 0 -6 4l-68 -67l-35 -70q-24 -49 -29 -76q15 11 43 37l39 40q4 14 17 17q17 21 37 54q7 18 7 48z" />
<glyph unicode="de" horiz-adv-x="650" d="M457 390l3 -1l-3 -6l-3 2zM524 167l5 6l-2 -7zM392 283h4l-3 -9h-3zM389 270l8 -3h-8v3zM701 175q0 -7 -5 -14q1 -2 -2 -22q-2 -7 -4 -9q0 -4 1 -7l-1 -7h-2h-3v-23q0 -2 -5 3q-8 -4 -6 -9q3 -12 3 -9l-20 -14l1 -3q1 -3 1.5 -6.5t0.5 -4.5q-7 -14 -30 -40 q-17 -17 -26 -23q-9 -13 -13 -13q-2 0 -4 2q-5 0 -10 -11l-1 -3l-5 4q-6 -1 -4 -5q-19 -19 -23 -19q-2 0 -17 -4t-16 -4q-11 0 -16 8q-3 -4 -7 -4q-16 0 -57 24q-10 6 -39 40q-3 -2 -8 -8q-2 0 -8 6q-11 -2 -19 -10q-11 0 -19 14l-4 -4q-4 5 -23 18l-4 4q-15 5 -21 11 q-7 7 -28 57q-6 18 -26 62l-46 -76q-24 -34 -44 -55q-8 -9 -27 -25q-17 -16 -24 -16q-1 0 -15.5 -2t-16.5 -2q-7 0 -24 17q-18 18 -19 21q-9 23 -10 28l-5 9v52q4 5 7 18.5t8 17.5q9 9 10 14q2 5 0 16l14 16q6 16 32 64q13 24 34 57q0 1 19 16q3 1 5 8q17 12 28 12 q-2 0 0.5 -1t9.5 -2l17 2h5q4 -3 10 -3q1 0 4 2t5 2l11 -6q2 0 4 3q7 64 22 118q13 50 38 102q4 12 26 38l8 17q4 6 16 22l18 14q11 9 14 9q1 0 6.5 -4t7.5 -4q1 1 7.5 1.5t11 2.5t4.5 8q6 -3 8 -11q-1 -8 0 -9l2 -2v0l-1 -11q-2 -3 -15 -12q2 -16 -8 -42q-2 -5 3 -8 q-1 -3 -2 -10t-1.5 -11t-2 -9t-3 -7.5t-4.5 -2.5l2 -16l-5 -16l-5 -4q-5 -9 0 -18q-3 0 -5 2l-28 -64q0 6 -3 6l2 -10l-1 -1q0 -1 -2 -5t-3.5 -8t-5 -11.5t-6.5 -14.5l-6 -6l-12 -51q1 -15 0 -42q-4 -32 -4 -49l2 -9q-1 -10 -1 -22q1 -14 8 -41q-3 3 -3 0q0 -12 23 -60h4 q7 1 7 7h2q1 -1 5 -1q-3 0 3 4q2 0 3 1q14 3 20 21l9 29q0 -3 -3 2q-1 2 -2 5q-4 -4 -7 -4v40q0 2 3 8t3 7l-2 8v-1q0 1 5 13.5t6 16.5q0 -4 2 -6q6 3 6 8v9q7 10 10 14q1 5 0 13l-2 8q0 6 9 13q0 1 -2 3q0 -3 1 0l1 5q-1 7 14 22t18 26l6 3q2 0 3 7q4 1 10.5 11t4.5 13 q4 0 5 -1q12 6 7 15q1 0 5 -2l3 -2q3 3 2 5h6q1 0 3 1t4 1q-2 0 18 -12q26 -11 40 -19q13 -9 28 -27q1 -3 9 -11l-6 -5q0 -2 1.5 -7t1.5 -6q0 4 -4 5l-3 -4q6 -4 6 -7q0 -7 -15 -35q0 4 -3 12q-5 0 -12 -24q1 -3 1 -13l-5 -5q0 -7 -5 -22q-1 -1 -10 4l-6 -35q-3 -1 -11 -9 l-6 -16q-7 -19 -19 -34q-7 -5 -15 -16q0 -6 -1 -16q0 4 -4 8l-2 -12l-5 -3q2 -10 -1.5 -19t-11.5 -6q-5 -25 -5 -27q0 -27 16 -37q3 -4 7 -4q12 0 59 26l3 4q3 4 5 4q1 0 1.5 -1t2.5 -1q-1 0 3.5 4l13.5 12t22 19q10 0 11 12q7 5 33 30q8 14 18 20l28 36q1 6 16 21 q9 -14 9 -19zM571 339h5v3h-5v-3zM580 309l5 -5l-2 6zM690 150l3 7l-3 1l-3 -7zM548 244v11l-2 -1q-2 0 -3 -1q0 -4 5 -9zM673 101l6 3l-1 2l-5 -2v-3zM534 245q-5 0 -5 -7v-8q5 7 5 15zM513 312v7q-21 -11 -28 -24q-19 -34 -19 -65q47 65 47 82zM660 88l5 -1l-3 3zM666 83 l3 -5v5h-3zM530 219q2 0 -5 -7q-5 0 -6 -1q5 -5 7 -5q4 7 4 13zM511 173l2 6l-2 1l-3 -5zM490 150l3 9h-2l-4 -8zM378 191q0 -1 -7 -12q2 -2 5 -1q0 1 2 13zM450 64h4v5h-4v-5zM350 -7l7 7l-2 2l-7 -7zM162 159l23 33v7q-2 2 -16 10q0 3 -1 13t-1 12q0 11 9 44q0 1 3.5 5.5 t3.5 6.5q0 1 -4 11t-4 12q-20 -1 -31 -12l-26 -40q0 -2 -5.5 -16.5t-4.5 -19.5q-6 -7 -6 -10l-20 -62q-7 -15 -14 -40q-2 -12 -5 -27l-2 -12q0 -6 5 -14q4 2 10 2q4 0 23 22q22 24 31 32l4 12q2 2 12 13t16 18z" />
<glyph unicode="di" horiz-adv-x="667" d="M760 539l5 -6q0 -8 -11 -10q-11 -1 -12.5 -2t-2.5 -8q-1 1 -12 -1q-24 -11 -51 -25l-12 -13q-4 0 -9 -3q-1 -3 -9 -16q3 -7 29 -30v-8q0 -2 -6 -10t-6 -10q-6 4 -21.5 7.5t-20.5 0.5q-9 7 -12 14q-9 0 -9 -7q-2 3 1 6q-18 6 -21 6q-6 0 -6 -5q-9 14 -13 24l-6 -5l-6 11 q-5 6 -13 6q-2 6 0 6t4 2q-7 7 -7 10q0 14 7 18l38 16q7 5 26 15q76 17 125 17h31zM761 233q0 -15 -17 -52l-17 -35q1 -4 0 -8q-55 -94 -98 -116q-18 -18 -27 -18q-2 0 -2.5 1t-2.5 1q-1 0 -8.5 -4.5t-9.5 -4.5t-1.5 2t-1.5 2q-1 0 -4 -2t-6 -2q-12 0 -32 16l-24 20l-14 7 q-12 19 -28 62h-7l-15 -11q0 -2 4 -5l5 4q-45 -58 -49 -58q-3 0 -16 -1.5t-14 -1.5q-2 0 -7 2.5t-6 2.5q-11 0 -33 28q-2 0 -2.5 -1t-2.5 -1q-4 0 -11 13q-3 5 -8.5 13.5t-9.5 14.5q-10 42 -14 63q2 8 1 16q-3 7 -10 14q-9 0 -10 -12q-1 -5 -1 -15l-39 -59q-2 -10 -6 -22 q-2 -1 -8 -7q-1 -15 -20 -37l-27 -21q0 -4 -1 -7q-42 -40 -57 -46l-18 -9q-12 0 -32 18q-23 10 -46 37q-8 14 -8 41q0 3 3 41q4 9 10 29q-1 2 -1 12q2 4 32 52q0 7 4 18q7 11 28 31q2 10 14 24q7 7 19 23q3 7 4 9q35 37 76 75q13 13 25 13l10 -3q4 4 4 12l6 -5q15 5 21 5 q11 -5 38 -9q6 0 7 1q4 11 28 118q1 8 13 23q0 1 5 1q2 0 5 -2.5t5 -2.5t4.5 2.5t4.5 2.5q1 0 10 -3q8 -1 31 2q-1 -1 1 -1l10 -1v-10q6 -16 6 -21t-5 -7q2 -2 9 -2q0 -2 5 -7q-6 -8 -25 -29q1 -3 -2 -14q-7 -13 -17 -35q-12 -33 -12 -55q0 -1 5 -26q6 -23 6 -25q0 -5 -3 -8 q-6 2 -19 10q-5 0 -8 -5q-7 -14 -14 -39q-4 -28 -4 -56q0 -2 -1.5 -12t-1.5 -12q0 -24 8 -70q9 -13 10 -13q2 0 2.5 1t2.5 1t2.5 -1.5t0.5 -3.5l1 -2q6 4 11 18q19 3 14 23q12 8 22 29q2 2 4.5 6.5t7 12.5t9.5 16q5 2 15 9l-9 -1l40 73q3 -3 19 -3q2 0 3.5 2.5t2.5 2.5 q36 0 49 -7q2 0 2 -13q0 -4 -7 -14q5 -20 -5 -68q-1 -9 -10 -46q0 -5 6 -5q-4 -7 -4 -16q0 -8 4 -17l6 -13l19 -10q12 0 43 23q7 -7 8 -7l5 20q12 1 20 11l11 17q8 6 17 15q3 3 6 12q3 1 11 9q1 8 40 62q20 38 21 38q6 0 11.5 -10.5t5.5 -16.5zM567 438h4v7h-4v-7zM646 52 l3 3l-4 3l-2 -2zM286 296v2q-1 2 -3 8l-4 12q-18 -1 -50 -24q-31 -24 -50 -45q-35 -43 -39 -49q-24 -33 -33 -61l-22 -50q-17 -37 -17 -51q0 -10 3 -13q21 6 44 31q12 15 33 28q-2 2 -2 5q0 11 17 20q4 -4 5 -4q4 13 14 24l24 29q1 1 5 1l-1 7q2 -3 6 -2q-4 7 8 17q-2 2 0 5 q6 15 16 20q8 15 24 42h6q3 18 5 26z" />
<glyph unicode="dl" horiz-adv-x="694" d="M564 601l3 -2l-6 -6l-3 3zM363 387l4 -1l-3 -7l-4 2zM768 197q0 -21 -18 -71q0 -3 -2 -17q-4 -9 -15 -28q-35 -45 -71 -74l-30 -11q-23 -14 -26 -14l-10 1q-9 1 -12 1q-12 -4 -13 -4q-24 0 -52 19t-37 43v2q-3 0 -4 -1l-2 -1q2 12 -11 23q-9 -6 -14 -15l-6 -3 q-3 -3 -5 -4q-17 -17 -32 -27l-24 -16q-7 -6 -17 -6h-14q-2 0 -3 1.5t-2 3.5v2l-10 -5q-6 0 -9 3l-5 -5q0 6 -2 10q-4 0 -4 -7q-41 20 -44 33q-8 5 -50 69q-11 -21 -32 -38q0 -6 5 -6q-5 -2 -14 -17q-10 -16 -18 -13l-6 -6q-1 -1 1 -4l5 5l4 -4l-6 -5q-5 0 -20 -17 q-14 -17 -20 -17q-5 0 -27 -3q-1 0 -6.5 -4.5t-7.5 -4.5t-3 2.5t-3 2.5t-2 -2.5t-2 -2.5q-4 0 -17 19l-10 4l-28 38q-1 4 0 7q0 7 -6 14q1 1 1 11l-3 3q0 11 5 34q-5 11 0 29q10 22 27 69l8 10q6 20 24 47q14 25 39 65q17 22 36 35q4 3 21 3v14l4 4q4 4 6 4t3 -2.5t3 -2.5 q4 0 9 5q0 -12 -5 -12l-4 2q0 2 -5 -3l4 -4l2 1l17 -1q3 8 5 12q11 -11 21 -14q3 18 15 51q0 1 -3 9q5 14 9 36q2 0 5 3q7 34 11 43q10 30 18 40q0 8 9 21l4 1q7 0 27 -12q20 -11 21 -11t5 1t7 1q6 0 6 -7q9 0 18 -13t9 -21q0 -4 -4 -8.5t-8 -7.5l-4 -4q-10 -15 -3 -27 q-2 0 -5 1l-3 1q-4 -7 -4 -12q0 -3 3 -5l4 -1q0 -5 -12 -23q2 -2 5 -2q0 -6 -3 -16.5l-8 -28t-9 -34.5q-4 -1 -8 -17q1 -4 1 -17l-5 -7q-4 -23 -4 -29q-16 -6 -21 -17v-23q0 -1 -3 -12t-3 -15q-3 0 -5 2q-5 -4 -1 -23q0 -2 -2.5 -12t-2.5 -12q0 -39 10 -75q3 -12 16 -22 l4 -1q12 0 52 22q13 13 24 22q1 0 2.5 0.5l3 1t3.5 0.5q1 0 3 8q9 5 20 20l18 23q-5 58 0 99q4 2 8 7q-1 3 -9 -3v8q4 4 6 31q10 32 14 44l4 28l6 16q4 9 4 15l9 7q-7 15 0 31q5 2 7 5q3 29 32 81q2 11 12 36l5 -5q2 2 2 5t-6 3q20 20 17 30q6 0 17 5l11 5q8 0 45 -31 q3 1 12 -1q10 -7 42 -40q1 -2 1 -14l-5 -39q-5 -5 -11 -14q-4 -23 -21 -70q-5 -12 -15 -19l-3 -19q-3 -13 -16 -19q3 -28 -15 -39q-17 -40 -41 -89q-3 -1 -10 -10q-5 -10 -28 -59q3 -7 2 -7q-6 -10 -6 -12q0 -5 4 -20q2 -8 3.5 -18t1.5 -11q4 2 5 2q0 -6 6 -16q8 -14 15 -14 h16q7 0 45 32l29 18l12 15q21 19 40 48l25 27l19 32q14 21 17 21q8 0 13.5 -12.5t5.5 -20.5zM597 459v13q-33 -36 -59 -147q15 15 40 86zM530 298l3 7l-3 1l-3 -6zM254 426l6 6l-3 3l-6 -6zM209 209q-3 5 -2 12q-5 11 -4 21l-5 8q-1 2 2 7q-1 5 -9 13q-25 -23 -76 -118 q-30 -57 -30 -90q0 -2 1.5 -6t2.5 -8l1 -3q10 2 23 15q12 12 19 17q2 -2 2 -4q2 7 26 36q4 11 9 19q10 10 17 19q3 10 12 26q5 5 8 10zM173 115l3 6l-3 2l-3 -6zM171 44l3 6l-3 1l-3 -6z" />
<glyph unicode="do" horiz-adv-x="682" d="M334 582h4l-2 -11h-4zM717 305q-5 -11 -13 -16q2 2 2 4q-4 4 -5 4v-8q-20 -7 -22 -7q-1 0 -3 2t-4 2q-3 0 -5 -3l-2 -3l-33 -7l-25 -6q-17 0 -41 -10q-27 -9 -28 -18q3 -5 21 -22q20 -36 27 -56q17 -39 20 -84q4 -20 4 -41l2 -2q0 -1 -3.5 -15.5t-3.5 -19.5l-5 4 q-6 -5 -4 -13q0 1 -3 4l-7 -8q-7 -7 -12 -7h-16q-13 0 -31 7q-22 9 -40 33l-28 44q-7 -17 -20 -22q-1 -4 0 -8l-6 -7q2 -6 1 -8q-4 -2 -8 -6q-1 3 1 5q-3 4 -5 4l-2 -10q-27 -41 -42 -41l-6 5q-2 -2 -2 -5t1 -3q-1 -4 -5 -4q-2 0 -3 2.5t-3 2.5t-8 -2.5t-7 -2.5 q-10 0 -13 11q3 -4 -3 -4q-3 0 -2 1q1 3 0 4q-2 -2 -2 -4q0 6 1 7q-6 3 -8 5q-2 -2 -2 -5q0 3 -2 5q-22 9 -51 51q-6 10 -12 36l-6 4q-1 16 -17 44l-21 -33q0 1 1.5 -0.5l5.5 -5.5q-1 -1 -11 -17q3 3 3 12q-18 -12 -19 -22q-1 0 -4 1l-3 1q0 -1 -2 -11q-9 -14 -20 -20 q-4 -16 -11 -16q-2 0 -3 1.5t-3 1.5t-8 -11.5t-8 -12.5q-1 1 -2 2.5t-2.5 2.5t-3 2.5l-3.5 3.5q0 -1 -2 -7q-2 -2 3 -3l-14 1v-9q-8 4 -11 4t-7 -4q-1 6 -6 6q-1 0 -2.5 -1t-3.5 -1q-4 0 -15 11.5t-15 20.5q-14 26 -14 49q0 15 -1 28t-1 20q2 19 7 58q5 5 9 11q1 5 17 52 q5 7 11 20q0 2 1.5 5t3 7t2.5 8q14 24 47 73q1 4 10 24q46 64 49 64l6 -2q5 5 -2 5l12 17q-2 -2 1 -4q2 2 2 4h18q2 0 5 -3t4 -3q2 0 2 4q2 -1 8 -7q12 -8 24 -14l-4 -4q3 -3 6 -10h6q6 0 19 19v7q19 19 14 35q0 1 2.5 5t6 12.5t7.5 19.5q1 10 -1 26l16 24l7 3l3 21q0 4 5 4 q2 0 3 -2t3 -2t5.5 3t5.5 3q1 0 15 -7t18 -7l-5 -5q7 -5 13 -5q5 -13 5 -20q0 -5 -46 -139q-13 -44 -36 -107q-6 -15 -10 -32q1 -4 -1 -20q-6 -16 -5 -22q-6 -17 -11 -49q-12 -38 -12 -85q0 -10 8 -20q-1 -6 0 -18l-3 -3l-1 -2q0 -3 4 -4l9 -18q10 -16 15 -16q1 0 9.5 4.5 t10.5 4.5q1 0 1.5 -1t2.5 -1q6 0 29 29l4 -5q1 1 1 13h10l6 17q0 2 4 7q1 2 5 11.5t9 17t10 8.5q-2 12 4 20q10 5 17 42v22q0 3 4 14.5t4 13.5q0 1 -3 6q-2 3 -4 10.5t-2.5 12.5t1.5 6q4 10 13 19.5t16 14t10 4.5q1 0 14.5 6t17.5 7q-5 0 6 -6l5 4q12 4 50 9q2 0 4.5 -1 t4.5 -1h3q3 1 9 1.5t13 0.5q6 0 13 0.5t10.5 1t5.5 0.5q5 0 21 -4q15 -3 23 -3q13 1 19 -4zM152 -2l-10 -10l-2 6q3 0 5 -2zM350 575l3 6l-3 1l-3 -6zM240 422q0 8 -8 12v-12q2 -2 4 -2zM521 89q6 8 5 30q-2 24 -8 34q0 -1 -3.5 -15t-3.5 -16q2 -20 10 -33zM205 188l5 -1 l-3 4zM245 310q0 6 -6 24q-8 8 -9 8h-7q-1 -5 -10 -13q-4 4 -7 4q-1 -1 -3 -5.5t-3.5 -6.5t-4 -5t-5.5 -4.5t-6 -1.5q0 -2 -2 -8q-3 -11 -16 -18l2 -9q-13 -25 -19 -29q1 -6 -10.5 -19t-14.5 -20q1 -2 -1 -15l-5 5q-5 -5 -7 -5q-1 -2 0 -9t0 -8q5 0 6 -1l-4 -4q-5 -2 -8 -9 l-7 -15q-2 2 -5 2q0 -7 2 -13q-5 -1 -6 -11t-2 -11q-2 2 -2 5q0 -2 -3 -6l-2 -5l7 4q-5 -15 -5 -16q-2 1 -6 0l-4 -3h12q-5 -2 1 -11v-7q3 6 5 8q6 -1 20 2q-6 0 -6 4q3 10 10 16q2 -2 6 -2q0 -1 1 -5t1 -6q0 -5 -8 -10q3 -1 1 -3q-9 -6 -13 -8q16 -1 21 17t15 18q9 9 35 42 l5 10l22 29q0 6 1 9l15 17l-5 -4q0 5 8 13l3 -4q13 34 20 65q3 14 3 28zM200 108l6 -5l-3 6zM289 15l3 10h-4l-2 -10h3zM73 222l7 3l-1 3l-6 -2v-4zM103 171h4v6h-4v-6zM187 76l5 -1l-3 3zM82 167l7 3l-2 3l-5 -2v-4zM55 188q0 4 -2 6q2 0 -6 -8zM88 144q5 11 -1 11 q-9 0 -7 -9q3 3 8 -2zM47 161l3 6l-4 1l-2 -5zM113 85l3 10h-4l-3 -10h4zM95 64l7 3l-1 3l-6 -3v-3zM224 232v-8h-4v8h4z" />
<glyph unicode="ea" horiz-adv-x="650" d="M719 200q0 -17 -15 -53l-25 -63q-5 -10 -17 -23q-7 -11 -29 -33q-40 -31 -71 -31q-2 0 -16.5 -1t-16.5 -1q-9 0 -34 24q-36 33 -34 53l-9 14q-15 -11 -47 -49q-30 -33 -54 -40q-25 -9 -21 -9q-7 0 -45 35q2 3 0 5q-5 4 -10 12q-1 4 -8 4l-30 -19l-6 -4q-53 -31 -86 -44 q-24 -10 -34 -10h-10q-7 0 -26 9q-9 3 -22 10q-21 16 -36.5 42.5t-13.5 46.5q-4 5 -4 9q0 7 11 36q19 86 104 194l42 56q35 38 68 42q6 0 14 -9q6 7 9 7q4 0 26 -13t25 -13q2 0 9.5 1t10.5 1l4 -4q4 2 5 2q0 -4 -4 -8q19 -22 19 -32q0 -13 -9 -22q-2 -2 0 -5 q-29 -63 -91 -131q-14 -14 -34 -29q-14 -13 -54 -40q-26 -9 -39 -14q-10 -7 -14 -10q-17 -1 -39 -12q-3 -5 -3 -13q0 -20 9 -36q10 -19 29 -19q35 0 108 49l82 60q10 7 20 37l26 51q21 39 37 59q26 31 71 77q6 3 8 3q6 11 24 24q4 3 41 11l4 -2q5 -2 22.5 -9.5t30.5 -13.5 q2 -5 22 -18q-10 -17 -42 -28q-6 -1 -33 -22l-4 -4q2 -3 7 -3q1 0 14 1t18 1q0 -2 -4 -6q0 -10 11 -10q2 0 3 2t2 2q3 0 7 -2l3 -1q-6 -2 -26 -21q-19 -19 -20 -26q-17 -54 -17 -91v-1l0.5 -2t0.5 -5t0.5 -8t0.5 -10q2 -32 1 -38q-1 -11 9 -23t20 -12q3 0 5 2q3 3 5 3 q1 0 31 14q13 7 21 27q11 -2 17 15q0 -5 6 -5l1 6q1 7 3 12.5t5 5.5q2 0 4 -2l1 -1q2 8 17 34q11 8 30 47q6 3 8 5q8 18 8 21q13 -13 13 -18zM453 187v34q-38 -35 -94 -89q-4 -4 -13 -33t-9 -38q0 -11 3 -15h8q1 4 13 14l9 9q8 8 11 8q0 18 10 18q1 0 1.5 -1t2.5 -1 q4 0 25 37l12 13q14 26 21 44zM243 343v10q-5 0 -7 3q-10 -9 -18 -9q-4 0 -5 1q0 3 12 15q-21 -7 -34 -13q-22 -15 -31 -31q-9 -15 -20 -32q-5 -9 -17 -22q0 -6 -1 -10q-35 -64 -37 -69q-20 -42 -23 -63l24 15q39 35 40 37q42 53 57 70q9 3 11 4q1 2 14 17q3 11 17 37 q4 3 13 12q3 11 -1 19z" />
<glyph unicode="ed" horiz-adv-x="767" d="M826 144q0 -4 -5 -4q-2 -16 1 -20l-4 -22q-14 -23 -26 -53q-1 -4 -11 -11l-4 -10q-1 0 -4 2l-3 2l-4 -17q-4 -16 -12 -16q-2 0 -4 1l-2 1q-1 0 -1 -1q-1 -4 -16 -20q-37 -14 -38 -14t-16 -2.5t-17 -2.5t-8 3l-5 3q-9 1 -32 11l-21 8q-20 9 -24 18q-4 7 -19 25l-4 20 q-5 5 -9 13l-12 38q-8 25 -17 35q-11 -7 -22 -24l-18 -27q-12 -15 -21 -20q-2 -4 -6 -11q-1 -7 -9 -16q-43 -34 -54 -34q-20 0 -44 10l-11 11q-11 13 -17 11q-1 1 -25 31q-2 0 -9 -6t-9 -6t-2 2q0 1 -3 1q-10 0 -10 -8q-39 -19 -66 -19q-1 0 -10 1t-11 1t-1.5 -2t-1.5 -2 q-6 0 -13.5 3t-10.5 3q-8 0 -24 8l-16 10q-34 14 -62 51q-28 34 -28 59q0 37 58 138q16 6 45 43q27 32 50 32q5 0 12 -5l5 5l18 -9q2 0 7 1t7 1q8 0 16 -8q2 -1 7 -4t7.5 -4t7 -4t6.5 -5.5t4.5 -5.5t4 -6.5t1.5 -7.5v-39l-37 -51q-9 -9 -26 -22l-13 -6q-5 -6 -17 -14 l-41 -21q-2 0 -2.5 1t-2.5 1q-1 -1 -2 -3q-29 -10 -32 -18v-10q0 -35 30 -55q15 -9 25 -9h26q1 0 5 1.5t6 1.5q20 2 63 26q23 13 44 30q8 4 19 18l2 18q9 14 25 51v13q13 11 16 16q2 4 4 15q4 6 7 9q1 13 26 48q26 35 39 44l2 6q30 14 33 14q2 0 3 -1l1 -1q2 5 7 13 q19 -6 60 -31q5 5 8 5q2 0 3 -1.5t3 -1.5q5 0 13 21q3 2 5 5q2 8 0 16q3 20 31 90q1 1 -0.5 2t-3.5 1v10q4 3 15 14l6 24l6 3q6 2 8 2t3.5 -1.5t1.5 -2.5l1 -2q1 1 1 4q33 2 42 -3q1 -1 10.5 -10t12.5 -9q1 0 15 6q-3 -12 -18 -30q0 -3 4 -3q0 -3 -5 -8q-35 -68 -67 -160 q-11 -37 -19 -72q-2 -8 -11 -66q-6 -43 -6 -49q0 -44 14 -83q19 -52 54 -52q21 0 48 24q18 22 22 26q6 6 26 21l1 -4q1 -4 1 -5l6 4q0 1 -7 8l9 10h3l13 13q7 7 7 15q1 2 7 8l9 -7q5 7 23 18zM775 88l3 2l-4 3l-2 -2zM759 8l3 6l-3 1l-3 -6zM434 321l12 10l-2 3l-12 -10z M434 311q0 3 -2 9q-1 0 -3 -2.5t-3 -5.5l-2 -3zM477 308l-6 5q-10 -7 -18 -7q3 -6 -2 -11q-1 0 -5 2.5t-6 2.5q-5 0 -12 -10t-6 -17q5 5 10 13h5l4 -3l-10 -15q-2 4 -2 5q2 -11 -8 -14l3 -6q5 5 12 10l25 33q7 1 16 12zM721 -3l6 5l-3 2l-5 -5zM400 249h4v8h-4v-8zM453 156 l50 92q-14 -7 -23 -13q-3 -8 -5 -11q-8 -2 -11 0q0 -4 -2.5 -6.5t-6 -5t-4.5 -3.5q-19 -21 -66 -67q-6 -2 -9 -5q-5 -3 -11 -27q-6 -23 -6 -31q0 -7 5 -17q8 4 21 9q0 3 5 8t9.5 8.5t5.5 3.5q4 10 37 51q3 3 4 11zM178 305q1 1 -2 6q-5 -4 -8.5 -6t-6 -4t-3.5 -3l-1 -1 q-2 0 -3.5 1.5t-3.5 1.5q-4 0 -27 -36q-9 -14 -9 -12v-8q-2 0 9 3l24 23q8 4 20 17q2 6 11 18z" />
<glyph unicode="ee" horiz-adv-x="553" d="M650 231q0 -3 -3 -19q-1 -9 -4 -25q-1 -5 -28 -56q-16 -31 -31 -47l-32 -37l-51 -49q-22 -21 -43 -32q-46 -24 -51 -24q-4 0 -14 -3t-12 -3l-10 4q-21 3 -37 15l-26 20q-25 16 -39 35q-53 -34 -62 -34q-2 0 -17.5 -2.5t-17.5 -2.5q-14 0 -24 6q-50 29 -64 52q-2 2 -8 2 q-20 17 -30 34q-8 19 -19 54q-13 43 -13 54q0 26 16 62l29 70l12 13q0 6 4 13q36 39 56 57q46 10 77 6q32 -1 53 -13l32 -21q0 -6 1 -17q1 -6 9 -14q73 66 78 66q2 0 3 -1.5t3 -1.5q7 0 11 7q5 1 9.5 1.5t7.5 1t5.5 1t3.5 0.5q3 0 6 -1.5t5 -4t4 -3.5l2 -2q2 0 5.5 1.5 t6.5 1.5q14 0 34 -14q19 -13 19 -27q0 -2 -3.5 -6.5t-3.5 -6.5l-4 -29q-6 -34 -24 -67l-27 -46q-21 -37 -72 -102q-5 -4 -19 -18q-15 -14 -20 -19q-15 -13 -15 -17q0 -10 16 -29q17 -20 24 -20q6 0 26 10q23 10 53 37l5 -5q31 28 41 37q41 33 86 88q0 1 20 29l12 22 q12 14 17 21q12 16 9 25q6 0 12 6q6 -8 7 -12zM425 322l-8 17q-7 0 -15 -3q-51 -47 -90 -173q-1 -2 -1 -20q0 1 12 1q8 41 28 47q1 13 15 28l5 -5l7 6q0 11 2 13q10 1 -2 9l5 5q-2 0 -5 3q1 1 6 1q5 -8 3 -13q18 26 16 40q4 2 7 5q11 20 4 27q2 5 11 12zM205 317 q0 2 -5.5 10.5t-5.5 10.5q-7 4 -10 4q2 0 -22 -11q-8 -11 -5 -18l-22 -17l-16 -32q8 6 25 14q10 2 19 2q4 6 24 19q18 12 18 18zM278 273v9q-8 -9 -63 -43q-25 -19 -114 -42q-11 -13 -11 -50q0 -45 19 -87q17 -35 43 -35q4 0 21 9q15 10 27 8q-1 1 7 18q2 0 7 -2l4 -1 q0 6 4 10q2 -1 4 -4l1 -3q19 13 11 35q3 8 0 17q-2 13 -1 17q6 17 14 70q11 17 11 19l-1 15q1 6 9 23z" />
<glyph unicode="el" horiz-adv-x="566" d="M635 189q0 -35 -32 -99q-1 -4 -26 -27l-15 -23q-42 -46 -84 -72q-62 -36 -93 -36q-2 0 -19.5 2t-19.5 2q-12 0 -34 22q-18 16 -21 23q-15 25 -36 67q-1 2 2 5q-5 3 -8 3q-14 -8 -41 -23q-41 -23 -61 -27v7q-2 0 -6 -10q-5 5 -12 5q-4 0 0 -4q-6 2 -22 2q-25 0 -45 23 q-14 16 -35 52q-8 14 -8 42q0 31 18 71q2 0 5 3q5 16 11 43q2 6 46 82q19 31 43 51l12 13q15 7 49 6q6 4 10 4q2 0 7.5 -3t6.5 -3q8 2 26 -3l5 5q13 -19 13 -23q0 -1 -9 -18q-1 -1 -4 -23q-8 -4 -16 -18q-10 -20 -13 -23q-14 -20 -48 -64q-15 -15 -35 -38q-11 -12 -27.5 -28 t-25.5 -26v-59l7 -8q8 -8 13 -8q1 0 7.5 1t8.5 1l4 -4l4 8q56 34 82 52q15 11 39 40q5 5 2 14l5 5q2 11 10 33q0 3 4 22l8 14q7 52 17 58q0 2 -3 9q9 25 29 65q0 1 0.5 2.5t0.5 3t0.5 4t0.5 4.5q6 3 8 8q6 15 55 111q6 5 17 19q4 7 9 25q2 -6 5 -10q4 4 1 4q8 0 20 15 q9 -4 20 -6l1 -3q1 -3 4 -3h9q2 0 2 5q20 -17 56 -53q26 -32 3 -49q-6 -26 -3 -47q-5 -7 -46 -81q-9 -15 -22 -31q-34 -44 -86 -103q-6 -6 -22 -29q-9 -8 -27 -29q-10 -14 -10 -47q0 -1 2 -15t2 -19q2 -54 24 -54q2 0 20 9q19 10 21 10t2.5 -1t2.5 -1l2 1q1 2 4.5 4.5t9 6 t13 9t16.5 11.5q13 9 56 43q86 86 123 133q11 -5 11 -32zM468 421q0 5 -4.5 22.5t-7.5 20.5l1 3q1 3 1 4q-2 0 -6 3l-12 -10q-9 -17 -14 -32q-6 -20 -29 -59q-25 -69 -40 -120l40 44q12 14 41 54q15 21 25 45q5 17 5 25zM191 331l-17 -5l-18 -42q7 6 35 47zM144 266h7v4h-7 v-4z" />
<glyph unicode="en" horiz-adv-x="833" d="M883 148q0 -31 -28 -58q-19 -20 -34 -32q-24 -21 -43 -28q1 -3 0 -10q-27 -16 -38 -20q-26 -13 -48 -16q-5 -3 -5 -7q-85 1 -99 60q-9 35 -3 102q-48 -67 -65 -102q-26 -47 -42 -54q3 11 -3 11q-3 0 -3 -2l-3 -1q-15 0 -34 15t-31 38q-3 16 -12 16l-12 59v30q-2 24 -8 35 q-4 -1 -21 -25q-2 -2 -13 -11.5t-20 -19.5t-14 -18q2 -4 0 -6l-56 -57q-35 -35 -60 -47l-2 -8q-11 -10 -29 -20q-39 -16 -43 -16q-1 0 -9 5q-43 6 -75 51q-7 10 -15 35q-6 19 -6 27q0 27 19 77q2 9 11 42q7 26 45 88q43 70 65 97q11 25 22 43q2 1 5 3.5t7.5 6t7.5 6.5l7 -6 q14 -3 38 -3q2 0 15.5 3t16.5 3q6 0 28 -19q23 -20 23 -24q0 -2 -5 -8.5t-5 -8.5q-3 -12 -14 -33q-5 -10 -17 -30q-2 -1 -7 -6q-17 -40 -65 -97l-18 -18q-32 -32 -63 -69q-9 -4 -14 -4q-7 0 -17 6l-2 -1q-3 -2 -5 -4q-2 -4 -10 -31q-2 -8 -2 -18q0 -38 22 -38q19 0 57 30 q42 32 54 37l2 6q1 5 4 5l8 -3l2 7q2 7 5 7l3 -1q-1 -3 0 -4q4 6 16 22l118 121q22 14 47 57q4 0 12 7.5t10 13.5l3 -2q3 -1 6 -1q8 0 14 11l6 -2q5 -3 8 -3q40 -24 26 -65q-5 -16 -27 -101q-4 -64 10 -58q33 42 52 72q24 35 42 43l-1 2q-2 3 -2 6q0 6 18 25l4 -1q5 -2 8 -2 q6 2 14 11q25 -4 49 -5q1 0 7 -2l12 -18q9 -12 9 -16q0 -3 -7 -11t-7 -10l-29 -142q0 -24 21 -24q8 0 75 26q5 4 16 12q14 9 21 8l83 71q17 0 17 -12zM227 387q-1 0 -6 3l-7 -5q0 6 -5 6q-12 0 -41 -47q-27 -46 -27 -56q1 -1 1 -12q19 19 31 24l15 31l24 30q3 1 9 1 q-1 12 6 25z" />
<glyph unicode="eo" horiz-adv-x="602" d="M550 256v-88q-16 -78 -44 -123l-2 -10q-11 -21 -43 -62q-26 -26 -45 -26q-9 0 -23 8l-14 17q-38 29 -43 48q1 0 -0.5 3.5t-4.5 11l-7 17.5q-106 -120 -188 -120q-1 0 -8 4q-13 -1 -34 13l-29 25q-11 7 -29 28q1 0 4 3q-17 5 -20 18q-8 51 -8 61q0 3 8 53q7 50 14 69 q16 50 41 110q15 33 36 73q26 36 37 50v5q2 0 12.5 4t13.5 4q2 0 11 -2.5t11 -2.5q3 0 34 -25q33 -33 20 -49l-29 -68q-6 -13 -27 -42q2 -2 -3 -10q-38 -30 -98 -131q-8 -14 -8 -29q0 -21 12 -54q15 -42 37 -42q19 0 82 33l12 15q41 38 81 71q20 34 31 51q4 4 10 25t12 29 l6 23q9 14 18 44q7 7 28 46q13 13 26 13q20 0 34 -6q3 -1 14.5 -6t16 -7.5t13 -7t14 -10t10.5 -12.5q8 -14 8 -42zM465 188q0 12 -9 56q-7 4 -10 14l-10 6q-9 -18 -14 -43q-6 -22 -16 -85q-3 -34 -3 -63q0 -9 5 -29q22 17 29 31q0 6 4 13q10 31 10 42q2 4 6 8q0 13 4 30z M190 385q0 2 -2 7l-1 5q-10 0 -19 -4q-44 -70 -60 -112q-5 -25 -10 -40q0 -1 -5.5 -8.5t-5.5 -9.5t1 -5l2 -3h9l11 25l19 20q8 17 40 66l9 29l6 5z" />
<glyph unicode="er" horiz-adv-x="659" d="M727 165q0 -15 -21 -49q-18 -31 -22 -34q-6 -8 -29 -33l-26 -20q0 -4 -1 -7q-16 -18 -21 -18q-2 0 -2.5 1t-2.5 1t-20 -18q-19 -18 -32 -27q-20 -12 -32 -12q-2 0 -15 1t-15 1q-7 0 -21 8q-9 4 -26 38q-3 5 -17 30q-5 25 -5 37v1q0 1 0.5 4.5t1.5 8t1.5 11t1.5 14.5 q5 5 10 14q1 5 23 41q3 8 8 23q7 5 12 13q3 16 0 23q1 1 1 4q2 4 2 3v13q-29 17 -33 17q-11 0 -16 -8q-12 -26 -36 -69q-7 -5 -14 -15q-9 -18 -26 -47q-23 -41 -95 -98q-77 -59 -117 -59h-26q-23 0 -54 42q-27 36 -38 66q0 3 -1.5 7t-3 9.5t-2.5 10.5q1 5 1 21q-4 28 -4 34 q0 42 7 67q6 27 17 64l5 4q7 16 13 37q5 0 5 5q5 -5 8 -5q4 10 -4 10q13 20 32 56l9 -2q3 10 5 16l6 2q6 1 8 1t3.5 -2.5t3.5 -2.5t4.5 2.5t4.5 2.5q7 0 7 -8l4 1q4 2 6 2q3 0 36 -20l31 -11q4 -2 16 -14q13 -13 13 -19q0 -9 -16 -34l-14 -11q-9 -17 -41 -64l-112 -123 q11 -55 14 -61q13 -40 38 -40q19 0 74 26l59 45l21 24q4 0 7 1q5 11 18 21q3 12 12 21q3 1 10 8l58 93q6 21 6 25q0 15 -10 29l-36 38q-25 26 -26 56q-1 13 4 22q-1 -3 -4 -3q0 2 -1 7l-2 4h10q2 0 13 -11t38 -17q6 -2 11 -14q6 1 12 -1t17.5 -10t13.5 -9q11 -11 32 -30 q1 -4 27 -30l30 -28q14 -17 18 -28q17 -48 17 -84q0 -22 -16 -25q0 -7 -1 -13q-8 -21 -12 -21q-3 0 -4 1l-2 1q0 -5 -1 -10l-16 -28q-3 -10 -14 -38q3 -1 16 1q17 5 17 6h6q4 1 2 5l3 -1q3 -1 5 -1q15 13 27 21q29 22 48 22q0 3 -7 3q7 7 39 34q12 11 64 84h10l10 -33v1z M137 266l22 40l-8 8h-7q-12 -18 -23 -32l-6 4q-1 -3 -7 -18q-9 -15 -19 -55q1 7 13 12q11 4 14 5q-4 2 -7 5q13 6 28 31z" />
<glyph unicode="es" horiz-adv-x="557" d="M551 294q-2 -2 -9.5 -10.5t-13.5 -14.5q0 -2 1 -5q14 5 21 10l-25 -35l-21 -22q-19 -20 -19 -30q0 -7 12 -37v-15q0 4 1 -1q6 -20 6 -53q0 -15 -11 -40q-3 -7 -17 -38q-4 -12 -18 -23h-9h-22q-1 0 -3 2t-4 2l-16 11q-14 11 -20 9q0 1 4 5l-7 -1q-1 0 -38 31q0 5 4 9 q-3 0 -10 3q4 13 -9 13q-4 0 -5 -1q0 1 -1 8t-1 9q0 11 4 15q9 9 22 32q6 11 16 15q0 6 12 17q4 4 9 8.5t6 6.5l2 2q6 5 18 13q16 13 16 19q0 15 -21 45l-23 24q-2 1 -3 -1.5t-2 -6.5l-15 -41q-1 -4 -8 -24l-7 -11l-18 -37q-12 -25 -27 -38q-2 -7 -7 -16q-19 -24 -62 -68 q-33 -29 -53 -37l-7 -5q-9 0 -26 -4q-16 -4 -20 -4q-15 0 -52 25q-24 16 -43 52q-17 35 -24 70q-1 2 -1.5 8.5t-0.5 9.5q4 1 3 6q-2 3 -8 8v0v0v0v0v0v1v0v1v0v1v0v1v1v1v1v1v1v1v1v1v1v1v1v1v1v1v1v1v1v1v1v1v1v1v1v1v1v1v1v1v1v1v1v1v1v1v1v1v1v1v1v1v1v1v1v1v1v1v1v1v1v1 v1v9q3 31 5 41q2 4 5.5 15t5.5 17q0 9 1 17l5 6q1 11 9 34l24 44l3 -1q3 -2 4 -2q1 5 11 15q0 -4 2 -4h8q7 0 7 8q3 -1 7 -7q-1 -1 0 -1l6 4q0 -2 4.5 -5t2.5 -7h1l2 -2l7 1l-5 7q16 -16 24 -16q2 0 5 1t5 1t7 -4q1 -1 0 -3q19 -19 32 -27l13 -13q3 -28 3 -24q0 -6 -3 -23 q-3 -20 -7 -20q-3 0 -3 1v1v-10l-9 -19q-10 -21 -16 -27q2 -6 -13 -21q-4 -13 -16 -35q-2 -8 -14 -20q1 -1 -2 -8l-9 -6q0 -7 -19 -30q-18 -24 -18 -27q0 -7 18 -25q10 -8 22 -8q20 0 54 24q3 2 5 7q11 5 17 13q45 51 75 98q0 5 1 10q11 14 33 61l5 10q-1 3 -1 14l7 10 q11 39 11 53q0 5 -14 33q-13 26 -13 56q10 22 19 22q1 0 12 -6l5 3q0 -8 3 -8q2 0 2 4q2 0 3 -1h6q2 0 1 -2.5t1 -2.5t4 1l1 1q3 -10 7 -10q3 0 5 2q0 -1 2 -3.5t7.5 -6.5t12.5 -6q9 -42 8 -58l-4 -12q13 -23 32 -49q25 -34 36 -54q2 -1 7 -6q47 26 43 26l5 -2q2 8 29 27z M192 346l5 -1l-3 3zM451 105l-2 14l-5 29q-10 -5 -17 -15l-15 -19q3 0 4 -1q-18 -18 -20 -31q11 -11 14 -11q2 0 10.5 1t9.5 1q8 0 14.5 10t6.5 22zM328 64l7 5l-2 3l-7 -5zM124 332h-2q-3 6 -12 6q-14 0 -26 -27l-14 -39q-7 -7 -14 -51q-4 -31 -3 -50h5q0 8 10 22 q11 15 12 19h8q-4 19 12 31q2 1 4 -1l14 54q8 32 6 36z" />
<glyph unicode="eu" horiz-adv-x="728" d="M760 72q0 -4 -5 -6l-10 -15q-8 -11 -17 -11q-10 -15 -18 -15q0 -7 -16 -14t-19 -16q0 1 -1 2q0 2 -1 3q-3 -2 -8 -7t-9.5 -9t-6.5 -4t-10 2.5t-10 2.5t-3.5 -3.5t-3.5 -3.5h-14q-36 0 -83 58q-15 27 -22 55q-1 11 -9 30q-8 -8 -31 -47q1 -3 0 -7q-6 -9 -13 -18 q-36 -36 -45 -36q-19 0 -51 25q-14 9 -24 36q1 6 0 16q-4 -2 -5 -2q-16 43 -15 94l-7 4q-2 1 -3.5 -1.5t-3.5 -7.5q-8 -21 -26 -53q-4 -11 -17 -36l-53 -82q-1 -4 -30 -31q-28 -27 -31 -27q-8 0 -23 -5l-5 5q-2 -5 -11 -5q1 0 -0.5 1t-8.5 6q-41 18 -48 42q-15 13 -19 32 q-2 22 -11 52l-23 20l13 17q8 11 12 11q3 0 3 -2q-2 -2 -1 -3q3 3 5 11q2 28 12 80q13 43 43 121l65 120q-2 -2 1 -5q12 12 14 12q6 0 67 -9q8 -1 21.5 -9t13.5 -14q0 -5 -5.5 -11t-5.5 -9q-16 -44 -23 -66q-18 -46 -37 -74q-8 -16 -41 -72q-12 -20 -45 -60q-8 -8 -23 -29 q-8 -14 -8 -28q0 -2 4 -3q4 -21 5 -34q3 -23 12 -34q12 8 45 41q13 20 35 45q0 1 3 9.5t3 12.5q7 0 11 4q12 27 16 39q6 3 8 5l57 117q4 3 10 10q9 36 28 55q13 13 20 13q2 0 4 -2.5t4 -2.5t3.5 1.5t2.5 4.5v2l25 -11q13 -6 17 -6q9 0 11 2q6 -12 6 -16l-1 -5q-1 -4 -3 -14 t-4 -22l-12 -67l-3 -84q0 -2 -3 -10t-3 -11q0 -8 12 -36q10 0 17 6t5 16q6 0 8 -2q22 30 53 83q15 32 35 65l3 17q8 18 27 67q4 6 12 6l3 8q11 11 20 11q2 0 11 -1t11 -1l6 4q4 -2 8 -2q0 -1 -1 -5t-1 -5q2 -2 5 -2q4 0 6 5q4 -6 10 -6q-2 -12 -5 -18q-18 -22 -19 -51 q4 -4 2 -17q-1 -8 -7 -16q-14 -61 -14 -130q-5 -81 48 -81q1 0 8 2.5t12 2.5q11 0 42 19l17 13q10 9 15 9l5 -5h4q1 2 3.5 6t3.5 7l14 6q-4 -6 -15 -28q1 -1 5 -1zM177 394q0 11 -13 11q-12 0 -35 -39q-15 -28 -21 -47l-4 -40l-15 -54q3 5 10 14t11 15t8 13.5t5 13.5 q10 7 13 7q0 6 1 9.5t1.5 5t4 5.5t5.5 7l7 24l5 5q-2 5 7 27z" />
<glyph unicode="ey" horiz-adv-x="684" d="M748 307q0 -2 -4.5 -12t-4.5 -11q-17 -9 -56 -43q-6 -7 -29 -18q-22 -29 -37 -44q-10 -9 -30 -25q-16 -16 -17 -30l-13 -139q-7 -60 -39 -131q-8 -9 -57 -70q-22 -28 -55 -39q-16 -6 -27 -6q-2 0 -7 2.5t-8 2.5q-2 0 -12 3t-11 3q-8 17 -35 41q-5 5 -21 7q-11 20 -11 21 q0 14 19 68q22 31 31 46q30 51 79 112q29 37 53 63q17 15 47 53q-5 5 -7 2q1 5 -2 13q-15 -22 -66 -71q-32 -27 -51 -31q-8 -5 -10 -5h-9q-24 0 -48 38h-8l-29 -40q-20 -27 -60 -61q-46 -38 -68 -38h-11q-16 0 -48 26q-24 19 -33 29q-21 29 -32 47q0 3 -7 30q-17 80 -17 88 q0 18 4 43q5 16 19 69q5 23 50 75l19 4q13 3 17 10l6 -5l6 5q3 -2 22 -1.5t23 -4.5q1 -2 -0.5 -11t-1.5 -11q0 -12 11 -18v-78q-1 -2 -7 -8q0 -16 -7 -48q-3 -17 -12 -24q-1 -3 1 -10l-25 -42q-9 -18 -22 -35q-13 -16 -13 -19q0 -9 18 -29q19 -18 24 -18q13 0 30.5 14 t59.5 57l14 14q6 6 7 17l6 4q8 14 21 45q-1 12 2 40l12 40q-2 6 -1 13l19 57l9 7q0 2 4.5 11t4.5 11q1 0 6 -5q4 6 19 14q1 0 8.5 2.5t9.5 2.5q4 0 23 -10q19 -9 23 -9q2 0 1 3t1 3q5 0 9.5 -5.5t5.5 -10.5q-8 2 -14.5 -5.5t-11.5 -23.5q-3 -4 -8 -11q-8 -24 -16.5 -47 t-13.5 -37t-9 -25.5t-6 -15.5l-1 -5q0 -33 13 -33l17 12q64 47 121 150q7 35 8 74q2 8 0 23q-2 24 -2 25q0 6 8 11q1 16 0 23q-5 16 -2 62q6 6 6 14q5 -5 11 -5q1 3 0 7q1 12 12 12q2 0 4.5 -2.5t4.5 -2.5q3 0 4 2.5t3 2.5l1 -1q1 -1 4 -3t7.5 -4.5t11 -6.5t13.5 -8l6 -9 q7 -8 9 -8t3 1.5t4 1.5q6 0 16 -9q-1 -2 -4 -33q-10 -5 -14 -20q-1 -9 -5 -22q-5 -14 -13 -54q3 -31 -3 -93q0 -2 -6 -14t-6 -14t1 -7.5t1 -8.5l3 -2q2 -1 4 -1q27 18 81 55l38 23l6 3l6 3t4.5 3.5t2.5 5.5q2 0 10.5 -2.5t10.5 -2.5zM502 56q-27 -19 -58 -60l-51 -74 l-17 -19q-17 -29 -17 -44q0 -3 1 -7l2 -4v0v0h1v0h1h1h1h1h1h1h1h1h1h1h1h10q10 0 22 6q2 1 4.5 3.5t3.5 4.5l2 2q8 -8 6 -8q15 11 48 46q27 39 32 113q-4 19 -4 21zM119 301q0 7 -6 19q-13 -1 -29 -35q-15 -35 -15 -55l-3 -55q1 0 16 18q16 19 17 19q0 6 2 26q9 15 11 19 q7 24 7 44z" />
<glyph unicode="fo" horiz-adv-x="564" d="M516 351q-2 -9 -5 -27l-6 -40q-5 -66 6 -143q-2 -6 -5 -54q-4 -9 -10 -29q1 -4 -1 -24q-5 -16 -27 -51q-26 -41 -35 -41q-1 0 -8.5 4.5t-9.5 4.5t-2 -1q-1 -1 -2 -1q-11 0 -35 36q2 2 0 4q-10 7 -17.5 22.5t-5.5 24.5l-7 6q-12 45 -12 64q0 9 8 30q0 3 -1 7v35q5 5 6 7 q0 7 3 24q5 6 10 13q12 52 12 67q0 14 -4 15q-1 1 -17 -2q-5 -1 -89 -1q-5 0 -9 -10q12 -18 23 -40q10 -26 10 -38q0 -2 -13 -18l3 -31q-4 -24 -11 -55q-11 -35 -27 -105l-4 5l-3 -9l3 -5l-4 -24l-2 1q-2 0 -3 1l-5 -23q-3 -19 -36 -104q1 -1 1 -7q-2 -6 -9 -11 q1 -5 -10 -20q1 -2 1 -8q0 -13 -14 -36q-13 -23 -13 -31q0 -5 1 -6l-5 -3q-4 -2 -4 -4q0 -1 2 -8t1 -9l9 -5q-3 -3 -3 -8q-7 7 -14 11q-2 -4 1 -50l-8 -5q-2 1 -5 3.5t-7.5 6t-7.5 6.5l-6 12q0 1 3 4q-18 12 -22 12q-2 0 -5 -1l-4 -1q0 2 7 8q-1 6 -22 10q-7 4 -6 12 q-1 3 -3 3l-6 -2q-6 13 4 19l-5 3l-8 -2q0 5 4 9q-5 0 -10.5 8t-5.5 14q0 1 5 12.5t5 15.5q2 8 -4 15q7 68 10 95l11 310q0 2 3 18t3 24q1 1 7 11q3 31 18 106q-2 15 -1 29q10 28 34 115q3 19 15 53l4 18q15 33 40 77l23 21q0 5 1 10q6 8 15 8q2 0 7 -3.5t6 -3.5q2 0 4 1 t4 1q9 0 11 -6q2 -9 12 -12q-3 -13 9 -18q-4 -4 -4 -14v-8q3 -4 10 -10q5 -24 9 -39q-2 -4 3 -15v-54q0 -2 -4.5 -10t-4.5 -10q-3 -26 -29 -73l-40 -64q0 -4 1 -5l8 4l-18 -25q42 3 101 3q5 0 41 7l22 4t15.5 3t5.5 1q5 0 9 -4q3 3 4 8l2 2q3 2 7.5 6t9.5 8q14 11 16 11 q1 0 7 -4t8 -4t3 1t3 1q1 0 7.5 -4.5t8.5 -4.5t2.5 1t2.5 1q9 0 16 -9l5 5q18 -12 27 -9q5 -12 5 -16zM228 562q0 2 -2 6l-2 4q-4 24 0 72q-2 6 4 19h-12q-7 -7 -17 -25q-4 -8 -8 -15l-6 -10.5t-3.5 -7t-2 -6.5t-0.5 -8q2 -14 0 -17q-5 -16 -22 -82q-13 -77 -13 -87v-16 l8.5 8.5l9.5 9.5t8.5 9t8 9.5t6 8.5t5 9.5t1.5 8.5q4 2 8 6q0 6 4 13.5t9 6.5zM456 223q0 17 -6 24q-11 -29 -15 -76l-7 -8v-42l14 14q0 11 1 18l9 25q0 2 -1 5l-1 6v-1q6 20 6 35zM250 72q-1 0 -8 -7q5 0 5 -6q3 7 3 13zM204 200q-4 21 -20 56q1 2 1 9q-12 7 -30 27h-8 q-12 -15 -19 -65q-7 -30 -10 -40l-2 -5q7 -22 1 -53q-4 -16 -4 -52l1 -6l1 1q-2 -1 -7 -8l1 -5l5 5l1 -8q-4 -4 -8 -4l5 -6q1 1 2 1q4 1 4 -2q0 -2 -1 -11t-1 -11q0 -3 2 -9.5t2 -8.5q0 1 -3 -6q-15 -14 -15 -19q0 -8 6 -11q1 7 8 22q7 -9 2 -35q5 0 8 -3q10 22 19 49 q2 3 11 12q2 10 2 20q2 1 7 6q5 21 27 75q3 -3 5 -1q-7 7 -6 10q8 14 8 57q1 -1 -1 -3q0 -1 3 -1t3 23zM241 20l3 13h-3l-4 -13h4z" />
<glyph unicode="ges" horiz-adv-x="975" d="M906 109q0 -41 -33 -90q-8 0 -34 -32q-22 5 -56 16q-9 5 -31 23q-29 28 -30 28q8 11 -7 13q4 12 5 14q5 5 8 10l-2 6v6q7 -2 17 8t11 16q1 12 18 35q2 3 23 32l3 -2q2 -2 4 -2l8 2l-9 -25q-5 -13 -14 -22l-13 -47q0 -34 33 -34q2 0 3 1.5t3 1.5t3.5 -2.5t3.5 -2.5 q15 0 25.5 10.5t10.5 22.5l-3 7q-3 45 -5 66q-9 27 -27 94l-12 17q-9 -18 -36 -70q-8 -10 -19 -21q1 -1 1 -7l-49 -61q-1 0 -9 -5q0 -1 -2 -7q-25 -32 -93 -82q-76 -55 -114 -55q-37 0 -90 35q-16 11 -30 41l-17 61q-1 4 -5 4t-23 -15q-16 -11 -28 -25q-1 -1 -6 -34l-9 -105 l-4 -8q0 -1 -4 -19t-4 -23q-3 -76 -31 -158q-2 -3 -29 -44q-1 -6 -5 -18q-6 -16 -12 -16q-3 0 -3 1t-3 1q-1 0 -9.5 -4.5t-11.5 -4.5q-2 0 -13 -1.5t-13 -1.5q-21 0 -89 33l-8 7q3 3 1 6q-8 0 -9 1q-12 9 -12 16q0 2 4 8.5t4 7.5l-1 19q5 10 19 55q4 17 11 52l12 18 q10 21 20 55q17 28 22 36l-8 -1q-14 0 -42 23q-20 16 -34 35q0 2 1.5 8t1.5 8v1q0 1 -0.5 4t-0.5 6.5t-1 10t-1 12.5q0 1 -2.5 7.5t-2.5 9.5q0 6 6 19.5t6 16.5q2 30 7 64l12 34l4 28q3 2 10 11q8 33 23 60q6 12 7 22l31 51q17 21 23 27q3 0 13.5 1.5t12.5 1.5q1 0 6 -2 t11 -2q1 0 26 5q24 6 27 6q2 0 7.5 -4.5t6.5 -4.5q15 -5 22 -5q2 0 15 7t15 7q4 0 10 -6q-11 0 -11 -11l3 -4q2 0 20 7q-8 -11 -7 -15l-3 -2q1 -6 0 -16q-4 -3 -8 -11q-10 -52 -15 -130q0 -28 -6 -80q1 -1 3 -1q5 0 37 23q30 22 36 31q2 6 43 107q-1 4 -5 4q12 18 44 57 q14 13 38 13q4 -5 23 -7q3 1 12 1.5t14 2t2 3.5l13 -7q5 0 5 4h8q3 -15 11 -15q2 0 5 1l3 1q7 -14 7 -16t-6.5 -9.5t-6.5 -8.5q-39 -64 -113 -122q-30 -22 -60 -55q-3 -9 -3 -25l17 -82q2 -10 17 -23t27 -13h15q11 0 41 14q28 14 39 24q8 7 65 51l8 9q8 8 11 8v4 q13 10 44 45q22 29 50 75q4 2 7 5l18 34q10 19 12 33q17 19 17 45q0 6 -2 12q-3 4 -12 25q-3 15 -2 28v18q-10 6 -10 36l1 2q0 3 0.5 7t0.5 9q3 16 3 25l3 -3q3 -2 5 -2t2.5 2.5t2.5 2.5q13 0 16 -1l5 -3q5 -3 7 -3t8.5 6t8.5 6t4 -1.5t4 -1.5t7 5q-6 -4 -4 -13q1 -5 1 -10 q-3 2 -6 -1q6 -3 26 -18q1 -4 -3 -14q3 -8 3 -18v6l-6 4q0 -4 2.5 -15.5t2.5 -13.5q0 -4 -7 -32t-7 -33q0 -1 11 -42q12 -32 27 -86q1 -23 11 -80q8 -37 8 -55zM498 332q0 3 -5 8h-8q-48 -37 -55 -84l6 5q8 0 18 16q12 16 21 19l14 21zM417 320l6 -1l-3 4zM233 218 q0 30 -12 77l-14 -21l-4 4v6q14 6 14 46q0 15 -13 24q-6 -6 -36 -40q-4 -6 -15 -31q-22 -37 -37 -71l-20 -76q-16 -61 -16 -81q0 -3 8 -40q8 -6 13 -6q8 0 29 24l24 27q2 -2 2 -5l2 10l23 25q1 3 10 20q2 -2 5 -2l-1 2l-2 5l21 41q12 23 10 39l6 7zM231 -64q-2 3 -7 9 q0 3 2 3q0 9 2 13q-9 0 -9 10q0 19 7 29h-13l-48 -44q-23 -42 -41 -55q-12 -30 -26 -59q-4 -5 -13 -21q-12 -53 -12 -64q0 -9 15 -17l6 -17q4 -12 12 -12q2 0 6.5 2t6.5 2t12 -2t12 -2q33 0 48 26q9 16 13 29q7 28 22 108l-2 6q-1 5 -2 9z" />
<glyph unicode="go" horiz-adv-x="704" d="M632 132q0 -16 -4 -52q-2 -16 -7 -17q0 -2 4 -5q4 -11 -20 -53q-3 -14 -5 -20q-2 -2 -6 -7.5t-6 -8l-6 -7.5t-8 -8.5t-10 -7.5t-13 -8h-15q-17 0 -23 3l-35 26q-18 14 -28 29l-1 5q-1 5 -4 17.5t-6 25.5q-14 67 -2 126q0 2 -3 27q6 10 6 17l-2 16q-3 16 -3 22l-5 5 q-32 -18 -90 -66q-30 -26 -32 -47q-2 -16 1 -80q4 -94 1 -147q-1 -30 -13 -89q-9 -41 -17 -62q-3 -17 -13 -39q-24 -34 -36 -34q-3 0 -3 1.5t-3 1.5q-7 -7 -20 -21q-20 -21 -28 -21h-15q-2 0 -7 4.5t-7 4.5t-4 -3t-5 -3q-2 0 -4 3t-4 3t-1 -3t-2 -3q-5 0 -37 26l-33 26 q-11 4 -25 10q-7 12 -16 23q-21 2 -21 11q0 2 3 5q-7 3 -10 13.5t-6 10.5q0 2 3.5 4.5t3.5 3.5q3 10 -2 19q4 1 7 -2q3 9 3 24q0 -7 4 -10q2 2 3 10q0 5 -1 8q3 7 14 20q0 1 -3 7q0 9 13 19q0 1 28 58q4 -2 8 -6q6 17 18 43q-18 14 -51 45q0 2 -10 19v72q0 4 9 39l15 47 q1 3 16 35q2 15 8 30q28 48 48 82q33 51 51 71l12 24q6 2 13 9q5 12 16 27l8 4q17 0 26 -17q6 0 6 9q46 -9 43 -11q8 0 8 5l35 -23q-7 -12 -5 -32l3 -29q10 -17 10 -25q0 -2 -1.5 -4.5t-3.5 -3.5l-2 -1q1 -3 1 -11q-5 -4 -12 -16q-1 -8 -3 -21l-4 -24q0 -7 2 -9q36 24 94 57 q47 19 74 32q1 0 4.5 8t6.5 8q2 0 2.5 -1.5t2.5 -1.5q12 0 16 13q11 7 25 7q2 0 6 -4.5t6 -4.5q3 0 3 1.5t3 1.5q6 0 23 -10q19 -11 21 -14q-8 -5 -8 -17q0 -5 5 -10q-13 -10 -10 -20l-6 -4q0 6 -5 11q-2 0 -11 -7t-12 -7q-2 0 -3 1.5t-3 1.5q-8 0 -14 -29l68 -33 q24 -57 24 -118zM-11 -199v-10h-5v10h5zM10 -259l4 -4l-3 -3l-4 4zM568 135l-8 32q-6 28 -6 31q-4 0 -7 4.5t-8 14t-6 11.5q-4 2 -9 8q5 5 8 5l-7 5q-7 -12 -12 -26.5t-8.5 -34.5t-5 -31.5t-4.5 -38t-4 -34.5q-1 -3 -1 -7l-2 -6q0 -26 6 -54q10 -12 21 -12q4 5 16 17 q18 24 21 53q0 3 -2 5q20 14 5 42q4 0 5 2.5t1.5 8.5t0.5 7q2 -2 6 -2zM232 214q0 3 -3.5 14.5t-3.5 13.5q-3 19 -3 44q0 4 -3 8t-3 6q0 13 -1 37q-1 25 -9 33q-11 0 -23 -4q-35 -36 -75 -127q-45 -101 -45 -164q0 -33 26 -51q47 47 59 62q32 40 49 60q35 47 35 68zM133 -35 l3 11h-4l-3 -9zM252 -98v107q-17 23 -17 28l-5 36q-44 -42 -54 -64q-3 -3 -8 -3q-2 -7 -6 -14l-12 -8q-5 -15 -25 -55l-6 6q0 -16 -1 -18q-9 -9 -16 -27q0 -4 -2 -16q-2 2 -9 2v-16q3 0 5 -2q-14 -20 -14 -26q0 -2 2.5 -7.5t2.5 -7.5l-10 -31q5 -2 12.5 -11.5t8.5 -9.5 q16 10 27 4q0 -1 3 1t6 4.5t5 2.5q3 0 4 -1.5t3 -1.5q16 0 63 37q24 21 33 50q1 3 0 19q-1 11 10 22zM81 -37h5v13h-5v-13z" />
<glyph unicode="gre" horiz-adv-x="961" d="M1037 214q0 -7 -4 -11q0 -57 -54 -119q-5 -6 -28 -30t-43 -46q-3 1 -5 2l-9 -3q-6 -8 -16 -18q-9 -6 -29 -13q-25 -9 -24 -9q-8 0 -15 -4l-6 4l-5 -4q-59 15 -119 75q-10 -5 -14 -14l1 5q1 5 1 7q-4 -2 -23 -18q-1 -1 -9 -7.5t-24 -18.5t-34 -26q-8 0 -34 -16 q-14 -9 -18 -9q-2 0 -2 1.5t-2 1.5q-13 -8 -19 -8q-2 0 -2.5 2.5t-2.5 2.5q-3 0 -3 -1t-3 -1q-21 0 -56 29q-34 28 -34 47q0 1 1.5 6t1.5 7q-1 22 9 55q2 0 6 -1l4 -1q4 5 -2 10q-2 9 5 24l14 25l34 58q27 48 27 71q7 3 7 10q0 3 -3 13q-4 19 -9 20q-2 1 -5 1 q-48 0 -100 -29q-87 -50 -87 -83q1 -15 3 -44q1 -11 5 -65q-1 -9 -3 -7q7 -7 7 -19q0 -2 -2 -5.5t-2 -4.5q-5 -19 1 -49q2 -18 -1 -31q-1 -10 1 -14q-3 -3 -9 -10q3 -28 -6 -62q-4 -16 -1 -27q-9 -42 -9 -46l1 -16v1q0 -1 -11 -35l-12 -17q0 -8 -4 -20q-5 -15 -28 -29 q-22 -16 -37 -16q-1 0 -8.5 2.5t-10.5 2.5q-1 0 -7.5 -1t-8.5 -1t-59 30q-30 15 -45 20l2 6q0 3 -7 3q2 5 10 47q2 0 3.5 2t6 7.5t10.5 11.5q1 8 2 23q5 3 6 10q-2 8 18 43q1 9 8 35q12 32 42 109q1 1 -1 3q-2 -1 -10 -9q0 7 -2 9q-9 -4 -6 -11q-2 2 -13 2q-1 -1 -2 -4 q-2 0 -13 -1.5t-13 -1.5q-21 0 -38 17q-8 6 -18 36l-8 4l-11 23q0 5 4 22q1 3 5 29q-2 11 -1 24l7 15q5 12 5 16q0 3 -2 7q19 31 34 62q-1 3 1 12q6 18 27 47q-1 18 14 26l11 33q6 4 12.5 14t3.5 15q5 0 8 1q7 8 12 19l14 14q7 -1 20 -10q4 0 4 7q4 -7 16 -7q2 0 6.5 2.5 t6.5 2.5t16.5 -8.5t16.5 -8.5t2.5 1.5t2.5 1.5t19 -14q8 0 19 -11q8 -40 8 -48q0 -5 -6 -17q-13 -10 -13 -33q0 -12 2 -22q3 -2 7 -2q3 0 17 9l6 -4q4 7 18 18q50 24 65 24q2 0 4 -2l5 4q53 10 84 10q24 0 44 -6q14 -5 29 -18q3 -6 8 -19q5 -1 10.5 -8.5t5.5 -18.5 q0 -51 -44 -95l-14 -22q-5 -10 -21 -30q1 -1 -5 -13q1 2 2 5q1 4 0 7q-2 -2 -4.5 -5t-7.5 -7.5t-8 -7.5q0 -4 2 -6q5 0 12 10q-12 -20 -48 -67l-1 2q0 2 -1 3l-6 -9q-5 -18 -5 -28t7.5 -24.5t15.5 -14.5q14 0 27 10q10 7 18 15q1 1 3 1q2 1 3 1l55 52l14 7l3 6q4 6 7 10 q17 13 50 52q0 -1 2 -5q23 39 22 44q8 33 13 46q0 1 -1 11q7 15 11 39q0 -5 7 -5q3 3 -3 9q7 3 7 10q0 2 -1 8t-1 8q0 7 5 14q2 4 5.5 8.5t9.5 12t10 13.5q0 1 -5 6q21 20 18 26l2 6q5 0 7 1l17 14q1 0 8.5 1t9.5 1q3 0 12 -5.5t13 -4.5l5 -5q4 -1 17.5 -6t15.5 -5t3 1t3 1 q31 0 31 -33q0 -16 -10 -35l-12 -21t-13 -22.5t-14 -22t-20 -26.5l-38 -46q-5 -5 -21 -16q0 -4 -3.5 -9.5t-6.5 -8.5l-4 -3q-5 -13 -5 -39q0 -73 34 -73q9 0 21 5l57 33q20 14 40 31q4 4 17 22q10 8 24 22l29 31q0 4 1 7l50 50q11 -5 11 -9zM62 -189h5l-3 -14h-4zM809 290 q-4 4 -2 12l2 12v2l-14 -22q-10 -16 -10 -28l7 5zM220 294l-5 10q4 8 1 18l-11 29q-12 -4 -25 -31l-12 -15q-7 -13 -28 -57q-14 -33 -21 -55q-22 -72 -22 -83v-10h10q7 6 33 22q6 13 16 26q7 4 13 12q15 25 35 69q16 51 16 65zM252 32q0 6 -2 8t-7 -2q3 -6 9 -6zM261 -79 q1 4 -5 8v-16zM262 -5q-4 0 -10 -6l-4 3q4 4 4 10q-5 0 -8 5q-1 19 -5 55q-3 35 -13 59q-8 -8 -15 -19q-20 -60 -43 -105q1 -2 1 -9l-13 -24l-6 -40l-10 -26q-7 -15 -7 -30q0 -16 -4 -36l-4 -22q0 -6 2.5 -9t6.5 -2q0 10 3 10l2 -9q-4 -7 -4 -15q0 -24 37 -24h9q1 0 4 5t5 5 t4 -1.5t4 -1.5q13 0 28 19q11 14 16 28q-1 10 7 26q-2 8 0 13q3 4 5 4q3 -4 6 -1q-3 3 -12 8l2 10q4 0 9 -5q0 9 3 24q-8 -12 -14 -15v18l4 5q-4 71 10 93z" />
<glyph unicode="gue" horiz-adv-x="1088" d="M458 319h5v8h-5q4 4 7 4t7 -1l3 -2q5 4 -1 10q48 18 72 35q27 2 28 1q1 0 8 1.5t12 1.5t11 -1.5t8.5 -8.5t1.5 -19q-15 -26 -33 -83q-12 -39 -26 -96l-13 -63v-19l13 3q2 2 3 11q10 5 22 17q0 6 4 14q20 22 47 61q4 2 8 6q5 10 9 25q25 40 45 39q12 -5 15 -5t19 6t20 6 q2 0 13 -18q-2 -12 -20 -37q-12 -26 -12 -100q0 -15 4 -38q6 -34 15 -34q5 0 21 10l27 16q-18 61 -18 86q0 45 24 102q24 56 57 85q4 3 19 28q4 8 31 21q0 -2 10 -11q39 14 44 14q6 0 19 -16q15 -15 19 -24.5t4 -27.5q0 -1 -4 -17t-4 -21q-1 -48 -17 -78q-27 -52 -55 -90 q-18 -26 -32 -44q21 -49 49 -49l57 33q20 14 40 31q4 4 17 22q10 8 24 22l29 31q0 4 1 7l50 50q11 -5 11 -9q0 -7 -4 -11q0 -57 -54 -119q-5 -6 -28 -30t-43 -46q-3 1 -5 2l-9 -3q-6 -8 -16 -18q-9 -6 -29 -13q-25 -9 -24 -9q-8 0 -15 -4l-6 4l-5 -4q-51 14 -100 57l-10 -8 l-3 -8q-44 -27 -50 -27t-14 5q-23 5 -53 16q-30 29 -46 67q-2 16 -7 35l-6 7l-39 -44q-20 -27 -26 -45q-3 -6 -17.5 -16.5t-20.5 -10.5q-16 0 -33 17q-27 27 -33 31q0 1 -2 7t-2 9q0 30 32 161q17 72 18 94q-18 -10 -78 -57q-26 -19 -94 -77q-7 -7 -10 -28q-5 -41 -8 -92 l-6 -166l-9 -47l-16 -32q0 -17 -4 -41q-12 -33 -34 -33h-22q-4 0 -10 2t-10 4t-4 3q0 3 -3 3t-3 -2q-1 -1 -3 -1t-9 5.5t-8 5.5l-52 22q-1 7 -6 10q-2 0 -23 7q-19 5 -26 18q-8 13 -14 30l-1 12q0 16 26 42q-2 2 -6 2l10 26q0 -2 3 -6l8 19q7 3 7 4q-1 1 -5 1q7 4 14 16 q7 17 10 19q13 8 19 13q8 15 49 70q36 46 36 49q0 4 -8 12q-6 -3 -15.5 -15t-9.5 -20q-4 0 -6 3q-18 -18 -25 -28q-4 -4 -31 -17q-26 -13 -30 -13h-10q-11 0 -21 7l-28 17q-18 13 -24 26q-7 16 -6 50l-3 3q-4 3 -4 6q0 2 7 14.5t7 14.5q0 3 1 7.5t3 11t3 11.5l68 87 q4 12 5 14q38 38 75 63q7 1 20 8l9 13q15 7 28 7q3 0 6 -1.5t5 -3.5l2 -1q5 5 17 23q6 9 19 12q7 -9 11 -9q2 0 7 1.5t7 1.5t7 -3t7 -3q3 0 6.5 4t4.5 4q10 4 16 15q7 -7 8 -12q11 -8 28 -14q2 -12 -28 -40q-7 -6 -8 -20q0 -11 -1 -17q-6 -36 -6 -46q0 -14 1 -15 q12 -8 18 -13q3 3 11 18q-2 -3 6 -3q15 8 20 19q12 5 34 24l16 13v-8zM247 27q0 8 -7 35q-37 -51 -47 -73q-2 -12 -7 -26q-2 -1 -7 -6q-2 -11 -14 -43q-1 -2 -5 -6.5t-7.5 -9t-3.5 -6.5v-24q3 0 16.5 -6t16.5 -6q10 0 28 8q8 4 13 9t6.5 8t4.5 15t4 17q9 91 9 114zM253 288 q0 2 -2 14t-2 15q-29 -22 -61 -50q-13 -11 -45 -62q-38 -59 -38 -79q0 -4 5 -9q4 6 13 6q4 0 10 -6q3 12 13.5 20t19.5 7q0 11 -1 11q5 0 5 -6q13 21 21.5 30.5t13.5 8.5l24 39q2 -2 7 -2q-4 5 -3 9q5 5 13 18q7 20 7 36zM935 296q0 3 -2 8l-2 5v19q-18 -18 -26 -36 q-40 -76 -40 -143q34 45 43 66q0 6 7 30q7 25 16 29q0 1 2 10t2 12zM84 -106l4 6h-1q0 -3 -3 -6zM83 -108z" />
<glyph unicode="ha" horiz-adv-x="815" d="M549 138q-20 -21 -52 -84q-27 -55 -52 -70l-30 24q-19 15 -27 15q-9 0 -21 -20q-10 -19 -28 -19q-27 0 -56 25q-14 12 -33 41q-5 7 -9.5 27.5t-5.5 22.5q-6 6 -14 18q-2 2 5 13q-12 16 -15 41l-5 37q4 13 3 15q-4 4 -9 14l-5 14q-7 -3 -25 -51q-3 -4 -10 -20l2 -16 q-4 -17 -19 -39q0 -3 -2 -12t-5.5 -22t-5.5 -21q-3 -7 -8 -36q-2 -21 -10 -29q-7 -7 -19 0q-21 17 -31 21l1 3q1 2 1 6t-10 7q5 5 5 6q0 4 -9 67q-9 61 -4 141l26 341l5 7q0 1 -0.5 3.5t-1 5.5t-0.5 6v3q7 9 9 9t4 -2.5t4 -2.5q8 0 10 11q11 5 11 8q0 4 -1 6q16 -4 30 -11 l2 -3q1 -2 3 -4q3 -1 5 -2q13 0 14 10h10q1 -4 11 -17q-12 -5 -12 -13q0 -6 6 -9v-33q-4 0 -6 -5h-11q-7 -1 -10 -7t-7 -29q-9 -47 -24 -149l-6 -7l-21 -176v-18q0 -3 4 -7q4 4 5 7q5 16 11 43l5 6q0 9 1 16q10 22 19 57l14 18q3 4 12 25q7 20 26 34q23 17 42 17q4 0 20 -4 l4 -4q5 3 18 3q0 -3 2 -12.5t2 -11.5q7 -10 7 -11l-18 -152q0 -43 20 -121q5 -16 18 -35q3 0 17 11q-2 2 -3 2l125 197q10 4 21 25q2 3 7.5 14l8.5 17q10 11 24 30l6 17q3 4 24 29l19 4q1 0 8.5 6.5t9.5 6.5q3 0 15 -5.5t14 -5.5t12 2.5t13 2.5q4 0 9 -5q3 3 11 3 q5 -7 5 -13q-10 1 -15 -2q0 -2 4 -5l3 -15q1 -10 8 -13q0 -4 -5 -4q0 -4 -3 -19.5t-3 -16.5q-15 -10 -16 -30q-3 -36 -4 -37v-89l3 -54l3 -10q2 -24 10 -45q12 -29 28 -29q8 0 31 14l24 16q5 0 12 4q71 62 95 100l4 15q9 12 31 50h9q3 -2 10 -9l3 -6q3 -7 3 -10q0 -4 -7 -17 l-11 -27l-6 -36q-2 -2 -12 -16q-2 -13 -7 -31q-4 -10 -20 -28q-23 -23 -62 -54q-15 -11 -45 -21q-25 -9 -33 -9q-48 0 -81 47q-24 38 -43 77q-12 42 -13 63zM543 261q0 7 -6 15q-20 -10 -42 -55l-32 -76q0 -2 -2 -16q0 -3 -7 -17q-5 -12 -4 -15v-11q15 14 20 20q10 17 25 49 q7 13 16 38l26 47q4 7 0 14l3 2z" />
<glyph unicode="he" horiz-adv-x="591" d="M678 213q0 -3 -3.5 -11.5t-3.5 -9.5q-3 -16 -36 -99l-16 -19q-26 -35 -67 -77q-44 -35 -62 -35h-24q-29 0 -54 19l-43 43l-7 -5q-4 10 -13 10q-2 0 -10 -5t-11 -5q-2 0 -16.5 -2.5t-16.5 -2.5q-20 0 -37 11q-6 7 -21 18q-1 4 0 8q-19 23 -19 60q0 3 9 42q8 41 12 64l-4 5 q-3 0 -7 -2q-26 -40 -63 -120l-7 -5q-6 -5 -10 -8q1 -2 -1 -13q-18 -24 -26 -24q-2 0 -2.5 1.5t-2.5 1.5q-5 0 -16 -11q-41 24 -56 44.5t-15 55.5q0 3 1.5 10t1.5 9q2 36 13 83l21 83q2 0 3 3q12 50 36 166q4 14 13 42q3 28 5 36q1 10 15 33q-1 2 -1 6t4.5 11.5t10.5 15.5 t6 9q4 14 1 31q13 16 17 22q-1 1 -1 7q7 8 7 14h14q2 0 68 -19l11 -9q9 0 18 -4q4 -5 39 -44q-5 -53 -13 -81q-6 -17 -34 -61q-14 -22 -67 -91l-80 -103q-24 -33 -24 -93q0 -1 1 -3t1.5 -5t2 -7.5t2.5 -9.5l59 67q34 40 38 40q3 0 4 -2l2 -1q0 9 8 14q3 0 25 5q15 4 20 4 q6 0 19.5 -6t16.5 -12q3 -4 5.5 -21t3.5 -20l-28 -162q6 -7 7 -7h9l5 12q12 7 22 16q0 2 2 10q8 13 8 26q-1 9 -1 25q0 2 3 8.5t3 7.5q0 13 -4 22l4 4l5 50l6 5l1 15v24l21 49l24 34q25 6 18 6q2 0 13.5 -5t13.5 -5q7 1 38 -1q18 -6 69 -33q0 -16 -12 -38q-7 -5 -18 -32 q-5 -5 -8 -10q-2 -2 0 -5q-18 -34 -58 -99q-47 -71 -47 -78q0 -11 8 -48q10 -43 25 -43q1 0 21 14t22 14t2.5 -1t2.5 -1q3 0 8 8l8 14l15 9l18 19q8 11 12 22l5 -5q1 12 18 35q3 0 8 3q3 14 12 21q13 13 15 16l29 56q8 2 8 9q23 -11 23 -29zM260 585q-4 2 -6 6t-3 8 t-2.5 14.5l-2.5 17.5q-5 8 -16 19h-9l-18 -40q-9 -38 -19 -39q4 0 5 -3l-21 -85q-7 -27 -13 -43q2 -13 -4 -28q12 10 30 36q22 29 28 34q13 39 34 58l4 25q2 3 13 20zM460 300q0 1 -1.5 13.5t-1.5 16.5h-10l-12 -33q-12 -32 -12 -38q0 -2 2 -8.5t2 -7.5l9 5q0 7 12 25t12 27 zM416 225h9v10q-4 -6 -9 -10z" />
<glyph unicode="her" horiz-adv-x="997" d="M696 202l25 38q6 21 6 25q0 15 -10 29l-36 38q-25 26 -26 56q-1 13 4 22q-1 -3 -4 -3q0 2 -1 7l-2 4h10q1 0 14 -11t17 -13l20 -4q6 -2 11 -14q6 1 12 -1t17.5 -10t13.5 -9q11 -11 32 -30q1 -4 27 -30l30 -28q14 -17 18 -28q17 -48 17 -84q0 -22 -16 -25q0 -7 -1 -13 q-8 -21 -12 -21t-5 1l-1 1q0 -5 -1 -10l-16 -28q-3 -10 -14 -38q3 -1 16 1q17 5 17 6h6q4 1 2 5l3 -1q3 -1 5 -1q15 13 27 21q29 22 48 22q0 3 -7 3q7 7 39 34q12 11 64 84h10q7 -34 10 -34q-2 -14 -21 -47q-18 -31 -22 -34q-6 -8 -29 -33l-26 -20q0 -4 -1 -7 q-16 -18 -21 -18q-2 0 -2.5 1t-2.5 1t-20 -18q-19 -18 -32 -27q-20 -12 -32 -12q-2 0 -15 1t-15 1q-7 0 -21 8q-9 4 -26 38q-3 5 -17 30q-5 25 -5 37v1q0 1 0.5 4.5t1.5 8t1.5 11t1.5 14.5q5 5 10 14q1 5 23 41l8 23q7 5 12 13q3 16 0 23q1 1 1 4q2 4 2 3v13q-29 17 -33 17 q-11 0 -16 -8l-17 -34q-1 -10 -7 -24l-18 -35l-50 -58q-13 -13 -43 -48q-4 -1 -15 -10l-6 -12l-25 -21q-29 -26 -31 -26q-3 0 -3 1l-1 1q-35 -27 -52 -27q-2 0 -3.5 -2t-2.5 -2t-2.5 0.5t-4.5 1t-6 0.5q-2 0 -5 0.5t-4.5 1t-2.5 0.5t-32 14q-3 2 -10 14l-16 20 q-13 19 -16 19l-27 -14q-27 -13 -41 -13h-13q-12 0 -36 15q-6 8 -12 14q-16 16 -38 69q-2 2 -9 31q2 9 1 17l-5 16v1q1 2 1.5 4t0.5 4l3 8l-1 31l2 5q2 4 2 6q0 14 -6 28h-1l-23 -51q-10 -18 -21 -58l3 -11q-1 -1 -13 -30q-7 -16 -6 -27q-1 -1 -4 -16q-1 -10 -5 -10 q-3 0 -3 1h-1q0 -2 1 -5q2 -6 2 -7q0 -13 -11 -57q-7 -9 -14 -24h-7q-2 0 -15 10q2 3 1 7q-4 -4 -11 -4q-6 0 -37 42v12q-2 4 -5 7l-6 58l-2 4q2 91 0 93l14 158q0 1 2.5 10t2.5 11v21q1 1 7 25q-1 5 1 27q13 50 28 83q-1 3 -1 12l12 56q3 9 11 7q0 20 -1 21q11 -4 49 -7 q13 -13 29 -8q3 -6 4 -10.5t1.5 -6t1.5 -3.5t4 -5q-6 -13 -6 -17q0 -6 7 -20q4 -12 7 -17v-17q0 -13 7 -17l-6 -6q1 -5 -1 -25l-42 -89q-13 -18 -42 -65q-1 -2 -3 -18q-2 -28 -12 -81l5 -3q12 9 22 27l15 30q3 5 6 13l10 6q-1 6 6 21t7 20q2 0 5 3q8 11 26 46q8 6 14 6 q2 0 4.5 -2t4.5 -2t14 3q11 3 14 3q0 -2 29 -17q0 -8 3 -26q4 -16 4 -20q0 -9 -11 -67q-4 -9 -6 -20q-2 -9 -7 -77q-3 -7 -3 -9q1 -64 20 -64h1q1 1 5.5 3t9.5 4q56 23 68 52q0 2 -1 3h2l3 3q-1 1 -4 1q1 10 8 36q0 21 5 54q0 1 3.5 6t3.5 7q0 12 -1 13q5 10 8 18 q23 66 54 109q6 8 15 8l4 7q10 7 16 7q20 0 45 -9q21 -8 31 -20l9 -29q0 1 -1 2q-2 -10 -2 -23l-2 -8q-1 -2 -1 -5l5 -14q7 -30 -27 -82q-3 -3 -11 -14q-1 -4 -5.5 -11t-13.5 -21.5t-16 -26.5q-12 -17 -20 -19q-16 -29 -33 -37l2 -8q-8 -14 -8 -19q0 -4 5 -19q6 -16 12 -16 q10 0 38 17l64 51q3 0 3 -1q-1 -1 -1 -3q18 15 38 35q25 23 27 23q3 0 2 -1q-2 -1 0 -3q5 5 6 16q21 16 37 35q2 0 10 5zM541 313q0 7 -8.5 18.5t-14.5 11.5q-17 0 -31 -38q-5 -7 -9 -16q-24 -76 -23 -88v-9q10 7 17 15q4 -4 7 -4q0 2 -4 9q6 5 35 41q31 43 31 60zM168 474 l2 5q0 9 -6 34l-2 2q0 1 1 6t1 7h-12q-3 -24 -13 -61v-32q6 7 12 19q3 0 4 -3q2 9 6 19q2 -2 5 -2z" />
<glyph unicode="ie" horiz-adv-x="523" d="M237 541q-7 -18 -30 -62l-14 -19q-7 -14 -6 -21q-6 -3 -17 -3q-21 0 -42 15l-4 3q-4 3 -12.5 10t-17.5 15q3 9 12 28q6 5 21 23q5 0 8 1q1 3 8 12q32 20 48 20q10 0 15 -1q5 -6 14 -8q10 -12 17 -13zM576 112q0 -29 -31 -72q-5 -9 -25 -23l-29 -21q-58 -47 -120 -56 q-7 -4 -11 -4h-7q-42 0 -81 26q-11 6 -45 31q-5 3 -21 24q-14 17 -18 17q-2 0 -13.5 -5.5t-13.5 -5.5q-7 0 -26 10q-18 10 -30 20q-15 14 -37 45q-22 33 -26 51q-14 62 -14 94v2q1 2 3 9l4 14q1 9 1 35v8q2 0 9.5 4t9.5 4t4.5 -1t4.5 -1t8.5 4t8.5 4t10 -3l7 5q27 -8 28 -8 q-1 -4 -14 -33q-10 -21 -10 -26q0 -2 1 -9.5t2.5 -17.5t1.5 -13l2 -66q8 -59 26 -59q13 0 32 30q-2 99 46 170l10 18q1 5 7 19l29 40q6 8 14 8l3 -2l3 -2q3 0 17 -2t17 -2q2 0 7.5 1.5t7.5 1.5q19 0 31 -15q17 -20 37 -28v-22q-3 -4 -14 -8v-2q1 -1 1.5 -3t0.5 -5 q1 -7 0 -11q-35 -97 -94 -154q-3 -5 -2 -13q-8 -10 -29 -31q-19 -18 -19 -21q0 -2 12 -21q36 -57 78 -57q4 0 34 11q31 11 46 21l32 25q25 16 37 22l19 18l53 66q2 12 5 19q3 -3 9 -3l6 -29zM298 298q-9 0 -12 3q-26 -22 -49 -98q25 33 52 65q0 4 9 30z" />
<glyph unicode="if" horiz-adv-x="508" d="M317 201h4l-3 -9l-4 1zM550 309l-10 -17l-78 -20l-4 5q-10 -10 -22 -10q-1 0 -1.5 1.5t-2.5 1.5t-7.5 -4t-6.5 -4q-2 0 -2.5 1.5t-2.5 1.5q-4 0 -21 -10q-16 -9 -20 -9q-2 0 -4.5 1t-3.5 1q-14 0 -42 -18q-7 -2 -11 -7q-5 -31 -5 -34q5 -5 11 -2q0 -3 -3 -18 q-4 -4 -10 -7q0 -4 -1.5 -19t-1.5 -17q0 -1 3 -16t3 -20q-2 -26 3 -73q0 -3 -3 -12.5t-3 -10.5l4 -6q4 -6 8.5 -13t4.5 -11q1 -7 3.5 -27.5t3.5 -30.5q2 -3 4 -9l1 -24q7 -27 19 -63q13 -39 13 -42v-11q-6 -2 -13 -7q0 5 -7 11q-5 -9 -4 -13q1 0 -1 2l-7 7l-6 -7q0 -3 7 -3 q0 -2 -3 -7q-10 7 -22 12q0 2 4 6q-5 3 -7 3q-9 0 -9 1q-11 12 -19 14q-1 1 1 7q1 4 -1 4q-3 0 -5 -1l-2 -1l-16 20q-4 17 -10 37q1 6 2 10v68l-9 7q0 5 3 14q-1 3 -7 26q-1 0 -7 13q-9 -5 -28 -13q-12 -4 -23 -2l-7 -4q-5 0 -18 8q1 1 -2 6q-4 -4 -7 -4q-16 0 -45 41 q-23 33 -25 43q0 10 -4 22q-6 10 -11 24q0 16 -1 28q-7 34 -7 52q0 1 6 31q1 10 -2 28q4 2 5 5v1q0 1 -0.5 2.5t-1 4t-0.5 5.5l7 29q-2 19 -1 38q3 19 14 60q10 -1 15 2l7 -7q2 3 11 10l11 -10l6 5q33 -19 65 -51q-3 -3 -4.5 -9t-2 -12.5t-0.5 -7.5l-20 -10q-6 -4 -13 -19 l-6 -18q-9 -18 -19 -86q-6 -42 -6 -59q0 -31 9 -59q11 -36 32 -36q1 0 8.5 1t9.5 1q4 0 14 13l17 18q2 6 17 20l3 13q3 6 5 8q1 2 -4 14q5 4 4 18q-2 23 -1 25l10 40l6 53q1 5 -1 19l5 8q-1 1 -3.5 3t-5 4.5t-4.5 5.5q0 32 -10 39h9q2 11 0 14q4 0 6 -2q9 5 9 14l14 -5 q5 22 21 77q3 9 -1 12q3 5 16 35q0 8 -1 15l11 16q-5 11 -15 14q-22 6 -27 6q-1 0 -9.5 -2.5t-10.5 -2.5t-13 2.5t-13 2.5q-1 0 -4 -5t-5 -6q-8 -5 -23 -6l-3 -4q-2 -3 -4.5 -7.5t-2.5 -7.5t3 -6h-13q-7 -1 -12 -1q-4 0 -29 16q-26 17 -28 17t-2.5 -1t-2.5 -1q-5 0 -27 15 q-10 5 -32 27q-28 28 -28 38q0 -1 6 9l-1 10q1 0 5 4q0 4 -7 11q38 11 55 11q4 0 58 -22q55 -21 59 -21q2 0 3 1.5t3 1.5q4 0 21 -10q19 -10 26 -11q66 -22 107 -22q13 0 14 1q9 12 14 17q23 20 42 20q2 0 14.5 -3t15.5 -3l4 -6h16q1 1 0 5l-2 4q17 -17 41 -50l9 -19 q-10 -13 -13 -13q-2 0 -10 -1t-10 -1q-6 0 -24 12q-36 -16 -55 -42q-9 -14 -27 -54q-5 -5 -14 -5q-3 -24 -12 -54q-1 0 -6 -5q0 -10 18 -10q1 0 13.5 1t14.5 1q26 0 35 -9q2 2 2 7h12q18 0 99 -22q-6 0 -13 -7q2 -4 5.5 -6.5t6.5 -3.5l3 -1q1 4 8 9zM493 316l6 6l-2 2l-6 -5 zM307 -64h4v8h-4v-8z" />
<glyph unicode="ig" horiz-adv-x="692" d="M430 447l-55 27q-42 18 -62 19q-1 0 -6.5 4.5t-7.5 4.5q-1 0 -7.5 -3.5t-8.5 -3.5t-7.5 2t-7.5 2q-5 0 -24 -4q-17 -3 -28 0q-3 -5 -3 -6q-5 -3 -5 -9q0 -2 1 -12.5t1 -13.5q-3 -1 -13.5 1.5t-11.5 2.5q-11 0 -46 23q-27 13 -42 30l4 6l3 6l-9 9v8q8 0 9 1q-5 9 -10 11 q2 0 7 1l13 3q8 0 11 -5l5 5q5 -5 11 -5q2 0 7 3l4 3q6 -1 15 0q7 1 12 1q3 0 10 -6q37 -6 44 -1q53 -10 107 -38q58 -29 90 -66zM653 139q0 -14 -8 -25q-20 -22 -44 -56q-1 -9 0 -55q1 -17 1 -43q1 -9 1 -15q0 -43 -5 -78q-4 -11 -10 -43q1 -4 1 -16q-14 -50 -31 -89 q-4 -17 -10 -32q-3 -2 -11 -10q5 -5 7 -5l-19 -19q-2 0 -3.5 -2.5t-3.5 -2.5l-9 3q1 1 -1 6q-3 0 -3 -6q-25 0 -38 -1q-19 0 -18 0q-5 0 -26 21q-3 0 -3 -1q0 -2 -3 -2q-9 0 -38 29l-23 3q0 7 -1 12q-2 3 -11 10q3 2 4.5 7.5t5.5 6.5q0 6 -5 1l12 26q0 12 4 27q2 6 14 19 q-4 -10 -2 -16l5 4l16 36v0v0v1v1v0v1v1v1v1v1v1v1v1v1v1v1v10q0 -2 2 -6q4 0 4 7h2q0 7 -3 13q14 9 18 16q0 2 7 16q4 9 8 9q2 0 2.5 -1t2.5 -1q3 4 8 13q5 3 -1 3q-3 0 -6 -2q3 5 16 14q-2 2 -4 2q0 1 3 7t3 8q2 2 12 0q3 13 7 25q2 -1 5 -4q2 0 6 3q-4 2 -5 2q0 3 9 12.5 t9 13.5q0 3 -1 5l2 -4q11 11 22 27q12 16 15 16t3 -1v-2q0 1 2.5 6t2.5 7l-1 1q0 1 -0.5 4.5t-1.5 8t-2.5 12t-3.5 15.5q1 4 1 20l-5 10l-3 22q-1 17 -9 24q-10 -29 -33 -81q-16 -35 -35 -57q-8 -8 -14 -11q-2 -4 0 -9q-15 -15 -40 -42q-26 -27 -29 -27q-2 0 -7.5 -1 t-7.5 -1q-26 0 -58 29q-31 28 -28 53l2 1q-1 1 -4 1q-1 0 -5 -2q1 2 -6 15q-19 -14 -48 -40l-3 -9l-8 -7q-8 -7 -10 -7t-7.5 2t-7.5 2q-6 0 -6 -9q-6 6 -11 6l-21 -1q-6 4 -17 11q-2 0 -2.5 -1t-2.5 -1q-12 6 -33 32q-1 4 0 7q-1 1 -2 2.5t-2.5 2.5t-3 2.5l-3.5 3.5 q-3 3 -4 14q-15 7 -13 39q-16 30 -16 106q0 45 16 93q2 -2 7 0l10 2q2 0 3 -2.5t2 -2.5q2 0 6.5 2.5t6.5 2.5h2q11 1 11 4q25 -6 26 -13l16 4q5 -5 5 -10q0 -2 -4.5 -9t-4.5 -9q-6 -33 -6 -41q0 -6 -1 -24.5t-1 -22.5v-37q0 -3 -1.5 -14.5t-1.5 -13.5l1 -20q1 -20 1 -27 q0 -3 5 -15q8 -15 12 -18q12 4 36 21l5 -5q0 1 13.5 7t15.5 11q0 -1 3 -4q5 0 1 4q3 0 5 -2l6 6q3 1 1 6v5q0 -3 5 -8l16 18q7 9 23 45l3 36l7 14q4 19 5 23q8 10 14 22q15 32 23 53q1 1 2.5 2t2.5 2.5t2.5 3l3.5 3.5t-2 4q3 7 34 55q7 1 17 16v3l-7 -7q5 8 15 25 q0 -8 2 -14l7 13l-3 3q0 1 2.5 2.5t4.5 6.5l4 4q4 4 4 6q0 1 -2 3q7 -4 15 -4q1 0 14 5t15 5q51 -23 55 -32l4 9l28 -29l18 -11q6 -4 24 -25q20 -23 20 -28q0 -1 -3 -4.5t-6 -9.5t-3 -13q-5 -4 -16 -2q-1 -12 5 -53l7 -39q0 -2 -3 -14l-6 -3q0 -8 6 -26l4 5q4 -7 11 -9 q5 3 0 11q2 1 4 -2t4 -9q3 4 8 12q14 1 26 8q5 -12 5 -15zM512 319q-2 4 -13.5 9t-11.5 12q-1 0 -6 -2t-6 -2q-8 0 -14 2q-1 -3 -7 -11l-1 2q-1 2 -3 2t-9 -9.5t-14 -11.5q-14 -15 -32 -45l-6 -16q1 -5 0 -9l-19 -24q3 -5 1 -10q-12 -21 -32 -77l-6 -5q3 -6 1 -14 q-10 -43 -10 -53q0 -22 12 -50h8l30 30q7 11 27 34q-3 3 -3 6q2 0 3 -1t3 -1q4 0 17 22q-1 0 -3 2l10 28l4 -1q4 -1 5 -1q0 15 8 26q-3 10 5 21q2 -2 2 -6q4 8 0 12l16 52l4 25q5 19 13 23q-11 14 -5 40l2 -2q1 -1 3 -1t3 2.5t3 2.5q17 0 21 -1zM558 -72v1q0 1 -0.5 4 t-1 7.5t-1 11.5t-1.5 15t-2 18.5t-2 21.5q-8 -5 -24 -30q-17 -27 -27 -35l-34 -72l-4 5q2 -12 -4 -23l-15 -21v-5q-23 -60 -23 -78t6 -23q4 3 16 0l11 -4q2 0 16 9q10 -5 11 -5q2 0 5.5 1.5t4.5 1.5l4 4l9 -2q3 3 4 9q2 3 7 5l9 23q12 20 26 86q0 2 2 7l3 5q-4 4 -4 16 q0 2 3 7l2 4q4 24 4 36zM177 -12l2 3l-9 3v-4zM477 297v-6h-4v6h4z" />
<glyph unicode="it" horiz-adv-x="607" d="M261 518l4 -2l-11 -16l-3 2zM648 362q-10 -19 -58 -27q-2 0 -2.5 1t-2.5 1q-7 0 -29 -9t-27 -15q-9 0 -15 -2l-21 -16q-13 -4 -30 -20q-12 -28 -25 -105l-5 -5q0 -1 -2 -27q-1 -13 -1 -22q0 -21 5 -46q-2 -8 -2 -20l18 -34q0 3 -4 3q-2 -7 -1 -19q1 -16 -5 -21h-4 q-2 -1 -6 -1q-5 0 -12 19l-8 2q-6 8 -2 13q-2 2 -7 2q3 5 2 8q-40 50 -47 77l6 -5q2 24 -20 53q-2 -4 -2 -8q-12 47 -12 61q0 24 9 44q1 1 -4 12q8 6 9 10q7 13 22 30q7 4 75 36q-2 31 14 67q4 10 -4 26q3 1 3 11l3 6q2 5 2 8q0 4 -3 7q5 0 7 2q-2 2 -5 2q6 23 15 33 q1 1 -1 4q-5 -5 -9 -5q3 3 3 12q6 0 8 -2l4 6v90q-5 17 -15 17q-24 0 -76 -15q-3 -1 -28 -16q-20 -12 -23 -12q-2 0 -2 1t-3 1q-1 0 -7 -7t-10 -9l-44 -22q-1 0 -30 -30q-4 -3 -10 -16q0 -3 8 -8q8 8 11 17q0 4 1 -1q1 -2 3 -14q20 -12 57 -39q3 0 -3 -3l-11 -5h-2l1 -13 q-32 2 -59 2q-1 0 -18 6q-9 3 -20.5 6.5t-21.5 7t-23 9.5q-8 8 -22 17l-4 -5q0 -7 7 -11q-12 1 -9 21q-1 0 -9 5t-11 5q0 10 5 18q21 27 85 71q65 44 116 54q3 5 10 9q20 5 60 17q42 11 62 7q4 4 41 4q22 0 36 -14q4 -4 30 -40q11 -16 11 -35q0 -8 -19 -69q0 -1 -5 -10.5 t-4 -14.5q-4 0 -6 3l-9 -9l4 -4q5 0 5 3q-2 -26 -11 -27l5 -4q-4 -9 -17 -44l-11 -48l-3 6l6 13v9h-3q-6 -10 -10 -27q5 -4 39 -4q12 1 37 4q42 5 53 4q27 0 37 2zM309 99q-2 -2 -10 -14q-7 -18 -9 -27q2 -5 6 -5l-40 -37q-8 -6 -3 -14l-21 -9q-2 -6 -5 -9q-2 -3 -6 -3 q-3 0 -6 1l-3 2q-1 -2 1 -5l2 -3q-2 0 -10 -6.5t-11 -6.5q-2 0 -7 5q-6 -12 -15 -12q-3 0 -8 5l-5 -5q-24 8 -51 13l-10 10q-12 4 -25 13q-18 16 -25 32q-26 61 -26 84l10 23q2 10 2 13q0 4 -2 8t-3.5 6.5t-1.5 1.5q0 3 5 9t5 7q3 15 4 30l8 8q3 6 -2 17q1 6 10 30 q2 6 14 21t15 15q2 0 2.5 -1t2.5 -1l15 8l27 6q24 6 31 21l24 -4l-8 -8q6 -10 18 -9q0 -11 5 -16q-8 -3 -6 -11l2 -12q-9 -7 -31 -25l-4 -10q-4 -3 -16 -15l-6 -20q-6 -4 -26 -28q-4 -18 -4 -22q-9 -50 -9 -57q0 -94 67 -94q12 0 24 5q31 18 66 50q0 -4 4 -8q5 7 7 24 q4 3 9 7t14 10.5t15 11.5z" />
<glyph unicode="lt" horiz-adv-x="675" d="M713 306q0 -6 -5 -24q-2 -3 -11 -12q1 -4 1 -15l-6 -12q-3 -2 -11.5 -8.5t-15.5 -12t-9 -5.5t-4 1t-4 1q-1 0 -6 -5t-7 -5q-42 -9 -46 -9q-2 0 -8 1t-7 1q-2 0 -3.5 -2t-2.5 -2q-2 0 -3.5 2t-3.5 2q-5 0 -25 -4q-13 -2 -21 4q-2 -6 -9 -16v-2v-2v-2v-2v-2v-2v-2v-2v-2v-2 v-2v-2v-2v-2v-2v-2v-2v-2v-2v-3v-9q0 -2 1.5 -6.5t1.5 -6.5v-37q0 -10 4 -25l18 -47q0 -11 -7 -14q-11 -7 -19 -15l3 -5q-16 -1 -41 21q-21 21 -36 44q1 3 1 12q-6 5 -9 19q-3 16 2 22q-1 -1 -2 0.5t-1 3.5q0 34 5 66l5 17q3 10 -1 14q7 17 10 36l8 8q0 4 0.5 9t1 8t0.5 4 q0 4 -3 7q-6 -3 -8 -9q-6 -2 -7 -6q-1 -2 -1 -5q-11 -12 -28 -34q-2 -5 3 -5q-10 -3 -18 -14q-3 -5 -2 -10l-25 -25q1 -3 0 -7l-7 -4q0 -3 -1 -6l-34 -40q-29 -39 -54 -58l-4 -7l-4 4l-13 -21l-39 -24q-7 -11 -19 -24q-5 -4 -36 -12q-12 -9 -27 -9q-7 3 -22 9q-13 5 -26 18 q-17 15 -20 26l-2 10l-7 6q-2 6 -7.5 23t-8.5 26q1 1 1.5 4t0.5 5l-3 25q0 26 5 61q2 9 7 17l16 75q4 23 21 61q5 10 19 42q12 40 32 75l4 19q2 4 8 19l5 6q3 13 23 55q0 2 -1 3q12 4 10 16q0 2 -0.5 4t-0.5 4l-1 1q3 -3 6 -1q0 1 -2 3t-4 0q0 3 5 8q0 19 11 24l-5 7 q9 -1 11 9q1 1 3 2q1 0 9.5 -3.5t12.5 -3.5q2 -4 5 -7l36 -14q7 -9 19 -18l16 -30q9 -23 9 -48q0 -29 -12 -56q-4 -2 -9 -8l-24 -44q-3 -7 -17 -34l-65 -92l-43 -56q-30 -41 -30 -61l-6 -38q-4 -23 -4 -26q0 -17 12 -44h6q12 0 71 56q4 2 10 12l17 15q2 3 16 7q1 10 10 16 q2 2 20 16q2 4 7 11l14 12q1 5 9 16q5 5 22 16q11 8 12 17l12 15l19 21q10 5 17 21l6 3q5 10 22 30l23 24q30 42 52 84l5 81q0 1 7 11q0 46 13 73v11q0 12 -1 35q10 15 8 24q4 0 15 1t12 1q6 0 27 -25q7 0 13 -1q1 -2 9 -16.5t15 -31.5l12 -36v1q0 -10 -7 -28 q-12 -17 -43 -76q-4 -8 -11 -35l-22 -72q-9 -42 -10 -53l142 12q3 3 10 6q24 3 28 3q7 0 15 -5zM422 328l3 5l-3 1l-3 -5zM416 321h-8l-2 -10q6 0 10 10zM408 302q-1 0 -6 5l-3 -8zM223 433v37q0 22 -7 40q-9 -7 -16 -22q-4 -12 -7 -18q-5 -8 -16 -30q0 -2 -7 -52 q-17 -46 -26 -74l-3 -26l26 32l2 10q0 2 4 3q6 9 9.5 13t6.5 3q-1 6 3 15q8 21 8 23q2 3 7 4q3 13 16 42z" />
<glyph unicode="ol" horiz-adv-x="685" d="M763 220v-26q0 -12 -3 -19q-10 -25 -21 -42l-32 -50q-9 -8 -26 -26q-2 -7 -6 -14q-9 -9 -20 -24q-2 -3 -19 -22q-64 -55 -77 -58v-7q-65 -45 -102 -45l-2 1q-2 0 -9 2l-14 4q-60 14 -101 98q-6 12 -15 36q-7 43 -7 93q0 1 3 68l2 5q3 4 3 6q0 4 -3 4q-4 1 -3 26v13 q-21 8 -34 8q-4 0 -12 -8l3 -6q2 -11 0 -21q-2 -7 -7.5 -27t-8.5 -31q-6 -22 -16 -36l3 -2q3 -2 3 -4q0 6 -9 -24q-7 -24 -35 -53q-17 -18 -35 -35q-6 -8 -15 -12q-15 -7 -35 -7q-14 0 -20 4q-2 2 -5 2q-2 0 -9 7t-8 7q-2 0 -2 -4q-37 43 -45 72q-8 26 -8 58q0 14 8 62l5 6 q2 28 28 88l7 5q0 6 1 11q9 13 27 52q12 12 19 22q6 14 10 22q1 1 13 10q5 8 27 20l5 4q7 -5 16 -4t16 1v0q40 -24 42 -24h7q2 -1 4 -1l-6 -4q0 -3 15 -36l4 -27l-21 -20q-1 0 -11 -2v-2q11 -8 34 -8q24 0 55 9q32 11 36 17q1 7 10 31l51 100q6 4 14 22.5t13 23.5l43 47 q5 7 5 12q4 0 8 -4q16 10 18 10q10 0 26 -10q18 -9 20 -9q1 0 1.5 1t2.5 1q21 0 21 -51q0 -22 -9 -61q-10 -43 -22 -64q-24 -31 -48 -51q-21 -19 -44 -30l-60 -30q-2 -1 -10 -20l-10 -15l-11 -41q-8 -40 -8 -71q0 -1 3 -13q-4 -6 -4 -10q0 -28 2 -56q1 -14 18 -45 q22 -43 43 -43h11q18 0 63 30q43 27 78 59q13 12 118 117l1 6q1 5 3 7q4 3 27 31q16 19 20 19zM495 482q0 2 -1 6l-2 3q-16 -16 -31 -46q-26 -48 -26 -49v-7q21 11 40 41q20 32 20 52zM175 316h4v5h-4v-5zM168 313h-7q1 -7 -9 -22q-9 -15 -7 -20q14 12 17 23zM209 196l-1 5 q-2 5 -2 6l-3 -13q1 0 3 1t3 1zM204 185h4v8h-4v-8zM207 219q0 2 -3 10l-2 8q1 1 1 4l-11 30q-5 -8 -17 -24q2 -3 0 -5q-5 -4 -12 -14q0 -10 -1 -17l-26 -28q-32 -35 -42 -57q-3 -4 -3 -32q0 -12 3 -20q0 2 2.5 2t7.5 2t10 7q5 7 13 15q10 8 18 7v10q10 13 30 37q0 2 1 6 l1 6q13 17 27 44z" />
<glyph unicode="ul" horiz-adv-x="694" d="M757 204l-1 -7q-2 -7 -4 -15t-2 -11q2 -7 0 -21l-11 -31q0 -7 -3 -19l-35 -40q-9 -14 -30 -39q-7 -6 -27 -26l-4 4q-8 -13 -13 -20l-39 -24l-18 -24q-5 -4 -36 -12q-12 -9 -27 -9l-21 9q-13 6 -28 19.5t-18 24.5l-2 10q-2 1 -7 6q-9 25 -17 52q-1 1 -3 2q-3 0 -37 -28 q-34 -27 -37 -27q-1 0 -10 -2t-10 -2q-12 0 -34 13q-22 14 -29 25q-19 31 -23 48q-1 13 -12 37q-19 -24 -57 -64q-2 0 -18 -8.5t-23 -8.5l-9 4l-10 5l-27 29q-18 27 -27 54q-5 17 -5 57q0 22 3 46l5 10q0 10 3 28q4 8 31 87l18 27q8 11 9 11t2 -1t3 -1t3.5 2t2.5 2 q25 0 28 -3l15 -10q3 -26 -9 -52q-1 -17 -9 -36l-12 -23l-16 -33q-10 -26 -10 -61q0 -48 11 -59q12 9 43 39q0 2 1.5 4t3 5.5t2.5 6.5l7 5l28 49q14 21 37 70q1 2 11.5 6.5t13.5 4.5q21 0 30 -9q4 2 9 -3t-5 -79q-7 -49 -7 -54q0 -60 9 -85l5 -6h6l41 24l46 40l12 3 q6 8 11 18q1 8 3.5 18.5t6 27.5t6.5 29q3 14 19 51q16 36 21 51q13 45 32 75l4 19q3 4 8 19l5 6q4 12 23 54q0 3 -1 4q12 1 10 15q0 2 -0.5 4t-1.5 3v2q3 -3 6 -1q0 1 -2 3t-4 0q0 4 4 8q3 20 12 24q-6 6 -6 7q2 -1 5 -1q6 0 8 12q4 -1 24 -7l4 -7l37 -14q4 -8 18 -18 l16 -30q9 -23 9 -47q0 -27 -12 -56q-4 -2 -9 -8l-24 -44q-4 -9 -17 -33q-5 -9 -64 -92l-43 -56q-28 -40 -30 -60q0 -9 -5 -37q-1 -7 -2.5 -13.5t-2.5 -9.5v-3q0 -17 12 -44h6q13 0 71 55q4 2 10 12l16 15q10 5 16 7q1 3 2 5t2.5 4.5t3 4l4.5 4.5t5 4t6.5 4.5t6.5 5.5 q2 4 7 11l14 12l9 15q5 6 22 17q11 6 12 16q11 11 30 36q7 3 10 3q2 0 4.5 -4t4.5 -8zM605 385v37q0 22 -7 40q-6 -6 -15 -22q-3 -6 -7 -18q-10 -17 -16 -30q0 -2 -7 -52q-14 -37 -26 -73l-3 -26l26 32l2 10q0 1 4 2q11 17 16 17q-2 6 2 15q8 17 9 22q2 3 7 5q5 18 15 41z " />
<glyph unicode="te" horiz-adv-x="690" d="M359 24q-3 0 -28 -12q-27 -11 -28 -11h-16q-3 0 -10 5q-31 4 -58 24l-47 41q-2 2 -12 25l-8 8q0 1 -0.5 3t-1 5t-0.5 5q-14 6 -24 33q0 16 -4 33q-13 27 -14 72q-3 65 -3 73q-34 1 -60 17q-30 17 -34 44q5 4 36 20q32 7 43 10q6 0 17 1q8 0 12 7l7 35l20 59 q0 2 -5.5 11.5t-5.5 11.5q0 5 12 23q13 18 19 19v-4q4 -4 8 -4q2 0 16 7.5t16 7.5h36l6 -15q5 -16 5 -19q0 -1 -11 -25l-14 -26q-16 -48 -16 -61v-17q14 -5 31 -3q13 0 44 -6q16 0 40 -10q1 -6 -24 -21l-33 -15q-34 -13 -73 -34q-5 -5 -5 -60q0 -4 -2 -38q-1 -17 -1 -26 l1 -3q0 -2 0.5 -6t0.5 -9q3 -18 2 -25q5 -9 8 -18q21 -88 84 -88l3 2l14 7l20 10q1 2 -4 16.5t-5 15.5q0 7 -3 25t-3 21q0 13 8 24q0 1 -1.5 8.5t-1.5 9.5q5 2 6 5q2 18 2 40l9 6v9q2 8 8 9q-4 2 -5 2l15 30q13 25 18 25q2 0 2.5 -1t2.5 -1t7 3t6 3q38 3 50 4q20 5 21 5 q2 0 3.5 -1.5t2.5 -4.5l1 -2q2 4 2 5q3 -1 14 1l11 2q4 0 20 -10l23 -11q0 -6 2.5 -12.5t2.5 -7.5l-20 -48q0 -10 -1 -17q-5 -5 -9 -13l-4 -18q-12 -22 -52 -87q-2 -3 2 -5q-6 -1 -10.5 -7.5t-13 -18.5t-19.5 -22l-1 -7q0 -2 12 -21q36 -57 78 -57q4 0 34 11q31 11 46 21 l32 25q25 16 37 22l19 18l53 66q2 12 5 19q3 -3 9 -3l6 -28q5 -22 5 -23q0 -29 -31 -72q-5 -9 -25 -23l-29 -21q-58 -47 -120 -56q-7 -4 -11 -4h-7q-42 0 -81 26q-11 6 -45 31q-1 1 -15 13.5t-21 17.5zM436 242v14q-3 0 -8 -5q-2 6 -2 15l-4 2q-3 1 -6 1q-8 0 -19 -20 q-3 -8 -11 -24l3 -8q-6 -22 -6 -37q0 -10 4 -15q11 11 21 36q10 26 20 35q2 -2 2 -5q1 2 6 11z" />
<glyph unicode="fr" horiz-adv-x="552" d="M424 287q0 -12 -23 -50q2 -6 2 -8q0 -12 -13 -25l-6 -20q-4 -4 -9 -11q1 -7 0 -13l-14 -24q-2 -12 -7 -32l-3 5q-2 0 -5 -4q0 -3 -2 -23q1 -6 -4 -14l-2 -3q1 -41 27 -49l14 7q18 9 20 9t2.5 -1t2.5 -1q-2 0 42 30l52 40q81 81 115 125q11 -5 11 -30q0 -35 -30 -93 q-1 -2 -25 -25q-2 -4 -14 -22q-41 -46 -78 -67q-58 -34 -87 -34q-2 0 -18.5 2t-18.5 2q-9 0 -26 15l-16 13q-16 13 -21 20l-14 27q-9 21 -9 30q0 1 3 18q6 35 16 53q3 18 19 51q3 15 21 45q15 27 17 46q0 2 12 19q-16 11 -5 31q-1 0 -10 4.5t-22.5 9t-25.5 6.5q-1 0 -7 2.5 t-8 2.5q-1 0 -7.5 -3t-9.5 -3q-8 0 -25 -5q-36 -14 -63 -34q-9 -7 -25 -21q9 -11 -1 -35v-4.5t-1 -9.5t-3 -10q1 -2 1 -7q0 -7 -4 -19q2 -19 5 -28q-3 -9 -5 -41q-2 -29 -7 -36q8 -17 6 -42l-3 -32l2 -2l-2 -2l-2 -14l4 -3q-3 -13 3 -29q-3 -2 -5 -6v-11q1 -1 1 -3 q5 -14 0 -17l8 -25q-8 -13 -3 -36l10 -38v-18l5 -12l16 -15q-2 -24 -12 -82l5 -7q0 -4 -7 -19q-4 -13 -7 -14l-13 -2q-38 11 -47 14l-2 2q-2 1 -4.5 2.5t-2.5 3.5q-3 6 -9 154q0 15 7 53q-6 10 1 29q-3 3 -4 7l5 31q-1 41 1 93l6 10q-4 1 -6 -1q-1 25 3 92q-2 46 -2 106v6 q-4 3 -11 3q-3 0 -3 -1q0 -2 -2 -2l-12 5q-19 -1 -22 20q7 9 5 24l50 50q8 35 8 46q0 21 6 51q0 1 -1.5 8t-1.5 10q0 1 0.5 7t2 20t2.5 27q1 0 5 2q-3 18 0 24q1 3 1 16l5 33q-3 -5 -2 4t9 42q4 21 14 57q12 32 26 44q15 22 37 21q46 -6 93 -60q47 -53 43 -87 q-2 -22 -69 -61l-11 1q-4 4 -5 12q-1 4 1 21q0 1 4.5 9t4.5 10q1 5 1 10q-2 8 -7 23q-11 18 -26 20q-5 1 -11.5 -5.5t-14.5 -20.5q-8 -18 -16 -31q1 -3 0 -9l-6 -8q6 -22 -5 -30l-2 -10q1 -5 1 -8l-3 -4q-6 -36 -12 -52l7 -4q-4 -10 -5 -10q-8 -62 -8 -66q7 -7 2 -14 q3 -3 4 -3q2 0 5.5 1.5t12.5 2.5q2 0 5 0.5t4.5 1t2.5 0.5q11 0 27 1q17 1 27 1l58 -14q8 -6 11 -6q2 0 2 1q1 1 2 1q10 0 45 -26t44 -38l17 -31z" />
<glyph unicode="tt" horiz-adv-x="539" d="M539 331v-4h-6v4h6zM463 253v-6h-4v6h4zM564 295q-14 1 -22 -7q-2 1 -8 1q-7 -4 -15 -8q2 -2 5 -2q-3 2 -8 2q-2 0 -8 -5t-8 -5q-1 0 -5 -1t-6 -1t-5.5 2.5t-4.5 2.5q1 0 1 -6q-4 -6 -8 -6h-18q-3 -3 3 -3q-7 -1 -15 -15q0 10 -11 16q-4 -8 -2 -15q-20 -14 -23 -14l-4 4 q-9 -5 -24 -18q-2 -2 0 -10l-4 -5q-3 -4 -3 -7t4 -10q4 4 4 10v-37l-5 4h-6l-6 -5q7 -4 15 -4v-13q-2 2 -4 2l1 -22q0 -20 8 -25q-7 0 -7 -18q0 -19 9 -22q-4 -8 -4 -15l8 -20l9 -42l9 -12q-2 -4 6 -24h-15q-36 13 -57 44q-2 11 -7 24q-2 -2 -2 -4q-2 22 -9 68q-2 -2 -2 -12 q-1 3 -1 26q-7 5 -5 10l2 2q1 3 2 5q3 12 -8 15q0 2 2 9.5t2 9.5q0 7 -7 10q1 2 4 6q1 2 -1 8t-2 8q0 5 1 23t1 24q-5 3 -7 3q-5 0 -23 -7q-20 -6 -22 -6q-1 0 -1.5 1t-2.5 1q-3 0 -13 -3l-3 -4q-3 -4 -5 -4q-1 0 -1.5 1t-2.5 1q-1 0 -13.5 -7t-17.5 -8h-2h-3t-3 -0.5t-3 -1 l-3 -1.5t-3.5 -3t-3.5 -5t-3.5 -6.5t-3.5 -8.5l-9 14q0 -14 1 -37q2 -2 7 -2q-5 -10 -5 -19l6 -16l-2 -3q-2 -3 -2 -5l4 2q7 -5 8 -4q-10 -18 2 -32q1 0 3 -2q4 3 4 6q2 0 6 -4q9 3 20 22q15 22 19 25q0 -8 -1 -15q-3 -2 -6 -6q0 -2 1 -3q-1 -4 -10 -20q4 -2 11 1 q0 -3 -13 -28q-1 -1 1 -3q8 3 11 13q-5 -13 -19 -33l-24 -10q-3 4 -6 4q3 0 3 4l-6 3q-4 -4 -4 -6q-1 1 -6.5 5.5t-9.5 8.5q-6 4 -21 32q-6 12 -11 43q-5 9 -11 30q0 9 -1.5 14t-5.5 8t-7 4.5t-12 3.5t-15 4l-16 11q-2 0 -15 1t-15 1q-2 9 -37 30q4 4 4 7q0 5 -5 13q1 1 1 2 t0.5 1.5t0.5 1.5q-1 5 -5 7v2q0 2 2.5 9t2.5 8q3 1 11 9l3 -4q5 2 30 11q-4 -4 0 -4q2 0 2.5 2t2.5 2t3 -2l1 -2l10 9l5 -5q4 3 5 4.5t0 1.5q17 6 29 5q2 2 2 63l-7 9q-1 2 1 11l-3 9q-1 8 4 30q0 4 -4 3q1 3 -1 15l-2 11q0 1 1.5 6t1.5 6q0 21 4 52q-2 20 -2 62q5 5 9 18 l-2 9v26l3 -2h8l1 2q0 1 0.5 3.5t0.5 5.5q1 7 0 11q11 0 14 7q2 0 13 -6.5t13 -6.5t5 -2l2 -2q-2 0 -6 -4l4 -4l3 2l3 3q15 -4 20 -13q-3 -2 -3 -4l14 -6q-4 4 -7 2q1 -5 10 -21q2 -2 2 -5.5t1 -6t5 -2.5l-29 -18q1 -5 -3 -18q0 -10 -7 -48q0 1 0 -21q0 -13 -6 -16 q1 -1 7 -3q-2 -83 1 -110l-6 -7q4 -3 5 -3q-8 -14 10 -14q4 0 38 6q36 6 39 6q6 0 12 -7l7 6q7 5 9 5q14 0 25 -7h6q6 4 7.5 19.5t5.5 18.5q-1 1 -5 1q1 21 -1 28q4 15 6 35q2 41 7 93q4 18 7 25q-1 7 2 28q2 9 3.5 19.5t1.5 11.5t-1.5 8t-1.5 9t3 6.5t3 5.5q0 24 1 43l9 57 l10 5q5 14 9 14q2 0 8 -2t8 -2t6.5 2t5.5 2q5 -8 5 -11q11 -6 12 -6q-3 0 -7 -4l14 -14l2 -12t2 -8v-2q0 -3 -3 -6l-3 -4q4 -10 1 -34q-4 -28 -4 -34q0 -4 -1.5 -22t-1.5 -24q-4 4 -5 -1q3 -9 -5 -28q2 -1 3 -9q-10 -40 -14 -52q3 -12 1 -30q0 -11 -6 -35l-5 -25l1 -6 q0 -5 0.5 -11t0.5 -9v-17q7 -4 15 -4l3 1q3 0 9 0.5t13 0.5q6 0 12.5 0.5t9.5 1t4 0.5q11 0 15 -7q13 7 11 7q21 0 37 -3q-5 -5 -16 -12q2 -1 25 -1h7q0 -1 1 -3t1 -3q-1 -1 -7 -1q-4 -3 -4 -5q1 -1 7 -1q5 3 16 8q-4 -3 -1 -6q5 5 12 -2q-5 0 -5 -5l-5 5l-3 -4q3 -3 12 -3z M253 163l3 -2l-3 -6l-3 2zM230 114l7 4l-5 -6zM175 147l-8 -2q3 9 5 13zM199 75l2 -3l-7 -6l-2 3zM225 5q-10 -13 -13 -13q-9 0 -9 6q3 0 22 7zM519 298l7 3l-2 3l-5 -3v-3zM384 413h4v28h-4v-28zM492 308l6 3l-7 2q3 0 1 -5zM499 298q2 0 -6 7h-8zM484 274h4v8h-4v-8z M365 370h4v8h-4v-8zM430 293q-4 0 -15 3v-9q5 6 15 6zM94 598l7 3l-2 3l-5 -3v-3zM302 288l-2 6q-2 0 -6 -3q3 -3 8 -3zM354 208l6 -1l-3 4zM274 275h8v4h-8v-4zM375 178q-8 0 -8 -8q1 0 4 -2.5t4 -2.5v13zM247 256h4v8h-4v-8zM364 138q0 4 -3 6q2 0 -6 -8zM366 132l-5 -1 q-5 -1 -6 -1l3 -8q1 3 8 10zM127 342h4v6h-4v-6zM209 17h4v9h-4v-9zM-14 235h4v7h-4v-7z" />
<glyph unicode="ta" horiz-adv-x="711" d="M470 77l-10 4q2 2 2 6q-4 12 -10 59q-11 -21 -23 -33q-1 -1 1 -5q-2 -3 -11 -10q1 -1 1 -5l-2 -3q-3 -1 -8 -6l-3 -2q-2 1 -1 2q2 2 0 3q-7 -8 -2 -16q-4 2 -6 2q-1 -7 -1 -16q-3 -8 -15 -13h-3l-3 -3q3 -5 3 -7q-9 1 -34 -22q1 4 -2 11q-2 -8 -2 -15q-8 5 -14 3q0 4 1 5 l-25 4q0 4 2 6q-4 5 -13 7v6q-9 8 -23 28q-3 6 -5 8q-3 5 1 12q-3 3 -4 19q-1 6 7 13q1 1 -0.5 2t-3.5 1l2 1q1 1 3 2t3 3q-3 4 -5 2q1 2 4.5 8.5t6.5 11.5q2 7 8 16q0 4 8.5 24t9.5 28q7 6 11 14q3 11 17 25l-3 8q8 11 11 19l-4 2q-7 0 -17 -10q-1 -1 -8 -1l-4 4l-4 -3 q-3 0 -5 -2l-3 -1q-1 0 0 4l-2 3h-2q-2 -1 -2 -4t-0.5 -4.5t-3.5 -1.5t-2 1l-1 1q-2 0 -6 -4t-6 -4t-2 1t-3 1q-5 -3 1 -5l-9 1q-4 -3 0 -7q-23 -15 -27 -15q-1 0 -14 8q-2 -2 2 -12q-16 -4 -22 -37l-3 6q0 -1 -4.5 -12t-5.5 -18q0 -1 2 -1q0 2 1 5t3 8t3 8q5 -11 2 -16 q4 -12 5 -12l-3 -7l-4 -8l-5 -38q-7 -2 -8 -7l6 -14l-7 -6q0 3 -6 11q-4 -4 -5 -11q0 -3 0.5 -3.5t2 -1t3 -3.5t2.5 -10q5 8 2 16q3 -3 9 -3q-3 -11 -6 -16q-5 -8 -13 -10q4 -4 7 -4q8 -2 10 2l-6 -14q-2 0 -4 -1q2 0 0 -12q-6 7 -12 3q1 -1 2 -1q0 -4 -1 -11q3 -4 7 -4 q3 0 4 4l2 -5q3 -5 3 -7l-5 -16q-1 1 -5 -1q2 -3 9 -5l-2 -6q-1 -6 -3 -11q0 -2 5 -13.5t6 -15.5q2 -1 3 1t1 6q2 -2 0 -16q0 -1 4.5 -6t4.5 -7t-3 -9t-3 -8l-4 6q-1 1 -9 -7l-27 26q-6 7 -15 50l-3 31l2 7q-8 30 -8 56q0 8 2 34q1 13 1 36l10 -1q-3 2 -8 10q-2 -2 0 19 q2 26 6 41q-10 2 -11 2q-5 -1 -6.5 -3.5t-12.5 -4.5q-4 1 -11 -9h-9q-14 -9 -14 -19q-1 -5 5 -13q-9 6 -18 15q-14 11 -32 13q-2 1 -3.5 0t-2.5 -1q-8 0 -18 16q-5 0 -12 4q-13 18 -12 31l23 14q0 5 -8 7q17 15 24 14q2 0 1.5 -2t0.5 -2q2 0 8.5 -3.5t7.5 -3.5q9 -2 75 21 q-2 -2 -4 -9q1 -3 4 -3q0 8 23 22q2 6 8 13l10 97q2 25 12 113l6 37q2 4 6 8l7 66q10 8 20 18q13 -8 27 -10q6 0 7 7q1 -3 4 -3v-9q1 1 4 -2l2 -2q-9 -9 0 -25q2 0 3 -4q1 -8 -5 -38q0 -8 -0.5 -16t-1 -12t-0.5 -5l-3 -5q1 -5 1 -16q0 -6 -5 -25t-6 -25l3 -4l-5 -6 q-2 -14 1 -17q-1 -8 -9 -24q1 -1 7 -3q3 -1 -3 -3q1 -1 8 -3q-2 -3 -11 -12q4 -9 4 -12q-2 -8 -5 -10q-1 -1 -3 -5q-3 -9 -3 -12q-2 -5 -3 -37q3 -4 17 2q15 7 18 6q1 1 4.5 3.5t5.5 7.5q4 -6 27 -4l6 6q49 18 58 18l2 -1q2 0 10 8q15 4 61 23q3 4 16 17q2 2 19 -1v10l18 13 q23 3 33 3q11 -4 27 -30q-3 -10 -15 -24q8 -5 12 -17v-3q0 -3 4 -3q2 -1 3 0l3 1q5 0 7 -5q2 -20 8 -42q-1 1 -3 0q-3 -35 -10 -53l-2 -6q1 -1 3 -1q5 -20 -5 -68l-1 -5l1 -1q2 1 4 7q0 -1 1 -2l-4 -6q1 -23 -2 -43q5 -13 5 -15q0 -27 16 -37q3 -4 7 -4q12 0 59 26l3 4 q3 4 5 4l1 -1q0 -1 3 -1q-1 0 3.5 4l13.5 12t22 19q10 0 11 12q8 4 33 30q1 2 3 5t3.5 5t4.5 5t7 5l28 36q1 6 16 21q9 -14 9 -19q0 -7 -5 -14q1 -2 -2 -22q-2 -7 -4 -9q0 -4 1 -7q0 -2 -1 -5q-1 -1 -1 -2h-4v-23q0 -2 -5 3q-7 -5 -6 -9q0 -2 1 -5q1 -4 1 -5l-19 -13l1 -3 q1 -3 1.5 -6.5t0.5 -4.5q-7 -14 -30 -40q-17 -17 -26 -23l-5 -7q-4 -6 -8 -6q-3 0 -3 1l-1 1q-5 0 -10 -11l-1 -3l-5 4q-6 -1 -4 -5q-19 -19 -23 -19q-2 0 -17 -4t-16 -4q-11 0 -16 8l-2 -2q-2 -2 -5 -2q-17 0 -57 24q-10 6 -39 40q-2 -1 -7 8zM467 323q0 1 -0.5 7t-0.5 7 l-7 1q-19 -8 -33 -26q-5 -9 -17 -27v-8q-19 -30 -27 -36q-1 -5 -1 -14q-1 -7 -11 -9q1 -7 -4 -22.5t-11 -21.5q0 -9 -7 -22l-1 -8q1 0 3 -2q-8 -8 -9 -16l-1 -13q5 0 8 -3q4 4 2 5v3q5 13 19 27q14 12 22 20q8 9 24 40q1 3 5.5 12t7.5 16q25 51 31 78zM191 157q0 3 -6 9 q-3 -3 -3 -14zM191 111l-1 -14h-3l1 14h3zM210 203q-1 -10 -6 -13v-4l-2 2q-2 2 -1 4q7 4 9 11zM183 64l3 -4l-3 -2l-3 4zM331 25l3 2l-4 3l-1 -2zM236 451l1 2q0 -1 -1 -2zM545 171q0 -1 -1 -3q0 2 1 3zM767 130l1 1z" />
<glyph unicode="le" horiz-adv-x="556" d="M596 138q-1 -8 -22 -42v-3q9 9 17 12q-1 -4 -11 -15l-8 -4q-9 -7 -10 -25l-20 -16q-12 -12 -13 -21q-9 -4 -21 -21q0 4 -6 4q-4 -5 -2 -7l4 -9l-7 6l-3 1l-4 -4l7 -7q-3 -1 -15 -9t-14 -8q-3 0 -5 2q-1 2 -3 0q-9 -9 -15 -9q-2 0 -5 1l-2 1q1 0 1 -7h-20q-3 0 -3 -2 q0 -5 -14 -5q-2 0 -9 1t-9 1q-17 0 -18 -7q-4 10 -14 10q-3 0 -3 -1q0 -2 -3 -2q-2 0 -8 6t-7 6q-2 0 -2.5 -1t-2.5 -1q-1 0 -12 8q-1 0 -4.5 1.5t-5.5 2.5q-19 19 -40 43q-2 3 -9 3l-27 -16q-3 0 -21 -3q-5 0 -10 -0.5t-7.5 -1t-3.5 -0.5q-2 0 -6 2.5t-6 2.5h-6 q-4 0 -20 10q-31 19 -53 53l-12 14q0 2 -2 12q-7 9 -22 36l-12 58v61q12 64 39 167l8 27q8 18 18 21q0 4 -7 4q4 8 21 43l12 26q9 18 16 21q3 15 15 39q24 26 26 26t3.5 -2t3.5 -2t5 1t6 1q5 0 18 -12l14 -11q17 -8 48 -27q7 -7 17 -25t10 -29q0 -1 -4.5 -14t-4.5 -16 q-2 -42 -14 -61q-26 -43 -68 -82q-17 -14 -68 -51q-18 -12 -34 -28q-15 -30 -15 -70q0 1 3 -9q0 -1 0.5 -9t2 -27t2.5 -39q0 -2 8 -16q24 -44 41 -44q24 0 65 32l-6 30q-4 17 -4 23q0 2 2 6.5t2 5.5q0 30 13 66q3 16 5 24l12 27q4 6 10 12q0 6 1 10q4 6 15 16q3 8 -1 8 q6 7 10 7l-1 2q0 1 -1 3t-1 4q4 7 11 20q1 4 6 7q16 10 32 10q1 0 10 -5t12 -5q4 -7 23 -13q20 -5 26 -11q6 -4 20 -30q0 3 -7 -5q0 -15 -1 -27q-5 -6 -9 -19q-1 -21 -13 -55l-15 -44q-4 -16 -36 -58l-18 -20q-13 -13 -13 -18q0 -7 12 -16.5t16 -9.5h16q19 0 73 17 q42 12 97 52q11 4 13 4q5 4 18 17l7 4l5 -3v9l9 10q4 -3 12 0zM561 107h6v4h-6v-4zM223 482l6 34q-1 0 -3 1t-3 1q-16 -10 -19 -17l-26 -51q-16 -31 -19 -50q9 5 26 21.5t22 20.5zM524 60l6 3l-1 3l-5 -3v-3zM345 228h-3q-8 -6 -2 -11q5 3 5 11zM493 33l3 6l-3 1l-3 -6z M330 186h6v4h-6v-4z" />
<glyph unicode="ll" horiz-adv-x="579" d="M607 144v-8h-5v8h5zM625 105l-25 -35q-11 -18 -13 -34q-1 0 -4 2.5t-5 2.5q-4 -4 1 -10q-8 -5 -56 -57q-5 -6 -15 -6q-3 0 -3 1t-3 1q-2 0 -6 -7q-58 -12 -51 -12l-33 11q-10 0 -23 16q-21 17 -56 58q-8 6 -27 28l-16 23q-13 -15 -24 -20q-1 -4 -7 -11q-2 -2 -40 -36 q-2 -2 -34 -21l-8 -9q-22 -11 -35 -11q-3 0 -3 1t-4 1q-2 0 -3.5 -2.5t-4.5 -2.5q-4 0 -60 43q-12 6 -41 31q-5 8 -8 25q-6 41 -6 74q0 71 13 132q1 11 9 30q2 8 4 32q7 22 14 39q11 33 19 66q6 17 9 31q27 40 25 50l6 4q6 15 10 33q13 11 20 11q2 0 14 -2.5t14 -2.5t11.5 1 t11.5 1q10 -10 34 -10q2 0 6 1t6 1l23 -10q3 0 5 -1q2 -2 -2 -6q21 -31 27 -50q-7 -4 -9 -54q-4 -30 -16 -57q-32 -87 -64 -132q-4 -12 -15 -30l-5 -7q-6 -7 -19 -22t-28 -32q-52 -45 -52 -49q0 -8 8 -37q11 -33 20 -33q19 0 29 9q21 16 79 71q31 29 44 44q22 22 33 47 q0 2 2 24q4 40 4 47q4 28 12 45q-1 5 2 24t3 22l10 11q-5 5 -5 8q0 2 3 10t3 10q3 -3 6 -3q1 1 -4 12l68 210q12 6 23 6q8 0 23 -6l2 -3q1 -2 3 -4q4 0 4 5l22 -11q3 0 4.5 4t3.5 4l20 -3q6 -5 6 -12q0 -1 -1.5 -7.5t-1.5 -8.5q0 -14 33 -65h-4q-10 0 -10 -9q0 -3 5.5 -10 t5.5 -9l-6 -31l-1 -9l-2 -2l-4 -6t-2 -5q3 -9 1 -28q-2 -9 -8 -13q1 -4 -1 -8q-15 -30 -46 -85q-29 -35 -90 -122q-8 -12 -9 -31q0 -19 -1 -28l-2 -5q-2 -5 -2 -9q0 -18 21 -57q26 -44 49 -44q14 6 42 17q7 2 41 30q10 2 21 7q6 5 11 16l6 -8l43 43q-1 -13 -15 -28l2 -12 q1 0 31 27q5 -10 8 -12zM452 486q0 2 -5 9.5t-5 9.5q-16 -25 -26 -75l-18 -80l19 38q12 25 21 26q-3 3 -3 7q0 3 5 12t5 11zM267 406l3 2l-4 4l-3 -2zM196 443q0 6 -16 38q5 5 5 6q-3 1 -11 6t-9 5q-17 -12 -30 -61q-12 -47 -32 -115q-18 -62 -18 -90v-14q31 24 42 43 q2 4 9 17q0 7 16 33q10 21 21 48q11 42 14 65l5 2z" />
<glyph unicode="lls" horiz-adv-x="923" d="M636 146l4 -1l-4 -7l-3 2zM867 18l-6 -32q-31 -30 -46 -30q-36 0 -41 -1q6 -5 13 -8q-29 9 -49 9q-4 0 -4 -5q-4 9 -16 16q-2 -4 -2 -5h-9q-17 7 -37 21l-20 27q-4 4 -15 7q-2 4 -12 10q0 -1 1 0.5t6 8.5q-7 29 61 77l21 21q16 13 53 37q0 1 4.5 9t4.5 10q0 14 -22 62 q-22 49 -31 63q-19 -19 -30 -58q-7 -9 -12 -16.5l-7 -10.5t-1 -3q-3 0 -3 1l-1 1q-3 -13 -19 -39q-14 -24 -16 -40q-2 -17 -8 -17l-9 1l8 -7q0 2 -3.5 -3t-10.5 -17.5t-16 -29.5q0 -1 -0.5 -3t-1 -5t-0.5 -5q-3 -2 -6 -6q-6 -19 -26 -41q-7 -3 -8 -6q-6 -10 -7 -17l-15 -7 l-26 -27q-24 -27 -28 -27q-2 0 -4 1t-4 1q-6 0 -9 -6q-33 -14 -43 -14q-9 0 -12 7q-2 -2 -10 -2q-21 0 -52 27q-15 16 -31 31q-11 18 -47 69q-45 -49 -88 -82q-25 -19 -43 -19q-27 0 -70 28q-10 3 -26 12q-42 30 -42 81v90q0 9 15 92q8 44 32 105l40 103l14 18q25 47 40 73 q5 8 24 9q7 10 11 10l2 -1q3 0 7 -0.5t9 -0.5q11 -1 24 -1q0 -18 9 -41q10 -21 10 -30q0 -15 -10 -52l6 -8l-4 -31q-12 -55 -38 -115q-11 -25 -62 -114q-7 -4 -9 -5q3 -6 -2 -20l-42 -61v-10q0 -63 29 -90q5 5 33 18q19 10 19 20q9 9 31 23q26 31 55 69q-2 0 5 -7q6 4 8 14 q0 4 -2 6h9q7 15 7 18v64q0 2 2 8.5t2 7.5q1 53 31 140q33 94 39 133q5 2 6 5q5 23 19 40q2 4 9 17l18 7q10 8 36 19q4 1 40 1q12 0 29 -14q11 -9 19 -21q-16 -19 -19 -54q-7 -20 -18 -65q-4 -5 -17 -29q-24 -75 -73 -146q0 -2 -2 -10q-21 -29 -25 -49l-21 -58q-2 -6 -2 -28 q0 -2 3 -25l3 -37q2 -30 15 -52q23 -35 34 -35q14 0 39 18q3 2 32 38q17 15 37 39q2 7 12 28q14 21 40 56l5 -5q3 1 0 12l18 22q-1 1 0 6l26 26q17 20 17 37q10 3 22 28q8 2 20 14q0 4 -8 4q8 8 30 39q24 33 24 37q0 2 -3.5 15t-3.5 21l-3 22q-2 16 4 22q-7 8 -7 17t15 25 q1 0 3 1t4.5 2t4.5 1l6 13q4 -6 9 -6q2 0 7 4t7 4l3 -1q-2 -3 0 -3q1 -1 13 -1q2 0 5 4t5 4t9 -5.5t9 -5.5t14 -1.5t16 -1.5q3 -2 0 -3q0 -1 5.5 -5.5t5.5 -7.5q0 -2 -2 -8.5t-2 -8.5q1 1 -0.5 2t-4.5 1q-17 0 -33 -18q-8 -11 -11 -33l-3 -5q-4 -4 -4 -7q0 -8 7 -29 q-2 -10 -1 -18q11 -42 28 -94q16 -31 32 -78l11 -55q-2 -16 -2 -33q4 -21 10 -42v-22q0 -14 8 -14zM797 102q0 14 -11 44l-53 -63q1 -2 1 -8q-8 -10 -12 -19q12 -6 17 -6q9 0 20 1q12 1 22 1q5 0 11 22q5 22 5 28zM464 500l10 -11q0 11 -3 28l-5 5t-7.5 6.5t-5.5 2.5 q-13 0 -36 -41q-22 -39 -23 -51l-7 -8q-25 -97 -36 -150q3 2 10.5 16t13.5 18l4 -4q0 -3 -5 -8q4 0 10 3q0 1 -2 11q-6 0 -6 7l20 25q2 -3 6 -3q-1 3 -4 8q7 0 16 9q7 18 11 28q1 5 0 15l5 -3q7 0 15 17q22 48 22 59q0 -2 -1 1q-1 2 -2 6v14zM389 325l4 10h-4l-3 -8z M684 -13l2 3l-10 3v-3zM210 501q0 5 -5.5 11t-10.5 6q-9 0 -15 -16l-6 -22q-13 -19 -30 -46q-24 -46 -36 -86q-29 -94 -37 -166q1 2 13 15t12 18q0 3 -2 7q1 0 2.5 -1.5t3.5 -1.5q3 0 11 15q7 15 12 20q-2 6 1 9q2 -2 2 -8q7 26 15 27q2 22 22 42q-1 5 4 17q4 8 5 12 q13 44 21 49q-6 0 -5 7q11 7 13 32q1 4 3 41z" />
<glyph unicode="lm" horiz-adv-x="945" d="M801 43q9 -9 22 -16q19 5 39 15l23 18h2q20 16 22 19l25 27q0 2 51 57q11 -4 14 -8q2 -15 -2 -24q-22 -54 -31 -71q-13 -24 -40 -54q-3 1 -5 2l-9 -3q-6 -8 -16 -18q-9 -6 -29 -13l-9 -3q-17 -13 -27 -13q-3 0 -7 3q-1 0 -2.5 0.5t-2.5 1.5l-2 -2l-4 3l-5 4l-7 6 q-14 5 -25 19l-19 26q-8 10 -17 46q0 20 -10 50q-8 -10 -16 -32l-14 -38l-13 -29q-2 -1 -8 -7q-6 -10 -26 -51l-3 -1q-3 -1 -5 -1q-7 0 -22.5 12.5t-18.5 22.5q-6 2 -12 7q-12 38 -12 71q0 2 3 16.5t3 18.5q-2 17 -1 35q1 6 2.5 14.5t4 22t4.5 23.5q-1 6 0 16l6 9 q12 39 12 55q0 5 -3 13q-12 -23 -24 -62q-10 -18 -17 -48l-12 -46q-19 -55 -33 -106q-11 -34 -27 -62l-16 -12q-8 9 -12 12.5t-9 5.5t-8 4q-19 20 -26 51l-12 55q-3 18 -3 29q0 27 3 54q-2 -2 -3 -2l-2 -6l-7 -10q-12 -19 -25 -44q-3 -1 -6 -6q-6 -19 -26 -41q-7 -3 -8 -6 q-6 -10 -7 -17l-15 -7l-26 -28q-24 -26 -28 -26q-2 0 -4 1t-4 1q-6 0 -9 -6q-33 -14 -43 -14q-9 0 -12 7q-2 -2 -10 -2q-20 0 -52 27q-15 16 -31 31q-10 17 -38 57q-14 42 -14 57q-2 50 -2 57l8 63q0 1 1 4.5t1.5 9t0.5 12.5q13 63 32 130q33 94 39 133q5 2 6 5q5 23 19 40 q2 4 9 17l18 7q10 8 36 19q4 1 40 1q12 0 29 -14q11 -9 19 -21q-16 -19 -19 -54q-7 -20 -18 -65q-4 -5 -17 -29q-24 -75 -73 -146q0 -2 -2 -10q-21 -29 -25 -49l-21 -58q-2 -6 -2 -28q0 -3 3 -25l3 -37q2 -30 15 -52q23 -35 34 -35q13 0 39 18q3 2 32 38q17 15 37 39t29 36 l32 43l5 -5q3 1 0 12l18 22q-2 2 12 25q23 26 28 36l6 11q0 3 9 12q22 17 27 18q6 2 12 2q2 0 4.5 1t4.5 1q3 0 12.5 -7t11.5 -10q3 -5 4 -23l2 -18l-5 -25q-2 -27 -1 -38q-1 -13 0 -22t9 8q10 22 14 33q2 6 4 14q2 -4 5 -6q2 3 3 12.5t2 12.5q-1 -8 0 -12q5 10 12 11l-7 14 q0 6 23 44q0 5 3 14q35 51 49 61q4 4 30 4q3 0 8 -3t11.5 -11.5t8.5 -18.5l3 -27l-37 -230q0 -10 8 -32q6 16 37 80q0 1 2 15q4 10 19 48l11 21q9 15 9 23q5 1 16 15h7l24 -6q5 -6 15 -23l3 -30q0 -9 -3 -42q-2 -38 -2 -47q5 -50 16 -73zM251 541l10 -11q0 12 -3 28l-5 5 t-7.5 6.5t-5.5 2.5q-13 0 -36 -41q-22 -39 -23 -51l-7 -8q-26 -98 -36 -150q3 2 10.5 16t13.5 18l4 -4q0 -3 -5 -8q4 0 10 3q0 1 -2 11q-6 0 -6 7l20 25q1 -3 6 -3l-4 8q7 0 16 9q7 18 11 28q2 4 0 15l5 -3q7 0 15 17q20 47 22 58l-3 8v14z" />
<glyph unicode="loc" horiz-adv-x="763" d="M851 241q0 4 -1 -1q-3 -10 -10 -49q-9 -51 -57 -113q-43 -53 -85 -81q-59 -37 -93 -37q-43 0 -83 45q-36 42 -36 74q0 3 12 56q11 46 19 85q0 2 6 9.5t6 10.5q0 2 -2 6q21 64 21 68q0 14 -17 14q-11 0 -116 -29q-19 -6 -19 -19q0 -4 9 -12q12 -12 13 -14q4 0 4 6 q23 -36 44 -52q3 -2 10 -15t7 -18l-11 -21v-1q0 -1 -0.5 -3t-0.5 -4.5t-0.5 -6t-0.5 -7.5q-1 -10 -22 -53q-9 -6 -14 -14q-12 -28 -14 -32q-12 -18 -33 -32q-4 -11 -28 -25q-22 -13 -39 -13q-24 0 -43 13l-17 12q-4 0 -17 -13q-2 -2 -16 -5q-7 -4 -9 -9l-21 -6 q-17 -6 -21 -6q-3 0 -8 2t-7 2q-19 1 -42 20t-33 41l-9 8q-8 16 -12 31q-3 14 -7 26q-13 33 -13 69q0 57 52 198q12 65 13 70l16 29l15 50q10 22 46 87q13 0 41 6q0 2 -3 5t-3 4v0v0v0h1v0h1v0h1h1h1h1h1h1h1h1h1h1h1h1h1h1h1h1h1h1h1h1h1h1h1h1h1h1h1h1h1h1h1h10q3 0 5 -3 q2 -2 4 -2t4.5 1t5.5 1q17 0 29.5 -13.5t12.5 -29.5l-2 -17l-2 -17q-3 -2 -10 -9q1 -2 1 -8q-49 -75 -88 -113q-3 -10 -10 -22q-24 -26 -46 -54q-17 -21 -31 -50q-20 -111 -20 -150q0 -29 8 -64q12 -45 33 -45q11 0 31 21q20 22 22 31q2 17 -2 50q-1 7 5 74q2 30 11 73 q4 4 12 17q-1 5 2 17q8 13 27 42q3 3 8 3q3 0 4 -1t3 -1q1 0 7.5 7t9.5 7q5 0 21 -6q18 -6 21 -6q2 0 112 33q37 8 143 35q4 1 12.5 9t20.5 8q31 0 81 -18q1 0 8.5 -8t10.5 -8h6q1 -1 3 -1q0 -4 -2 -6l6 -8q5 -9 5 -12q0 -4 -9.5 -9.5t-14.5 -5.5q-2 0 -9.5 3t-10.5 3 t-11 -6l-13 -10q-12 -2 -19 -5q-4 -12 -18 -34q-6 -4 -15 -18q-68 -166 -68 -210q0 -4 5 -21q6 -19 13 -19q25 0 95 63q8 7 29 18l2 10q8 2 33 28l25 27q2 0 2.5 -1.5t3.5 -1.5q7 0 4 12q15 19 40 43l21 34h12q7 -6 7 -13zM239 531q0 27 -21 27q-14 0 -18 -12 q-13 -30 -14 -43q1 -7 1 -28q0 -2 -8 -15.5t-7 -15.5v-9l5 1l5 1q5 13 31 44q23 27 21 41zM284 187l3 7l-4 2l-3 -7zM278 179l4 7l-4 1l-4 -7zM379 158q0 8 -18 26l-69 -151q0 -2 4 -6h9q23 25 30 36q14 17 23 38q21 49 21 57z" />
<glyph unicode="ly" horiz-adv-x="732" d="M636 269l26 -326q0 -5 -4 -34l-4 -52q-1 -59 -16 -88q-5 -8 -50 -48q-8 -8 -39 -20q-29 -13 -64 -13h-39q-12 0 -53 22q-42 24 -54 32q-12 12 -16 12q-3 0 -3 -6q-5 6 -21 22l-2 20q1 0 1 1q-1 1 -4 1q-6 0 -6 -5q0 2 1 6l1 4q6 -6 11 -1q-7 6 -8 5q0 7 7 25 q0 -5 1.5 -6.5t2.5 -2t1 -1.5q-1 -3 0 -4q7 7 12 14q11 26 46 95q34 54 63 80q40 37 130 97h11q-14 -14 -14 -20q0 -3 1 -4q-8 -8 -29 -33q-19 -21 -23 -21q-3 0 -6 3l-2 3l-7 -23q0 6 -5 6q-2 -9 -9 -22l-69 -96q2 -5 0 -9q-18 -24 -25 -68q8 -8 10 -8h6q1 1 -2 1 q0 -7 3 -7q2 0 2 3t3 3q2 0 4 -3t4 -3q27 0 109 24q8 2 15 15l23 11q17 13 25 44l12 65q0 10 -1 15q-10 6 -7 15l3 4q0 4 -4 20t-4 20q-2 20 3 29q-1 3 -7 9q0 18 4 46q-3 7 -9 10q1 21 -2 31q0 23 -10 27q-40 -59 -57 -98q-9 -5 -16 -12q0 -4 -5 -14q-35 -29 -53 -29 q-22 0 -51 9l-21 6l-42 45q-12 -4 -18 -17q2 9 -7 9q-7 0 -12 -14l-4 -20q-5 -2 -12 -12q-7 -14 -11 -18l-39 -31q-4 -4 -17 -4q-2 0 -6 3t-6 3t-10.5 -3t-11.5 -3q-2 0 -2 -1q0 -2 -3 -2q-6 0 -40 23q-26 18 -42 32q-20 14 -43 39l-11 32q5 8 1 11l-2 2q0 10 7 34 q4 9 -1 25q3 1 7 7q10 64 29 115q8 20 9 29q10 11 20 51q12 47 31 85q7 9 26 40q10 5 21 18q10 11 17 23l5 12q18 21 27 21q1 0 21 -11q19 -10 25 -10q2 0 6.5 4.5t6.5 4.5q7 0 35 -19q-1 0 -2.5 -2t-2.5 -4l-1 -2q5 -5 8 -5l-3 -28q-3 3 -6 3q-2 -45 -13 -107q2 -10 1 -20 q-15 -27 -42 -81q-23 -35 -52 -61l-10 -20q-9 -8 -39 -40q-13 -11 -23 -23q-6 -14 -6 -42q0 -12 7 -29q7 -21 17 -26q8 8 20 10q8 10 18 28q1 -5 6 -9q17 11 13 23q9 -1 17 10l10 16q7 2 13 6q6 8 11 16.5t7.5 12t6.5 5.5q3 21 5 27l4 -3l4 -3q3 20 18 51q5 4 18 17 q19 0 22 19q12 -6 24 -6q2 0 7 4.5t8 4.5q10 0 35 -20q24 -20 24 -35l-23 -14q-1 -1 -11 -37l-4 -45l30 -8l7 17q0 -5 2 -9q8 14 5 23q0 -2 7 -2t3 4q7 -7 8 -7l-1 11q0 10 14 21q15 11 15 22q14 5 14 11q-1 16 0 19q3 -8 5 -12q3 0 6 5q2 27 7 39l13 13q9 29 11 38 q11 35 20 35q3 0 18 -1.5t17 -1.5q9 0 32 12q6 -6 21 -16q-14 -26 -14 -85zM200 548l3 3l-4 4l-3 -3zM258 461q0 4 -4 15q-2 9 0 18q-27 -7 -48 -47l-30 -62q-22 -72 -40 -124q2 0 10 8q3 -3 3 -6q-1 10 3 17q5 -5 10 -5q-3 10 13 25l24 21q16 22 46 78q5 14 7 53zM294 237 h5v11h-5v-11z" />
<glyph unicode="Ma" horiz-adv-x="1094" d="M1188 183q-4 -34 -34 -94q-3 -5 -15 -23t-15.5 -22.5t-14.5 -17t-18.5 -15.5t-20.5 -8t-28 -3.5t-34 5.5q-51 17 -89 83q-40 70 -41 72q-26 -41 -55 -95q-12 -27 -28 -46q-17 -24 -20 -33l-4 1l-2 -1q-2 -2 -4.5 -4t-3.5 -2l-14 14q-5 -4 1 -10q-10 -7 -17 -7q-5 0 -9 3 t-8 3t-30 14q-4 2 -14 14.5t-13 12.5q-7 0 -19 -24l-9 -5q0 -19 -28 -29q-61 -19 -110 39l-22 47q-2 21 -10 54q-7 14 -11.5 32t-6.5 30.5t-5 40.5t-5 41q-17 -47 -22 -70q0 -5 -2 -25q-3 -1 -6 -6q-16 -58 -29 -108q-2 -1 -7 -6q0 -9 -7 -21t-13 -12q-15 0 -23 -3 q-22 14 -32 33t-10.5 29t0.5 35q-4 17 -1 22q-4 43 -4 60v31l6 9l-6 12q-2 12 -3 85q0 35 -3 59q-56 -163 -60 -184q-16 -16 -13 -38q-9 0 -11 -2q2 -2 8 -2v-12q-3 -8 -19 -27q4 -2 10 -2l-5 -1l-5 -1q-5 -5 -5 -11q0 -2 5.5 -7t5.5 -8q0 -5 -8.5 -15t-13.5 -13q0 -1 8 -9 q0 2 -9 -12q1 -12 -11 -35q-8 -3 -9 -6q-2 -11 -7 -25l-6 5q-5 -5 -5 -9q0 1 -8 9q-3 -3 -3 -7q0 2 -5 2.5t-12.5 4t-13.5 11.5q-3 4 -4.5 9t-2.5 13t-1.5 15.5t0 21t0.5 25t0.5 32t0.5 37.5q-1 4 -6 10q2 -1 3 15q1 5 -2 121q-1 114 -6 195q-4 90 -3 103q1 12 8 27 q4 13 8 13q6 0 14 -9q2 2 2 11q1 0 10 4t11 4q19 -2 34 -14q16 -13 -2 -104q-7 -31 -9 -48q-6 -51 -9 -125q-3 -103 1 -138l35 68q18 29 14 34q8 20 28 55q2 5 0 10q1 5 7 7q4 9 15 24q0 2 20 47l28 66q3 1 6 6q0 7 11 31q12 22 12 34q22 34 34 34q4 0 15 -1t25.5 -6 t15.5 -12l5 -13l-2 -3q-2 2 -2 1q0 -11 -7 -29l-9 -31q-6 -27 -19 -100q-13 -71 -13 -108q0 -12 5 -30q4 10 16 26q1 7 2 22l6 6l15 65q3 11 6 20t5 15.5t3.5 10.5t2.5 6v2q3 2 10 17.5t11 18.5q0 4 -5 4q1 9 20 51q20 42 32 46q34 -8 38 -8q3 0 5.5 1.5t4.5 1.5t4.5 -5.5 t4.5 -5.5q16 0 21 -8q-31 -131 -38 -215q-6 -104 1 -181q-1 -12 2 -40q13 -79 28 -85q30 -6 68 35q30 37 62 78q4 7 18 38t24 51l7 24q1 8 8 27q49 91 66 91h14q6 0 23 -4q19 -4 23 -4q1 0 2.5 -0.5t4.5 -1t6 -0.5q9 -2 14 0h1h1h1l1 1h1h2l18 3q3 0 19 -13q12 -10 24 -17 q-1 -7 7 -17t16 -10q-22 -45 -22 -58v-74q0 -17 16 -65q0 -4 23 -39q23 -33 39 -33t35 22q20 23 30 37q42 54 50 75q4 6 8.5 16t8.5 15.5t11 8.5q11 7 18 -9q1 -7 -3 -41zM838 301h-13q-4 -8 -17 -35q24 21 30 35zM835 208v16q-18 -16 -33 -31l-51 -52q-18 -24 -20 -56 q0 -2 -5 -9.5t-5 -9.5l1 -2q1 -1 1.5 -4.5t0.5 -8.5q6 0 10 -3q19 19 49 55l12 36q7 10 14 15q26 44 26 54z" />
<glyph unicode="mar" horiz-adv-x="1229" d="M1121 130v-6h-4v6h4zM1300 190q0 -8 -6 -26t-9 -21q-10 -14 -32 -41q-1 -1 -4 -1.5t-5 -0.5l-12 -17l-32 -27q-5 -5 -48 -32q-14 -14 -51 -34q0 -6 -6 -6q-2 0 -2 1q-1 1 -2 1q-2 0 -5.5 -4.5t-4.5 -4.5q-12 -4 -24 -7.5t-17 -5.5l-5 -1q-1 0 -9.5 4.5t-10.5 4.5t-3 -1 t-3 -1t-15 11q-19 16 -29 33q-8 14 -8 27q0 23 3 43q1 7 9 17.5t14 11.5l4 3l-4 6q5 6 26 38q3 4 9 6l24 45q0 5 -6 12q1 3 1 10l-18 42q-11 27 -33 46l-3 -6q2 -16 -1 -41q-10 -27 -5 -39q-2 -5 -11 -10q0 6 3 -6q0 -13 -20 -65q0 -2 -2 -16l-12 -18q-7 -15 -29 -53 q-13 -17 -32 -37q-16 -16 -42 -27q-6 -3 -16 -3h-11q-2 0 -11 5t-11 5q-47 16 -66 78q-4 5 -13 23l-11 57q-1 2 -4 2q-4 0 -7 -4q-14 -42 -60 -113q1 -1 1 -7q-1 -1 -7 -3q-8 -18 -36 -50h-11q-4 4 -5 4q-18 0 -31 19q-55 -58 -76 -58q-1 0 -7 2.5t-8 2.5q-4 0 -15 11 q-5 2 -10 5.5t-10.5 9t-8.5 9.5t-8 11.5t-7 9.5q-8 10 -17 46q0 20 -10 50q-8 -10 -16 -32l-14 -38l-13 -29q-2 -1 -8 -7q-6 -10 -26 -51l-3 -1q-3 -1 -5 -1q-7 0 -22.5 12.5t-18.5 22.5q-6 2 -12 7q-12 38 -12 71q0 2 3 16.5t3 18.5q-2 17 -1 35q1 6 2.5 14.5t4 22 t4.5 23.5q-1 6 0 16l6 9q12 39 12 55q0 5 -3 13q-12 -23 -24 -62q-10 -18 -17 -48l-12 -46q-19 -55 -33 -106q-11 -34 -27 -62l-16 -12q-8 9 -12 12.5t-9 5.5t-8 4q-19 20 -26 51l-12 55q-3 18 -3 29q0 31 5 86l9 43q1 4 -1 28q7 12 9 26q1 13 4 22q-5 10 -5 21q0 6 4 33 q2 24 -2 35l5 -1q5 -2 7 -2q7 0 12 9q17 -11 24 -11q2 0 4.5 1t4.5 1t7 -5l5 -5l1 -6q1 -5 3.5 -10.5t6.5 -5.5q-2 -6 1 -32q1 -8 2 -14.5t2 -8.5v-2v-2q-1 -2 -2.5 -6.5t-3 -11t-3.5 -16.5t-5 -21q-1 -15 -8 -62q-8 -11 -8 -20v-9q10 -2 20 20q3 6 11 28q4 7 4 16 q0 -3 5 -8q2 3 3 12.5t2 12.5q-1 -8 0 -12q5 10 12 11l-7 14q0 6 23 44q0 5 3 14q35 51 49 61q4 4 30 4q3 0 8 -3t11.5 -11.5t8.5 -18.5l3 -27l-37 -230q0 -10 8 -32q6 16 37 80q0 1 2 15q4 10 19 48l11 21q9 15 9 23q5 1 16 15h7l24 -6q5 -6 15 -23l3 -30q0 -9 -3 -42 q-2 -38 -2 -47q0 -57 19 -94q21 3 40 19q33 25 34 25q3 10 3 34l-1 7q-2 7 -2 9q7 58 24 103l16 40l32 52q1 3 3 10l6 3q31 72 82 103q1 -7 5 -7q2 0 6.5 1.5t6.5 1.5t1.5 -2.5t1.5 -2.5t5.5 1t5.5 1q3 0 18 -7q17 -6 20 -6q1 0 1.5 1t2.5 1q-1 0 2 -3l10 -10l16 -16 q0 -3 1.5 -7.5t3.5 -6.5l2 -3q0 -5 -9 -13t-13 -8q-2 0 -7 5q-8 -8 -8 -15q0 -4 16 -13q0 -3 -3 -10q-2 -48 -1 -83q-5 -47 1 -85q2 -17 20 -69q3 -10 11 -10q11 4 32 12q5 2 12 15q2 -2 6 -2q3 0 6 6q28 24 62 88l12 30q6 17 17 27q0 5 -4 1q0 8 3 11q0 -2 2 -4q9 10 15 39 q4 31 10 40q0 1 2 9t2 9q0 5 -7 23q-7 21 -10 26q0 2 -5.5 14.5t-5.5 14.5t1.5 9.5t1.5 9.5q6 2 6 8q1 0 6 -5q4 7 1 14q3 -1 17 -12q11 -9 13 -9t5 1.5t5 1.5q9 0 10 -13q3 -30 24 -66l19 -25q11 -16 11 -23q21 -24 31 -49q19 -48 27 -92l6 -28l-1 -7q-1 -6 -1.5 -13 t-0.5 -10q-3 -2 -15 -14q0 -1 -2 -9q-6 -10 -7 -18q-6 -2 -6 -10q12 5 15 8q0 4 -4 4h3q2 -1 6 -1t69 47l39 29q2 0 7 -5q4 4 -1 9q2 1 19 16q3 -2 11 0q-4 4 -4 7q3 0 7 -4l8 7q0 5 3 15l8 -8q3 11 4 14l5 -5q2 0 4 6q4 0 13 3zM1261 135h-11q0 -1 -2 -5l-1 -4q4 4 14 9z M1084 71l3 6l-4 1l-2 -6zM686 324q0 2 -3 7q-27 -16 -56 -66l-39 -81q-5 -12 -5 -21l31 39q2 9 6 19q9 9 14 16q9 24 28 46q0 5 1 9q12 15 12 26q6 8 11 6z" />
<glyph unicode="me" horiz-adv-x="791" d="M868 207q0 -18 -21 -66q-14 -34 -32 -64l-32 -39q-12 -27 -55 -65t-60 -38q-36 0 -73 30l-53 48q-2 -1 -5.5 -3.5t-6 -4t-8.5 -2t-15 -0.5q-15 -1 -20.5 -2.5t-9.5 -1.5q-23 0 -57 40l-52 62h-8q-2 0 -2 -6t-1 -7q-5 -9 -20 -19t-21 -10h-14q-16 0 -44 33l-32 40l-16 49 l-2 1q-3 2 -5 4q-14 -20 -48 -82q1 -4 0 -14q-13 -23 -42 -83q-13 1 -26 -3q-14 18 -50 53q-2 13 4 24l-3 1q-2 2 -2 5l4 4l-3 22l12 66l6 69q1 9 -2 25.5t-3 23.5q3 0 9.5 6t8.5 6t16 5.5t19 5.5q9 -2 27 -5q-5 -17 3 -32q-6 -6 -17 -41l2 -37q35 35 38 47l3 -5q4 4 12 10 q0 7 19 30q18 23 20 42q4 0 11 -1t8 -1h4q11 5 11 13q7 -3 25 3l6 -6q3 3 7 3q9 0 35 -20q-5 -11 -13 -42v-26q1 -15 1 -29t-4 -35q-3 -23 -3 -25v-8l4 -5q25 16 40 40q5 2 9 7t5 8.5t3 11.5t3 10q2 0 8 3t8 3t7.5 -3t7.5 -3q3 0 11 5.5t10 5.5t34 -12q10 -3 14 -22 q3 -7 -5 -25l2 -57q1 -34 9 -49l18 9q41 24 41 50q0 10 -4 17q1 7 8 12q2 38 10 65q6 10 17 41q-2 4 -2 7q0 9 11 29l11 22q15 23 17 26q16 22 27 22q2 0 2.5 -1t2.5 -1q3 0 9 4.5t7 4.5q13 4 20 4q21 0 70 -11v-70q-9 -10 -7 -19q3 -10 1 -15q-19 -33 -40 -63q1 -3 1 -11 q-7 -9 -19 -35q-23 -23 -59 -72q1 -9 1 -36q0 -2 -3.5 -7t-3.5 -8q0 -1 11 -34q6 -15 18 -15q5 0 52 30h5l11 11q9 0 3 6l-6 -2l8 10q11 2 23 14.5t14 13.5q27 32 66 92q9 15 40 75h10q9 -26 9 -31zM685 300l10 20l-13 4q-61 -33 -61 -102q12 7 30 25l16 15q-5 5 -5 7 q2 4 4 2l4 18q10 6 15 11zM221 164h4l-4 8l-4 -1z" />
<glyph unicode="no" horiz-adv-x="750" d="M704 208q0 -2 -5 -14.5t-6 -16.5l3 -6q2 -6 2 -8q0 -1 -4 -9.5t-4 -10.5t2 -10t2 -10q-2 -21 -23 -73q-14 -12 -47 -53q-18 -22 -48 -22h-15q-5 0 -22 15q-15 14 -24 26q-8 11 -29 67q-4 0 -8 -6q-1 -1 -1 -3q-1 -3 -1 -4q-12 -20 -28 -41q-8 -7 -31 -31q-2 0 -9 5 q-2 -9 -9 -19q-8 -9 -22 -12t-16 -6l-2 6q1 -2 0 -2.5t-5 -0.5q-2 0 -2.5 3t-3.5 3q-2 0 -4.5 -1.5t-5.5 -1.5q-12 0 -16 13q0 1 -7 2q-16 23 -32 42q-1 5 0 6q-4 4 -11 43q0 1 -3.5 9t-3.5 12q0 1 3.5 15t3.5 18v22q-1 11 -1 23q0 5 5 27q6 20 6 21q0 17 -7 30l-38 -61 l1 -10q8 8 10 8q-9 -13 -19 -38q-7 -6 -17 -14l-6 -31q-1 0 -53 -96q3 -5 0 -15q-15 -18 -20 -18q-2 0 -14 6q-4 -4 -8 -11l-38 40q-3 4 -7 23q-5 5 -10 14q-9 33 -9 104q0 2 1.5 14t1.5 16q0 8 -1 14q4 6 5 13t0.5 20t1.5 24q-3 11 -3 12q3 9 7 45q6 21 11 42q0 2 0.5 6 t1 11t0.5 13q1 0 9 3t10 3q11 0 19 2l6 -9q5 -8 8 -8q2 0 2.5 1.5t2.5 1.5t4.5 -4t5.5 -4t2.5 2.5t1.5 2.5q6 0 12.5 -7.5t6.5 -11.5q0 -3 -6.5 -16t-7.5 -17q0 -18 -4 -43q-25 -85 -25 -141v-14l5 -5q11 5 11 11q0 -1 3 -5q16 7 19 32q9 6 10 7v4q4 7 17 18q3 9 2 10l28 46 q6 5 15 15q2 3 7 20q3 3 9 4q7 18 22 38q8 1 13 9q3 11 5 13q16 24 26 24q2 0 2.5 -1.5t2.5 -1.5l5 6q5 6 12 6q2 0 6 -1.5t6 -1.5t4 3t4 3q3 0 2.5 -3t1.5 -3t3 1.5t3 1.5q3 0 5.5 -1t4.5 -2.5t3.5 -3t2.5 -4t2 -4t2 -4.5t1 -4q5 5 7 5v-3q1 -3 2 -6.5t1 -5.5l-1 -3 q-3 1 -3 0l-1 -5q-1 -6 -2 -10.5t-3.5 -9.5t-6.5 -6l5 -5q0 -7 -8 -26l-10 -20q0 -16 -11 -46q-2 -24 -10 -56q-8 -33 -7 -45l-4 -3q-2 -5 5 -5l-8 -7q0 -4 5 -4q0 -10 -5 -12q4 -2 5 -2q0 -8 -1 -15q-2 0 -6 -3l-1 -6q0 -1 3 -11q2 -8 0 -13q11 2 35 0q3 8 12 17q3 -3 7 -3 q6 0 13 15l2 -6l3 11q8 8 21 17q26 42 70 118q10 35 19 63l10 11q3 22 13 51q2 5 -4 17q9 0 13 -1l5 -1q3 0 5 2l1 1q5 5 9 -9q2 2 2 9q50 -26 51 -26q2 0 4 2q0 1 2 1q13 0 48 -30q10 -7 21 -37q12 -29 12 -45zM613 160q0 6 -10 27q-13 33 -14 37q-9 -9 -20 -60 q-10 -43 -10 -77q0 -10 7 -27q20 16 29 32q1 15 14 37q0 2 1 7z" />
<glyph unicode="od" horiz-adv-x="806" d="M841 141l10 -16q1 -1 -6 -12t-11 -30q-28 -41 -56 -69q-32 -27 -45 -27q-1 0 -7 -1t-8 -1q-26 0 -64 32q-37 31 -40 57q-1 2 -6 7q1 2 -11 40q-11 49 -12 72q-3 33 -3 36l-4 4l-29 -51q-3 -27 -23 -53q1 -3 1 -10q-19 -42 -54 -88q-6 -8 -18 -29q-5 -9 -17 -22 q-25 -19 -33 -19q-1 0 -14 6.5t-18 7.5q-3 13 -24 21l5 5q-12 15 -12 50q0 -5 3 6l-1 8q-1 8 -1 11q3 2 4 7q4 57 15 93q2 10 6 23q4 11 31 73q20 45 20 47q0 3 -6 5v23q0 1 -3 4q-76 -4 -124 -4q-1 0 -13 -4q-56 -6 -57 -7q-2 -2 -2 -8q-6 0 -8 2l-4 -4q-4 -3 -4 -5 q0 -7 10 -14l14 -12q3 -4 14.5 -17t19.5 -24l-11 -14l1 -2q0 -3 1.5 -7.5t2.5 -10.5q1 -2 -1.5 -12t-2.5 -11q-2 -30 -7 -65q0 -4 -13 -31q-2 -16 -8 -33q-4 -5 -17 -28q-2 -10 -7 -20l-25 -26q-19 -17 -30 -17l-7 -2q-2 0 -10 4t-9 4q-9 1 -32 9q-19 8 -29 27 q-22 40 -22 96q0 17 4 45l6 51q1 10 9 31q7 21 7 24q0 4 -6 32t-6 32q0 11 11 25q3 7 -2 7q8 0 9 -1l7 6q7 -6 8 -6h12q2 0 2 6q9 -4 16 -4q2 0 2 2t2 2t10 -2t9 -2q2 0 12.5 1t12.5 1q4 0 111 17l128 13q70 8 116 8q22 11 33 18q3 -7 7 -7q2 0 11.5 2.5t11.5 2.5q5 0 10 -5 q11 9 9 9q2 0 3 -1t3 -1q-2 0 2 2q2 2 6 4l5 14q7 45 31 119q24 70 43 98l38 -9h-1q2 0 4 2t4 2q3 -1 9 -5t10 -6t5 -1h4l-2 -5q-2 -5 -4 -6q-2 3 -5 3q-2 0 -7 -6t-11 -13t-8 -9q-2 -8 -13 -47.5t-18 -68.5l-6 -7q-17 -54 -32 -167l-3 -85q-2 -82 5 -124q3 -13 14 -41 q15 -31 28 -31h7q3 0 12 9q14 13 26 15q8 3 8 6q0 1 -2 3l4 -3q9 7 28 30v-9q13 10 39 44q17 21 24 14q4 -4 3.5 -4t-4.5 2zM584 346l-4 2q-4 3 -7 3q-1 0 -9 -3q-13 -1 -35.5 -15t-34.5 -29q-51 -70 -70 -140q-1 -8 -9 -16q3 -22 -9 -36q2 -11 -6 -31q-7 -18 -7 -26 q0 -2 8 -20q0 7 3 19q1 -1 0 -4q0 -1 3 -1q5 9 20 19q11 16 40 60q2 -2 5 -2q0 3 -1 5q11 9 39 67q5 7 8 8q6 19 20 48l11 12q5 11 17.5 39.5t17.5 40.5zM186 175q0 25 -5 40q-6 10 -24 43q-2 1 -7 6q-1 10 -11 13l-1 2q-1 2 -1 7h-8q-1 -1 -13 -68q-13 -68 -13 -109 q0 -20 2 -36l6 -19q1 1 3 2.5t4.5 3t3.5 2.5q-1 2 1 8q2 0 5 -2l2 -3l14 20q11 14 23 18v17q2 1 7 6q0 2 2 14q7 4 10 12v3q-5 12 0 20zM147 263l3 -7h-4l-2 6z" />
<glyph unicode="of" horiz-adv-x="622" d="M621 327q-5 -6 -60 -29q-1 -1 -3.5 -2.5t-6 -4t-6.5 -4.5q-58 -15 -77 -42q-3 -5 -3 -16l10 -51l4 -29q4 -7 8 -15q0 -5 2 -37q4 -25 11 -44q0 -11 -1 -19q2 -23 9 -71q9 -48 9 -49v-71q0 -39 -9 -73q-8 -30 -24 -52q-11 -17 -13.5 -18.5t-18.5 -1.5q-3 0 -13.5 2.5 t-12.5 2.5q-23 14 -30 22q-4 5 -23 18q1 -1 6 2q0 3 -10 4l-5 19q-3 10 -12 9l6 6l-13 31q3 2 4 7l-5 28q0 1 -4.5 19t-4.5 25q0 21 -5 73l3 57q-4 7 -4 9q17 30 -3 44q11 13 13 43q1 37 6 51l-7 7q0 5 2 13l4 7q6 9 6 18v17l-4 5q-3 -3 -9 -3l-1 11l-3 33l3 6q-4 6 -11 13 q-34 -18 -111 -68q-3 -1 -3 -15q0 -2 3.5 -6.5t3.5 -5.5q-1 -6 -1 -27l13 -65q0 -1 -5 -8q1 -27 -20 -68l-24 -34q-1 -3 -23 -19q-19 -16 -25 -16q-3 0 -28 6q-30 7 -59 57q-9 2 -20 24q0 2 -2 38q-5 -5 -5 -10q0 1 2 8t2 9q0 9 -7 13l-1 22l3 4q-1 43 11 105q3 2 12 11 l-1 17q0 6 8 17q0 5 -1 10q3 14 16 37l21 35l4 2q4 2 7 2t5 -2l2 -3q11 16 20 16q11 0 18 -4q21 -12 37 -12q2 0 14 1t15 1q0 -10 -1 -10q5 0 23 -7l6 2l6 -7q-5 1 -13 -2q6 -12 12 -12q2 0 2.5 1.5t2.5 1.5t2.5 -2.5t2.5 -2.5q14 0 34 17l29 27q8 -8 7 -8v10l10 4l37 36 q2 2 5 6t7 9.5t8 9.5q5 9 6 31q4 6 6 11q0 3 5.5 14.5t5.5 14.5l10 33q5 22 2 34q5 3 10 21q2 6 12 16q2 10 -1 18q5 5 17 24l12 31q10 5 25 14l7 -5l10 11q8 -8 11 -8t19 -1.5t18 -1.5q3 0 6 2.5t5 2.5q4 0 19 -6q5 -2 14 -18q9 -15 9 -19t-16 -36l-22 -49q-16 -41 -50 -81 q-44 -53 -61 -78q-10 -16 -12 -44l-5 -7q-8 -30 -10 -39v-15h31h1q0 1 3 3l6 4q4 0 69 13q46 9 51 9q11 0 22 -14zM379 425l6 12l-4 2l-6 -12zM185 288q-12 16 -19 30q-32 -14 -36 -46q23 5 55 16zM467 -62l-5 13q0 4 1.5 18t1.5 16q0 12 -1 19l-5 30q-3 20 -3 27 q0 59 -5 81q-3 6 -17 42q-4 1 -10 23l-9 6q2 2 2 6q-10 6 -14 -4q-8 -49 -25 -185v-95q2 -35 12 -102l13 -47q5 -14 15 -26q3 -1 6 -1q6 0 9 4q-4 6 -2 12q5 1 9 6l2.5 7.5t4 12.5t4.5 13q-1 0 -5 2q5 3 13 12q0 37 -3 79l2 4q5 -7 7 -7q0 3 -8 21q10 7 10 13zM143 89h5v32 l-3 19q-4 10 -18 37h-1q-2 -2 -5 -2l-4 1q-4 1 -12 6q-11 -47 -11 -61q0 -36 8 -71q6 -8 12 -8q0 3 4 7l4 -8v16h13v6q-2 5 5 9q-3 7 3 17z" />
<glyph unicode="int" horiz-adv-x="876" d="M1011 402l1 -3l-7 -3v3zM921 328v-4h-9v4h9zM898 323l2 -3l-7 -3v3zM1012 372q-2 -1 -8 -7l-6 5l-25 -11q-11 -3 -24 -3q-3 0 -8 5q-1 -1 -1 -10q-4 0 -6 2q-6 -7 -14 -7q-2 0 -2 -4l-3 2q-3 2 -6 2q-2 0 -14 -8.5t-14 -8.5t-3 1l-1 2l-4 -4l4 -7q2 -3 0 -8q-3 0 -8 5 q-4 -4 -4 -8q0 2 -3 5q-13 -9 -49 -20l-49 -14l-62 -26q-4 -7 -4 -17q0 -1 0.5 -9.5t2 -27.5t2.5 -40l-1 -5q-1 -6 -1 -8q0 -12 4 -29q4 -20 4 -30l6 -53q24 -24 24 -49q0 -27 -18 -27q-2 0 -6 2.5t-6 2.5q-13 0 -52 47q-37 46 -45 67q-1 5 -11 20q-4 -2 -8 -6 q-2 -13 -4 -19l-27 -58q-5 -2 -7 -5v-12q-9 -10 -14 -28q-15 -11 -17 -13l-5 5l-13 -8q-5 0 -29 18l-25 19q-24 55 -23 60q-6 1 -8 13v2l-5 2q-3 20 -19 55q-1 0 4 5q-6 6 -10 20q-6 18 -9 25q-2 -2 -5 -7q2 -12 -8 -30q-13 -31 -13 -32l-5 -5q0 -12 -17 -43 q-16 -29 -13 -43l-14 -8v-8l2 -2l7 5q-5 -14 -34 -31l-54 35q2 2 2 10q0 7 -6 16l-5 9q-11 43 -4 55q0 1 -2 37q-2 21 -8 27q-11 -14 -14 -18q1 -5 0 -9q-18 -29 -46 -80q-9 -21 -14 -67q-1 -13 -12 -13q-18 0 -63 46q-2 8 0 15q0 2 -3.5 7.5t-3.5 7.5q1 4 1.5 17t0.5 19 q0 1 -4 11.5t-4 12.5q0 1 3 5.5t3 6.5v67q0 2 5 17q3 18 1 20q6 6 6 15q0 3 -6 20q-6 18 -6 21q0 6 8 11q3 1 12 5t16.5 7t9.5 3t5 -2t5 -2q1 0 6.5 3.5t7.5 3.5q18 0 19 -34l-18 -78l4 -4l13 5q9 14 22 21q5 10 5 14q4 -2 5 -2q1 1 0 3q0 1 1 1t3 1t5.5 6.5t7.5 16.5 q6 3 15 15q0 -3 4 -7q0 5 5 22q-1 -1 0.5 -2t4.5 -1q1 0 7 -2t7 -2q2 0 3.5 2t3.5 2l22 -3l4 -5q3 -4 6 -4q2 0 2 1.5t2 1.5q11 0 27 -37q1 -2 1 -9q0 -4 -1 -16t-1 -14q0 -8 4 -8q2 0 3 1t3 1t7 -5q5 11 18 26q4 32 19 67q3 8 14 22q-1 3 -1 14q2 1 7.5 11.5t7.5 10.5 t7.5 -1t7.5 -1q13 0 19 7q27 -17 44 -27l-5 -11q-2 -8 -2 -44q0 -33 8 -95q11 -75 27 -96q3 1 14 3q8 7 5 7q4 0 9 -5l6 8q1 3 -4 8q2 0 5 1q36 55 36 73l-9 18q-2 5 -5 12q-8 22 -8 34q3 30 11 32q1 2 -4 7q7 -1 23 20v6q7 3 7 8l5 -4q35 28 38 28q2 0 2.5 -1t2.5 -1l5 9 q6 0 14 4q13 7 13 30q0 9 -4 13q1 2 6 11q2 4 -3 6v19q3 17 3 37q4 47 4 72q4 4 4.5 15.5t1.5 13.5q5 14 4 19q8 10 12 12q6 -5 14 -9t15.5 -7t9.5 -4q2 0 12 -19v-11l-5 5l-3 -16q-8 -9 -15 -31q-5 -72 -5 -122q4 -4 7 -4q2 0 31 6t32 6t5 -2l2 -3q8 7 15 9q4 -1 16 -1 l14 7q2 0 5 -1.5t5 -1.5q6 0 6 4q0 -2 4 -6q4 4 4 7h9v-8q1 -1 5 -1q5 0 15 16l2 -1l6 -2t5 -1h44q2 0 4 3.5t4 3.5q4 0 8 -4q1 -1 4 0q1 1 6 1q2 0 1 -2t1 -2t8.5 1t8.5 1t7 -1.5t8 -1.5l-12 -5q4 -2 12 -2l9 3l3 -9q-4 1 -12 -2q6 -11 17 -9zM238 493l-29 -29 q-30 -30 -35 -40q-2 0 -9 -4t-9 -4t-6 2q-2 3 -5 3t-43 48q-3 15 7 31q14 10 31 13q38 3 89 16l6 -18q-10 -5 -14 -10q-1 -1 1 -3q6 2 12 2q4 -3 4 -7zM307 203l3 -4l-2 -2l-4 4zM641 160h6v54q-16 -16 -16 -26q0 -11 10 -28zM559 154l3 7l-3 1l-3 -6zM360 277l3 9h-3l-3 -8 zM505 64h4v16h-4v-16zM307 183l3 6l-3 2l-3 -7z" />
<glyph unicode="on" horiz-adv-x="768" d="M706 49l12 -7q0 -14 -3 -16q-7 -9 -11 -21q-18 -18 -25 -18q-2 0 -8 2.5t-7 2.5q-3 0 -9 -2.5t-8 -2.5t-2.5 1.5t-0.5 3.5l-1 2q-5 -5 -8 -5l-10 3v10l-2 -2q-2 -1 -5 -1q-8 0 -37 32q-26 32 -28 47l2 6q2 5 2 7t-2.5 7.5t-2.5 7.5v33q1 19 1 35l-2 22q-3 24 -11 35 q-13 -37 -15 -62l-9 -13q-4 -4 -1 -12q-17 -37 -41 -78q1 -2 1 -25q0 -3 -18 -32q-17 -27 -24 -27q-1 0 -12.5 1t-13.5 1q-9 0 -30 21q-21 23 -21 28q0 2 2 8t2 7l-3 18q-4 15 -4 45q0 1 3 26q4 23 4 40q0 1 3 7t3 8l-2 83h-3l1 3q0 3 0.5 8t0.5 11q1 10 -1 23q-8 32 -18 44 q-29 -2 -86 -12l-20 -13q0 5 -4 5q-9 -14 -37 -30q1 -5 1 -25q-3 -6 -6 -6q-26 0 -26 1q-4 -4 -4 -16q0 -16 22 -41t22 -29l6 -13l14 -13q-1 -3 -1 -10l13 -28q0 -1 6 -28q1 -7 0 -22q2 1 2.5 0t0.5 -4q0 -1 -5 -21q-1 -3 -5 -24q-4 2 -5 1q-7 -4 -18 -25q-15 -27 -57 -27 h-17q-4 0 -26 13q-20 11 -37 26l-18 27q1 3 -1 13q-10 14 -20 40q-3 18 -3 86q0 1 -2 8t-2 10q0 -4 1 1q1 2 3 14q-1 6 -1 25l14 31q0 1 7 40q5 14 27 32q14 11 32 11q2 0 2.5 -1t2.5 -1l1 1q1 0 4.5 0.5t7.5 1.5t11 2.5t14 2.5q4 2 8 6q36 13 103 30q16 4 90 4q18 0 57 -27 q22 -13 25 -27q11 -46 11 -85q0 -22 -12 -112q-3 -9 -3 -12q0 -4 7 -22l25 25l6 31h10q0 9 4 21q17 28 34 68q2 0 5 3q2 14 8 27q9 9 18 23q0 2 2 16h16q5 0 7 12q13 2 29 6l6 -5q4 2 7 2q2 0 14 -12q3 -2 13 -3q13 -45 13 -56l-11 -76q0 -1 2 -7q1 -1 -2 -8q0 -2 2 -20 q2 -2 -3 -8q0 -1 0.5 -4t1 -9t0.5 -11q2 -23 1 -28q-1 0 -4 -3q4 -2 5 -2q-5 -7 -1 -33q5 -29 20 -29q7 0 15 8q12 0 20 -1zM162 97q0 25 -41 75q0 3 -1 5q-2 2 -6.5 5.5t-6.5 4.5q0 2 -10 21q-1 -7 -2.5 -12.5t-2.5 -9.5t-1.5 -6.5t-0.5 -3.5l-1 -1q0 -37 8 -74q2 -3 6 -13 q11 -56 26 -56l12 3q22 25 16 56z" />
<glyph unicode="op" horiz-adv-x="667" d="M422 162q25 67 55 95q16 16 20 22q20 20 55 47q-1 -2 -6 -2q-1 0 -13 28q-6 15 -17.5 27.5t-16.5 12.5q-12 0 -30 -5.5t-23 -11.5q-19 -19 -32 -48l-21 -72q-19 -89 -19 -125q0 -2 -0.5 -7t-1 -14.5t-0.5 -19.5v-16q0 -35 -3 -100q0 -2 3.5 -11t3.5 -12q0 -41 -1 -41 q0 -1 -3 -4q0 -10 -5 -42q-4 -25 -4 -30q0 -6 12 -20l14 -15q1 -2 1 -8q0 -23 -23 -51q-7 -3 -10 -6q-9 7 -14 19l-5 -2q-4 -1 -6 -1q0 2 -3 9t-3 10l-9 3q-1 3 -4 10l-10 6l5 7l-8 -1q-4 0 -8 6.5t-4 11.5v42q-1 21 -1 49l-1 3l1 3q0 12 3 39q4 24 4 40q4 52 4 68 q5 46 5 49q3 32 3 34t-1 7t-1 7v22q0 14 -6 20q7 14 4 42q-4 13 -8 31l-10 7l3 4q-7 3 -17 11q-2 7 -4 8q-3 1 -9 1q-9 0 -38 -13v-6q0 -9 2.5 -13.5t7.5 -3.5l7 -38q4 -21 4 -27q0 -27 -11 -66q-12 -45 -31 -69l-5 -14q-4 -9 -33 -46q-3 -4 -18.5 -11.5t-23.5 -7.5 q-2 0 -2.5 -1.5t-2.5 -1.5q-12 0 -31 13q-21 13 -30 14q-10 14 -10 21q0 5 4 6q-7 2 -13 7q-8 13 -8 27q0 2 3 22l4 28q-2 9 -4 34q8 14 14 32q8 71 58 126q2 4 4 13q10 8 40 21l23 4l27 21q9 -9 9 -13q0 -5 -2.5 -9.5t-5.5 -7.5t-8 -7.5t-7 -6.5l4 -4q45 16 85 16 q25 0 61 -13q3 1 9 7q15 24 41 61q18 19 37 28q48 22 75 22q38 0 78 -33q23 -17 17 -26q14 -9 23 -25h7q5 5 7 5q1 0 17 0.5t21 0.5l8 6q25 13 81 13q62 -6 86 -16q28 -19 2 -17q-85 0 -134 -12q-37 -7 -76 -32q4 -23 4 -25q7 -59 -5 -119q-5 -4 -8 -8t-5 -9.5t-2.5 -9 t-2 -11t-1.5 -9.5q-8 -15 -24 -35l-2 -10q-7 -8 -15 -24l-11 -23q-3 -4 -35 -40q-5 0 -10 -1q-3 -10 -8 -10q-2 0 -2.5 1.5t-2.5 1.5q-4 0 -4 -3t-3 -3l-29 6q-29 6 -38 6l-27 26q0 3 -1 6q2 9 1 11q-3 4 -3 3q0 21 19 101q22 29 8 34zM571 174q0 41 -10 92 q-82 -44 -107 -126q-13 -46 4 -74.5t43 -25.5q12 0 19 7q13 12 29 44q0 2 7 29q15 50 15 54zM161 159q0 2 -32 51q0 2 -5.5 20t-5.5 23q-20 -61 -31 -117q-5 -25 -5 -46q0 -18 17 -58q24 19 34 46l11 13l2 13q11 15 12 22q3 26 3 33z" />
<glyph unicode="ople" horiz-adv-x="993" d="M981 55l20 -14q0 -5 -12 -15q7 -7 10 -7q-8 -5 -29 -24q0 -4 3 -4q-5 -1 -15 -9l-21 -20q-35 -24 -73 -24q-7 0 -10 4q-1 -1 -1 -4h-17q-2 0 -6 2l-10 5l-8 4l-31 6q-23 15 -52 33l-2 2q-2 3 -4 5.5t-5 5.5t-6 5t-5 2t-11.5 -1t-11.5 -1t-16 5t-19 6q-66 9 -100 114 q-14 41 -15 64q-2 7 -7 13q-10 -3 -23 -15q-6 -3 -17 -31q-11 -27 -16 -33q-12 -15 -51 -40q-34 -22 -51 -22q-7 0 -22 5q0 -10 -5 -35q0 -5 4 -12q-4 -18 -5 -63q0 -1 1 -14.5t1 -18.5q0 -40 -3 -73q-7 -25 -15 -79q0 -24 -16 -46q-8 2 -25 2q-15 0 -87 45q-11 8 -12 36 l-2 60q0 30 12 121q3 5 8 22q6 38 16 59l4 32q5 16 18 54q12 35 12 37q0 -3 -3 6l2 4q-9 32 -28 77q-16 30 -38 30q-10 0 -29 -34q0 -2 3 -8.5t3 -7.5q3 -26 16 -70q4 -7 8 -36q-2 -33 -1 -68q0 -3 2 -12t2 -11q0 -19 -8 -43q-2 -2 -9.5 -12t-12.5 -17q-9 0 -18 -10 q-13 7 -17 7q-1 0 -5 -1t-5 -1q-7 0 -24 12q-5 5 -16.5 14t-20.5 17q-14 25 -21 45q-10 27 -10 61q0 30 7 45l20 43q0 5 -1 8q7 25 27 72q10 20 35 37q1 1 11 1l7 8q39 13 54 13q21 0 49 -15q8 -4 44 -46q10 4 44 52q30 42 54 42q2 0 6 -1t6 -1t10.5 3.5t10.5 3.5t7.5 -3.5 t6.5 -3.5q20 -4 34 -18l21 -25q7 -9 15 -31q9 -27 11 -32h6q5 5 26 16q20 11 27 25q5 24 15 66l19 59q10 25 38 75q4 10 21 28l35 40q4 4 19 9q6 2 8 4t1 4l23 -9h-1l38 -6l38 -32v-24l-1 -2q-1 -1 -5 -7t-7 -11l-9 -32l-19 -33q-1 -3 0 -7q-10 -7 -21 -31q-11 -11 -48 -55 q-34 -43 -52 -50q-2 -3 -14.5 -18t-22.5 -28q-3 -5 -4 -25l-4 -77q0 -1 -2 -6t-2 -7t2 -7t2 -6q-1 -57 40 -82q1 -1 3 -4t5 -5t8 -2q12 0 32 11q-5 5 -9 13q-1 4 -1 28q0 23 5 46q3 16 17 66q6 12 17 31q5 13 21 43q2 1 9 8q10 25 30 37q13 9 27 9q2 0 18 -4t18 -4t8 1.5 t8 1.5t18 -11l27 -18v-53l-11 -37q0 -1 -2 -19q-5 -18 -49 -90q-9 -18 -42 -47q-30 -27 -30 -30q0 -13 19 -26q16 -13 30 -13h17q11 0 53 16q18 4 54 18q15 8 33 25zM747 531q0 3 -1 7l-2 4q-2 0 -9.5 3.5t-9.5 3.5q-10 0 -20 -13l-20 -24q-19 -40 -38 -102l19 17q2 -4 2 -5 q0 8 12 20.5t21 15.5q16 20 35 57zM977 44h4v6h-4v-6zM851 261q0 6 -6 16.5t-12 13.5h-3q-1 -1 -4 -1.5t-5 -0.5q-20 -17 -31 -51l-14 -57q-12 -41 -12 -45v-10q20 20 46 50q4 10 15 31q-1 3 0 6l10 8l8 18q8 18 8 22zM439 255q0 17 -8 49q-9 35 -21 50q-16 -14 -24 -29 l-18 -31q2 -2 0 -4l-13 -19q-3 -13 -29 -91q4 -4 8 -4q3 0 20 10q8 3 32 16q22 18 21 18q3 0 13.5 6.5t12.5 8.5q6 11 6 20zM124 111q0 2 -3 8.5t-3 7.5l-4 62q-7 -16 -17 -33q-4 -28 -4 -37q0 -10 1 -23q2 -26 2 -28q6 -8 8 -8q4 3 6.5 10.5t3.5 13.5l1 7zM298 -116l-4 10 q-4 52 0 83q-5 15 -13 52q-9 -19 -10 -22q-18 -78 -18 -135q0 -1 1.5 -21t1.5 -25q8 -8 13 -8q6 2 17 7l-1 12l-1 -2q8 17 10 40z" />
<glyph unicode="pe" horiz-adv-x="632" d="M43 338q-7 34 51 42q12 2 17 -59l24 34q30 42 54 42q2 0 6 -1t6 -1t10.5 3.5t10.5 3.5t7.5 -3.5t6.5 -3.5q20 -4 34 -18l21 -25q7 -9 15 -31q9 -28 12 -59q0 -1 1 -3.5t2 -5.5l2 -6q31 11 63 25l1 2q1 3 1 5q3 19 9 32q1 1 5 9.5t13 22.5t24 34q29 41 38 41q2 0 9.5 -2 t8.5 -2t6 3l5 3q-2 -2 16 -6q9 -1 29 -8q25 -10 41 -22q5 -3 11.5 -18.5t6.5 -19.5q0 -13 -58 -61q-11 -2 -20 -8q-17 -14 -44 -26q-31 -13 -46 -21q-9 -5 -10 -32q-3 -34 -3 -42q0 -14 4 -33q1 -13 5 -34q8 -30 27 -30q11 0 41 21q62 46 102 71l7 10l7 7l22 22l30 30 q44 44 48 44q13 0 13 -24q0 -1 -2.5 -13t-2.5 -16q-7 0 -8 -1l4 -5q-4 -12 -13 -16l4 -6q-3 -3 -12 -3q1 -7 -2 -20q-34 -43 -38 -43q-3 0 -3 2q2 2 1 3q-5 -13 -12 -20q-38 -38 -77 -66q-36 -25 -34 -26q-1 0 -5 2q-3 -4 1 -8l-2 1q-1 1 -5 1t-4 -7q-10 0 -14 4l-14 -6 q0 3 -2 7q-3 0 -3 -5h-8q-7 0 -31 13.5t-26 22.5q-14 6 -32 26q-7 9 -11.5 18.5t-6 15.5t-4 20t-4.5 21q-4 9 -4 31t-2 32q-7 -4 -13 -4q-2 0 -27 -13q-7 -26 -37 -57q-12 -15 -51 -40q-34 -22 -51 -22q-7 0 -22 5q0 -10 -5 -35q0 -5 4 -12q-4 -18 -5 -63q0 -1 1 -14.5 t1 -18.5q0 -40 -3 -73q-7 -25 -15 -79q0 -24 -16 -46q-8 2 -25 2q-15 0 -87 45q-10 8 -12 36l-2 60q0 30 12 121q3 5 8 22q6 38 16 59l4 32q1 5 3 13.5t5 23t6 26.5q3 29 4 32l-3 7l2 4q2 28 -4 74q-2 35 -8 54zM254 228v23q0 17 -8 49q-9 35 -21 50q-16 -14 -24 -29 l-18 -31q2 -2 0 -4l-13 -19q-3 -13 -29 -91q4 -4 8 -4q3 0 20 10q8 3 32 16q31 14 53 30zM113 -120q0 1 -2 7l-2 3q-4 52 0 83q-5 15 -13 52q-9 -19 -10 -22q-18 -78 -18 -135q0 -1 1.5 -21t1.5 -25q8 -8 13 -8l17 7q0 11 -1 12q7 16 9 38zM518 354v10q-4 0 -7 3l-11 -9 q-2 6 -2 11q-2 -1 -14 -8q-14 -10 -23 -31l-13 -32q19 12 43 25q28 18 27 31zM706 183l7 3l-1 3l-6 -2v-4zM99 -169l1 2z" />
<glyph unicode="po" horiz-adv-x="710" d="M656 238h-7q0 -3 -2 -23q0 -5 -0.5 -11t-1 -10t-0.5 -6q-2 -4 -6 -8l-6 -36l-19 -34q-3 -8 -5 -12l-8 -5q0 -3 -10 -26l-18 -16q-11 -10 -16 -10q-3 0 -8.5 1.5t-6.5 1.5q-23 3 -33 10q-1 0 -26 25q-6 18 -10 18q-2 0 -4.5 -1t-3.5 -1q-1 25 1 39q0 2 -6 3q-1 1 -1 5 q0 2 1.5 10.5t1.5 11.5l-3 2q0 2 1.5 3.5t3.5 2.5h2q-6 8 -6 24q3 5 8 16l10 35q9 9 14 16q1 12 9 38q1 3 5.5 9.5t8 12.5t3.5 8q0 3 -10 27q9 0 10 4l-4 4q-6 0 -13.5 -1t-19.5 -3t-20 -3l-40 -10q-29 -9 -31 -9q-3 0 -56 -19q4 -31 5 -34q1 -7 2.5 -13.5t2.5 -9.5v-3 q0 -4 -5 -23t-5 -22q-20 -146 -88 -192l-9 -11q-16 -1 -30 -23q-4 0 -10 -3.5t-11 -7.5l-4 -4q-33 -9 -37 -9q-7 0 -24 3v-35v-24q0 -2 1.5 -15.5t1.5 -16.5l-2 -7q0 -1 3 -4q5 -56 20 -137q1 -3 30 -55q-6 -4 -16 -16l-50 24q0 4 -1.5 7.5t-4.5 6t-6.5 4.5t-8 4.5t-7.5 3.5 q-3 9 -11 12l1 11q3 -3 7 0v63l-4 5q-5 -5 -7 -5q6 23 3 42q2 -1 3.5 0.5t1.5 4.5q0 1 -4 2l-6 41q0 2 -4 3q-3 7 1 10q-5 7 4 11l-7 20l-6 62q0 2 -7 7t-29.5 21t-38.5 28q0 8 -5 14l-1 1q8 16 23 47q9 19 27 42q18 24 21 30q3 3 4 22l4 7q1 4 0 8q1 19 0 50q2 8 9 23 q0 8 5 35q6 24 6 37q0 9 -1 13q8 0 37 23q32 24 46 25q4 1 49 1q13 0 34 -9q1 0 12 -7t13 -7t2.5 1.5t2.5 1.5q4 0 26 -21q25 -20 28 -20l5 1q5 1 16.5 4t23.5 6l62 16q76 14 93 14q26 0 58 -8q48 -12 48 -39q0 -1 -5 -13.5t-5 -14.5q0 -6 5 -11q10 -9 11 -10q-2 -2 -2 -4 q0 -3 5 -10.5t5 -8.5q1 -5 3.5 -12t6 -17.5t6.5 -18.5zM585 203q-1 1 -6 27q-41 -65 -35 -96l3 -3v0v-1v-1v-9l6 -2l8 28q5 -3 8 0v9l7 25q0 8 -1 15q6 8 10 8zM254 338q-6 18 -11 25q-20 21 -28 21q-21 0 -41 -13q-21 -15 -29 -29q-9 -15 -21 -60h22q9 8 11 6q8 10 30 17 l27 11q1 0 2.5 4.5t4.5 4.5q2 0 3 -1t3 -1q3 0 14.5 7.5t12.5 7.5zM277 239q0 3 -4 7l-1 1q5 13 2 21q-1 4 -6 10q2 10 -4 21q-22 -9 -73 -37l-36 -33q-3 -5 -3 -7q-25 -24 -33 -44q-6 -16 -6 -53q2 -2 5 -6q-3 -15 -3 -26q0 -8 1 -16v-17l-3 -4h22q9 0 62 27v5q1 4 5 4 q2 0 2.5 -1.5t2.5 -1.5q3 0 20 18l26 27q3 13 8 18q-1 2 4 26l5 43z" />
<glyph unicode="re" horiz-adv-x="583" d="M661 203q0 -5 -5 -13q-10 -13 -11 -17q-3 -11 -12 -30q-104 -144 -196 -175q-25 -9 -24 -9q-2 0 -9 -1.5t-10 -1.5q-29 0 -74 50q-10 -9 -34 -23q-2 -5 -9 -12q-34 -23 -54 -23q-8 0 -13 8q-8 -8 -16 -8q-7 0 -25 22q-2 4 -5 17q-4 7 -9 9q-2 8 -11 27q-12 22 -12 43 q0 7 10 34q0 4 2 28l15 22q-1 3 -1 11q6 16 25 52q15 22 26 69q-40 30 -83 37q-9 -5 -11 -38q-11 -10 -19 -41q-6 -32 -14 -42l-4 -1q-4 -1 -8.5 -1.5t-5.5 -0.5q-18 0 -19 9v0v0v1v0v1v1v1v1v1v1v1v9q0 27 -5 67q8 8 8 15q0 2 -2 4.5t-4 3.5l-2 1q-7 24 -8 36q0 7 -5 30 l7 6h-8q6 15 6 22q4 -2 9 -2q2 0 3 3t4 3q-3 0 2 -2l24 -9q151 -49 200 -119q0 -5 -7 -12l7 5q-3 -27 -31 -97q-14 -25 -36 -74l-4 -30q-8 -30 -8 -34q0 -27 15 -27v1q1 0 4.5 2t6.5 4l41 25q26 17 36 30q-2 68 3 79q-3 21 14 61q0 1 0.5 3t1 5t0.5 6l6 5q6 15 10 32 q9 5 14 20q8 23 17 33q27 38 54 61l3 -2q3 -3 6 -3q2 0 3 1t4 1q5 0 64 -34q3 -9 18 -18v-18q-6 -3 -8 -5q1 -11 -4 -42l-27 -54q-17 -32 -32 -50q-5 -11 -24 -38l-42 -44q-14 -20 -14 -24q0 -18 26 -18q14 0 43 19q6 0 18 4q42 21 81 52q28 21 62 62q2 2 10 16l5 5l33 42 l14 -9zM442 259q0 10 -6 34q-12 2 -23 -18q-14 -23 -16 -23q-35 -102 -34 -108v-12q18 16 36 34q2 3 14 21.5t15.5 25.5t8.5 21t5 25z" />
<glyph unicode="say" horiz-adv-x="1085" d="M1085 185q0 1 -3 -18q-9 -6 -25 -25q-4 1 -14 -7q4 -2 8 -2q-10 -4 -31 -25l-23 -28q1 -22 -12 -126q-1 -1 -3 -2q3 -18 -4 -42l-6 -13v-12q0 -9 -4 -9t-4 2q1 1 0 1q-3 -20 -13 -44q-5 -8 -25 -42l-13 -12q0 -4 -2 -10q-1 -1 -1 -3q0 -1 2 -1q-9 -7 -18 -10 q-2 -6 -12 -18q-4 -1 -33 -15l-25 -6q-1 0 -6.5 3.5t-8.5 3.5q-1 0 -5.5 -2.5t-6.5 -2.5q-3 0 -10 5q-3 0 -14.5 -1t-12.5 -1q-3 0 -18 12q-17 12 -22 14q-16 7 -36 30q-16 19 -26 18l-2 6q4 3 4 4q0 7 -9 13q-18 9 -18 22q0 12 6 12q2 0 3 -1l1 -1q1 2 0 3q-3 1 -3 5 q0 14 105 112q3 3 51 37q-7 1 -19 9q-11 9 -49 61q-32 -32 -41 -58q-11 -18 -27 -18q-30 0 -64 40q-21 26 -29 55q-7 32 -16 61q-12 -23 -33 -56l-19 -16l-6 -14q-17 -19 -55 -59q-20 -21 -42 -21q-14 0 -23 10q-20 24 -31 35t-11 36q0 12 10 36l11 11q2 5 -1 12q4 4 8 13 t7 18t4 11q10 23 10 26q0 2 -7 15q-20 -3 -26 -39q-7 -42 -13 -50q-6 -2 -8 -5q-8 -18 -27 -45q-2 -18 -41 -54l-18 -10q-6 -1 -18 -10q-4 -14 -21 -37q-44 -23 -67 -23q-2 0 -15 -2.5t-15 -2.5q-18 0 -38 11q-22 23 -29 28q-2 2 -14 5q-7 3 -6 10v13l-8 -2q0 2 -11 19 q-4 -3 -6 -1l24 25q15 16 19 16t2 -2q-1 -2 0 -3q6 16 28 34q35 27 38 29q27 24 35 24q2 0 3 -1.5t3 -1.5t2 6q0 -3 5 -3l4 4l-7 7q1 0 2 1h6q2 0 20 15q18 17 27 21l81 41q12 7 12 17q0 4 -4 8q-2 12 1 25q-5 13 -21 33q-22 16 -50 16l-14 -5q-4 2 -12 1q-61 -15 -61 -48 q0 -2 6 -20t6 -21t-3 -15q-1 -3 -1.5 -8t-1 -6.5t-1.5 -3.5t-4 -2.5t-7 -0.5t-35 16q-12 6 -18 18q-11 22 -19 46q0 1 -4.5 6t-4.5 7q0 1 5.5 7.5t6.5 10.5q-1 9 7 30q19 20 54 30q29 10 81 10q18 0 54 -14q28 -11 41 -20q29 -22 36 -37q4 -7 19 -43q50 14 110 34 q10 4 48 27t40 23q10 0 24 -8l13 -9q30 -11 73 -23v-21q0 -2 -9 -20q-4 0 -7 -1q-10 -8 -11 -16q-10 -44 -10 -86q0 -45 19 -93q11 5 14 12l14 31q11 21 19 26q8 24 8 54q3 0 6 -0.5t5 -1.5h2q1 1 2.5 3t3 4.5t2.5 3.5q8 9 14 9q2 0 3 -1.5t3 -1.5q5 0 9 10q19 -10 34 -10 q1 0 10 2q-5 -6 -9 -15q-3 -12 -3 -46q0 -52 19 -77q29 6 53 38q38 51 41 53q-1 9 14 32q20 29 21 35q3 7 3 19q0 9 -10 60q-10 53 -10 85q0 2 3 26q3 26 3 34q14 8 14 14q6 -4 15 -1l30 -21q2 2 2 7l16 -19q5 -3 20 -6q7 -1 12 -12l8 -22q0 -22 -16 -34q-4 -22 -2 -39 q0 -3 -2 -25q-3 -11 -6 -20t-5 -15.5t-3.5 -10.5t-2.5 -6v-2v-1q0 -1 0.5 -5t1 -8.5t1 -12.5t1 -16.5t1.5 -20.5l2 -24l2 -1q2 -1 5 -1q8 0 36 15q31 17 36 22zM1036 124l3 6l-3 2l-3 -7zM930 51l7 3l-1 4l-6 -3v-4zM947 7q-5 3 -3 12q1 12 0 16l-7 -3q-4 1 -9 8v-9 q-6 -9 -12 -9q-2 0 -2.5 1.5t-2.5 1.5q-4 0 -19 -17q-19 -21 -26 -27l-45 -36q-2 -7 -5 -9q-47 -39 -71 -65q-2 -2 -14 -21q-9 -16 -9 -22t3 -6q60 -15 63 -15q11 -2 13.5 2.5t5.5 5.5q15 0 17 -1q5 -4 4 -4q15 0 59 28q26 16 46 89q-1 5 -1 17q4 5 5.5 10t2 12t1.5 11 l-1 21zM561 267q0 13 -7 13q-10 -2 -27 -6q-22 -10 -32 -17q-17 -11 -41.5 -41.5t-38.5 -62.5l-17 -48q-10 -30 -10 -34q0 -5 6 -11l34 25q5 20 52 64l9 15q7 4 9 5q25 34 42 62q0 13 20 30zM295 193q-39 -21 -97 -55l-62 -52q-1 -8 -17 -27q-14 -17 -16 -24q15 0 26 1l17 1 q2 0 34 13q10 6 29 10q-5 4 0 6q27 10 41 22q21 17 38 62q2 16 5 26q-5 -5 -7 -1q9 9 9 18zM877 -10l4 -1l-3 -6l-4 1z" />
<glyph unicode="the" horiz-adv-x="844" d="M934 231q0 -51 -33 -110q-33 -58 -84 -94q-49 -36 -65 -36h-11q-18 0 -49 28q-31 29 -36 29q-6 0 -11 -12q-10 -5 -25 -16q-8 -6 -21 -6q-2 0 -13 -1.5t-13 -1.5t-4 1.5t-3 3.5l-1 2q-5 0 -15 5q-46 48 -65 72q-2 2 -9 15.5t-9 17.5q-10 -10 -21 -37l-18 -40q-6 -2 -8 -5 q-10 -16 -23 -16q-26 0 -42 19q-4 4 -38 46l-7 23q-3 2 -12 11q1 -1 2 2q1 2 1 3q-8 11 -15 31q2 7 0 18l-8 16l3 12l-9 39q-2 0 -7 5q-15 -16 -20 -16q-3 0 -5 -2.5t-5 -2.5q-2 0 -4 2l-2 3q-4 -4 1 -9q-22 -8 -27 -12q-11 -8 -15 -27q2 -8 1 -15q-3 -12 -3 -9q0 -3 3 -9 q2 -6 -1 -16q-1 -15 4 -64q7 -28 42 -73q4 -4 4 -14q0 -2 -5 -9t-5 -8q-3 -23 5 -29q-21 0 -25 3q-21 12 -55.5 43.5t-61.5 72.5l-48 75q-16 25 -35 41q-5 2 -25 19l-2 10l-14 15q-3 6 -3 16l4 4q3 4 6 10.5t3 12.5q11 3 78 16l6 -5l13 5q16 0 58 5l-2 24q-1 13 -1 22 q0 1 1 11.5t1 12.5t3 12.5t3 13.5q0 6 -3 9l3 41l4 9q2 6 -2 7q7 23 4 47l4 5q2 33 14 86q12 51 10 70l11 -2q4 8 2 15q32 0 47 -3q12 -13 19 -14l7 -1q11 0 17 -3q1 -12 -6 -37q-8 -26 -10 -39q-23 -30 -32 -67v-16q-2 -8 -10 -44l-8 -21q-2 -2 -3 -35l-6 -43 q-1 -8 -2.5 -15.5t-2.5 -10.5v-4q0 -6 7 -6h8q8 0 37 13q31 13 33 19l-3 24q5 25 8 46q0 36 4 87q3 23 9 43q-2 9 0 26q5 14 15 28q3 7 -4 7l13 12q10 8 13 8q11 0 87 -43q24 -72 24 -88q0 8 -3 -21v-26q-6 -19 -11 -44q-2 -4 -6 -8q0 -5 -6 -12.5t-11 -12.5l-6 -6 q-14 -20 -32 -38t-26 -31q-3 -6 -5 -24q-1 -12 0 -31l2 -17q0 -49 14 -83q1 -5 6 -10h8q16 17 28 49q12 31 19 38q-2 6 -2 16q8 3 27 15q5 1 11 3l6 1q18 0 38 -11q15 -10 22 -60q10 -42 13 -54q1 -8 14 -19q1 -3 0 -7q3 -9 11 -18t15 -9q8 0 16 5l24 18q15 10 15 19l-6 23 q-12 48 -12 65t4 42q6 17 19 67q3 20 48 73q31 7 35 14l7 -6l5 6q5 -5 21 -2t23 -4q1 -2 -1 -11t-2 -11q0 -11 12 -17v-76l-7 -8q0 -14 -7 -46q-3 -14 -11 -24q-1 -4 0 -10q-1 -18 -29 -61q-26 -41 -26 -44q0 -9 16 -21q17 -12 21 -12q16 0 38 18q21 22 64 64l17 17 q20 23 56 97h12zM727 314q0 8 -6 18q-12 -1 -28 -34q-15 -31 -15 -53v-65q2 0 6 2l4 1q0 12 12 24q-1 2 1 7t5 10l2 4q0 5 2 25l7 10q10 26 10 51zM390 529q0 6 -6 18q-13 -2 -23 -27q-10 -24 -10 -47l-15 -94q1 0 18 32l17 32q7 5 18 15l-9 20q10 26 10 51zM147 133v22 q1 16 -11 45q-1 0 -10 -7.5t-14 -7.5q0 -4 -1 -7q21 -32 36 -45z" />
<glyph unicode="to" horiz-adv-x="594" d="M543 290v-37l-6 5q4 -24 1 -70q-3 -9 -10 -44q0 -4 -2 -22q-13 -27 -33 -55q-15 -11 -42 -36q-2 -2 -4 -14q-5 1 -13 9q-1 0 -7 -6q-77 25 -112 102q-3 7 4 17q-4 2 -11 2q3 4 6 4q-2 14 0 40q0 26 1 47q0 6 0.5 11.5t0.5 9v6v3.5v1v5q1 5 3 20t4 32q0 1 2 5.5t3.5 9 t1.5 6.5q0 12 -13 32q-2 0 -16.5 -1.5t-26.5 -3.5q-19 -3 -23 -19q-13 -46 -15 -101q0 -12 -2 -106q0 -2 -2.5 -8t-2.5 -9l6 -38q-1 -25 5 -87q2 -6 24 -28q-17 -11 -11 -28q-6 0 -9 -3q-10 10 -17 15q-1 1 -4 1.5t-5 0.5q-9 15 -21 15l-5 -2q-2 0 -4.5 2.5t-4.5 6t-3 4.5 q-23 14 -47 31v9q-3 1 -10 2q-19 21 -51 63q2 5 0 8q-4 3 -15 14q-5 13 -21 44q-29 46 -29 58t10 33q19 41 20 42q17 30 32 40q16 14 60 46q31 19 32 19q8 2 26 15q3 22 5 30l8 16q0 5 2 27q12 24 9 36q6 19 24 57q0 2 1 8.5t1 8.5q10 2 18.5 3.5t14.5 2.5t10 1.5t6 1.5h1 q4 0 13 -9q15 -14 16 -14q-13 -15 -29 -42q-8 -27 -20 -94l60 -6q39 -5 65 -22q8 -6 26 -28q18 -20 21 -20q2 0 9 5.5t9 5.5t13 -6t14 -6l6 6q30 -17 41 -39q3 -15 12 -41zM465 242l4 4q0 18 -11 42l-21 40l-4 26q-14 -29 -19 -89q-1 -6 -9.5 -24.5t-8.5 -22.5q0 -18 -3 -46 q0 -7 -4 -26q-4 -17 -4 -24q0 -2 7 -16q4 -12 5 -12h12l15 17q3 10 5 16q2 4 15 11q2 11 16 31q4 23 9 60q-3 11 -4 13zM176 77v24l-1 7q-1 23 -3 45q-3 38 -3 41l-3 9v-1q0 3 3 10.5t3 8.5q-3 11 -3 26q0 10 3 37q2 28 1 34q-3 -3 -14 -8.5t-12 -6.5q-22 -22 -46 -51 q-6 -10 -6 -30q0 -2 3.5 -12t3.5 -11q6 -34 27 -64q5 -6 18 -33q10 -22 13 -22q12 0 16 -3z" />
<glyph unicode="tu" horiz-adv-x="705" d="M544 -28l-3 -1q-9 -3 -66 39q-19 28 -21 39l-6 42q-2 3 6 14q1 1 1 7q-5 3 -12 24q-17 -10 -24 -21q-6 -13 -26 -43q-30 -36 -47 -50q-8 -6 -18 -6q-2 0 -9.5 -1.5t-10.5 -1.5q-6 0 -18 14q-6 8 -8.5 17t-4.5 13.5t-9 4.5q-9 34 -9 39q0 2 3.5 12t3.5 13q0 27 -1 29 q3 0 7 3q-7 11 -4 24l18 72q10 24 24 64v10l-5 4q-47 -27 -78 -52q-1 -1 -4.5 -3t-5 -3t-4 -3t-4 -3.5t-3 -4t-2.5 -5.5l-2 -6q-10 -68 -12 -105l3 -66l-3 -94q-2 0 -13 -5.5t-14 -5.5q-15 0 -41 20q-11 7 -35 26q-3 3 -14 18t-15 19l-4 22q-10 5 -23 21q-21 34 -18 59 q0 2 -2 10.5t-2 10.5q0 12 6 25q6 4 12 10q10 26 60 58q12 8 46 27q5 12 8 44q2 33 5 55q1 10 8 34q1 4 -3 14q6 13 2 26q11 18 12 24q-1 4 -1 21q10 19 19 42q4 23 10 29l5 4q23 0 53 -8q33 -11 45 -24v-26q-9 -1 -30 -12q-8 -5 -19 -37q-9 -29 -21 -85q-1 -15 -7 -45 q8 -4 17 -4q4 0 11 7l5 -5l3 7l8 5q8 4 11 4q2 0 1 -2.5t1 -2.5t3 1.5t1 3.5l1 2q16 3 28 6t16.5 4t3.5 1q25 0 54 -9l16 -8q12 -14 12 -25q0 -4 -19 -39q-24 -48 -29 -61q0 -9 -1 -16q-9 -15 -14 -29l-23 -90v-10q4 -2 18 -2q3 0 8 9t10 9q2 0 6 -2q1 1 1 7q3 7 17 28 q3 1 11 9l61 98q1 4 0 8q3 4 8 14q11 6 16 6q2 0 13 -3t13 -3t14.5 -1.5t16.5 -1.5q6 -7 7.5 -13.5t1 -10.5t-2.5 -8l-1 -4q0 -2 -11 -63q-10 -56 -10 -62v-11q2 -2 2 -6v-16l7 -36q7 -21 27 -21q9 0 21 5l57 33q20 14 40 31q4 4 17 22q10 8 24 22l29 31q0 4 1 7l50 50 q11 -5 11 -9q0 -7 -4 -11q0 -57 -54 -119q-5 -6 -28 -30t-43 -46q-3 1 -5 2l-9 -3q-6 -8 -16 -18q-9 -6 -29 -13q-26 -9 -24 -9q-8 0 -15 -4l-6 4l-5 -4q-12 3 -26 9zM137 124q0 8 -2 24q-5 30 -7 67q-31 -34 -31 -53q0 -10 15 -44q8 -16 21 -33q4 16 4 39zM265 155z" />
<glyph unicode="ug" horiz-adv-x="656" d="M600 364q-13 -13 -13 -21q0 -3 11 -20q-2 2 -4 0q-3 -9 -11 -24q-8 -18 -8 -19v-65l2 -10v1q-3 -9 0 -24q2 -13 -4 -19l9 -229l-3 -4v-23q2 -47 -6 -55q2 -2 4 -2v-10q0 4 -2 -2q-2 -7 -6 -23l-13 -85q-1 -1 -5 2q-2 -2 -5 -11q-1 -1 1 -3q4 4 8 4v-10q0 -2 -5.5 -13 t-5.5 -15t1 -7q-9 0 -9 1l5 -10q0 -4 -32 -57q0 -9 -1 -16q1 -1 -0.5 -2t-4.5 -1q-2 0 -3.5 1t-3.5 1q-6 0 -6 -9h-12q-2 0 -9 2.5t-9 2.5q-11 0 -58 19l-18 17q-10 2 -23 6q-3 0 -7 10l-4 -4l-26 17q-5 17 -5 28l1 2q0 2 0.5 6t0.5 8q1 3 11 36q-1 4 -1 17l10 11 q-5 17 -3 23q3 4 10 18l9 39q3 1 8 9q0 10 13 39q4 8 7.5 16t4.5 11l2 4q0 3 -16 16q-6 5 -20 19q-14 29 -34 85q-23 -34 -59 -17q-33 17 -52 57q-15 29 -23 41q-6 1 -9 -6q-55 -118 -87 -118q-4 0 -7.5 1.5t-8 5t-8 7t-8 9t-8 9t-8.5 10t-7 9.5q-2 5 0 10q-2 5 -7 7 q0 2 -0.5 8t-1.5 11l-1 6l-1 30q0 21 6 53q0 1 -1.5 7.5t-1.5 10.5q0 1 1.5 7t1.5 7t-1 10t-1 12q1 48 7 65q21 21 41 21q4 0 14 -3.5t11 -6.5q5 -22 5 -52l-15 -154q0 -2 1 -7t1 -6q27 21 46 75q17 47 23 89q1 3 8 12q-1 1 -1 18q32 5 44 5q1 0 5.5 5t6.5 5t6 -1.5t6 -1.5 q1 0 4 2.5t6 2.5q2 0 4.5 -1t4.5 -1q4 0 8 4q4 -4 1 -16q-4 -13 -4 -19q1 -11 -2 -42l-3 -27q0 -3 3 -22l3 -37q-1 -5 -1 -21q26 -56 54 -28q9 9 12 26q1 5 8 26l6 37q1 4 10 24q0 8 3 23q1 3 11.5 29.5t20.5 50.5l22 38q4 2 18 20l6 20l34 38q-2 2 -4 2q-2 8 2 15t9 7 q1 0 12 -9q4 4 4 7q2 -1 22 -7l7 5q0 -7 6 -7q2 0 9.5 2t8.5 2q3 0 9 -2t7 -2q6 0 10 4q1 -3 12 -14q0 -4 -7.5 -7.5t-7.5 -6.5q-1 -6 4 -14q-4 -7 0 -14q-18 -5 -21 -5q-1 0 -19 5q-16 6 -19 6q-2 0 -6 -5l-3 -5q-11 -13 -19 -28q-1 -3 -1 -10q-2 4 -4 2q-1 -1 -11 -15 q-9 -19 -34 -85q0 -11 -1 -20q-13 -34 -26 -85q-5 -17 -9 -48q-6 -54 -6 -68q0 -4 3 -25q2 -7 8 -13q14 11 27 34l6 16l35 50q4 16 20 49q9 16 9 36q0 2 -2 9.5t-2 8.5v64q0 12 -5 79q-5 5 -9 5q10 6 6 12q5 2 8.5 4t5 3t0.5 1q2 0 4 -1.5t4 -1.5l6 5l7 4q4 1 28 3q1 1 7 8 q3 0 16.5 3t15.5 3q-1 0 1.5 -2.5zM499 -87v54l-5 -4q0 16 -4 20l-17 -9q-12 -46 -51 -57l3 -8q-13 -49 -42 -144q7 -5 11 -42q5 -32 30 -32h13q21 0 34 27l15 36q-5 2 -5 7q0 1 3 9t3 11q5 69 12 132z" />
<glyph unicode="us" horiz-adv-x="820" d="M761 36q0 -12 -7 -30q-9 -25 -18 -25q-1 0 -4 -1.5t-10 -2.5t-18 -1h-19q-2 0 -10.5 3t-9.5 3q-1 6 -5 6q-2 0 -2 -1t-2 -1q-4 0 -15 12q-7 0 -2 -5q-28 26 -82 60q8 0 10 2q-12 11 -12 17q0 19 17 42q18 24 21 24q2 0 3 -1l1 -1q3 2 0 11l14 10q9 6 8 13 q0 -4 -2.5 -10.5t-5.5 -11.5l-3 -6l4 -4q3 0 10 7q3 -4 3 -8q0 -5 -7 -20t-7 -19q0 -25 22 -25q2 0 2 1t2 1t7.5 -3.5t7.5 -3.5t5.5 2.5t5.5 2.5l1 1l2 1.5t5 3t7.5 3.5t9.5 5q0 6 -4 6q7 11 7 15q0 15 -11 51l-17 54q-7 26 -42 95q-7 -9 -6 -21q0 -3 -5 -3q0 -8 -8 -29 q-7 -9 -22 -36q0 -2 -7 -22l-46 -78q-2 -1 -8 -7q-10 -24 -41 -63q-30 -36 -53 -53q-44 -32 -54 -32q-2 0 -15 2.5t-15 2.5t-5 2t-5 2q-8 0 -30 16q-20 14 -21 17q-27 37 -38 75q-3 9 -15 26q-3 -8 -25 -43q-1 0 -5 -3q-1 -12 -39 -63q-40 -54 -54 -54q-6 0 -16 13l-29 10 l-6 12q-9 9 -9 17h-10q0 2 -4 7q2 37 -6 78v78q6 5 4 10l-1 6q5 10 5 27q0 7 0.5 13t2 9l2.5 5t1 3l1 1q-1 3 -7 3q10 18 11 30q-2 9 -1 17q4 15 11 34q10 25 25 25l28 -3q10 -13 21 -17q6 -18 6 -31q0 -1 -3 -26l-6 -7l-14 -39q-16 -47 -20 -94q1 -9 -1 -49l-7 -26v-7l4 -4 q26 18 51 50q4 3 10 10l15 29q0 -6 1 -7q11 25 21 38q8 3 14 15q12 18 31 65q2 7 7.5 27t8.5 31q6 6 13 27q-2 6 0 6q10 4 13 9q0 -5 5 -5q2 0 7 4t7 4t3 -1.5t3 -1.5q4 0 8 10q6 -15 7 -18q11 -6 23 -20q-1 0 -4 -3q-19 -68 -19 -70q-9 -47 -10 -82q-1 1 -2 -0.5t-1 -3.5 q0 -8 4 -17v-54q4 -52 25 -52q6 0 43 22q6 8 14 16q4 0 8 3l6 12q0 -2 6 -2q4 0 39 38l13 27l28 34l18 36l2 -1q1 0 3 -1q0 6 -3 6q22 43 32 57q16 38 42 108q2 0 6 3l-9 38l-19 48q-13 38 -13 63q0 8 18 26l21 -6q21 -7 22 -20q0 -1 -1 -2q-1 0 0 -1h3q3 0 3 5 q26 -21 51 -76q-1 -4 0 -7q4 -11 4 -15q0 -2 -4 -9.5t-4 -10.5l-3 -31q-4 -6 -4 -11q0 -8 18 -51l18 -44q2 -6 35 -95q41 -131 41 -152z" />
<glyph unicode="ve" horiz-adv-x="566" d="M644 187q0 -63 -48 -115q-28 -32 -93 -72q-4 -3 -37 -14q-36 -12 -48 -12q-64 0 -104 136q-11 36 -8 75q1 9 7 27q-48 -2 -60 -5q-16 -7 -19 -28q-2 -108 -18 -205l-6 -2q-7 -1 -9 -1t-5 2.5t-4 4.5l-2 3q-38 1 -79 85l-10 8q0 14 -1 17q-56 154 -65 216q0 16 2 22 q11 17 18.5 21t19.5 -4l13 14q5 -6 10 -6q21 -1 23 -39q-4 -11 -4 -29q0 -27 12 -81q13 -59 37 -81q3 10 -1 59q-1 17 -3 39l-1 14q0 36 47 36q1 0 5 -0.5t12.5 -1t18.5 -0.5q23 -1 37 -1q23 0 43 2q15 51 44 104q4 0 9 3q-2 3 6 14l3 4q4 -2 24 4q3 1 15 1l6 -6q3 0 3 6h9 q3 0 10 -4q9 -3 46 -8q1 0 41 -17q19 -20 23 -56q-3 -14 -20 -33q-18 -15 -77 -35q-3 -1 -20 -5.5t-23.5 -6.5t-16 -8.5t-13.5 -15.5q-17 -39 -17 -93q0 -82 26 -82q35 7 60 14q27 13 75 51q18 14 42 51q11 15 49 79q16 -7 16 -45zM492 322q-3 5 -13 17q-11 15 -17 15 q-10 0 -16 -7q-26 -32 -26 -41v-9h10q16 8 62 25z" />
<glyph unicode="va" horiz-adv-x="651" d="M713 166q-1 -5 -3.5 -18t-4.5 -19q-11 -42 -21 -58q-68 -90 -96 -90h-22q-21 0 -53 44q-21 31 -32 54q-2 10 -13 31l-9 -6q-1 -4 0 -8q-6 -14 -26 -36q0 -1 -0.5 -2.5l-1 -3t-0.5 -3.5q-13 -19 -46 -49q-1 -3 -8 -12q-19 -14 -30 -14q-2 0 -11 9q-5 0 -5 -6q-5 0 -10 3 q3 5 -4 6q1 1 1 6q-4 4 -8 0q-3 5 -1 7q-2 3 -8 5q-5 17 -5 25l-3 7q-3 8 -1 10q-1 33 3 64q1 13 14 40q19 37 19 39q8 23 10 35q-2 4 0 9q9 18 27 55q1 0 5 2l9 30q0 9 -16 22q-8 0 -58 -5q-51 -5 -53 -7q-12 -6 -17 -23q0 -2 -10 -39q-2 -7 -26 -95q-10 -40 -24 -94h-2 l5 -2q-4 -3 -5 -29q-1 -6 -4 -7v-12q3 -1 9 -12q-3 -5 -12 -9l9 -22q0 -4 -15 -12q0 2 -3 7q-4 -4 -4 -11l-1 2q-2 2 -4 2t-2.5 -1t-2.5 -1q-16 0 -24 23l-9 6q0 8 -4 15q-4 -4 -5 -4q-3 2 2 7l-4 4l-7 -5q1 2 -7 10l5 4q-10 8 -17 46q-2 -4 -2 -5q0 31 -22 109l-5 35 q-1 3 -6 29q-10 12 -17 38t-17 43q0 3 7 7q30 6 33 6q14 0 21.5 -1t15.5 -6.5t14 -16.5q5 -28 5 -32q0 -1 5 -46q4 -34 16 -71q10 49 29 94q8 38 8 66q-3 19 0 30q7 12 21 23q19 14 69 14q4 0 86 -6q24 -1 46 -2.5t31 -2t10 -0.5q3 0 17 7l14 7q7 0 65 -34q1 -1 7 -4.5t8 -5 t7 -5t7 -6t5.5 -7t5 -9t2.5 -10t1 -12.5q-9 -6 -13 -10q-11 -145 -11 -180q0 -44 19 -78h5q2 1 15 10.5t23 15.5q27 22 42 46l22 31v6q24 39 32 49q18 0 19 -30zM451 193l23 57v18q0 15 -10 38q-29 -23 -58 -74q-35 -67 -41 -80q-10 -17 -20 -38q-14 -36 -14 -71q0 -5 3 -5 q17 5 44 36q-1 6 6 11.5t12 5.5q2 6 16 30q1 1 7 1v11q8 3 12 22q2 2 8 14q1 13 12 24z" />
<glyph unicode="we" horiz-adv-x="681" d="M741 176q0 -19 -31 -81q-14 -29 -39 -54q-83 -80 -105 -80l-3 -1q-3 0 -8 -0.5t-11 -0.5q-20 -3 -22 -3q-12 0 -37 19q-5 6 -24 25q-24 24 -30 37l-11 20l-9 47q0 2 -4 13.5t-4 14.5q0 4 2 6q-2 5 -2.5 28.5t-4.5 30.5l-25 13q-4 -44 -10 -92q-4 -38 -6 -43 q-6 -29 -21 -45q0 -6 -2.5 -12t-4.5 -9t-8 -10t-7 -8q-6 4 -10 4q-2 0 -4.5 -3.5t-3.5 -3.5q-22 2 -26 15l-5 2q-48 51 -48 70l-5 8q-3 10 -9 37q-2 7 -7.5 27t-8.5 29q-18 -37 -25 -67l-5 -5q-4 -28 -11 -45q-2 -17 -14 -53q-1 -7 -7 -19q-3 -3 -8 -3q-12 -1 -25 10l-21 29 q-12 10 -14 39l2 2q-6 2 0 12v2l-9 16q2 2 0 72q0 2 3 6t3 5q-2 2 -3 5q7 24 0 34q2 19 8 25l-2 3q-2 2 -4 2l3 15q-8 26 -8 53q4 5 2 17l10 -1h5l2 8q27 3 48.5 -2.5t22.5 -15.5q5 -14 -4 -34q-22 -49 -17 -104q27 65 40 86q21 12 38 12q28 0 42 -14q4 -12 5 -14 q9 -14 16 -41v-63q1 -32 10 -63q4 -2 8 -6q3 3 6 8q2 1 8 7q6 16 13 47l-3 9q4 -3 4 2q0 8 -8 40q-2 11 -11 39l-12 18q-10 23 -10 29t14 23q14 2 38 2q2 0 14 -3t15 -3q15 -12 33 -26q29 -20 38 -20q7 0 8 4q6 18 27 61q2 8 9 23q6 11 35 42q6 1 19 6q7 4 12 4q3 0 25 -9 t24 -9t2.5 1t2.5 1t2.5 -3t1.5 -3q2 0 9.5 1t9.5 1q1 0 6 -8q13 -20 13 -32q0 7 -12 -39q-3 -2 -10 -11q-6 -13 -25 -35q-3 -4 -20 -19q-16 -11 -40 -23l-28 -6q-15 -5 -16 -12q-10 -24 -10 -68v-3q1 -3 2.5 -9t2.5 -12q7 -34 7 -36l8 -10q-2 -9 14 -23q17 -14 28 -14 q18 0 46 22l42 33l25 20q0 1 7 12l6 3q3 3 5 4v7q6 0 10 7q19 25 27 41q0 -3 2 -7q5 2 5 7t-4 8l16 24q14 17 22 13q8 -14 8 -29zM532 306q0 5 -3 8h-17q-25 -44 -25 -46q0 -5 3 -8q20 6 32 23q10 13 10 23z" />
<glyph unicode="uy" horiz-adv-x="866" d="M887 101q-16 -5 -24 -10l7 -14q-22 -5 -46 -17q-27 -11 -37 -23q-2 -41 -10 -120q0 -1 -4 -9t-4 -12v-22q0 -1 -5.5 -12t-5.5 -14q0 -24 -17 -73q-4 -4 -16 -24q0 -3 -7 -27q-17 -36 -36 -46l-3 -6q-3 -5 -5 -5l-6 3q-2 -4 3 -12q-6 -6 -19 -7q-13 -18 -41 -25l-3 -8 l-21 -8q-15 -7 -20 -7q-3 0 -3 1.5t-3 1.5q-9 0 -51 -19q-1 0 -9 8q-36 -16 -42 -16q-2 0 -7.5 1.5t-7.5 1.5q-6 0 -7 -3v12q-4 2 -6 2q-12 0 -9 -16q-4 3 -9 0q0 2 7 9q0 7 -10 7q-15 0 -17 -14l-36 11q-3 0 -4 -1q-2 -2 -4 -2t-7 3l-6 4l-39 12q-21 7 -29 27q-4 0 -10 -6 q-2 2 -3.5 7.5t-3.5 10t-4 4.5q-4 0 -4 -6q-19 19 -54 60q1 2 -1.5 10.5t-2.5 9.5q0 10 16 36q5 9 17 27l6 4q3 9 5 13q9 6 13 8q-1 1 2 10l65 59q12 7 34 23q26 26 64 48l62 41l38 15q53 25 146 54q13 3 53 21q-4 1 -10 6q-3 13 4 16q-5 24 -10 36q-6 -1 -12.5 -12 t-7.5 -18l-39 -37q-29 -24 -48 -24q-3 0 -11.5 5t-9.5 5q-23 7 -36 25q-10 17 -38 56q-18 -41 -43 -70q-19 -34 -53 -68q-31 -18 -64 -15q-2 0 -4 2.5t-4 2.5q-31 0 -93 107q-5 1 -10 -7q-59 -128 -93 -128q-4 0 -8.5 1.5t-9 5.5t-8.5 7.5t-9.5 10t-8.5 10t-9 11t-8 10.5 q-2 5 0 10q-2 7 -7 8q0 2 -0.5 8.5t-1.5 12.5l-1 6q-4 52 2 88q1 4 -3 19l1 2q1 1 2 2.5t1 3.5q0 30 -3 65l-2 24q0 18 23 29q29 8 31 8q4 0 15 -4t12 -7q6 -19 6 -56l-13 -167q0 -2 1 -6.5t1 -6.5q47 36 89 143q0 1 1 4.5t2 13t2 17.5l9 12v21q5 1 10 1.5t8 1.5t5.5 1.5 l2.5 0.5h1q1 0 6 5t7 5q3 0 7 -1t6 -1q1 0 4.5 2.5t6.5 2.5q2 0 5 -1.5t5 -1.5q4 0 9 5q4 -4 1 -17q-5 -18 -4 -21q0 -15 -3 -45l-3 -30q0 -1 3 -24l4 -41q-2 -11 -1 -22q12 -47 33 -47q26 7 58 69q21 48 39 120q-2 10 -2 16q0 37 31 37q1 0 9.5 -2.5t11.5 -1.5l28 -16 q17 -11 26 -48q-1 -7 -1 -27q5 -12 9 -29q0 -6 -1 -11q1 -1 3 -6.5t3.5 -8t4 -6.5t5 -5.5t5.5 -1.5q14 0 42 34l4 13q3 2 12 11q1 2 8 13q4 9 5 17q5 14 14 15q3 11 10 29t7 29q0 28 -1 51q0 2 -3.5 14.5t-3.5 14.5t9.5 13t10.5 14q7 7 21 7q1 0 10.5 -4t13.5 -4l22 5 q1 -1 1 -7q-1 -3 -1 -5v1q-3 0 -6 -4q-4 -12 -4 -21q0 -5 7 -27q5 -16 8 -32l12 -72q7 -41 7 -68q0 -10 -2 -22q5 -5 11 -5q-4 -34 17 -34q2 0 4 1.5t3 3.5l1 2l70 9zM700 -5q0 2 -1.5 11.5t-1.5 10.5q-4 0 -14 -2q-12 -1 -29 -14q-5 5 -7 5q6 -6 1 -9q-43 -18 -46 -19 q-1 0 -13.5 -5.5t-15.5 -5.5q-4 0 -6 1h-3q4 -3 -5 -9q-27 -11 -60 -28q-86 -61 -140 -114l-13 -4q-18 -25 -35 -42q-6 -6 -40 -44q-3 -9 -3 -10q0 -6 8 -14q-1 0 -2 -1.5t-2 -3.5t-2 -3l15 -11q7 0 22 -3v-5q7 -3 11 -3q2 0 5 2.5t5 2.5q37 0 45 -4l17 -8q2 9 11 9 q5 0 8 -1t8 -1q0 2 52 6l27 11q21 6 57 21l28 22q-2 5 1 6q2 0 5 0.5t4.5 1t2.5 0.5q0 1 -2 5l30 27q12 12 31 50q29 59 33 115l8 43zM221 -337l4 -4l-2 -3l-4 4zM753 382l1 -1z" />
<glyph unicode="ye" horiz-adv-x="698" d="M692 41l3 -1l-3 -5l-3 1zM803 247q0 -10 -24 -64q0 -1 -16 -39q-7 -10 -13 -20q-8 -3 -12 -5q-4 -7 0 -7q-4 -4 -12 -1v-2q-1 -2 -1.5 -6t-0.5 -9q-5 -3 -11 -7q-6 -3 -5 -6q-12 -17 -10 -22q-8 -1 -18 -15.5t-7 -23.5l-18 -3q-5 -5 -14 -16l-10 -2l-7 -8l-6 7 q-6 -7 -11 -17q-16 4 -23 4q-2 0 -12.5 -2t-12.5 -2q-5 0 -16 12q-1 -1 -10 1q-15 12 -48 50q-25 30 -29 30l-4 -3q-3 -3 -7.5 -5.5t-8.5 -2.5q-2 0 -5 1l-3 1q-3 -16 -35 -27q-3 -3 -5 -7q-17 -8 -17 -27v-1q0 -1 0.5 -3.5t1.5 -6.5t1.5 -9.5t1.5 -12.5v-108q0 1 -3 -3 q-2 -3 -3 -4l3 -5q-1 -11 -7 -17q3 -8 3 -15q0 -6 -3.5 -22t-3.5 -20l5 -5v-8l-5 9q-7 -4 -5 -30q-5 -6 -15 -27l11 -7q-8 -5 -8 -13q0 2 -2 6q-3 -2 -6 -6q0 -4 1 -7q-4 -2 -8 -15q-8 -8 -13 -11h-17q-2 0 -6 4t-5 4q-2 0 0 -11q-1 3 -13 3h-20q-11 0 -24 5l-54 21l-13 12 q-1 1 -22 10q0 3 -1 6q-13 3 -36 23l-38 36q-1 4 -7.5 19t-6.5 17q0 3 5 21q4 -2 6 -2q0 1 2 7t2 9q-5 0 -5 -4l49 76q49 47 72 65q25 19 57 39.5t43 30.5q3 2 3 16l-5 93l-3 4q-24 -20 -50 -73l-2 -1q-2 -1 -3 -1q-4 -15 -12 -29q-20 -19 -25 -26q-7 -11 -28 -38l-12 -7 q-18 -9 -31 -9q-35 0 -51 48q-3 2 -18 43q-7 17 -7 37q0 9 5 31q-7 25 2 37q-3 12 4 32q8 20 11 31q2 27 11 39q-3 12 4 23v10q2 -3 4 -3q0 6 1 9q2 16 13 34q5 8 15 8q6 0 22 -14q16 -13 16 -20q0 -4 -3 -11q-8 -6 -18 -18q-31 -52 -41 -112q-9 -49 -9 -70q0 -28 12 -58 q42 23 65 53q6 -1 10 4t4 9q6 0 7 -1q1 1 1 9q27 33 79 106q5 5 20 25l19 35q7 14 10 26.5t5 29.5t5 29q11 34 27 96q15 -2 22 1l5 -5q-1 1 0.5 1.5t3.5 0.5l5 -4l6 -6q2 0 8 4t8 4t6.5 -1t5.5 -1h7l1 -4l1 -4q-3 -1 -8 -3q-13 -29 -25 -66q-8 -35 -15 -104q-2 -29 0 -47 l-4 -7q3 -7 2 -21l-3 -37q0 -5 -0.5 -9.5t-0.5 -7.5t-0.5 -5t-0.5 -3v-2q0 -14 5 -26h6q14 0 52 22q4 6 18 19q7 50 28 103q9 6 14 18q7 17 7 19q3 4 9.5 15t10.5 17q4 3 15 18l4 7l5 -4q4 6 24 6q2 0 9.5 -4t14.5 -8l7 -3q2 0 2 1q1 1 2 1q12 0 47 -29q0 -6 5 -24l2 -6 t1.5 -5t1 -3.5t0.5 -2.5v-1q0 -28 -30 -61q-35 -41 -38 -47l-11 2q-3 -4 -9.5 -15t-10.5 -17q-27 -12 -27 -31q0 -35 16 -48q53 13 119 82l5 -6q5 5 12 16q3 1 37 41q8 3 12 5q4 13 13 20q0 -6 5 -6q1 1 -3 5q7 7 7 18q9 0 17 13q0 1 1.5 5.5t2.5 7t2.5 5.5t4 4.5t5.5 1.5 t8 -2h2q7 -13 7 -30zM741 125l10 7l-2 3l-10 -7zM586 276q0 3 -7 23h-18q-9 -19 -33 -64q-2 -8 -2 -17q0 -2 2 -6l3 -4q6 6 9 4l-1 4q-1 4 -1 6h2q4 4 13 10l7 -7q-3 13 17 27q0 6 6 6l1 3q-2 7 0 12zM439 147l3 6l-3 1l-3 -6zM285 270l7 5l-2 3l-7 -5zM423 138l1 3l-8 3v-3 zM366 -52l2 6l-3 1l-2 -6zM294 -68q0 33 -1 37l-5 4l4 5h-8v-3q-10 -13 -25 -25q0 2 1 6l1 3q-5 0 -12 -12l-14 -18q-3 6 -5 6q-2 -4 -51 -56q-49 -53 -49 -83q0 -9 7 -27q1 -3 16 -9.5t19 -6.5q1 0 4 -0.5t8 -1t9 -0.5q5 0 9.5 -0.5t7 -1t3.5 -0.5q26 0 46 10q30 15 26 37 l-6 4q0 1 7 12q2 -2 6 -2q-1 1 0 4l2 4l-9 4v6q9 10 9 104zM209 -251q-10 -4 -14 -2q3 -7 9 -7q5 0 5 9z" />
<glyph unicode="yes" horiz-adv-x="1076" d="M1005 -23q-7 -9 -34 -19l32 25zM681 5l3 -1l-3 -6l-3 1zM1012 39l6 1q0 -2 -2 -8q2 -16 -5 -42q-3 0 -12.5 -4.5t-11.5 -4.5l-19 -1q-9 -12 -14 -12q-2 0 -2 2t-2 2t-2 -2t-3 -2q-2 0 -4 2q-2 0 -2.5 -2t-2.5 -2q-1 0 -12 3.5t-15 3.5q-6 10 -12 10q-1 0 -11 -3t-12 -3 q-1 0 -4 4t-6 4t-3 -1t-3 -1t-15 12q5 5 5 8q-4 2 -12 2q-2 0 -4 -3l-1 -2l-5 6q6 0 9 6l-4 3q-1 -1 -1 -6q-3 3 -8 0q-1 3 -6 7.5t-8.5 8.5t-1.5 7q-7 0 -12 13q2 0 3 -1h4l3 3q-15 23 -15 24t1.5 10.5t1.5 13.5q5 0 7 -2l9 8q-1 2 1 7t2 6q13 14 33 42q3 -13 8 -13 q4 0 23 13l-34 -51q1 -4 -4 -11q2 -2 2 -10q1 -1 9 -1q31 0 48 7l21 16q-4 7 -2 7l6 4q-1 -7 2 -15q-1 -1 0.5 -1.5t3.5 -0.5q7 0 7 6q0 3 -3 10q-1 4 -8 4v7l6 9q3 17 3 22q0 22 -32 118q-5 22 -20 53q-2 0 -3 -3q1 -3 0 -7q-3 -2 -16 -17l5 -7q6 4 2 11q5 -2 9 4l-13 -26 q0 3 -5 8q-10 -9 -5 -20q-6 -5 -19 -9l8 -4v-10l-3 2h-8l-4 -3q0 -5 2 -5l6 2q0 -11 -5 -11q-1 0 -3 1t-3 1q1 -1 -1 -3q0 -4 6 -4q-4 -4 -9 -16q-10 -21 -26 -40q-24 -32 -27 -38l-6 -17l-18 -18l-6 -12q-6 -2 -11 -5q-6 -8 -2 -8q-1 -3 -5 -3q-3 0 -5 2q-1 -6 -3 -17 l-6 -4l-4.5 -3t-3 -1.5t-1.5 -1.5v-2q-12 -19 -11 -23q-7 -1 -17 -16q-10 -13 -8 -22q-2 -2 -17 -4q-5 -5 -14 -16q-5 0 -10 -1l-7 -8l-7 6q-7 -5 -10 -17q-17 4 -23 4q-2 0 -12.5 -2t-12.5 -2q-7 0 -16 12q-1 0 -11 2q-15 12 -47 49q-26 30 -29 30l-3 -3q-4 -3 -8.5 -5.5 t-8.5 -2.5l-8 3q-3 -16 -35 -27q-3 -3 -5 -7q-17 -8 -17 -28v-1q0 -1 0.5 -3.5t1.5 -6.5t1.5 -9.5t1.5 -12.5v-108q0 1 -3 -3q-2 -3 -3 -4l2 -4q-2 -13 -6 -17q3 -8 3 -16q0 -6 -4 -22t-4 -20l6 -4v-8q-3 3 -5 8q-8 -5 -5 -29q-12 -20 -16 -28l6 -3q3 -3 5 -4q-7 -3 -7 -13 q0 5 -3 6l-6 -6l2 -6q-2 -1 -9 -16l-13 -11h-17q-2 0 -5.5 4.5t-4.5 4.5q-1 -1 0 -11q-2 2 -14 2h-19q-11 0 -24 5q-29 11 -54 22l-13 11q-1 1 -22 10q0 3 -1 6q-15 3 -37 24l-38 36q-1 4 -7 19t-6 16q0 4 5 22q2 -3 6 -3q0 1 2 7.5t2 8.5q-5 0 -5 -3l49 75q53 51 71 65 q26 21 58.5 41.5t42.5 28.5q2 4 2 17l-4 93l-3 3q-23 -18 -50 -73q-1 0 -5 -2q-4 -16 -12 -28q-5 -4 -25 -26q-6 -8 -29 -39l-12 -6q-16 -10 -31 -10q-34 0 -50 49q-3 1 -8 8q-2 14 -10 34q-7 17 -7 37q0 14 4 31q-6 25 3 37q-3 13 4 32q3 11 11 31q2 29 11 39q-3 9 0 16 l4 8v9q2 -2 4 -2q0 2 1 8.5t1 7.5q0 6 11 26q5 8 16 8q6 0 22 -14q16 -13 16 -20q0 -3 -3 -11q-7 -4 -18 -17q-31 -54 -41 -112q-10 -47 -10 -71q0 -28 13 -58q41 22 64 53q6 -1 10.5 3.5t4.5 10.5q5 0 7 -2q1 1 1 10q24 30 79 105q2 2 5 6t7 9.5t8 9.5q17 30 18 36 q7 14 10.5 25.5t5.5 29.5t5 30q10 34 27 96q13 -3 21 0l6 -4q-1 1 0.5 1.5t3.5 0.5q-2 0 11 -11q2 0 8 4.5t8 4.5t6 -1.5t6 -1.5h7q0 -1 1 -4t1 -4q-2 0 -9 -3q-9 -18 -25 -66q-8 -35 -15 -103q-1 -22 1 -48q-3 -3 -4 -6q3 -8 2 -22l-4 -37q0 -7 -0.5 -13.5t-1 -9.5t-0.5 -4 q0 -3 2 -49l61 45q9 11 19 19q5 38 27 104q10 6 15 17q6 19 7 19q13 22 19 32q6 3 15 18l5 7l4 -4q4 6 24 6q3 0 18 -7l14 -8q1 0 1.5 1t2.5 1q12 0 47 -28q0 -6 4.5 -24t4.5 -19q0 -27 -29 -61q-37 -42 -38 -47l-11 2q-9 -12 -20 -32q-27 -10 -27 -31q0 -35 16 -47 q52 13 119 82l4 -7q6 6 13 16q2 1 37 42q3 0 11 5q2 2 6.5 10t6.5 10q0 -7 6 -7q2 2 -3 6q7 7 7 18h7q5 4 9 12l6 18q5 4 17 19q5 0 9 1q7 7 4 21q4 0 8.5 3.5t7.5 6.5l2 3q2 0 4 -2q0 4 3 13q34 71 41 75q0 8 -5 10q0 1 4 7.5t4 8.5q0 3 -4 4q-11 91 -11 120q0 9 2 19 l10 -6h5q2 0 3.5 1t2.5 1q2 0 10.5 -11.5t13.5 -11.5q2 0 3 1t3 1q4 0 21 -11t18 -17q-6 2 -11 -6q2 -14 -1 -30q-9 -14 -9 -23q0 -21 12 -61q17 -48 73 -227q0 -2 1 -7t2 -16.5t2 -22.5q4 -6 6 -20q0 -15 -1 -22l3 -12q0 -1 -5 -6zM800 262l3 8h-3l-3 -7zM1008 6l-6 12 l-9 -20q5 1 15 8zM977 11q-2 -1 -5 -3t-5 -4l-2 -1q1 0 5 -1t5 -1zM767 146l5 -1l-3 3zM824 26l6 2l-1 3l-5 -2v-3zM730 88l10 8l-2 3l-10 -8zM575 239q0 3 -7 23h-19l-32 -64q-3 -6 -3 -17q0 -2 2 -6l3 -4q6 6 10 5l-1 4q-1 4 -1 5h2l12 10l7 -6q-3 13 18 26q0 5 5 7l1 2z M428 110l3 6l-3 1l-3 -5zM273 233l8 5l-2 3l-8 -5zM413 104l-1 -3l-8 3v3zM354 -89l3 6l-3 1l-3 -5zM283 -105q0 34 -1 38q-2 0 -6 3l5 5h-9v-2q-12 -16 -24 -25q0 2 1 5l1 3q-4 0 -13 -12l-14 -18q-3 6 -5 6q0 -3 -50 -56q-50 -55 -50 -83q0 -8 7 -26q2 -3 16.5 -9.5 t20.5 -6.5l2 -1q3 0 7.5 -0.5t9.5 -0.5t10 -0.5t7.5 -1t3.5 -0.5q26 0 46 10q31 15 25 36l-5 5q1 3 7 11q2 -2 5 -1q-1 1 2 5l1 2q-6 2 -9 4v6q9 11 9 104zM198 -288q-10 -4 -14 -2q3 -6 9 -6q5 0 5 8z" />
<glyph unicode="yo" horiz-adv-x="752" d="M561 371v-7h-5v7h5zM704 249q0 -2 -3 -11t-3 -11q0 5 -3 7q1 -7 -1 -36l6 -13q0 -4 -10 -38q-10 -39 -12 -54l-18 -38q-2 -12 -15 -25q1 -2 1 -8q-46 -63 -76 -63h-14q-12 0 -47 53l-9 6q0 3 -5 25q5 102 1 104q6 7 3 15q7 4 7 9q0 1 -3 7t-3 7q0 2 5.5 10.5t5.5 10.5 q0 10 4 26q-1 2 -4 2q-17 0 -81 -54q-58 -49 -69 -62l-17 -20q1 -14 -2 -47q-3 -36 -3 -51q-4 -117 -5 -137q-3 -6 -6 -18l-12 -112q-4 -37 -45 -115q-5 -10 -18 -23q-1 -1 -4 -14l-9 -5q5 -5 12 -5q0 -4 -6 -4q-3 0 -3 2q0 3 -3 3t-3 -1q0 -2 -3 -2q-12 0 -41 9l-17 11 l-42 11q-15 12 -33 38q-5 14 -1 30l-1 3l1 3q0 -10 9 63q-2 -2 3 -10q2 0 5 4q6 35 21 95l48 102l24 37q-2 4 -7 -1q0 5 1.5 9t3 5.5t6.5 7.5t8 10q1 2 22 38q14 23 14 38q-3 -2 -20 -20q-4 -4 -7 -17q-3 -1 -19 -22l-10 -2q-6 -8 -19 -17.5t-21 -9.5h-17q-11 0 -49 26 q-7 8 -25 23q-8 21 -19 62q-4 25 0 30q-7 11 -7 67q0 36 3 93q10 39 13 50q-3 -3 -3 3v21l6 -5l21 8q2 0 5 -2.5t5 -2.5t2 2.5t2 2.5t9.5 -5.5t8.5 -5.5l7 5l-2 -12q-2 -12 -1 -17q-16 -19 -16 -34v-143q0 -46 11 -74q1 -3 2 -8t2 -8t2.5 -6.5t4 -5t6.5 -1.5q13 0 39 30 l26 34q9 9 24 20q1 9 14 30q9 -1 17 14l8 20q1 1 2.5 2t2.5 2.5t2.5 3l3.5 3.5q4 14 -3 27q0 14 4 37l-3 9v-1v73q8 8 8 17v28l4 5l6 47q3 15 20 35q14 2 35 2l6 4q36 0 61 -19q-17 -3 -17 -15q0 -8 4 -15q-7 -4 -21 -33q-3 -1 -8 -10q-18 -82 -21 -194v-22l4 -1q4 -1 7 -1 q4 13 8 13q2 0 2.5 -1.5t2.5 -1.5q11 0 70 56q16 13 80 73q1 1 6.5 5.5t7 6l5.5 5.5t5.5 7t3 7.5t1.5 9.5h13l2 6q-5 8 -5 19q0 6 11 14t17 8q2 0 9.5 -3.5t16.5 -7.5t12 -5q38 -38 70 -79q3 -6 -6 -11q0 -1 3 -14v-19q0 -15 4 -15zM107 -257l6 8l-3 -9zM642 219l-2 19 q-2 19 -1 23q-1 -2 -6 -2q-9 0 -9 20q-7 3 -12 3q-16 0 -43 -126q-15 -72 -5 -118l-3 -6h13q29 37 52 117q3 -1 3 -5q9 26 9 61zM335 -41l3 2l-4 4l-2 -3zM272 -74q-3 1 -5 7v10q1 5 1 8q0 8 -2 56q-9 -12 -20 -16q0 -2 -2 -10l-21 -27q-29 -61 -47 -128q0 -8 1 -13l-15 -60 v1q0 -7 1 -8q-9 -47 -5 -57q2 3 19 7q-11 20 -3 26q3 -4 14.5 -19t20.5 -25q9 -4 11 -4t7.5 1.5t7.5 1.5q-1 24 10 25q-1 3 -4 9q12 19 15 62l5 28q5 23 5 30q0 14 2 92zM150 -283l3 9h-3l-3 -8z" />
<glyph unicode="you" horiz-adv-x="1080" d="M825 109h-3q-11 -19 -26 -46.5t-23 -41t-18 -28.5t-18.5 -21t-18.5 -6q-17 0 -71 39q-11 7 -6 24q-13 27 -18 69l-6 77q-1 6 1 32l2 34q0 31 -14 54q-49 -12 -49 -36q0 -3 17 -45q18 -40 18 -66q0 -12 -1 -13q-8 -14 -8 -24q0 -2 2 -8.5t1 -8.5q0 -1 -11 -24q4 -9 4 -23 q0 -25 -13 -51.5t-31 -33.5q-2 0 -14 -10t-15 -10q-10 0 -32 11q-9 5 -29 30q-5 6 -2 19q-3 4 -5 4h-3q-13 59 -13 71q0 19 6 44q-2 43 1 62q7 39 7 64l-2 1q-2 1 -5 1q-10 0 -34 -24q-25 -24 -31 -25q-1 -3 -25 -19q-7 -5 -11.5 -10.5t-7.5 -14t-4 -12.5t-3 -16.5t-2 -14.5 l6 -8v-19q-2 -8 -11 -40q9 -5 8 -13q0 -2 -1 -6l-1 -5q8 -24 8 -29l-8 -22l1 -36q0 -6 0.5 -22.5t1 -47.5t0.5 -60q-3 -8 -4 -32q-3 -2 -12 -11q-3 -19 -13 -45q-4 -3 -9 -9.5t-14.5 -18.5t-17.5 -21q-11 -9 -33 -29q-7 -5 -18 -5l-7 -1q-7 -1 -15.5 -2t-12.5 -1q-6 0 -58 2 q-11 0 -21 0.5t-14 1.5h-5l-10 3q-10 3 -13 3h-9q-8 0 -10 7q-10 0 -27 14q-16 13 -24 15q0 2 -3 10q-5 -6 -9 -6t-8.5 7t-3.5 13q3 3 4 6l-2 2q-3 3 -3 6q-6 8 -6 19q0 2 4 17q5 16 3 24l15 43q5 13 18 27q-1 2 -1 8q3 5 14 16q2 2 0 4q3 7 16 23q3 10 5 16q0 3 16 25 q46 56 58 72q-6 4 -15 18q0 1 -2 5q-3 -3 -3 -6q-5 11 -11 15l2 7q1 7 0 11q-3 4 -10 7q2 3 7 13q-7 7 -13 24q-3 11 4 19q-2 -1 -3.5 0.5t-1.5 4.5h1q0 1 1 2t2 2.5t1.5 5t0.5 7.5q0 3 -5 5q2 10 7 22q1 2 -4 10q0 2 7 16q-6 7 -5 7l21 124q2 2 15 38q3 -3 11 -3q4 0 21 13 q20 14 22 14t8.5 -3t8.5 -3q1 -3 8 -10q6 2 11 2q-10 -15 -31 -36q1 -3 1 -13q-6 -15 -11 -35q-5 -40 -16 -57l-7 -49q-5 -33 -4 -48q-3 0 -7 -10q17 -15 5 -33v-18q0 -1 2.5 -6.5t4 -7.5t5 -4.5t8.5 -2.5q29 34 47 54q6 6 7 18q6 2 10 5l-5 5l19 36l14 12q1 1 1 11 q0 4 7.5 15.5t7.5 17.5q2 2 2 9q3 0 7 -2v4q0 3 0.5 6.5t4 7t8.5 3.5q1 1 -3 12l9 12q3 12 1 23l-3 11q0 8 7 12q-1 7 -1 24q0 54 33 139q23 20 54 22q41 3 50 6q-14 -14 -21 -41l-10 -46l-14 -30q0 -2 4 -13q-18 -51 -22 -81q-9 -24 -21 -64v-8q6 -2 18 -2l2 5q3 6 13.5 12 t16.5 3q2 1 5 1q4 4 -3 4q20 12 63 41l13 5q20 10 63 41q11 -4 23 -1l4 2q5 3 8 3q1 0 12.5 -2.5t14.5 -2.5q17 0 43 8q27 0 38 -4q24 -8 37 -24q1 -1 18 -41q-3 -81 0 -83q-1 -2 -6 -69q-3 -33 -3 -45q-5 -8 -5 -11l1 -3l3 -12l4 -16q12 5 17 14l9 14q20 21 46 77l5 18 l11 11q5 15 16 37l16 20q31 67 62 141l11 -11l3 10q31 9 40 9q3 0 17 -8q19 -11 25 -11v-10l-3 -1q-3 -1 -5 -2.5t-2 -2.5q0 -3 1 -4q-1 1 -8 1q-6 0 -20 -21q-16 -25 -23 -73q2 1 2 -1q0 -3 -2 -16q-3 -22 -6 -41v-8q-1 -22 -1 -38l1 -16q1 -13 0 -22q1 -4 3.5 -16.5 t3.5 -20.5q8 -44 27 -41q13 5 38 23l36 28l59 58l5 9q5 8 7 8t4 -2l2 -3q2 5 -3 7q19 27 38 52q8 9 16.5 20.5t14 17.5t11.5 8q26 -14 26 -27q0 -3 -4 -23q-1 -9 -12 -21q0 -2 -1 -4.5t-4.5 -8.5t-6.5 -14q-2 -1 -11 -14l-3 -13q-10 -11 -28 -37q-7 -14 -25 -29q0 -4 -4 -11 q-14 -17 -26.5 -29t-16.5 -16q-6 -3 -20 -17q-34 -29 -48 -37q-22 -13 -43 -13h-13q-12 0 -36 15q-6 8 -12 14q-16 16 -38 69l-8 31l-4 7q-2 14 -8 29zM285 -87q0 4 -6 25q-5 22 -7 35q1 9 1 41q-4 7 -4 11q0 8 5 3q-5 6 -9.5 29.5t-8.5 28.5q3 10 -2 15q-9 -4 -32 -38 q-24 -36 -41 -50q-7 -13 -32 -21q1 0 -0.5 -1.5l-5.5 -5.5q-3 3 -3 6l-2 -6l-12 2q-43 -62 -107 -177h-3q3 -8 2 -20q-3 -14 -11 -19q5 -7 5 -11q0 -2 -2 -5.5t-4 -6.5l-2 -2v-22q11 -8 15 -17q2 -5 14 -5q2 0 7 4t7 4q3 0 8 -3t7 -3q3 0 4.5 3t3.5 3q3 0 8 -2l4 -3q0 6 5 9 q10 1 45 1q2 0 16.5 7t16.5 7t2.5 -1.5t2.5 -1.5q16 0 75 44q6 4 25 32q5 9 4 21v22q2 10 6 17q0 12 -3 35q8 5 8 16zM511 79q0 43 -6 67q-3 9 -17 22l-9 -77q0 -17 5 -47q4 -34 13 -37q12 23 12 30q0 14 1 25zM434 6l2 -2zM45 66l1 -1zM966 345h1h-1z" />
<glyph unicode="je" horiz-adv-x="458" d="M452 41l3 -1l-3 -5l-3 1zM563 247q0 -10 -24 -64q0 -1 -16 -39q-7 -10 -13 -20q-8 -3 -12 -5q-4 -7 0 -7q-4 -4 -12 -1v-2q-1 -2 -1.5 -6t-0.5 -9q-5 -3 -11 -7q-6 -3 -5 -6q-12 -17 -10 -22q-8 -1 -18 -15.5t-7 -23.5l-18 -3q-5 -5 -14 -16l-10 -2l-7 -8l-6 7 q-6 -7 -11 -17q-16 4 -23 4q-2 0 -12.5 -2t-12.5 -2q-5 0 -16 12q-1 -1 -10 1q-15 12 -48 50q-25 30 -29 30l-4 -3q-3 -3 -7.5 -5.5t-8.5 -2.5q-2 0 -5 1l-3 1q-3 -16 -35 -27q-3 -3 -5 -7q-17 -8 -17 -27q0 1 0.5 -13.5t2 -50t2.5 -77.5q0 1 -3 -3q-2 -3 -3 -4l3 -5 q-1 -11 -7 -17q3 -8 3 -15q0 -6 -3.5 -22t-3.5 -20l5 -5v-8l-5 9q-7 -4 -5 -30q-5 -6 -15 -27l11 -7q-8 -5 -8 -13q0 2 -2 6q-3 -2 -6 -6q0 -4 1 -7q-4 -2 -8 -15q-8 -8 -13 -11h-17q-2 0 -6 4t-5 4q-2 0 0 -11q-1 3 -13 3h-20q-11 0 -24 5l-54 21l-13 12q-1 1 -22 10 q0 3 -1 6q-13 3 -36 23l-38 36q-1 4 -7.5 19t-6.5 17q0 3 5 21q4 -2 6 -2q0 1 2 7t2 9q-5 0 -5 -4l49 76q49 47 72 65q35 28 100 70q-2 5 3 16q1 91 0 185q2 51 17 94q15 -2 22 1l5 -5q-1 1 0.5 1.5t3.5 0.5l5 -4l6 -6q2 0 8 4t8 4t6.5 -1t5.5 -1h7q0 -1 1 -4t1 -4 q-3 -1 -8 -3q-1 -18 -10 -83q-2 -29 0 -47l-4 -7q3 -7 2 -21v-9.5t0.5 -5.5t1 -3t0.5 -2q0 -29 -1 -56q18 16 64 52q4 6 18 19q7 50 28 103q9 6 14 18q7 17 7 19q3 4 9.5 15t10.5 17q4 3 15 18l4 7l5 -4q4 6 24 6q2 0 9.5 -4t14.5 -8l7 -3q2 0 2 1q1 1 2 1q12 0 47 -29 q0 -6 5 -24l2 -6t1.5 -5t1 -3.5t0.5 -2.5v-1q0 -28 -30 -61q-35 -41 -38 -47l-11 2q-3 -4 -9.5 -15t-10.5 -17q-27 -12 -27 -31q0 -35 16 -48q53 13 119 82l5 -6q5 5 12 16q3 1 37 41q8 3 12 5q4 13 13 20q0 -6 5 -6q1 1 -3 5q7 7 7 18q9 0 17 13q0 1 1.5 5.5t2.5 7t2.5 5.5 t4 4.5t5.5 1.5t8 -2h2q7 -13 7 -30zM501 125l10 7l-2 3l-10 -7zM346 276q0 3 -7 23h-18q-9 -19 -33 -64q-2 -8 -2 -17q0 -2 2 -6l3 -4q6 6 9 4l-1 4q-1 4 -1 6h2q4 4 13 10l7 -7q-3 13 17 27q0 6 6 6l1 3q-2 7 0 12zM199 147l3 6l-3 1l-3 -6zM184 141l-1 -3l-7 3v3zM54 -68 q0 33 -1 37l-5 4l4 5h-8v-3q-10 -13 -25 -25q0 2 1 6l1 3q-5 0 -12 -12l-14 -18q-3 6 -5 6q-3 -6 -50 -56q-50 -55 -50 -83q0 -9 7 -27q1 -3 16 -9.5t19 -6.5q1 0 4 -0.5t8 -1t9 -0.5q5 0 9.5 -0.5t7 -1t3.5 -0.5q26 0 46 10q30 15 26 37l-6 4q0 1 7 12q2 -2 6 -2q-1 1 0 4 l2 4l-9 4v6q9 10 9 104zM-31 -251q-10 -4 -14 -2q3 -7 9 -7q5 0 5 9zM339 603q0 -4 -3.5 -7t-9.5 -7.5t-8 -6.5q-11 -26 -18 -26q-2 0 -4 1l-3 1l-5 -10q-8 -12 -17 -12q-2 0 -2.5 1.5t-2.5 1.5q-1 0 -4 -3l-6 -6l-2 -4q-1 -1 -24 -17q-8 -5 -25 -14q-15 -7 -18 -17h-7h-2 q-1 1 -5.5 2.5t-10.5 3t-15.5 3.5t-19.5 5q-5 1 -21 8q0 23 -12 24l4 6q5 6 7 8q-3 2 -7 4q14 7 64 26q93 29 122 29q1 0 4 -1t6 -1q8 0 45 8z" />
<glyph unicode="jo" horiz-adv-x="699" d="M658 197q0 -20 -1 -26q-1 -4 -6 -10q1 -3 1 -10q0 -15 -15 -57q-6 -18 -37 -54q-11 -14 -34 -40q-13 -11 -35 -23q-26 -14 -40 -14q-20 0 -45 11q-27 12 -40 31q-14 19 -29 67q-13 50 -6 108l-2 4q-2 4 -2 6q0 4 7 33q-8 -5 -15 -12q-70 -43 -122 -98q-6 0 -17 -6l2 -3 q1 -4 1 -7q0 -2 -6.5 -10.5t-6.5 -10.5v-103q7 -46 7 -53q6 -33 6 -72l-3 -5q8 -11 -6 -42q0 3 -3 6q-1 -2 1.5 -10.5t2.5 -9.5l-5 -6q5 -9 1 -21q0 -4 -2 -40q-7 -18 -15 -49v17v-1q-1 -1 -2.5 -3t-2.5 -4q1 -4 1 -18q-4 -13 -8 -29q2 -5 0 -14q-6 -8 -26 -24 q-22 -11 -48 -11q-2 0 -15.5 5t-15.5 5t-6 -2.5t-6 -2.5q-3 1 -3 2q2 2 0 2q-9 0 -16 -1l-6 5q-2 0 -9 -1.5t-10 -1.5q-10 0 -59 30q-48 29 -57 38q-2 6 -4 16.5t-3.5 15.5t-4.5 4q-1 0 -10 -2v29q0 2 4 17t5 21q11 69 85 184q38 56 48 56q3 0 3 -1.5t3 -1.5t26 39 q6 1 16 9.5t11 14.5q8 8 30 25q0 -7 2 -11q2 0 6 18q3 7 3 11l-1 2q0 1 -1 5.5t-2 10.5t-3 16q-1 16 -10 93l-12 26q-1 9 0 25l3 26q-1 8 -9 16h14q2 6 2 16q18 6 28 6q6 0 10 6q2 -1 9.5 -10t9.5 -9t6 2.5t6 2.5q3 0 5 -4t5 -4h4q-1 -3 0 -9q-2 -3 0 -26q2 -18 -11 -25 q11 -14 14 -40q3 -31 9 -43h7q10 0 24 17l10 2q4 7 40 29l54 39q0 -8 3 -10q7 4 4 11q5 3 19 17q11 3 26 10q6 6 24 19q7 4 14 6v5q27 16 34 48q15 6 26 6q40 0 63 -22q12 -7 23 -17q16 -10 21 -23l2 -10l42 -50q2 -2 9 -22q6 -11 11 -21q1 -4 1 -26zM159 -203q0 5 -3 24 l-3 27q1 4 1.5 14t0.5 15q-1 11 0 18q0 7 -8 12q0 18 -5 61q-6 56 -7 58l-4 4q0 -3 -6 -12t-5 -15q-2 0 -3.5 1.5t-3.5 1.5q-7 0 -6 -16q1 0 5 -2q-1 -1 -5 0q-3 0 -3 -3v-8l-16 12q6 -11 4 -18q0 -1 -6 -4q0 -1 -0.5 -2t-1 -3.5t-0.5 -4.5q-29 -35 -57 -79q-1 -10 -9 -30 q-2 -3 -4.5 -7.5t-7 -12.5t-7.5 -14q-12 -6 -20 -14q-1 -9 -1 -34q-4 -7 -4 -9v-8q5 0 5 -4q-3 -3 -4 -2l-3 5q0 -3 -3 -15t-3 -14q0 -1 2.5 -13t1.5 -15q5 -4 7 -16q19 -14 31 -14q2 0 4 1t4 1t4 -2.5t4 -2.5q3 0 7 4t5 4l10 -8q8 6 32 12q24 4 31 13q-4 4 -2 7l6 -5l29 27 q17 48 17 85zM571 168q0 3 -2.5 8t-2.5 6q0 14 -6 49q-1 4 -6 10q-1 18 -12 44l-13 18q-1 -1 -11 -10l-46 -103q-29 -90 -29 -136q1 -22 13 -22q2 0 16.5 7t15.5 7q22 19 56 54q8 9 19 38q8 26 8 30zM362 598q0 -4 -3.5 -7t-9.5 -7.5t-8 -6.5q-11 -26 -18 -26q-2 0 -5 1 l-2 1l-5 -10q-7 -12 -17 -12q-2 0 -2.5 1.5t-2.5 1.5q-1 0 -4 -3t-5 -7l-3 -3q-1 -1 -24 -17l-25 -14q-15 -7 -18 -17h-7l-1 1q-2 0 -6.5 1.5t-10.5 3t-15.5 3.5t-19.5 5q-5 1 -21 8q0 23 -12 24l5 6q4 6 6 8l-3 2l-4 2q14 7 64 26q93 29 122 29q1 0 4 -1t6 -1q8 0 45 8z M2 -158l-3 -11q-4 -7 -4 -11q3 0 5 3q2 18 2 19zM192 -230l7 6q0 2 -3 7q-4 0 -4 -13zM195 -60h4l-5 13l-4 -2zM190 -196h5v8h-5v-8zM188 -265h4v10h-4v-10zM162 -302l4 7l-4 1l-4 -7zM-77 -358l4 -7h-4l-4 6zM91 2l3 3l-4 4l-3 -3zM1 -151q0 -2 1 -6q0 4 -1 6zM189 332l1 2 z" />
<glyph unicode="ae" horiz-adv-x="685" d="M439 12l-11 7l-11 -11q-3 -3 -32 -22q-22 -16 -27 -16q-3 0 -3 2l-3 1q-2 0 -2 -3t-2 -3t-1 3t-2 3q-9 0 -20 -1q-4 0 -9 -0.5t-8 -1t-4 -0.5q-2 0 -7.5 7.5t-7.5 7.5q-3 0 -4 -1.5t-3 -1.5q-4 0 -32 16q-20 12 -24 27q-1 1 -12 4q-8 13 -33 41q-22 -21 -22 -27 q0 -7 6 -11q-16 -14 -39 -40v-5q-3 -1 -5 -2q-3 0 -3 -6l-7 6q-3 -3 2 -8q-9 -4 -27 -4l-24 11q-6 -1 -21 2q-7 7 -46 43q-4 25 0 74l11 12q0 3 8 21l34 64q3 18 5 27q28 51 40 70q34 53 57 67q7 4 40 4q24 0 53.5 -10.5t30.5 -10.5q7 0 14 13l9 14q26 -10 43 -28 q-1 -1 -4 -17q-4 2 -5 2q-9 0 -20 -14l-15 -18l4 -15q-27 -58 -32 -81q-9 -33 -9 -84q0 -76 32 -76q3 0 4 -1.5t3 -1.5q12 0 46 22t36 32q-5 40 -5 63q2 68 17 95q2 5 -1 11l12 25q9 21 43 62q35 42 60 50q4 0 10.5 0.5t16 1t16.5 0.5q7 6 6 6q20 0 46 -19q0 -3 2 -17t2 -16 q0 -18 -18 -64q-4 -11 -23 -56l-12 -10q-6 -30 -27 -69q-7 -9 -26 -34q-11 -21 -15 -33q2 -68 34 -68q9 0 21 5l24 13q19 16 34 20q23 17 39 31q4 4 17 22q10 8 24 22l29 31q0 4 1 7l50 50q11 -5 11 -9q0 -7 -4 -11q0 -57 -54 -119q-5 -6 -28 -30t-43 -46q-3 1 -5 2l-9 -3 q-6 -8 -16 -18q-9 -6 -29 -13q-26 -9 -24 -9q-8 0 -15 -4l-6 4l-5 -4q-45 12 -91 49zM216 272v19q-6 1 -15 6v15q7 2 -3 18q-20 7 -32 14l-56 -67q6 3 19 12v-3q-31 -46 -45 -78q-4 -8 -19 -60q0 -5 -2 -39q-1 -6 -7.5 -24t-6.5 -19q1 -5 2 -7.5t2 -3t4.5 -1.5t6.5 -2 q4 0 92 76q12 12 35 44q26 76 25 100zM553 348l-3 26q-26 3 -54 -33q-22 -29 -33 -57q5 0 7 -3q-9 -45 -13 -98q19 13 28 33q3 -2 3 -9q6 13 2 17l5 5l2 2q2 2 5 6.5t7 11.5t9.5 16t11.5 20q1 4 8 20q0 9 1 15q9 17 6 22q4 2 8 6zM341 346z" />
<glyph unicode="ah" horiz-adv-x="898" d="M687 56l-7 19q-2 10 -2 19q-11 2 -17 21l-8 34q-5 -3 -17 -15q-7 -24 -30 -76l-37 -60q-30 -17 -40 -16q-14 0 -54 52q-2 3 -26 69q-1 0 -24 -15q-21 -15 -33 -22q-24 -11 -46 -11t-39 11q-11 7 -32 28q-21 23 -25 32l-18 23l-39 -60q-13 -13 -36 -42l-26 -23 q-17 -11 -39 -11q-9 0 -28 17q-21 19 -26 21q-14 30 -14 34q0 2 3.5 5.5t3.5 4.5l4 55q4 25 11 43q10 27 10 31q0 5 -3 11q9 0 15 13q0 5 5 20q3 11 34 74q4 4 18 13q13 10 28 16q5 0 25 4t26 4q3 0 21 -5t20 -5l27 -5v-9q1 0 6.5 -6.5t8.5 -6.5q11 0 12 1l4 -3q15 0 23 -7 q1 -2 1 -7q0 -9 -19 -43q-1 -11 -9 -34l-3 -23l10 -69q11 -50 37 -50q2 0 10.5 1.5t10.5 1.5q8 0 25 14q15 13 20 21q16 13 38 47l-1 65q0 23 1 42q0 8 0.5 16.5t1 13t0.5 6.5q2 22 11 85q3 20 -1 44q10 10 10 58q9 22 14 47l2 22q0 5 13 21l29 21q9 -3 18 -8q2 1 8 7 q3 -1 16 1l13 2q11 0 30 -19q19 -21 29 -35q3 -35 3 -45q-1 -18 -10 -85l-33 -102q-1 -5 -18 -34q-11 -20 -8 -30q-3 3 -5 3q0 -1 -2 -13q0 -3 -33 -55q-5 -7 -11 -20q-3 -36 -3 -45q0 -35 14 -66q12 7 17 21q2 5 4 13q3 11 5 11h3l8 12q0 6 -1 9q8 6 8 5q0 1 -2 3 q11 24 22 30l20 53q0 -8 3 -11h2q1 1 1 19l1 2q0 1 1 6t2 11q23 28 40 47q2 0 15.5 7.5t15.5 7.5q5 0 23 -7q13 -4 28 -7v-9q0 -4 -6 -20q-5 -18 -5 -19q0 -5 3 -6l4 -1q1 -3 1.5 -13t0.5 -14q0 -5 -1.5 -16t-3 -20t-1.5 -10q0 -78 28 -115q1 -8 12 -18q28 -6 76 30h1l2 3 l1 -1q20 16 22 19l25 27q0 2 51 57q11 -5 14 -8q2 -15 -2 -24q-22 -54 -31 -71q-13 -24 -40 -54q-3 1 -5 2l-9 -3q-6 -8 -16 -18q-9 -6 -29 -13q-25 -9 -24 -9q-8 0 -15 -4l-6 4l-5 -4q-54 -1 -106 63zM226 273q-1 2 -1 4l-8 12q-1 2 -2.5 6.5t-2.5 7t-2.5 5.5t-4 4.5 t-5.5 1.5q-14 0 -33 -25q-13 -14 -23 -29q-4 -14 -35 -81q-21 -47 -21 -80q0 -13 1 -20l3 -3h1l11 3l49 53q3 14 19 27q2 -1 0 -3t2 -2q1 0 24 44q1 12 10 30q14 15 15 25l5 15q0 1 -2 5zM604 501q0 4 -14 32q-14 30 -20 36q-10 9 -12 9q-27 -40 -27 -126l-1 -6 q0 -6 -0.5 -20t-0.5 -30l-4 -87l4 -3l34 71q1 4 13 45q3 5 19 12l3 -5l2 6q-14 9 -14 24q0 8 4 13l4 2q4 2 4 4q6 6 6 23zM299 343l-1 1z" />
<glyph unicode="bb" horiz-adv-x="811" d="M775 272q0 -2 -3.5 -12t-4.5 -14q0 -3 -2 -31q-5 -32 -24 -62q-6 -11 -67 -78q-1 -6 -10 -22q-13 -11 -36 -35l-15 -5q0 -1 -3 -3t-3 -3q2 -2 6 -1q-13 -13 -15 -13t-2.5 1t-2.5 1q-7 -8 -22 -24q-22 4 -41.5 17t-21.5 27q-9 13 -28 33q0 5 -3 14q-8 8 -22 33 q-13 50 -16 93q0 7 -2 71q-3 5 -6 14l1 3q0 3 1 6t1 5q0 11 -9 29q-36 -28 -36 -33q0 -6 8 -26.5t8 -28.5q0 -6 -3 -13l-24 -19q0 -6 -1 -11q-4 -5 -15 -25q-4 -7 -7 -19q-6 -12 -14 -12q2 -2 0 -7l-14 -11q-5 -8 -29 -38q-20 -23 -39 -37q0 -4 -9 -11q-9 -9 -13 -15 q-7 -8 -21 -16q-3 -4 -9 -11q-35 -20 -55 -20q-3 0 -8 11q-2 -4 -2 -6q-33 0 -53 14q-15 15 -28 34q-21 32 -21 45q0 12 20 27q0 5 -10 24q-9 21 -9 24l5 6q0 10 1 30v6q6 3 8 5l-8 19q0 6 6 31v2v3v3v2v3v2v3v3v2v9q1 3 1 10q-7 11 -4 29q0 1 3.5 7.5t3.5 8.5q0 1 -2.5 6.5 t-2.5 8.5q0 4 14 34q-2 2 -11 8q3 15 22 165l9 50l8 27q8 -3 12 -5l16 16q0 -4 3 -13q8 8 13 8q3 0 9.5 -1.5t8.5 -1.5q0 -4 7 -14t7 -12l-9 -19q-7 -19 -9 -36q-4 -19 -12 -63q-3 -42 -4 -65l-4 -58q-3 -37 -3 -41v-5q0 -1 5 -9q1 -1 6 -1q4 0 26 17q20 17 32 19q2 3 1 4 l32 16q9 6 28 3q9 4 11 4t13.5 -3t14.5 -3q2 -6 5 -10l5 5q13 -6 38 -19q3 -2 71 42l20 20q1 44 15 123l-2 11l31 138q14 13 27 13q2 0 16 -7.5t18 -8.5l7 6q34 -10 46 -22q7 -6 8 -20l9 -3q7 -7 11 -30q0 -12 -9 -42l-7 -34q-1 0 -5 2l-3 1q0 -29 -50 -81q-55 -58 -58 -66 q-5 -14 -6 -36q-1 -16 0 -39l2 -20q0 -31 6 -79q2 -2 8 -2q0 -8 -6 -12q13 -3 15 29q13 13 23 39q12 32 15 36q19 29 38 49t26 20q2 0 2.5 -1t2.5 -1q3 0 19 12t20 12q5 0 20 -7q10 -4 43 -10q18 -10 27 -27q29 -53 29 -65zM564 550q0 6 -8 14q-6 17 -12 26q-11 15 -22 16 q-9 0 -17 -7q0 -1 -11 -24q0 -22 -8 -59q2 -14 0 -38v-36q6 11 34 34q4 2 15 11q29 53 29 63zM720 249q0 11 -10 22q4 19 3 22q-1 11 -6 27q-2 6 -14.5 14.5t-20.5 8.5q-14 0 -34 -15l-30 -24q3 -7 -2 -16q-6 0 -9 3q3 -5 3 -9q0 -6 -16 -26q0 -8 -9 -26q-6 -12 -12 -41 q-11 -29 -14 -34l2 -2q-11 -21 -13 -31q1 -1 1 -2t0.5 -1.5t0.5 -1.5t-3 -7.5t-3 -9.5v-11q3 0 6 -3q8 2 15 4t11.5 3t8 2t4.5 1l1 1q35 17 46 38q5 -5 9 -5q1 0 15 14q14 15 22 17l22 26q10 12 18 48q0 1 4 6t4 8zM318 309q-18 12 -26 12q-16 0 -42 -18q-37 -27 -55 -45 q-12 -38 -11 -41l12 5q1 0 38 26q45 30 60 38q9 6 24 23zM339 248v15h-12l-100 -70l-26 -28q-1 0 -12 -7q-20 -18 -43 -52l-4 -15q-16 -22 -16 -26q0 -3 2 -6l1 -3h20q15 0 85 33q15 7 30 25q2 6 4 9q9 7 32 30q16 23 32 52q2 19 7 43z" />
<glyph unicode="au" horiz-adv-x="789" d="M528 13l-5 3q-5 2 -7 2t-9 -4t-10 -4q-7 0 -14 7q-25 8 -41 34q-1 1 -23 47h-3q-28 -32 -42 -50q-40 -42 -60 -42q-2 0 -8.5 2t-9.5 2q-11 0 -13 11q-8 2 -28 25q-13 16 -18 16q-4 0 -4 -3q1 2 -1 9q-6 -1 -11 5l-10 11l-19 -18q-13 -12 -13 -22q0 -4 3 -8q-5 -5 -12 -8 q1 -4 -2 -9l-36 -20l-11 -12q-1 0 -6 6q-2 0 -7.5 -4.5t-7.5 -4.5q-31 0 -38 10q-53 58 -53 103q0 7 7 42q1 3 20 66q6 24 24 62q20 44 62 122q2 0 10 3.5t10 3.5q4 0 7 1t4 2t2.5 3.5t2.5 3.5q8 -5 11 -5q2 0 3 1.5t3 1.5t9 -5t8 -5q18 -6 38 -8q-4 -4 3 -4q2 0 6 2.5 t7 2.5q11 0 49 -35q3 -12 21 -12q0 -12 4 -41q-16 -10 -31 -53q-11 -35 -11 -90q0 -2 3 -12t3 -13q0 -11 6 -32q7 -25 17 -25q6 0 15 10q0 4 1 8q42 38 67 84q28 53 45 104q0 6 -1 11q0 20 10 38.5t19 18.5t29 -6t25 -12q-38 -93 -38 -174q0 -77 20 -77q3 0 12 7t11 7 q0 4 1 7l14 16q0 -2 3 -3q4 17 5 23q0 2 11 10q8 8 6 14l12 9q-1 1 -5 1q2 9 8 24t6 19q0 3 -2 9l29 76q11 5 16 20q2 -1 9 1t8 2q18 0 47 -6q-2 -5 5 -5q3 0 3 6q4 -1 4 -8q0 -10 -16 -25q-28 -26 -32 -89l-4 -50q4 -1 4 -8q9 -53 32 -73q4 -2 24 -4l25 17q5 0 12 4 q36 33 63 75q0 1 1 3.5t2 5.5l2 6q16 21 32 53h9l11 -9l3 -7q3 -7 3 -10q0 -4 -7 -18q-10 -21 -12 -29q-2 -14 -19 -54q-29 -38 -39 -49q-20 -20 -29 -26q-16 -10 -50 -25q-26 -10 -34 -10q-39 14 -51 29q-22 24 -37 58q-24 -32 -67 -60zM215 235q-3 1 -11 7q8 31 4 86l-7 7 h-12q-29 -26 -66 -113t-37 -134q0 -15 4 -20h9q32 39 35 43q0 4 1 7q15 10 30 23q7 20 29 55q1 11 9 31q3 10 12 8z" />
<glyph unicode="ba" horiz-adv-x="848" d="M616 48q-12 7 -23 21l-5 18l-42 -41q-44 -38 -65 -38q-16 0 -33 11l-32 22q1 7 -5 28q-1 6 -3 15q-2 7 -2 8q0 12 20 78q-1 6 0 10q9 16 27 45q-4 4 -5 4l-38 -11q-13 -4 -19 -13q-10 -29 -41 -90l-28 -37q-23 -31 -54 -65q-23 -25 -46 -39q-19 -11 -25 -11 q-2 0 -2.5 1.5t-2.5 1.5t-15 -6.5t-14 -6.5q-3 0 -3 2q0 1 -2 1q-5 0 -10 -4l2 2q-26 -3 -57 -3q-1 0 -16.5 7.5t-19.5 7.5q-2 0 -2.5 -1.5t-2.5 -1.5l-18 13l-9 6q-1 0 -6 9.5t-8 9.5q-2 0 -5 -1l-2 -1q4 4 8 4q0 9 3 21q5 1 7 12q9 8 9 16q2 0 6 -4q6 4 6 7l-1 7 q3 3 10 8.5t10 8.5q7 2 8 5l4 8q27 29 64 48l18 16q41 23 107 51q25 9 52 22q9 5 9 38q0 63 -32 63q-16 0 -46 -21q-23 -17 -25 -43q-3 0 -5 2l-11 -6l7 -7q-4 -3 -4 -5l-3 6q-5 2 -10 -9q0 -4 7 -4q-12 -17 -33 -51q-6 -12 -18.5 -26t-18.5 -14q-3 0 -5 2.5t-4 2.5 t-3.5 -1.5t-4.5 -1.5q-11 0 -21 13l-4 13q-4 1 -11 10l-3.5 10.5t-3.5 11.5l2 20q-6 8 -6 24q0 2 2 16t2 18l4 103q3 10 10 40q-2 10 -2 22q9 35 5 39q6 4 5 17l6 4q0 29 -1 52q0 1 6 10q-3 13 1 26q30 -4 45 -1q7 -6 34 -17v-60q0 -1 -12 -10q-22 -184 -25 -193q0 -5 1 -9 v-5.5v-4t1 -2t4 -0.5q2 0 8.5 5.5t14.5 12t11 8.5q68 38 121 38q14 0 38 -15q23 -13 33 -28q13 -37 23 -61l54 10q32 7 56 20q1 1 25 34q9 13 34 34l15 4q20 10 58 10q3 0 35 -15q33 -15 36 -15q0 -14 12 -26q-2 -5 -18 -12q-17 -8 -19 -11l-4 -18q-12 -23 -13 -51l-2 -45 l-7 -50l3 -2q-3 -4 -3 -10q0 -5 6.5 -23.5t6.5 -22.5l4 -1q3 -1 6 -1q2 0 3 2.5t4 2.5t5 -4l1 -1l38 31q1 1 16 1l5 5q0 4 -5 4q0 5 2 9q0 -1 7 -7q2 2 2 11q4 1 14 0q1 6 8 18q5 5 14 7l147 152l8 -4q12 -32 12 -37q0 -21 -31 -73q-13 -23 -41 -67q-19 -35 -63 -76 q-43 -37 -67 -46q-5 -1 -22 -12t-19 -11h-33q-2 0 -4 2.5t-4 2.5q-9 0 -37 28q-11 4 -23 16q-1 5 -5 15l-1 1q-5 3 -3 8zM605 249q-12 5 -15 5q-9 0 -31 -8q-21 -8 -24 -15q-25 -39 -26 -41q-23 -50 -40 -86v-23q3 0 7 -4q-6 -5 -6 -9q0 -2 1.5 -5t1.5 -5q0 -4 -7 -8l5 -7 q18 6 29 11l44 45q34 42 45 72q5 19 9 49q0 1 1 3.5t2 5.5l2 6q3 8 2 14zM295 151q-4 2 -5.5 5t-1.5 7l-1 4q-23 -10 -78 -41q-3 -1 -19 -14q-10 -9 -14 -9q-3 0 -3 1t-3 1q-6 0 -5 -3q5 -2 1 -5q-17 -14 -29 -29q-4 0 -11 -4q2 -2 2 -4q0 -5 -8 -13l-8 -7q-3 -10 -5 -16 q1 0 6 -3q6 6 15 11l50 19q90 54 117 100zM757 120l1 1z" />
<glyph unicode="br" horiz-adv-x="786" d="M515 265l-52 -28l-53 -19q-13 -4 -19 -13q-10 -29 -41 -90l-28 -37q-23 -31 -54 -65q-23 -25 -46 -39q-19 -11 -25 -11q-2 0 -2.5 1.5t-2.5 1.5t-15 -6.5t-14 -6.5q-3 0 -3 2q0 1 -2 1q-4 0 -9 -3l1 1q-26 -3 -57 -3q-1 0 -16.5 7.5t-19.5 7.5q-2 0 -2.5 -1.5t-2.5 -1.5 l-18 13l-9 6q-1 0 -6 9.5t-8 9.5q-2 0 -5 -1l-2 -1q4 4 8 4q0 9 3 21q5 1 7 12q9 8 9 16q2 0 6 -4q6 4 6 7l-1 7q3 3 10 8.5t10 8.5q7 2 8 5l4 8q27 29 64 48l18 16q41 23 107 51q25 9 52 22q9 5 9 38q0 63 -32 63q-16 0 -46 -21q-23 -17 -25 -43q-3 0 -5 2l-11 -6l7 -7 q-4 -3 -4 -5l-3 6q-5 2 -10 -9q0 -4 7 -4q-12 -17 -33 -51q-6 -12 -18.5 -26t-18.5 -14q-3 0 -5 2.5t-4 2.5t-3.5 -1.5t-4.5 -1.5q-11 0 -21 13l-4 13q-4 1 -11 10l-3.5 10.5t-3.5 11.5l2 20q-6 8 -6 24q0 2 2 16t2 18l4 103q3 10 10 40q-2 10 -2 22q9 35 5 39q6 4 5 17l6 4 q0 29 -1 52q0 1 6 10q-3 13 1 26q30 -4 45 -1q7 -6 34 -17v-60q0 -1 -12 -10q-22 -184 -25 -193q0 -5 1 -9v-5.5v-4t1 -2t4 -0.5q2 0 8.5 5.5t14.5 12t11 8.5q68 38 121 38q14 0 38 -15q23 -13 33 -28q12 -14 23 -61q22 7 43 23q20 13 25 42q-3 17 -14 33q-10 15 -3 37 q22 16 29 14l20 -4q6 -2 11 -14q6 1 12 -1t17.5 -10t13.5 -9q11 -11 32 -30q1 -4 27 -30l30 -28q14 -17 18 -28q17 -48 17 -84q0 -22 -16 -25q0 -7 -1 -13q-8 -21 -12 -21t-5 1l-1 1q0 -5 -1 -10l-16 -28q-3 -10 -14 -38q3 -1 16 1q17 5 17 6h6q4 1 2 5l3 -1q3 -1 5 -1 q15 13 27 21q29 22 48 22q0 3 -7 3q7 7 39 34q12 11 64 84h10q7 -34 10 -34q-2 -14 -21 -47q-18 -31 -22 -34q-6 -8 -29 -33l-26 -20q0 -4 -1 -7q-16 -18 -21 -18q-2 0 -2.5 1t-2.5 1t-20 -18q-19 -18 -32 -27q-20 -12 -32 -12q-2 0 -15 1t-15 1q-7 0 -21 8q-9 4 -26 38 q-3 5 -17 30q-5 25 -5 37v1q0 1 0.5 4.5t1.5 8t1.5 11t1.5 14.5q5 5 10 14q1 5 23 41l8 23q7 5 12 13q3 16 0 23q1 1 1 4q2 4 2 3v13q-25 34 -70 42q-3 -13 -23 -30zM295 151q-4 2 -5.5 5t-1.5 7l-1 4q-23 -10 -78 -41q-3 -1 -19 -14q-10 -9 -14 -9q-3 0 -3 1t-3 1 q-6 0 -5 -3q5 -2 1 -5q-17 -14 -29 -29q-4 0 -11 -4q2 -2 2 -4q0 -5 -8 -13l-8 -7q-3 -10 -5 -16q1 0 6 -3q6 6 15 11l50 19q90 54 117 100z" />
<glyph unicode="bu" horiz-adv-x="818" d="M833 52q0 -11 -28 -57q-3 -6 -24 -27q-6 -6 -22 -6q-27 0 -62 20q-34 19 -45 47q-9 7 -14 26l-12 10q0 -12 -32 -61q-34 -52 -56 -52q-2 0 -6.5 2.5t-6.5 2.5q-3 0 -6 -1.5t-5 -1.5q-4 0 -27 17q-17 14 -24 43l-8 44q-1 2 -1 23q0 9 8 46q9 39 9 43q3 36 5 50 q21 74 21 66q0 8 -13 12q-16 0 -62 -30q-17 -11 -23 -36l-9 -36q-6 -9 -28 -48q-4 -10 -54 -66q-11 -4 -21 -10q-10 -9 -36 -25q0 -7 -1 -13q-1 -3 -29 -17q-25 -14 -38 -20q-33 -11 -58 -11q-19 0 -32 3q-2 0 -11.5 6.5t-11.5 6.5t-5 -1.5t-5 -1.5t-17 9t-19 10l2 6 q-5 8 -10 8q5 5 5 8q-2 2 -6 2q-3 0 -3 -2q0 7 -4 11l22 29q36 27 69 56q9 10 9 26q0 2 -3 20t-3 22l-6 3q0 6 -3 24q6 7 6 13q0 9 -12 15q3 41 -1 149q0 1 -2 14t-2 15v71q0 -3 1 1q1 2 2 7q-1 9 4 82q-3 7 -4 9l11 25q3 8 25 18l28 14q3 1 20 1q10 0 10 -13 q-7 -22 -13 -22q4 -2 5 -2q-10 -18 -20 -88q1 -4 1 -16q-1 0 -4 -3l3 -26q1 -15 -6 -45v-122l3 -16q2 -16 2 -23l4 -4q2 3 10 5q29 48 77 73q7 4 35 5q41 4 57 4q12 0 33 -12.5t35 -32.5q28 17 49 25q5 3 19 5l10 9q51 14 68 14q2 0 4 -2.5t4 -2.5t5 1t5 1q6 0 24 -15 q12 -12 19 -17q-1 -31 -33 -91q-30 -58 -32 -84l-11 -30q1 -3 1 -13l-9 -21q0 -2 -2 -24q-4 -4 -9 -13q-6 -20 -6 -35q0 -11 12 -22q37 28 72 81q36 56 47 103q2 7 9 14q0 7 1 13q7 22 27 46l8 3q8 2 11 2q4 0 21 -14q16 -13 18 -19q0 -1 -3 -50q-3 -63 -2 -71q4 -40 5 -60 q5 -34 24 -45q30 25 55 44q5 0 14 4q7 -7 7 -11zM325 302q0 30 -23 30q-15 0 -51 -27q-32 -26 -39 -37q-19 -31 -19 -35v-11q10 1 28 9q3 0 13 2l39 25q3 0 3 -1t3 -1t17 9l19 13q10 10 10 24zM293 200q-9 -3 -42 -22q-24 -17 -37 -18q-2 -9 -16 -18q-18 -11 -21 -14 q-11 -13 -16 -28h15l31 16q29 21 82 71q4 8 4 13z" />
<glyph unicode="ef" horiz-adv-x="624" d="M673 288q-9 -1 -37 -11q-26 -8 -28 -8q-5 0 -5 4q0 3 -4 3q-2 0 -53 -17q0 -7 3 -7q11 0 39 5l-50 -29q-22 -6 -39 -13l-32 -21q-23 -17 -23 -22t17 -37q21 -39 28 -55q2 0 -11 13q-1 -10 6 -20l8 -9q9 -23 10 -36q16 -118 16 -132q0 -4 -3 -34t-3 -42q-3 -59 -17 -89 q-6 -10 -23 -23q-18 -15 -28 -18q-8 -2 -18 -2q-25 0 -52 47q-10 18 -18 56q-9 35 -17 46l-7 39q-8 59 -8 94q-1 12 -3 37q-2 50 -2 60v49q3 25 -1 37q-144 -144 -193 -144h-19q-21 0 -52 28q-27 24 -32 36q-8 26 -8 47q0 56 30 125q30 70 76 117q14 15 47 17q23 13 55 13 q22 0 39 -9q21 -11 21 -29q0 -7 -5 -32q-4 -21 -56 -57l-45 -45q-5 0 -18 -5q-25 -18 -77 -69q-3 -3 -3 -18q0 -13 11.5 -24t21.5 -11q28 0 51 20q46 39 97 87q41 47 50 59q23 32 30 62q2 8 11 70l4 7q4 7 4 10q0 6 -1 11v10q0 5 5 18l9 22q7 21 10 56q3 25 52 127 q60 124 101 124q24 0 60 -24q37 -23 41 -30q6 -8 6 -35q0 -25 -38 -99l-52 -96q-8 -10 -36 -49q-24 -49 -76 -140q-11 -11 -23 -32q2 -2 8 -1q144 38 228 38q12 0 21 -20zM581 671q0 4 -5 9q3 14 0 18q-8 11 -15 11q-14 -5 -32 -15q-24 -13 -37 -44l-21 -51q-27 -54 -27 -69 q0 -1 1.5 -7.5t2.5 -12t0 -10.5q-1 -13 -11 -39q4 -4 9 -5q20 25 84 103q0 1 0.5 2.5t0.5 3t0.5 4t0.5 4.5q16 11 26 28q23 35 23 70zM173 342q-19 0 -20 -1q-6 -9 -17.5 -26t-14.5 -21q-28 -40 -29 -53q25 10 65 47q10 10 9 28t7 26zM454 -50q0 3 -3 12q-1 6 0 9 q-5 28 -19 68q-6 9 -31 56q-8 3 -12 5q-1 -5 -4 -14.5t-5.5 -16.5t-2.5 -9q0 -3 1 -12t3 -18.5t2 -12.5q4 -39 1 -53q7 -35 22 -87q6 -16 26 -16q3 4 12 44q10 37 10 45z" />
<glyph unicode="eh" horiz-adv-x="784" d="M533 134q-47 -91 -80 -107l-6 5q-12 -5 -15 -5q-12 0 -24 15q-19 17 -45 71q4 0 7 -3l7 16l-4 4q-5 -4 -6 -9q0 1 -0.5 3t-1 6t-0.5 7q-1 8 1 16l-7 8q-71 -79 -101 -105q-79 -68 -129 -68q-9 0 -29.5 7t-26.5 13q-45 46 -56 75q0 8 -3 26l-6 13q-6 13 -6 15q0 1 14 17 q15 17 16 22q0 12 3 34q1 2 2.5 6t4 9.5t4.5 9.5q21 74 64 123l4 13q3 10 15.5 22.5t21.5 12.5q2 0 12.5 -5.5t12.5 -5.5q23 -2 50 -7q19 -5 54 -28v-9q0 -2 -3 -4t-6.5 -4t-4.5 -3q1 -2 1 -9q-2 -9 -14 -30q-2 -3 0 -5q-6 -10 -19 -37q-2 0 -6 -3q-13 -30 -79 -89 q-22 -12 -55 -39q-3 -4 -3 -27q0 -31 15 -57l7 5q3 0 3 -1.5t3 -1.5t30 15l39 22q3 9 19 22q22 18 25 24h15q0 1 -3 5q6 6 7 11q8 8 18 10q8 14 35 44q24 26 35 42l19 21q13 13 15 28q5 66 18 195q6 17 14 73l6 53q2 7 16 15t22 8q7 0 66 -13l31 -26q25 -22 25 -32 q0 -2 -5 -20l-7 -25q-7 -10 -18 -33q0 -3 -2 -17q-8 -8 -33 -73q-9 -10 -17 -30q-1 0 -6 -3q-32 -68 -36 -94v-30q0 -19 -9 -32v-22l4 -8q2 -4 0 -12q-1 -7 -1 -13q-1 -1 1 -7l3 3q1 1 16 6l5 11q3 8 7 8q3 0 3 -2l2 -1q6 6 -4 6l16 24q3 13 7 25q24 54 62 123q14 18 34 20 q27 -7 39.5 -16.5t10.5 -21.5q-3 -23 -21 -89q-25 -103 9 -203q1 -7 12 -18q28 -6 76 30h1l2 3l1 -1q20 16 22 19l25 27q0 1 51 57q11 -4 14 -8q2 -15 -2 -24q-22 -54 -31 -71q-13 -24 -40 -54q-3 1 -5 2l-9 -3q-6 -8 -16 -18q-9 -6 -29 -13q-25 -9 -24 -9q-8 0 -15 -4l-6 4 l-5 -4q-51 -1 -81 44.5t-39 137.5zM191 308q0 9 -6 15q-11 10 -15 16q-39 -42 -62 -111q6 0 9 -3l46 40q28 25 28 43z" />
<glyph unicode="ei" horiz-adv-x="588" d="M622 446q-5 -9 -13 -12l-11 -3q-25 -12 -43 -15q-8 -1 -25 -20q-16 -17 -16 -27q-1 0 -13.5 -5.5t-14.5 -5.5q-1 0 -9 2q-6 3 -10 3q-2 0 -35 11l-13 15v8q0 30 49 46q42 14 133 14q8 0 21 -11zM637 168q0 -12 -17 -38t-17 -32l-43 -39q2 -8 0 -13l-6 5q-5 -4 -17 -21 q-8 -7 -13 -7q-3 0 -5 3l-2 2q0 2 0 -9q-23 -14 -35 -14q-1 0 -6 5l-2 -4q-1 -3 -3 -3h-22q-23 0 -49 17q-22 13 -30 32q-2 4 -9 5q-23 42 -30 42q-4 0 -24 -19q-17 -17 -26 -21q1 -1 3 -1l-48 -23q-33 -14 -34 -14l-11 1h1q-1 0 -9.5 -3t-11.5 -3q-2 0 -7 2.5t-7 2.5 t-4.5 -2.5t-4.5 -2.5t-5 2.5t-5 2.5t-3.5 -2.5t-3.5 -2.5q4 0 -5 2q-1 1 -3 1q-77 19 -102 81q-6 9 -8 13q-8 46 -8 60q0 37 46 119q29 50 59 64q3 2 5 6q23 9 49 9q2 0 8.5 -4t8.5 -4q7 0 7 5q30 -15 31 -15q3 0 4.5 1.5t3.5 1.5q18 0 35 -20l13 -18q7 -21 7 -25 q0 2 -2 -0.5t-8 -12.5l-14 -38q-3 -6 -13 -13q-3 -7 -8 -13l-10 -19q-7 -3 -8 -6q-5 -9 -59 -66l-6 -15q-2 -3 -13.5 -13.5t-11.5 -12.5q0 -5 9 -11.5t13 -6.5q2 0 12.5 4t12.5 4l5 -5l14 10l7 -5l6 12q33 5 85 63q15 13 36 36q3 15 22 52q3 6 16 13t17 7l2 -1q1 0 4.5 -1.5 t8.5 -3t12.5 -3.5t16.5 -5q13 -5 26 -18q-1 -1 -7 -11t-10 -18q-13 -25 -13 -54q0 -37 10 -61q4 -11 14 -20q7 -1 65 18q16 13 36 35q5 0 10 -5l74 77q4 -4 -4 -12q8 0 8 -6zM210 294q-2 2 -6 10q-4 6 -7 6q-9 0 -32 -14q-22 -13 -25 -18q-19 -22 -39 -65q-5 -5 -10 -5 q5 -8 0 -25q-5 -18 -10 -22l6 -13q9 7 26 25q2 -2 2 -8q3 9 17 31l24 15q31 35 54 83z" />
<glyph unicode="em" horiz-adv-x="1131" d="M1006 -34l5 -1q-6 -5 -7.5 -2t-2.5 3q-3 0 -12 -4.5t-11 -4.5q-18 0 -55 24q-35 23 -43 32q-38 49 -49 133q-1 3 1 16t2 16q0 10 -5 18q-4 -4 -19 -30l-15 -12q-4 -16 -22 -40q-24 -33 -27 -39q-2 -1 -11 -6q4 -2 6 -2q-5 -9 -23 -23q-16 -13 -23 -13q-4 0 -4 1q0 2 -4 2 q-3 0 -5 -5t-4 -5q-17 0 -37 20q-8 11 -33 40q3 7 -1 11q-10 -3 -44 -46t-45 -43h-10q-14 0 -42 16q-12 7 -26 34q-15 28 -16 43q-8 54 1 80q-3 3 -9 3q4 10 6 13q-3 2 -8 8l-20 -18q-25 -32 -94 -107q-25 -27 -82 -56q-61 -31 -96 -31q-22 0 -31 4q-90 36 -90 123 q0 59 59 145q68 96 139 96q2 0 10 -5q16 -1 46 -24q19 -13 19 -40q0 -26 -27 -45l-45 -45q-8 -8 -128 -103q-6 -5 -6 -13q0 -38 31 -38q36 0 66 13q23 10 50 30l44 34q40 37 56 51q0 1 -2 3q3 5 5 3q36 48 108 135q28 30 36 33q4 2 32 2t37.5 -9.5t9.5 -39.5q0 -4 -15 -79 q-15 -74 -15 -78q0 -3 8 -46q23 15 41 40l36 49q9 17 36 55q4 4 24 12q20 7 30 7q13 0 36 -16q2 -30 -17 -90q-1 -9 -10 -43l2 -5q1 -3 7 -3q9 0 52 49q16 18 45 67q28 49 42 65q25 28 53 28l2 -1q1 0 7 -1l12 -2q7 -11 7 -16v-77q-6 -100 1 -147q13 -32 24 -40l5 -7h4 q9 0 21 5l57 33q20 14 40 31q4 4 17 22q10 8 24 22l29 31q0 4 1 7l50 50q11 -5 11 -9q0 -7 -4 -11q0 -57 -54 -119q-5 -6 -28 -30t-43 -46q-3 1 -5 2l-9 -3q-6 -8 -16 -18q-16 -8 -22 -10q2 -1 7 -1q6 0 -4 -4q-7 -3 -24 -8zM185 282q0 10 -14 10q-30 -17 -54 -47 q-25 -31 -33 -57l2 1q1 1 3.5 2.5t5.5 1.5h4q12 7 46 38q40 37 40 51z" />
<glyph unicode="fe" horiz-adv-x="623" d="M599 33q0 -8 -1 -9q-17 -13 -44 -16l-6 -7l-5 6h-2q-7 -7 -10 -16q-16 4 -23 4q-2 0 -12.5 -2t-12.5 -2q-5 0 -16 12q-1 -1 -10 1q-24 8 -48 22q-21 17 -33 31q-60 -18 -79 -18h-23l-57 5q-4 -4 -4 -13q0 -27 16 -91l19 -98q14 -62 32 -113q6 -2 12 -8q1 -7 12 -31 q8 -21 8 -23v-14q-2 0 -18 -6t-18 -6q-8 0 -54 46q-38 37 -51 58q-9 24 -22 53l4 32q2 14 -3 17q3 9 0 18q-12 23 -23 51l-4 27q-6 21 -23 35q-11 9 -20 35q-4 12 -24 45l-5 5l-7.5 7.5l-7.5 7.5q-3 8 -12 21l-4 8q-3 6 -3 10q0 15 34 25q27 10 46 10q6 0 65 -30 q-2 36 -18 130q-2 22 -3 23t-3 1q0 1 5 6l-5 11q2 0 5 3q-6 6 -10 15q-2 11 4 14q-4 18 -9 56l-5 94h-2q1 15 -3 87v88q3 34 14 58q14 26 36 26q53 0 121 -61q69 -60 69 -97q0 -25 -66 -73h-12q-2 1 -7 12q-1 5 -1 22q0 1 2.5 5.5t4 9t1.5 6.5q0 9 -1 11q-1 6 -11 24 q-15 18 -29 18q-11 0 -24 -31q-8 -24 -13 -35q1 -2 1 -9l-6 -10q10 -25 -5 -35q5 -15 5 -16q-2 -4 -8 -21q-5 -63 -7 -156l3 -6q-2 1 -3.5 -0.5t-1.5 -4.5l3 -2q-1 -18 3 -43q-1 -5 -1 -22q1 -8 3.5 -31.5t3.5 -35.5q-1 -10 5 -34q5 -7 18 -9l21 -2l22 -5q15 0 36 8l18 8 q2 0 3 -1t4 -1q2 0 6 3t9 7.5t6 5.5h3q3 5 3 12q0 5 -3.5 26t-3.5 25q0 43 25 94q-1 10 9 23l15 18q12 23 42 48q31 25 54 25q21 0 46 -13q26 -13 24 -30q5 -23 5 -38q0 -48 -28 -117q-5 -13 -18 -29q-15 -19 -21 -30l-4 -16q-10 -5 -18 -8q0 -6 -7 -14l-6 -11q5 -14 13 -21 q45 -1 111 60q34 26 74 78q4 13 13 20q0 -6 5 -6q1 1 -3 5q7 7 7 18q9 0 17 13q0 1 1.5 5.5t2.5 7t2.5 5.5t4 4.5t5.5 1.5t8 -2h2q7 -13 7 -30q0 -10 -24 -64q0 -1 -16 -39q-7 -10 -13 -20q-8 -3 -12 -5q-4 -7 0 -7q-4 -4 -12 -1v-2q-1 -2 -1.5 -6t-0.5 -9q-5 -3 -11 -7 q-6 -3 -5 -6q-12 -17 -10 -22q-8 -2 -18 -16q-8 -11 -8 -18zM518 341l2 6q-9 10 -20 18l3 1q-9 14 -19 14q-18 0 -25 -10q-1 -2 -12 -27q-22 -78 -22 -122q0 -1 -1 -2t-1.5 -3.5t-0.5 -7t1.5 -13t4.5 -19.5q20 18 47 51q7 15 14 27q10 6 15 11q17 37 17 67q-1 0 -3 9z M193 -76q0 7 -1 16t-3 23t-3 24q-3 11 -5 11q5 5 4 8l-7 18q1 9 -4 28q-5 5 -20 10q-22 6 -24 6l-6 -8q0 -4 16 -49q18 -48 25 -73q5 -17 20 -25q0 5 3 13q1 0 5 -2zM181 -2v-1v1z" />
<glyph unicode="ge" horiz-adv-x="751" d="M429 33q-6 -3 -9 -13q-2 2 -6 2q-7 0 -10.5 -10.5t-5.5 -10.5t-2.5 1.5t-2.5 1.5q-5 0 -23 -23q-16 -22 -26 -40q-3 -8 -4 -45q-8 -130 -49 -220q5 -6 12 1q-19 -31 -48 -65q-11 -11 -29 -18l-13 -11q-22 -14 -35 -14q-10 0 -21 -1q-5 0 -9.5 -0.5t-7 -1t-3.5 -0.5 q-10 0 -13 6q-4 0 -4 -10l-6 7q-18 -8 -21 -8q-2 0 -8 5t-8 5t-6.5 -1t-6.5 -1q-3 0 -32 17l-30 18l-16 8q2 14 -22 29l4 27l9 11q0 11 4 24q9 22 21 34q8 5 21 18q46 52 128 121q102 85 131 111q3 19 3 34q0 6 -8 65q-8 50 -5 72l-4 5q-4 -1 -63 -63q-57 -60 -59 -64 q-2 0 -14.5 -8t-14.5 -8q-18 0 -27 -6q-5 11 -14 11q-7 0 -12 -8l-11 7q-15 2 -32 26q-17 25 -17 40q0 2 2 7t2 6q4 52 79 178l46 78q32 48 68 86q25 28 62 28q2 0 2.5 -1.5t2.5 -1.5q7 0 19 24q2 5 12 20l21 4q10 0 49 -11l26 -17q0 -3 1.5 -7.5t3 -12l2.5 -12.5 q-28 -13 -26 -31q-46 -108 -46 -119v-144q0 -2 6 -45q5 -39 7 -71q3 -1 5 -2q10 0 29 21q20 21 21 28q2 5 -3 17q-3 10 -3 16q1 -1 3 71q0 3 10 34t38 73q27 40 54 60q17 9 26 9q2 0 6.5 -2.5t6.5 -2.5t7.5 2.5t8.5 2.5v-1q1 0 3 -0.5t4.5 -1.5l7.5 -3t9 -4q57 -23 57 -39 q0 -2 -1.5 -8.5t-1.5 -8.5l-3 1q-3 1 -6 1q-6 0 -12 -11h12q4 0 4 -6l-8 -16q-15 -39 -49 -88q-2 -4 -50 -58q-37 -40 -37 -51v-8l9 -14q36 -57 78 -57q7 0 34 10t46 22l32 25q25 16 37 22l19 18l53 66q2 12 5 19q3 -3 9 -3l6 -28q5 -22 5 -23q0 -29 -31 -72q-5 -9 -25 -23 l-29 -21q-58 -47 -120 -56q-7 -4 -11 -4h-7q-40 0 -89 28q-4 2 -34 20q-23 12 -39 31zM264 310q0 16 -4 47q-3 35 -3 49q0 9 2 19q-20 11 -22 11q-7 0 -9 -1q-12 -5 -27 -18q-5 -11 -55 -82l-7 -19q-14 -16 -25 -32q-11 -19 -24 -53q-3 -7 3 -22q-7 -10 -12 -25 q-3 -14 -10 -29q6 0 11 5l-12 -35q-8 -22 -8 -25q0 -6 4 -6h11l46 26l13 4q5 5 31 27l6 2q5 9 25 34q18 15 20 17q11 18 35 54q11 22 11 52zM276 -100q-15 -9 -37 -30q-6 -6 -21 -15q-5 -4 -7 -11.5t-4 -9.5q-1 1 -1 4q-2 0 -3 1h-7l-5 -18q-9 4 -14 -1q0 -8 -15 -31 q-3 1 -3 5q-12 -15 -37 -40l-3 6q-5 -15 -28 -41q-24 -28 -30 -37l-12 -38l5 -2q4 -2 7 -2q13 0 78 22q-3 4 2 13q2 0 8 -1l6 -2v4q0 6 8 11l40 15q27 10 39 35q11 36 23 71q5 36 11 67q3 16 4 17q0 4 -4 8zM548 272v18h-17q-5 0 -24 -30l-11 -17q-22 -43 -22 -66q0 -5 4 -9 q49 71 70 104zM120 -439v1v-1z" />
<glyph unicode="ik" horiz-adv-x="695" d="M715 55q-3 -20 -30 -38q1 5 -1 9q-14 -18 -35 -25l-32 -14q3 -3 7 -3q-4 0 -9.5 -4t-8.5 -4q-26 -2 -69 -9l-6 5q-26 -3 -97 59q1 10 -10 28q0 -1 -2 -5q-1 1 -17 31q-3 3 -8 4l-10 -2q-20 2 -38 22l-21 27q-18 -15 -33 -38q-2 3 -4 1v-12l-28 -38l-15 -11q2 -4 0 -6 l-26 -19q-26 -16 -43 -16q-5 1 -18 0q-9 -1 -17 -1l-4 5q-21 3 -43 21q-37 32 -47 87q-8 47 -3 119q6 36 11 73q1 1 4.5 3.5t6.5 4.5q47 13 63 12q1 0 7.5 -1.5t11.5 -2.5t9 0q-2 -14 2 -14q1 1 7 1l-27 -54l-12 -85q-5 -97 41 -98q22 -1 52 22q26 21 38 40l25 31 q24 43 27 73q5 45 7 80q4 21 8 40q6 38 16 88l9 22q-1 5 0 6l47 132l-10 5q-2 0 -12 -3q-1 0 -21 -5t-34 -8q-8 2 -25 0q-65 -17 -85 -15q-3 0 -17 -5t-16 -5q-2 1 -12.5 -3t-12.5 -4q-8 1 -13 1l-16 -15q2 -5 -3 -10q-1 0 -4.5 1.5t-5.5 2.5l1 11l-9 -8l-25 11q-5 2 -17 20 q-14 20 -14 28q2 15 32 27q27 8 39 8q3 0 6 -3.5t5 -3.5q3 0 4 4.5t4 4.5q15 -2 25 -10q11 8 15 8q19 -4 21 -4q58 -4 142 7l20 5q12 4 17 4q2 -2 10 -3q2 -1 14.5 4.5t14.5 5.5t4.5 -2t5.5 -2q6 0 23 4q22 5 23 5q17 -2 50 -23q4 -7 -16 -39q-24 -36 -27 -46q-6 -6 -9 -11 q-23 -40 -40 -96q-22 -72 -27 -101q-19 -96 -20 -127q-1 -8 1 -56l6 -16q12 0 21 32l22 97l7 8l12 28q1 3 32 48q6 8 14 16q15 6 44 4q17 -1 30.5 -10t12.5 -21q0 -8 -9 -16q-7 -6 -13 -13t-11.5 -17t-7.5 -15t-8 -19t-7 -16q-14 -30 -22 -62q-11 -45 -12 -78q0 -8 2 -30 q2 -8 13 -22q12 -15 18 -18q26 -15 36 -17q2 1 9 1q-1 -3 5 -5h8q8 0 52 9q3 1 8.5 3.5t13.5 6t14 6.5l10 8q11 7 14 7q10 0 15 -4z" />
<glyph unicode="il" horiz-adv-x="574" d="M250 640q-4 -8 -26 -50q0 -1 -2 -13l-25 -28q-1 -1 -1 -14q-12 1 -32 12q-33 30 -33 42q1 3 4 9q3 2 19 10l4 5q3 5 6.5 9.5t5.5 4.5t3 -1.5t3 -1.5t8.5 7t9.5 8q15 7 38 7q6 0 18 -6zM646 141q0 -11 -3 -16q-20 -33 -43 -73q-26 -43 -51 -65q-61 -58 -70 -58q-4 0 -4 2 q0 1 -3 1q-2 0 -9.5 -5.5t-10.5 -5.5h-32l-33 12l-3 7q-2 6 -5 6t-3 -2q0 -1 -3 -1q-5 0 -12 9q-3 4 -6 7t-6 5.5t-4 3.5q-23 15 -42 48l-27 52q-19 -13 -61 -40q-10 1 -22 -6l-6 5q-2 -2 -9.5 -4t-9.5 -4q-5 2 -8 11q-3 -3 -3 -6l-3 5q-21 2 -43 27q-23 26 -30 51 q-4 1 -12 11q-25 66 -25 92l3 30q5 36 6 76q6 8 14 16q7 6 19 11q39 18 59 18q27 0 27 -26q0 -2 -16 -38t-19 -54q-6 -33 -6 -37q0 -6 5 -43q4 -36 9 -41q19 -19 36 -19q27 0 65 45q11 9 25 30q-1 20 0 60q5 21 13 81q2 33 1 38l26 117l5 5q24 68 35 102q16 40 40 55 q25 15 81 15q21 0 34 -19q11 -16 11 -32q0 -17 -26 -121q-8 -31 -24 -71q-67 -162 -121 -250q-3 -4 -3 -21l11 -73l4 -3q7 -24 26 -44q22 -25 47 -25q63 0 171 139l3 -1h2q-4 -12 3 -19q14 7 36 30zM460 531q0 2 -2.5 14.5t-2.5 14.5q-5 5 -8 10q-6 -2 -16 -9 q-10 -13 -19 -24q-14 -35 -30 -77q-8 -22 -22 -87q-5 -36 -8 -69q4 7 25 34q3 15 17 42q15 26 27 34q-8 0 -8 5q5 10 8 18q1 0 3 -3l2 -2q2 6 5 9t5 2q2 5 0 12q0 2 -0.5 4t-1.5 3v2l6 -3q20 54 20 70z" />
</font>
</defs>
</svg>
