<?xml version="1.0" encoding="utf-8"?>
<!-- Generator: Adobe Illustrator 16.0.3, SVG Export Plug-In . SVG Version: 6.00 Build 0)  -->
<!DOCTYPE svg PUBLIC "-//W3C//DTD SVG 1.0//EN" "http://www.w3.org/TR/2001/REC-SVG-20010904/DTD/svg10.dtd">
<svg version="1.0" id="Layer_1" xmlns="http://www.w3.org/2000/svg" xmlns:xlink="http://www.w3.org/1999/xlink" x="0px" y="0px"
	 width="793.46px" height="548.973px" viewBox="0 0 793.46 548.973" enable-background="new 0 0 793.46 548.973"
	 xml:space="preserve">
<g>
	<path fill-rule="evenodd" clip-rule="evenodd" d="M748.405,134.898c0-39.038,0-78.075,0-117.412c10.087,0,19.664,0,29.607,0
		c0,108.014,0,215.875,0,324.051c-8.323,0-16.573,0-25.279,0c-1.197-6.22-2.406-12.501-3.74-19.43
		c-2.428,3.441-4.29,6.553-6.606,9.277c-7.09,8.337-16.63,12.047-27.152,13.277c-46.505,5.44-84.528-33.534-83.378-73.455
		c0.829-28.803-0.001-57.649,0.207-86.474c0.297-41.141,38.096-75.083,78.903-70.739
		C726.007,115.596,738.675,122.069,748.405,134.898z M748.411,230.632c0-15.664,0.178-31.331-0.104-46.989
		c-0.089-4.925-0.722-10.059-2.289-14.698c-5.314-15.727-17.508-22.674-33.215-24.696c-26.956-3.469-52.006,15.561-50.991,43.831
		c0.997,27.792,0.191,55.648,0.254,83.476c0.008,3.31,0.115,6.706,0.834,9.915c5.574,24.868,32.48,39.562,57.181,31.699
		c14.947-4.758,29.624-17.331,28.479-39.055C747.796,259.659,748.414,245.129,748.411,230.632z"/>
	<path fill-rule="evenodd" clip-rule="evenodd" d="M495.738,255.072c-3.173,27.58,5.516,46.171,24.872,54.951
		c17.793,8.071,41.896,3.346,59.404-18.183c4.097,2.912,8.245,5.841,12.37,8.802c4.018,2.884,8.011,5.801,12.256,8.877
		c-10.979,15.375-25.084,25.502-42.739,30.903c-32.137,9.832-66.132-1.736-84.575-29.062c-7.74-11.468-11.826-24.233-11.914-38.038
		c-0.188-29.478-0.237-58.959-0.016-88.437c0.279-37.186,30.066-68.501,67.929-71.801c35.418-3.088,68.993,22.772,76.051,58.573
		c8.453,42.889-21.221,81.06-64.976,83.108c-14.128,0.661-28.307,0.236-42.461,0.305
		C499.969,255.081,497.998,255.072,495.738,255.072z M496.173,229.142c15.006,0,30.494,0.733,45.885-0.174
		c22.197-1.309,38.868-20.453,38.795-43.103c-0.068-21.528-16.469-40.082-37.18-42.065c-23.491-2.248-44.492,12.134-47.123,34.743
		C494.626,195.083,496.173,212.027,496.173,229.142z"/>
	<path fill-rule="evenodd" clip-rule="evenodd" d="M20.668,12.295c10.464,0,20.367,0,31.084,0c0,99.577,0,198.956,0,298.951
		c39.519,0,78.234,0,117.366,0c0,10.34,0,20.08,0,30.605c-1.457,0-3.045,0-4.633,0c-38.984,0.021-77.969,0.062-116.953,0.054
		c-14.41-0.003-25.941-11.053-26.811-25.596c-0.1-1.661-0.051-3.331-0.051-4.997c-0.002-97.461-0.002-194.923-0.002-292.384
		C20.668,16.808,20.668,14.687,20.668,12.295z"/>
	<path fill-rule="evenodd" clip-rule="evenodd" d="M449.702,144.925c-16.301,0-32.231,0-48.754,0c0,2.389,0,4.335,0,6.281
		c0,36.819-0.001,73.637,0.001,110.455c0.001,25.947,14.746,43.988,40.382,49.26c4.048,0.833,8.19,1.205,12.588,1.832
		c0,9.482,0,18.892,0,29.472c-6.384-0.801-12.829-1.052-19.001-2.48c-28.602-6.621-50.024-22.142-59.989-50.707
		c-2.156-6.179-3.371-13.02-3.389-19.559c-0.228-83.132-0.157-166.264-0.155-249.397c0-0.991,0.103-1.982,0.201-3.77
		c9.115,0,18.194-0.114,27.258,0.208c0.755,0.027,2.003,2.992,2.013,4.598c0.136,21.49,0.091,42.982,0.091,64.473
		c0,9.485,0,18.969,0,29.1c16.361,0,32.403,0,48.754,0C449.702,124.917,449.702,134.498,449.702,144.925z"/>
	<path fill-rule="evenodd" clip-rule="evenodd" d="M343.241,15.47c0,10.931,0,20.355,0,29.311
		c-7.394,1.712-14.72,2.646-21.479,5.126c-16.388,6.016-28.309,16.621-31.936,34.614c-0.327,1.622-0.488,3.305-0.49,4.959
		c-0.032,24.989-0.026,49.978-0.017,74.966c0,0.825,0.126,1.649,0.245,3.102c15.914,0,31.811,0,48.042,0c0,10.038,0,19.442,0,29.372
		c-15.947,0-31.695,0-47.985,0c0,48.385,0,96.255,0,144.527c-10.093,0-19.649,0-29.926,0c0-2.047,0-4.154,0-6.26
		c0-79.964,0.508-159.933-0.212-239.89c-0.367-40.745,27.01-66.625,58.131-75.206C325.7,17.864,334.179,17.062,343.241,15.47z"/>
	<path fill-rule="evenodd" clip-rule="evenodd" d="M200.483,116.048c9.684,0,18.956,0,28.604,0c0,75.151,0,150.135,0,225.462
		c-9.402,0-18.799,0-28.604,0C200.483,266.507,200.483,191.531,200.483,116.048z"/>
	<path fill-rule="evenodd" clip-rule="evenodd" d="M778.22,424.156c0,4.585,0.001,8.886,0,13.186
		c0,25.492,0.073,50.983-0.029,76.475c-0.063,15.701-12.383,27.877-27.228,26.937c-7.361-0.466-13.642-3.848-20.021-8.49
		c2.398-2.799,4.605-5.372,6.708-7.825c3.509,1.652,6.541,3.461,9.813,4.55c9.623,3.204,19.354-3.487,19.841-13.608
		c0.248-5.144,0.044-10.309,0.044-16.478c-6.476,7.521-14.066,8.964-22.437,6.454c-8.056-2.415-14.086-7.438-17.426-15.281
		c-0.965-2.266-1.897-4.773-1.915-7.178c-0.154-19.463-0.087-38.927-0.087-58.734c3.511,0,6.759,0,10.751,0c0,1.67,0,3.43,0,5.189
		c0.001,16.494-0.03,32.988,0.012,49.482c0.033,12.9,11.691,20.445,23.584,15.316c5.153-2.223,7.582-6.12,7.562-11.763
		c-0.063-17.493-0.02-34.988-0.019-52.482c0.001-1.807,0-3.614,0-5.749C770.976,424.156,774.224,424.156,778.22,424.156z"/>
	<path fill-rule="evenodd" clip-rule="evenodd" d="M250.589,429.255c0-13.513,0-27.072,0-40.972c3.704,0,6.93,0,10.516,0
		c0,38.902,0,77.791,0,117.088c-2.607,0-5.34,0-8.555,0c-0.478-1.641-1.053-3.612-1.739-5.968
		c-7.265,9.095-16.379,9.22-25.762,5.252c-10.364-4.384-16.295-12.483-16.563-23.97c-0.248-10.653-0.179-21.318-0.022-31.974
		c0.241-16.395,16.802-29.326,31.894-24.789C243.738,424.939,246.743,427.207,250.589,429.255z M250.661,465.521
		c-0.007,0-0.014,0-0.021,0c0-5.817,0.134-11.639-0.031-17.45c-0.251-8.812-5.666-13.985-14.611-14.231
		c-8.765-0.241-16.386,5.772-16.612,13.816c-0.321,11.459-0.331,22.94,0.006,34.398c0.238,8.1,7.82,14.22,16.448,14.025
		c8.969-0.202,14.695-5.81,14.81-14.604C250.717,476.158,250.661,470.839,250.661,465.521z"/>
	<path fill-rule="evenodd" clip-rule="evenodd" d="M94.769,423.886c2.897,0,5.52,0,8.368,0c0.542,2.184,1.052,4.239,1.639,6.602
		c2.255-1.814,4.215-3.853,6.568-5.206c12.642-7.273,30.789,1.683,34.866,17.158c0.588,2.232,1.007,4.583,1.019,6.882
		c0.083,17.824,0.05,35.648,0.042,53.473c0,0.805-0.107,1.608-0.183,2.687c-3.462,0-6.712,0-10.644,0c0-1.762,0-3.526,0-5.291
		c-0.003-16.991,0.089-33.983-0.051-50.974c-0.066-8.017-6.033-14.56-13.588-15.472c-7.768-0.939-14.787,3.45-16.914,10.911
		c-0.669,2.347-0.684,4.931-0.692,7.407c-0.054,17.639-0.029,35.278-0.029,53.315c-3.522,0-6.757,0-10.4,0
		C94.769,478.527,94.769,451.487,94.769,423.886z"/>
	<path fill-rule="evenodd" clip-rule="evenodd" d="M362.105,423.999c3.77,0,6.718,0,9.924,0c0.181,0.896,0.472,1.667,0.473,2.438
		c0.018,18.309,0.208,36.62-0.07,54.925c-0.201,13.274-9.317,23.059-22.609,25.12c-11.548,1.791-23.538-5.785-27.545-17.623
		c-0.894-2.64-1.5-5.517-1.521-8.289c-0.137-17.976-0.08-35.952-0.063-53.929c0.001-0.792,0.232-1.584,0.388-2.583
		c3.308,0,6.42,0,10.348,0c0,1.76,0,3.508,0,5.256c0.001,16.645-0.108,33.291,0.039,49.935
		c0.116,13.103,12.561,20.795,23.086,14.396c5.716-3.476,7.572-8.937,7.558-15.327c-0.035-16.146-0.01-32.291-0.008-48.436
		C362.105,428.083,362.105,426.285,362.105,423.999z"/>
	<path fill-rule="evenodd" clip-rule="evenodd" d="M431.786,491.739c3.359-1.77,6.126-3.226,9.134-4.81
		c4.809,6.128,10.751,9.891,18.884,9.051c7.792-0.806,13.475-6.418,13.501-13.49c0.026-6.978-5.212-11.999-13.353-12.813
		c-2.319-0.231-4.64-0.45-6.951-0.738c-8.247-1.025-15.402-4.126-18.314-12.493c-3.162-9.088-1.828-17.874,4.707-25.251
		c11.847-13.373,34.068-10.712,43.116,5.304c-2.687,1.825-5.399,3.668-9.124,6.198c-1.571-1.979-2.842-4.236-4.699-5.791
		c-4.723-3.954-10.089-4.929-15.817-2.188c-5.373,2.571-8.574,6.635-8.817,12.818c-0.2,5.068,2.089,8.4,6.864,9.66
		c3.351,0.883,6.864,1.228,10.329,1.582c13.533,1.381,22.569,10.535,22.863,23.282c0.298,12.927-8.545,22.906-22.103,24.561
		C449.138,508.191,439.457,502.866,431.786,491.739z"/>
	<path fill-rule="evenodd" clip-rule="evenodd" d="M573.755,495.413c0,3.626,0,6.74,0,9.825
		c-15.188,1.792-29.582-11.181-29.668-26.908c-0.155-28.328-0.052-56.657-0.04-84.985c0.001-1.305,0.165-2.608,0.275-4.246
		c3.249,0,6.321,0,10.065,0c0,11.228,0,22.448,0,34.292c6.222,0,11.798,0,17.647,0c0,3.725,0,6.814,0,10.721
		c-4.63,0-9.22,0.099-13.802-0.037c-2.768-0.081-3.819,0.916-3.797,3.761c0.106,13.497-0.096,26.998,0.112,40.492
		c0.124,8.029,5.867,14.201,14.454,16.254C570.438,494.925,571.916,495.097,573.755,495.413z"/>
	<path fill-rule="evenodd" clip-rule="evenodd" d="M214.559,59.803c11.524-0.028,20.579,8.629,20.691,19.784
		c0.109,10.735-9.458,20.035-20.621,20.045c-10.701,0.009-19.296-8.907-19.255-19.973C195.417,68.263,203.565,59.829,214.559,59.803
		z"/>
	<path fill-rule="evenodd" clip-rule="evenodd" d="M644.093,505.587c-3.921,0-7.042,0-10.484,0c0-27.062,0-53.936,0.006-80.81
		c7.755-1.965,8.693-1.496,10.588,5.909c7.603-9.484,16.469-9.25,26.508-3.893c-1.142,3.085-2.207,5.964-3.383,9.143
		c-2.031-0.617-3.712-1.199-5.43-1.637c-9.954-2.539-17.74,3.341-17.783,13.568c-0.072,17.306-0.021,34.612-0.021,51.919
		C644.093,501.581,644.093,503.375,644.093,505.587z"/>
	<path fill-rule="evenodd" clip-rule="evenodd" d="M32.143,505.603c-3.37,0-6.319,0-9.676,0c0-27.156,0-54.14,0-81.455
		c3.143,0,6.215,0,9.676,0C32.143,451.158,32.143,478.153,32.143,505.603z"/>
	<path fill-rule="evenodd" clip-rule="evenodd" d="M27.426,417.741c-3.722,0.085-6.905-3.029-7.039-6.887
		c-0.146-4.213,2.867-7.391,6.972-7.352c3.96,0.037,6.98,2.913,7.128,6.789C34.639,414.206,31.372,417.652,27.426,417.741z"/>
</g>
</svg>
